<svg xmlns="http://www.w3.org/2000/svg" viewBox="0 0 148.99 67"><defs><style>.cls-1{fill:#c69c6d;}.cls-2{fill:#a67c52;}</style></defs><title>Asset 42</title><g id="Layer_2" data-name="Layer 2"><g id="Layer_1-2" data-name="Layer 1"><path class="cls-1" d="M54,54.18c.11.23.21.45.33.67a18.82,18.82,0,0,1-1.47,1.49Q53.47,55.3,54,54.18Z"/><path class="cls-1" d="M107,58.18l-.18.17.14-.24Z"/><path class="cls-1" d="M148.65,30H137.57A34.87,34.87,0,0,1,139,40c0,13.81-7.61,25-17,25-5.22,0-9.88-3.45-13-8.89C105.87,61.55,101.21,65,96,65c-5.55,0-10.47-3.91-13.57-10-3.1,4.89-7.52,8-12.43,8-5.81,0-10.94-4.28-14-10.82C52.93,58.72,47.8,63,42,63,32.6,63,25,51.81,25,38a35.59,35.59,0,0,1,.89-8H2C2.52,13.39,29.18,0,62,0c23.45,0,43.76,6.84,53.62,16.82.08.08.17.16.25.25,0-.15.07-.3.11-.45C118.31,6.93,124.6,0,132,0c9.39,0,17,11.19,17,25A37.15,37.15,0,0,1,148.65,30Z"/><path class="cls-2" d="M44,60a13.21,13.21,0,0,0,8.86-3.66C49.74,61.65,45.13,65,40,65,30.6,65,23,53.81,23,40a35.59,35.59,0,0,1,.89-8H0c.15-4.84,2.52-9.4,6.62-13.45A17.24,17.24,0,0,0,4,27H27.88A35.59,35.59,0,0,0,27,35C27,48.81,34.6,60,44,60Z"/><path class="cls-2" d="M98,62a13.2,13.2,0,0,0,8.86-3.65C103.73,63.65,99.13,67,94,67c-5.55,0-10.47-3.91-13.57-10-3.1,4.89-7.52,8-12.43,8-5.61,0-10.58-4-13.67-10.15A23.36,23.36,0,0,0,58,49.18C61.05,55.72,66.18,60,72,60c4.91,0,9.33-3.06,12.43-8C87.52,58.09,92.44,62,98,62Z"/><path class="cls-2" d="M132.87,58.32C129.75,63.64,125.14,67,120,67s-9.84-3.42-13-8.82a21.23,21.23,0,0,0,4-5.07c3.12,5.44,7.78,8.89,13,8.89A13.21,13.21,0,0,0,132.87,58.32Z"/><path class="cls-1" d="M118,13.62c0,.15-.08.3-.11.45-.08-.09-.17-.17-.25-.25Z"/><path class="cls-1" d="M118,13.62c0,.15-.08.3-.11.45-.08-.09-.17-.17-.25-.25Z"/><path class="cls-1" d="M4,27c0,.17,0,.33,0,.5V27Z"/></g></g></svg>