<?xml version="1.0" encoding="utf-8"?>
<!-- Generator: Adobe Illustrator 26.0.1, SVG Export Plug-In . SVG Version: 6.00 Build 0)  -->
<svg version="1.1" id="Layer_1" xmlns="http://www.w3.org/2000/svg" xmlns:xlink="http://www.w3.org/1999/xlink" x="0px" y="0px"
	 viewBox="0 0 691.2 309.5" style="enable-background:new 0 0 691.2 309.5;" xml:space="preserve">
<style type="text/css">
	.st0{fill:url(#SVGID_1_);}
	.st1{fill:url(#SVGID_00000003088162111769649490000015125029729328958345_);}
	.st2{fill:#595959;}
	.st3{fill:#282828;}
	.st4{fill:#444444;}
	.st5{opacity:0.8;}
	.st6{fill:#414042;}
	.st7{fill:url(#SVGID_00000155829969766225951380000003559266273878244741_);}
	.st8{fill:url(#SVGID_00000147205023534743662090000012807585395091634306_);}
	.st9{fill:url(#SVGID_00000098188799837262034990000000074904113250279077_);}
	.st10{fill:url(#SVGID_00000142177544280906209020000016411560512187172512_);}
	.st11{fill:url(#SVGID_00000057841755296284881620000015080918293773798041_);}
	.st12{fill:url(#SVGID_00000018215249931895358420000004391409995089572797_);}
	.st13{fill:url(#SVGID_00000081613276334314585890000004539674215771503495_);}
	.st14{fill:url(#SVGID_00000037675011518204219310000008668360412041056655_);}
	.st15{fill:url(#SVGID_00000041257452063231194750000018115351058843647129_);}
	.st16{fill:url(#SVGID_00000083782947111192056130000016081997818870447770_);}
	.st17{fill:url(#SVGID_00000181784632587900863960000003837653768227685520_);}
	.st18{fill:url(#SVGID_00000096766369841754554930000014745257603121930885_);}
	.st19{fill:url(#SVGID_00000177456518219905095700000009132547508055257531_);}
	.st20{fill:url(#SVGID_00000106116821661534479410000017859736381286741934_);}
	.st21{fill:url(#SVGID_00000062188902670714450190000000990098911735143062_);}
	.st22{fill:url(#SVGID_00000177470772453267953950000012045845749674524073_);}
	.st23{fill:#231F20;}
</style>
<g>
	<g id="Layer_2_00000076591647339554805410000015064209967276599226_">
		<g id="Layer_1-2">
			<g>
				<path d="M284.1,138.5L284.1,138.5c0-24.5,13.1-47.1,34.2-59.3l0,0c21.2-12.2,47.3-12.2,68.5,0l0,0C408,91.5,421,114.1,421,138.5
					l0,0c0,24.5-13.1,47.1-34.2,59.3l0,0c-21.2,12.2-47.3,12.2-68.5,0l0,0C297.1,185.6,284.1,163,284.1,138.5z"/>
			</g>
			
				<linearGradient id="SVGID_1_" gradientUnits="userSpaceOnUse" x1="427.9146" y1="240.7777" x2="260.0546" y2="67.7377" gradientTransform="matrix(1 0 0 -1 0 312)">
				<stop  offset="0" style="stop-color:#FFFFFF"/>
				<stop  offset="1" style="stop-color:#E7E6E6"/>
			</linearGradient>
			<path class="st0" d="M222.4,158.2C222.4,91.3,276.6,37,343.5,37c66.9,0,121.2,54.2,121.2,121.1c0,66.9-54.2,121.2-121.1,121.2
				c0,0,0,0,0,0C276.7,279.3,222.5,225.1,222.4,158.2z M229.1,158.2c0,63.2,51.2,114.4,114.4,114.5c63.2,0,114.4-51.2,114.4-114.4
				S406.8,43.8,343.6,43.8c0,0,0,0,0,0C280.4,43.8,229.2,95,229.1,158.2L229.1,158.2z"/>
			
				<linearGradient id="SVGID_00000067230326476860765270000014389171181514031014_" gradientUnits="userSpaceOnUse" x1="260.095" y1="70.345" x2="426.005" y2="236.255" gradientTransform="matrix(1 0 0 -1 0 312)">
				<stop  offset="0" style="stop-color:#FFFFFF"/>
				<stop  offset="0.58" style="stop-color:#FCFCFC"/>
				<stop  offset="0.92" style="stop-color:#F4F4F4"/>
				<stop  offset="1" style="stop-color:#F1F1F1"/>
			</linearGradient>
			<circle style="fill:url(#SVGID_00000067230326476860765270000014389171181514031014_);" cx="343.6" cy="158.2" r="117.8"/>
			<path class="st2" d="M424,74.6c-20.9-20.1-48.6-31.5-77.5-32.1V57c25.1,0.6,49.1,10.5,67.2,27.9L424,74.6z"/>
			<path class="st3" d="M270.6,88.4l-10.3-10.3c-20.1,20.9-31.5,48.6-32.1,77.5h14.5C243.3,130.5,253.3,106.6,270.6,88.4z"/>
			<path class="st4" d="M242.7,160.7h-14.5c0.6,29,12.1,56.6,32.1,77.5l10.3-10.2C253.3,209.8,243.3,185.8,242.7,160.7z"/>
			<path class="st4" d="M445.2,155.6h14.5c-0.6-29-12.1-56.6-32.1-77.5l-10.3,10.3C434.7,106.6,444.6,130.5,445.2,155.6z"/>
			<path class="st2" d="M263.9,241.8c20.9,20.1,48.6,31.6,77.5,32.2v-14.6c-25.1-0.6-49.1-10.5-67.2-27.9L263.9,241.8z"/>
			<path class="st3" d="M417.3,228l10.3,10.3c20.1-20.9,31.5-48.6,32.1-77.5h-14.5C444.6,185.9,434.7,209.8,417.3,228z"/>
			<path d="M346.5,259.4V274c29-0.6,56.6-12.1,77.5-32.2l-10.3-10.3C395.6,248.9,371.6,258.8,346.5,259.4z"/>
			<path d="M274.2,84.8c18.2-17.3,42.2-27.2,67.2-27.8V42.4c-29,0.6-56.6,12.1-77.5,32.1L274.2,84.8z"/>
			<g class="st5">
				<path class="st6" d="M643.3,142.2H525.9c-8.6,0-15.5-6.9-15.5-15.5l0,0c0-8.6,6.9-15.5,15.5-15.5h117.5
					c8.6,0,15.5,6.9,15.5,15.5l0,0C658.8,135.3,651.9,142.2,643.3,142.2C643.4,142.2,643.4,142.2,643.3,142.2z"/>
			</g>
			
				<linearGradient id="SVGID_00000174565108344274575830000009781375562335570083_" gradientUnits="userSpaceOnUse" x1="592.3" y1="217.01" x2="592.3" y2="-172.3" gradientTransform="matrix(1 0 0 -1 0 312)">
				<stop  offset="0" style="stop-color:#F7D06D"/>
				<stop  offset="9.000000e-02" style="stop-color:#F6B453"/>
				<stop  offset="0.18" style="stop-color:#F4825B"/>
				<stop  offset="0.27" style="stop-color:#EB6559"/>
				<stop  offset="0.36" style="stop-color:#CE4E6E"/>
				<stop  offset="0.45" style="stop-color:#9F6BAF"/>
				<stop  offset="0.54" style="stop-color:#7765AA"/>
				<stop  offset="0.63" style="stop-color:#7087BD"/>
				<stop  offset="0.72" style="stop-color:#56B0D8"/>
				<stop  offset="0.81" style="stop-color:#8EC474"/>
				<stop  offset="0.9" style="stop-color:#DAE56D"/>
				<stop  offset="1" style="stop-color:#F8F068"/>
			</linearGradient>
			<path style="fill:url(#SVGID_00000174565108344274575830000009781375562335570083_);" d="M655.6,148.2H529
				c-18.6,0-33.7-15.1-33.7-33.7c0,0,0,0,0,0l0,0c0-18.6,15.1-33.7,33.7-33.7l0,0h126.6c18.6,0,33.7,15.1,33.7,33.7c0,0,0,0,0,0l0,0
				C689.3,133.1,674.2,148.2,655.6,148.2z"/>
			
				<linearGradient id="SVGID_00000101087753140967752970000001241606998651949960_" gradientUnits="userSpaceOnUse" x1="493.51" y1="197.475" x2="691.15" y2="197.475" gradientTransform="matrix(1 0 0 -1 0 312)">
				<stop  offset="1.000000e-02" style="stop-color:#D1D3D4"/>
				<stop  offset="8.000000e-02" style="stop-color:#E6E7E8"/>
				<stop  offset="0.88" style="stop-color:#F1F2F2"/>
				<stop  offset="0.96" style="stop-color:#F8F9F9"/>
				<stop  offset="1" style="stop-color:#FFFFFF"/>
			</linearGradient>
			<path style="fill:url(#SVGID_00000101087753140967752970000001241606998651949960_);" d="M529,150c-19.6-0.8-34.8-17.4-34-37
				c0.8-18.5,15.6-33.3,34-34h126.6c19.6,0.3,35.3,16.5,34.9,36.1c-0.3,19.2-15.8,34.6-34.9,34.9L529,150z"/>
			<path class="st4" d="M655.6,148.2H529c-18.6,0-33.7-15.1-33.7-33.7c0,0,0,0,0,0l0,0c0-18.6,15.1-33.7,33.7-33.7l0,0h126.6
				c18.6,0,33.7,15.1,33.7,33.7c0,0,0,0,0,0l0,0C689.3,133.1,674.2,148.2,655.6,148.2z"/>
			<g class="st5">
				<path class="st6" d="M643.3,222.6H525.9c-8.6,0-15.5-6.9-15.5-15.5l0,0c0-8.6,6.9-15.5,15.5-15.5h117.5
					c8.6,0,15.5,6.9,15.5,15.5l0,0l0,0C658.8,215.7,651.9,222.6,643.3,222.6C643.4,222.6,643.4,222.6,643.3,222.6z"/>
			</g>
			
				<linearGradient id="SVGID_00000013895432113782528640000015143808085194234016_" gradientUnits="userSpaceOnUse" x1="592.3" y1="136.59" x2="592.3" y2="-252.72" gradientTransform="matrix(1 0 0 -1 0 312)">
				<stop  offset="0" style="stop-color:#F7D06D"/>
				<stop  offset="9.000000e-02" style="stop-color:#F6B453"/>
				<stop  offset="0.18" style="stop-color:#F4825B"/>
				<stop  offset="0.27" style="stop-color:#EB6559"/>
				<stop  offset="0.36" style="stop-color:#CE4E6E"/>
				<stop  offset="0.45" style="stop-color:#9F6BAF"/>
				<stop  offset="0.54" style="stop-color:#7765AA"/>
				<stop  offset="0.63" style="stop-color:#7087BD"/>
				<stop  offset="0.72" style="stop-color:#56B0D8"/>
				<stop  offset="0.81" style="stop-color:#8EC474"/>
				<stop  offset="0.9" style="stop-color:#DAE56D"/>
				<stop  offset="1" style="stop-color:#F8F068"/>
			</linearGradient>
			<path style="fill:url(#SVGID_00000013895432113782528640000015143808085194234016_);" d="M655.6,228.6H529
				c-18.6,0-33.7-15.1-33.7-33.7c0,0,0,0,0,0l0,0c0-18.6,15.1-33.7,33.7-33.7l0,0h126.6c18.6,0,33.7,15.1,33.7,33.7l0,0l0,0
				C689.3,213.5,674.2,228.6,655.6,228.6z"/>
			
				<linearGradient id="SVGID_00000166651118967682870900000006484605502649309103_" gradientUnits="userSpaceOnUse" x1="493.51" y1="117.08" x2="691.15" y2="117.08" gradientTransform="matrix(1 0 0 -1 0 312)">
				<stop  offset="1.000000e-02" style="stop-color:#D1D3D4"/>
				<stop  offset="8.000000e-02" style="stop-color:#E6E7E8"/>
				<stop  offset="0.88" style="stop-color:#F1F2F2"/>
				<stop  offset="0.96" style="stop-color:#F8F9F9"/>
				<stop  offset="1" style="stop-color:#FFFFFF"/>
			</linearGradient>
			<path style="fill:url(#SVGID_00000166651118967682870900000006484605502649309103_);" d="M529,230.4c-19.6-0.8-34.8-17.4-34-37
				c0.8-18.5,15.6-33.3,34-34h126.6c19.6,0.8,34.8,17.4,34,37c-0.8,18.5-15.6,33.3-34,34H529z"/>
			<path class="st3" d="M655.6,228.6H529c-18.6,0-33.7-15.1-33.7-33.7c0,0,0,0,0,0l0,0c0-18.6,15.1-33.7,33.7-33.7l0,0h126.6
				c18.6,0,33.7,15.1,33.7,33.7l0,0l0,0C689.3,213.5,674.2,228.6,655.6,228.6z"/>
			<g class="st5">
				<path class="st6" d="M32.2,142.2h117.4c8.6,0,15.5-6.9,15.5-15.5l0,0l0,0c0-8.6-6.9-15.5-15.5-15.5H32.2
					c-8.6,0-15.5,6.9-15.5,15.5l0,0C16.7,135.2,23.7,142.2,32.2,142.2L32.2,142.2z"/>
			</g>
			
				<linearGradient id="SVGID_00000090291409388035872140000003894713733160053900_" gradientUnits="userSpaceOnUse" x1="-632.525" y1="217.06" x2="-632.525" y2="-172.26" gradientTransform="matrix(-1 0 0 -1 -533.7 312)">
				<stop  offset="0" style="stop-color:#F7D06D"/>
				<stop  offset="9.000000e-02" style="stop-color:#F6B453"/>
				<stop  offset="0.18" style="stop-color:#F4825B"/>
				<stop  offset="0.27" style="stop-color:#EB6559"/>
				<stop  offset="0.36" style="stop-color:#CE4E6E"/>
				<stop  offset="0.45" style="stop-color:#9F6BAF"/>
				<stop  offset="0.54" style="stop-color:#7765AA"/>
				<stop  offset="0.63" style="stop-color:#7087BD"/>
				<stop  offset="0.72" style="stop-color:#56B0D8"/>
				<stop  offset="0.81" style="stop-color:#8EC474"/>
				<stop  offset="0.9" style="stop-color:#DAE56D"/>
				<stop  offset="1" style="stop-color:#F8F068"/>
			</linearGradient>
			<path style="fill:url(#SVGID_00000090291409388035872140000003894713733160053900_);" d="M35.5,148.1h126.6
				c18.6,0,33.7-15.1,33.7-33.7l0,0c0-18.6-15.1-33.7-33.7-33.7H35.5c-18.6,0-33.7,15.1-33.7,33.7l0,0
				C1.8,133,16.9,148.1,35.5,148.1z"/>
			
				<linearGradient id="SVGID_00000043453421404829565940000006060489130554888068_" gradientUnits="userSpaceOnUse" x1="-731.3432" y1="197.53" x2="-533.6932" y2="197.53" gradientTransform="matrix(-1 0 0 -1 -533.7 312)">
				<stop  offset="0" style="stop-color:#FFFFFF"/>
				<stop  offset="4.000000e-02" style="stop-color:#F8F9F9"/>
				<stop  offset="0.12" style="stop-color:#F1F2F2"/>
				<stop  offset="0.92" style="stop-color:#E6E7E8"/>
				<stop  offset="0.99" style="stop-color:#D1D3D4"/>
			</linearGradient>
			<path style="fill:url(#SVGID_00000043453421404829565940000006060489130554888068_);" d="M162.1,150c19.6,0,35.5-15.9,35.5-35.5
				c0-19.6-15.9-35.5-35.5-35.5H35.5C15.9,78.9,0,94.8,0,114.5S15.9,150,35.5,150c0,0,0,0,0,0H162.1z"/>
			<path class="st3" d="M35.5,148.1h126.6c18.6,0,33.7-15.1,33.7-33.7l0,0c0-18.6-15.1-33.7-33.7-33.7H35.5
				c-18.6,0-33.7,15.1-33.7,33.7l0,0C1.8,133,16.9,148.1,35.5,148.1z"/>
			<g class="st5">
				<path class="st6" d="M32.2,63.4h117.4c8.6,0,15.5-6.9,15.5-15.5l0,0c0-8.6-6.9-15.5-15.5-15.5l0,0H32.2
					c-8.6,0-15.5,6.9-15.5,15.5l0,0l0,0C16.7,56.5,23.7,63.4,32.2,63.4z"/>
			</g>
			
				<linearGradient id="SVGID_00000114785146721722325130000001623585092547266947_" gradientUnits="userSpaceOnUse" x1="-632.525" y1="295.83" x2="-632.525" y2="-93.49" gradientTransform="matrix(-1 0 0 -1 -533.7 312)">
				<stop  offset="0" style="stop-color:#F7D06D"/>
				<stop  offset="9.000000e-02" style="stop-color:#F6B453"/>
				<stop  offset="0.18" style="stop-color:#F4825B"/>
				<stop  offset="0.27" style="stop-color:#EB6559"/>
				<stop  offset="0.36" style="stop-color:#CE4E6E"/>
				<stop  offset="0.45" style="stop-color:#9F6BAF"/>
				<stop  offset="0.54" style="stop-color:#7765AA"/>
				<stop  offset="0.63" style="stop-color:#7087BD"/>
				<stop  offset="0.72" style="stop-color:#56B0D8"/>
				<stop  offset="0.81" style="stop-color:#8EC474"/>
				<stop  offset="0.9" style="stop-color:#DAE56D"/>
				<stop  offset="1" style="stop-color:#F8F068"/>
			</linearGradient>
			<path style="fill:url(#SVGID_00000114785146721722325130000001623585092547266947_);" d="M35.5,69.4h126.6
				c18.6,0,33.7-15.1,33.7-33.7l0,0c0-18.6-15.1-33.7-33.7-33.7H35.5C16.9,2,1.8,17.1,1.8,35.7l0,0C1.9,54.3,16.9,69.4,35.5,69.4z"
				/>
			
				<linearGradient id="SVGID_00000070819281802073224040000011191328343125841558_" gradientUnits="userSpaceOnUse" x1="-731.34" y1="276.285" x2="-533.7" y2="276.285" gradientTransform="matrix(-1 0 0 -1 -533.7 312)">
				<stop  offset="0" style="stop-color:#FFFFFF"/>
				<stop  offset="4.000000e-02" style="stop-color:#F8F9F9"/>
				<stop  offset="0.12" style="stop-color:#F1F2F2"/>
				<stop  offset="0.92" style="stop-color:#E6E7E8"/>
				<stop  offset="0.99" style="stop-color:#D1D3D4"/>
			</linearGradient>
			<path style="fill:url(#SVGID_00000070819281802073224040000011191328343125841558_);" d="M162.1,71.2c19.6-0.8,34.8-17.4,34-37
				c-0.8-18.5-15.6-33.3-34-34H35.5C15.9-0.1-0.3,15.5-0.6,35.1s15.3,35.8,34.9,36.1c0.4,0,0.8,0,1.2,0L162.1,71.2z"/>
			<path d="M35.5,69.4h126.6c18.6,0,33.7-15.1,33.7-33.7l0,0c0-18.6-15.1-33.7-33.7-33.7H35.5C16.9,2,1.8,17.1,1.8,35.7l0,0
				C1.9,54.3,16.9,69.4,35.5,69.4z"/>
			<g class="st5">
				<path class="st6" d="M32.2,222.1h117.4c8.6,0,15.5-6.9,15.5-15.5c0,0,0,0,0,0l0,0c0-8.6-6.9-15.5-15.5-15.5H32.2
					c-8.6,0-15.5,6.9-15.5,15.5l0,0C16.7,215.2,23.7,222.1,32.2,222.1C32.2,222.1,32.2,222.1,32.2,222.1z"/>
			</g>
			
				<linearGradient id="SVGID_00000174576853323475514300000009392469451149768613_" gradientUnits="userSpaceOnUse" x1="-632.525" y1="137.08" x2="-632.525" y2="-252.23" gradientTransform="matrix(-1 0 0 -1 -533.7 312)">
				<stop  offset="0" style="stop-color:#F7D06D"/>
				<stop  offset="9.000000e-02" style="stop-color:#F6B453"/>
				<stop  offset="0.18" style="stop-color:#F4825B"/>
				<stop  offset="0.27" style="stop-color:#EB6559"/>
				<stop  offset="0.36" style="stop-color:#CE4E6E"/>
				<stop  offset="0.45" style="stop-color:#9F6BAF"/>
				<stop  offset="0.54" style="stop-color:#7765AA"/>
				<stop  offset="0.63" style="stop-color:#7087BD"/>
				<stop  offset="0.72" style="stop-color:#56B0D8"/>
				<stop  offset="0.81" style="stop-color:#8EC474"/>
				<stop  offset="0.9" style="stop-color:#DAE56D"/>
				<stop  offset="1" style="stop-color:#F8F068"/>
			</linearGradient>
			<path style="fill:url(#SVGID_00000174576853323475514300000009392469451149768613_);" d="M35.5,228.1h126.6
				c18.6,0,33.7-15.1,33.7-33.7l0,0c0-18.6-15.1-33.7-33.7-33.7c0,0,0,0,0,0H35.5c-18.6,0-33.7,15.1-33.7,33.7c0,0,0,0,0,0l0,0
				C1.8,213,16.9,228.1,35.5,228.1C35.5,228.1,35.5,228.1,35.5,228.1z"/>
			
				<linearGradient id="SVGID_00000081649527094429374560000008507106333849376919_" gradientUnits="userSpaceOnUse" x1="-731.34" y1="117.5951" x2="-533.6898" y2="117.5951" gradientTransform="matrix(-1 0 0 -1 -533.7 312)">
				<stop  offset="0" style="stop-color:#FFFFFF"/>
				<stop  offset="4.000000e-02" style="stop-color:#F8F9F9"/>
				<stop  offset="0.12" style="stop-color:#F1F2F2"/>
				<stop  offset="0.92" style="stop-color:#E6E7E8"/>
				<stop  offset="0.99" style="stop-color:#D1D3D4"/>
			</linearGradient>
			<path style="fill:url(#SVGID_00000081649527094429374560000008507106333849376919_);" d="M162.1,229.9
				c19.6-0.3,35.3-16.5,34.9-36.1c-0.3-19.2-15.8-34.6-34.9-34.9H35.5c-19.6-0.3-35.8,15.3-36.1,34.9s15.3,35.8,34.9,36.1
				c0.4,0,0.8,0,1.2,0H162.1z"/>
			<path class="st4" d="M35.5,228.1h126.6c18.6,0,33.7-15.1,33.7-33.7l0,0c0-18.6-15.1-33.7-33.7-33.7c0,0,0,0,0,0H35.5
				c-18.6,0-33.7,15.1-33.7,33.7c0,0,0,0,0,0l0,0C1.8,213,16.9,228.1,35.5,228.1C35.5,228.1,35.5,228.1,35.5,228.1z"/>
			<g class="st5">
				<path class="st6" d="M32.2,301.2h117.4c8.6,0,15.5-6.9,15.5-15.5l0,0c0-8.6-6.9-15.5-15.5-15.5c0,0,0,0,0,0H32.2
					c-8.6,0-15.5,6.9-15.5,15.5c0,0,0,0,0,0l0,0C16.7,294.2,23.7,301.2,32.2,301.2z"/>
			</g>
			
				<linearGradient id="SVGID_00000022544261387446937140000001905243527318415757_" gradientUnits="userSpaceOnUse" x1="-632.525" y1="58.05" x2="-632.525" y2="-331.26" gradientTransform="matrix(-1 0 0 -1 -533.7 312)">
				<stop  offset="0" style="stop-color:#F7D06D"/>
				<stop  offset="9.000000e-02" style="stop-color:#F6B453"/>
				<stop  offset="0.18" style="stop-color:#F4825B"/>
				<stop  offset="0.27" style="stop-color:#EB6559"/>
				<stop  offset="0.36" style="stop-color:#CE4E6E"/>
				<stop  offset="0.45" style="stop-color:#9F6BAF"/>
				<stop  offset="0.54" style="stop-color:#7765AA"/>
				<stop  offset="0.63" style="stop-color:#7087BD"/>
				<stop  offset="0.72" style="stop-color:#56B0D8"/>
				<stop  offset="0.81" style="stop-color:#8EC474"/>
				<stop  offset="0.9" style="stop-color:#DAE56D"/>
				<stop  offset="1" style="stop-color:#F8F068"/>
			</linearGradient>
			<path style="fill:url(#SVGID_00000022544261387446937140000001905243527318415757_);" d="M35.5,307.1h126.6
				c18.6,0,33.7-15.1,33.7-33.7c0,0,0,0,0,0l0,0c0-18.6-15.1-33.7-33.7-33.7H35.5c-18.6,0-33.7,15.1-33.7,33.7l0,0
				C1.8,292,16.9,307.1,35.5,307.1C35.5,307.1,35.5,307.1,35.5,307.1z"/>
			
				<linearGradient id="SVGID_00000020388442148241998440000011270993974553202340_" gradientUnits="userSpaceOnUse" x1="-731.34" y1="38.5003" x2="-533.6888" y2="38.5003" gradientTransform="matrix(-1 0 0 -1 -533.7 312)">
				<stop  offset="0" style="stop-color:#FFFFFF"/>
				<stop  offset="4.000000e-02" style="stop-color:#F8F9F9"/>
				<stop  offset="0.12" style="stop-color:#F1F2F2"/>
				<stop  offset="0.92" style="stop-color:#E6E7E8"/>
				<stop  offset="0.99" style="stop-color:#D1D3D4"/>
			</linearGradient>
			<path style="fill:url(#SVGID_00000020388442148241998440000011270993974553202340_);" d="M162.1,309c19.6-0.8,34.8-17.4,34-37
				c-0.8-18.5-15.6-33.3-34-34H35.5c-19.6-0.8-36.2,14.4-37,34s14.4,36.2,34,37c1,0,1.9,0,2.9,0H162.1z"/>
			<path class="st2" d="M35.5,307.1h126.6c18.6,0,33.7-15.1,33.7-33.7c0,0,0,0,0,0l0,0c0-18.6-15.1-33.7-33.7-33.7H35.5
				c-18.6,0-33.7,15.1-33.7,33.7l0,0C1.8,292,16.9,307.1,35.5,307.1C35.5,307.1,35.5,307.1,35.5,307.1z"/>
			<g class="st5">
				<path class="st6" d="M643.3,301.7H525.9c-8.6,0-15.5-6.9-15.5-15.5l0,0c0-8.6,6.9-15.5,15.5-15.5h117.5
					c8.6,0,15.5,6.9,15.5,15.5l0,0C658.8,294.8,651.9,301.7,643.3,301.7C643.4,301.7,643.4,301.7,643.3,301.7z"/>
			</g>
			
				<linearGradient id="SVGID_00000092440185739496115100000015303438822941601155_" gradientUnits="userSpaceOnUse" x1="592.33" y1="57.52" x2="592.33" y2="-331.8" gradientTransform="matrix(1 0 0 -1 0 312)">
				<stop  offset="0" style="stop-color:#F7D06D"/>
				<stop  offset="9.000000e-02" style="stop-color:#F6B453"/>
				<stop  offset="0.18" style="stop-color:#F4825B"/>
				<stop  offset="0.27" style="stop-color:#EB6559"/>
				<stop  offset="0.36" style="stop-color:#CE4E6E"/>
				<stop  offset="0.45" style="stop-color:#9F6BAF"/>
				<stop  offset="0.54" style="stop-color:#7765AA"/>
				<stop  offset="0.63" style="stop-color:#7087BD"/>
				<stop  offset="0.72" style="stop-color:#56B0D8"/>
				<stop  offset="0.81" style="stop-color:#8EC474"/>
				<stop  offset="0.9" style="stop-color:#DAE56D"/>
				<stop  offset="1" style="stop-color:#F8F068"/>
			</linearGradient>
			<path style="fill:url(#SVGID_00000092440185739496115100000015303438822941601155_);" d="M655.6,307.7H529
				c-18.6,0-33.6-15.1-33.7-33.7l0,0c0-18.6,15.1-33.7,33.7-33.7c0,0,0,0,0,0h126.6c18.6,0,33.7,15.1,33.7,33.7c0,0,0,0,0,0.1l0,0
				C689.3,292.6,674.2,307.7,655.6,307.7z"/>
			
				<linearGradient id="SVGID_00000148637230444898761340000012042011684672464023_" gradientUnits="userSpaceOnUse" x1="493.51" y1="38.025" x2="691.15" y2="38.025" gradientTransform="matrix(1 0 0 -1 0 312)">
				<stop  offset="1.000000e-02" style="stop-color:#D1D3D4"/>
				<stop  offset="8.000000e-02" style="stop-color:#E6E7E8"/>
				<stop  offset="0.88" style="stop-color:#F1F2F2"/>
				<stop  offset="0.96" style="stop-color:#F8F9F9"/>
				<stop  offset="1" style="stop-color:#FFFFFF"/>
			</linearGradient>
			<path style="fill:url(#SVGID_00000148637230444898761340000012042011684672464023_);" d="M529,309.5
				c-19.6-0.3-35.3-16.5-34.9-36.1c0.3-19.2,15.8-34.6,34.9-34.9h126.6c19.6,0.3,35.3,16.5,34.9,36.1c-0.3,19.2-15.8,34.6-34.9,34.9
				H529z"/>
			<path d="M655.6,307.7H529c-18.6,0-33.6-15.1-33.7-33.7l0,0c0-18.6,15.1-33.7,33.7-33.7c0,0,0,0,0,0h126.6
				c18.6,0,33.7,15.1,33.7,33.7c0,0,0,0,0,0.1l0,0C689.3,292.6,674.2,307.7,655.6,307.7z"/>
			<g class="st5">
				<path class="st6" d="M643.3,63.3H525.9c-8.6,0-15.5-6.9-15.5-15.5c0,0,0,0,0,0l0,0c0-8.6,6.9-15.5,15.5-15.5h117.5
					c8.6,0,15.5,6.9,15.5,15.5l0,0l0,0C658.8,56.3,651.9,63.3,643.3,63.3C643.4,63.3,643.4,63.3,643.3,63.3z"/>
			</g>
			
				<linearGradient id="SVGID_00000057830256246330786690000017853588885517033389_" gradientUnits="userSpaceOnUse" x1="592.3" y1="295.96" x2="592.3" y2="-93.35" gradientTransform="matrix(1 0 0 -1 0 312)">
				<stop  offset="0" style="stop-color:#F7D06D"/>
				<stop  offset="9.000000e-02" style="stop-color:#F6B453"/>
				<stop  offset="0.18" style="stop-color:#F4825B"/>
				<stop  offset="0.27" style="stop-color:#EB6559"/>
				<stop  offset="0.36" style="stop-color:#CE4E6E"/>
				<stop  offset="0.45" style="stop-color:#9F6BAF"/>
				<stop  offset="0.54" style="stop-color:#7765AA"/>
				<stop  offset="0.63" style="stop-color:#7087BD"/>
				<stop  offset="0.72" style="stop-color:#56B0D8"/>
				<stop  offset="0.81" style="stop-color:#8EC474"/>
				<stop  offset="0.9" style="stop-color:#DAE56D"/>
				<stop  offset="1" style="stop-color:#F8F068"/>
			</linearGradient>
			<path style="fill:url(#SVGID_00000057830256246330786690000017853588885517033389_);" d="M655.6,69.2H529
				c-18.6,0-33.7-15.1-33.7-33.7c0,0,0,0,0,0l0,0c0-18.6,15.1-33.7,33.7-33.7c0,0,0,0,0,0h126.6c18.6,0,33.7,15.1,33.7,33.7
				c0,0,0,0,0,0l0,0C689.3,54.1,674.2,69.2,655.6,69.2z"/>
			
				<linearGradient id="SVGID_00000170966309172604153830000000071157683477175226_" gradientUnits="userSpaceOnUse" x1="493.51" y1="276.425" x2="691.15" y2="276.425" gradientTransform="matrix(1 0 0 -1 0 312)">
				<stop  offset="1.000000e-02" style="stop-color:#D1D3D4"/>
				<stop  offset="8.000000e-02" style="stop-color:#E6E7E8"/>
				<stop  offset="0.88" style="stop-color:#F1F2F2"/>
				<stop  offset="0.96" style="stop-color:#F8F9F9"/>
				<stop  offset="1" style="stop-color:#FFFFFF"/>
			</linearGradient>
			<path style="fill:url(#SVGID_00000170966309172604153830000000071157683477175226_);" d="M529,71.1c-19.6-0.8-34.8-17.4-34-37
				c0.8-18.5,15.6-33.3,34-34h126.6c19.6,0.3,35.3,16.5,34.9,36.1c-0.3,19.2-15.8,34.6-34.9,34.9L529,71.1z"/>
			<path class="st2" d="M655.6,69.2H529c-18.6,0-33.7-15.1-33.7-33.7c0,0,0,0,0,0l0,0c0-18.6,15.1-33.7,33.7-33.7c0,0,0,0,0,0h126.6
				c18.6,0,33.7,15.1,33.7,33.7c0,0,0,0,0,0l0,0C689.3,54.1,674.2,69.2,655.6,69.2z"/>
			<polygon class="st23" points="486.4,291.3 431.4,291.3 401.8,251.2 402.3,250.8 431.7,290.6 486.4,290.6 			"/>
			<circle class="st23" cx="402" cy="251" r="3.2"/>
			<circle class="st23" cx="486.4" cy="291" r="3.2"/>
			<polygon class="st23" points="486.4,202.8 461.5,202.8 461.4,202.8 447,193.8 447.4,193.3 461.6,202.2 486.4,202.2 			"/>
			<path class="st23" d="M450.4,193.6c0,1.8-1.4,3.2-3.2,3.2s-3.2-1.4-3.2-3.2c0-1.8,1.4-3.2,3.2-3.2c0,0,0,0,0,0
				C449,190.3,450.4,191.8,450.4,193.6z"/>
			<circle class="st23" cx="486.4" cy="202.4" r="3.2"/>
			<polygon class="st23" points="402.3,65.6 401.8,65.2 431.4,25.1 486.4,25.1 486.4,25.7 431.7,25.7 			"/>
			<circle class="st23" cx="486.4" cy="25.4" r="3.2"/>
			<circle class="st23" cx="402" cy="65.9" r="3.2"/>
			<polygon class="st23" points="447.3,121.1 447.1,120.5 461.5,113.6 486.4,113.6 486.4,114.2 461.6,114.2 			"/>
			<path class="st23" d="M489.6,113.9c0,1.8-1.4,3.2-3.2,3.2s-3.2-1.4-3.2-3.2s1.4-3.2,3.2-3.2l0,0
				C488.2,110.7,489.6,112.2,489.6,113.9z"/>
			<circle class="st23" cx="447.2" cy="121.4" r="3.2"/>
			<polygon class="st23" points="202.1,291.3 257.1,291.3 286.8,251.2 286.2,250.8 256.8,290.6 202.1,290.6 			"/>
			<path class="st23" d="M283.3,251c0,1.8,1.4,3.2,3.2,3.2c1.8,0,3.2-1.4,3.2-3.2c0-1.8-1.4-3.2-3.2-3.2l0,0
				C284.7,247.8,283.3,249.2,283.3,251z"/>
			<circle class="st23" cx="202.1" cy="291" r="3.2"/>
			<polygon class="st23" points="202.1,202.8 227.1,202.8 227.2,202.8 241.5,193.8 241.2,193.3 226.9,202.2 202.1,202.2 			"/>
			<path class="st23" d="M238.1,193.6c0,1.8,1.4,3.2,3.2,3.2s3.2-1.4,3.2-3.2c0-1.8-1.4-3.2-3.2-3.2S238.1,191.8,238.1,193.6
				L238.1,193.6z"/>
			<circle class="st23" cx="202.1" cy="202.4" r="3.2"/>
			<polygon class="st23" points="286.2,65.6 286.8,65.2 257.1,25.1 202.1,25.1 202.1,25.7 256.8,25.7 			"/>
			<circle class="st23" cx="202.1" cy="25.4" r="3.2"/>
			<path class="st23" d="M283.3,65.9c0,1.8,1.4,3.2,3.2,3.2s3.2-1.4,3.2-3.2s-1.4-3.2-3.2-3.2l0,0C284.7,62.7,283.3,64.1,283.3,65.9
				z"/>
			<polygon class="st23" points="241.2,121.1 241.5,120.5 227,113.6 202.1,113.6 202.1,114.2 226.9,114.2 			"/>
			<path class="st23" d="M198.9,113.9c0,1.8,1.4,3.2,3.2,3.2c1.8,0,3.2-1.4,3.2-3.2c0-1.8-1.4-3.2-3.2-3.2S198.9,112.2,198.9,113.9
				L198.9,113.9z"/>
			<circle class="st23" cx="241.3" cy="121.4" r="3.2"/>
			<image width="689" height="453" transform="translate(276.15 114.44) scale(0.19)" xlink:href="images/tulu-logo_RGB.png"/>
<a href="/DealerListing/978c71ce-e338-45ee-bd8d-e5eb9118017a">
<image width="350" height="200" transform="translate(45.15 164.44) scale(0.3)" xlink:href="images/company%20logo/1.png"/>
</a>
<a href="/DealerListing/978c71ce-e338-45ee-bd8d-e5eb9118017d">
<image width="350" height="200" transform="translate(36.15 1.44) scale(0.35)" xlink:href="images/company%20logo/2.png"/>
</a>
<a href="/DealerListing/978c71ce-e338-45ee-bd8d-e5eb9118017e">
<image width="350" height="200" transform="translate(42.15 82.44) scale(0.32)" xlink:href="images/company%20logo/4.png"/>
</a>
<a href="DealerListing/978c71ce-e338-45ee-bd8d-e5eb9118017b">
<image width="350" height="200" transform="translate(526.15 0.44) scale(0.37)" xlink:href="images/company%20logo/5.png"/>
</a>
<a href="/DealerListing/978c71ce-e338-45ee-bd8d-e5eb9118017c">
<image width="350" height="200" transform="translate(525.15 155.44) scale(0.38)" xlink:href="images/company%20logo/6.png"/>
</a>
<a href="/DealerListing/978c71ce-e338-45ee-bd8d-e5eb9118017f">
<image width="800" height="233" transform="translate(528.15 96.44) scale(0.16)" xlink:href="images/company%20logo/countryhills.png"/>
</a>
<a href="/DealerListing/68839cfd-a560-4288-bb7b-d0fead6e4a6c">
<image width="2560" height="513" transform="translate(521.15 261.44) scale(0.05)" xlink:href="images/company%20logo/gtmotorsports.jpg"/>
</a>
<a href="/DealerListing/b52e06c3-d25f-4b14-a713-aa34aea3d98b">
<image width="656" height="139" transform="translate(25.15 257.44) scale(0.22)" xlink:href="images/company%20logo/supreme.png"/>
</a>
		</g>
	</g>
</g>
</svg>
