<svg xmlns="http://www.w3.org/2000/svg" xmlns:xlink="http://www.w3.org/1999/xlink" viewBox="0 0 691.73 363.01"><defs><style>.cls-1{isolation:isolate;}.cls-2,.cls-50{mix-blend-mode:multiply;}.cls-3,.cls-51{opacity:0;}.cls-3{fill:url(#linear-gradient);}.cls-4{opacity:0.02;fill:url(#linear-gradient-2);}.cls-5{opacity:0.05;fill:url(#linear-gradient-3);}.cls-6{opacity:0.07;fill:url(#linear-gradient-4);}.cls-7{opacity:0.1;fill:url(#linear-gradient-5);}.cls-8{opacity:0.12;fill:url(#linear-gradient-6);}.cls-9{opacity:0.15;fill:url(#linear-gradient-7);}.cls-10{opacity:0.17;fill:url(#linear-gradient-8);}.cls-11{opacity:0.2;fill:url(#linear-gradient-9);}.cls-12{opacity:0.22;fill:url(#linear-gradient-10);}.cls-13{opacity:0.24;fill:url(#linear-gradient-11);}.cls-14{opacity:0.27;fill:url(#linear-gradient-12);}.cls-15{opacity:0.29;fill:url(#linear-gradient-13);}.cls-16{opacity:0.32;fill:url(#linear-gradient-14);}.cls-17{opacity:0.34;fill:url(#linear-gradient-15);}.cls-18{opacity:0.37;fill:url(#linear-gradient-16);}.cls-19{opacity:0.39;fill:url(#linear-gradient-17);}.cls-20{opacity:0.41;fill:url(#linear-gradient-18);}.cls-21{opacity:0.44;fill:url(#linear-gradient-19);}.cls-22{opacity:0.46;fill:url(#linear-gradient-20);}.cls-23{opacity:0.49;fill:url(#linear-gradient-21);}.cls-24{opacity:0.51;fill:url(#linear-gradient-22);}.cls-25{opacity:0.54;fill:url(#linear-gradient-23);}.cls-26{opacity:0.56;fill:url(#linear-gradient-24);}.cls-27{opacity:0.59;fill:url(#linear-gradient-25);}.cls-28{opacity:0.61;fill:url(#linear-gradient-26);}.cls-29{opacity:0.63;fill:url(#linear-gradient-27);}.cls-30{opacity:0.66;fill:url(#linear-gradient-28);}.cls-31{opacity:0.68;fill:url(#linear-gradient-29);}.cls-32{opacity:0.71;fill:url(#linear-gradient-30);}.cls-33{opacity:0.73;fill:url(#linear-gradient-31);}.cls-34{opacity:0.76;fill:url(#linear-gradient-32);}.cls-35{opacity:0.78;fill:url(#linear-gradient-33);}.cls-36{opacity:0.8;fill:url(#linear-gradient-34);}.cls-37{opacity:0.83;fill:url(#linear-gradient-35);}.cls-38{opacity:0.85;fill:url(#linear-gradient-36);}.cls-39{opacity:0.88;fill:url(#linear-gradient-37);}.cls-40{opacity:0.9;fill:url(#linear-gradient-38);}.cls-41{opacity:0.93;fill:url(#linear-gradient-39);}.cls-42{opacity:0.95;fill:url(#linear-gradient-40);}.cls-43{opacity:0.98;fill:url(#linear-gradient-41);}.cls-44{fill:url(#linear-gradient-42);}.cls-45{fill:url(#linear-gradient-43);}.cls-46{fill:#375647;}.cls-47{fill:#64a08a;}.cls-48{fill:#4f7f6c;}.cls-49{fill:#79c5ac;}.cls-50{opacity:0.8;}.cls-51{fill:#fff;}.cls-52{fill:#f9f9f9;opacity:0.03;}.cls-53{fill:#f3f3f3;opacity:0.06;}.cls-54{fill:#ededed;opacity:0.1;}.cls-55{fill:#e6e6e7;opacity:0.13;}.cls-56{fill:#e0e0e1;opacity:0.16;}.cls-57{fill:#dadada;opacity:0.19;}.cls-58{fill:#d4d4d4;opacity:0.23;}.cls-59{fill:#cecece;opacity:0.26;}.cls-60{fill:#c8c8c8;opacity:0.29;}.cls-61{fill:#c2c1c2;opacity:0.32;}.cls-62{fill:#bcbbbc;opacity:0.35;}.cls-63{fill:#b5b5b6;opacity:0.39;}.cls-64{fill:#afafb0;opacity:0.42;}.cls-65{fill:#a9a9aa;opacity:0.45;}.cls-66{fill:#a3a3a4;opacity:0.48;}.cls-67{fill:#9d9c9d;opacity:0.52;}.cls-68{fill:#979697;opacity:0.55;}.cls-69{fill:#919091;opacity:0.58;}.cls-70{fill:#8b8a8b;opacity:0.61;}.cls-71{fill:#848485;opacity:0.65;}.cls-72{fill:#7e7e7f;opacity:0.68;}.cls-73{fill:#787779;opacity:0.71;}.cls-74{fill:#727173;opacity:0.74;}.cls-75{fill:#6c6b6d;opacity:0.77;}.cls-76{fill:#666567;opacity:0.81;}.cls-77{fill:#605f60;opacity:0.84;}.cls-78{fill:#5a595a;opacity:0.87;}.cls-79{fill:#535254;opacity:0.9;}.cls-80{fill:#4d4c4e;opacity:0.94;}.cls-81{fill:#474648;opacity:0.97;}.cls-82{fill:#414042;}.cls-83{fill:url(#linear-gradient-44);}.cls-84{fill:url(#linear-gradient-45);}.cls-85{fill:url(#linear-gradient-46);}.cls-86{fill:url(#linear-gradient-47);}.cls-87{fill:url(#linear-gradient-48);}.cls-88{fill:url(#linear-gradient-49);}.cls-89{fill:url(#linear-gradient-50);}.cls-90{fill:url(#linear-gradient-51);}.cls-91{fill:url(#linear-gradient-52);}.cls-92{fill:url(#linear-gradient-53);}.cls-93{fill:url(#linear-gradient-54);}.cls-94{fill:url(#linear-gradient-55);}.cls-95{fill:url(#linear-gradient-56);}.cls-96{fill:url(#linear-gradient-57);}.cls-97{fill:url(#linear-gradient-58);}.cls-98{fill:url(#linear-gradient-59);}.cls-99{fill:#231f20;}</style><linearGradient id="linear-gradient" x1="155.97" y1="203.31" x2="475.38" y2="203.31" gradientUnits="userSpaceOnUse"><stop offset="0" stop-color="#fff"/><stop offset="1" stop-color="#a7a9ac"/></linearGradient><linearGradient id="linear-gradient-2" x1="159.11" y1="201.73" x2="474.07" y2="201.73" gradientUnits="userSpaceOnUse"><stop offset="0" stop-color="#f9f9f9"/><stop offset="1" stop-color="#a3a5a8"/></linearGradient><linearGradient id="linear-gradient-3" x1="162.25" y1="200.15" x2="472.75" y2="200.15" gradientUnits="userSpaceOnUse"><stop offset="0" stop-color="#f3f3f3"/><stop offset="1" stop-color="#9fa1a4"/></linearGradient><linearGradient id="linear-gradient-4" x1="165.39" y1="198.57" x2="471.44" y2="198.57" gradientUnits="userSpaceOnUse"><stop offset="0" stop-color="#ececec"/><stop offset="1" stop-color="#9b9d9f"/></linearGradient><linearGradient id="linear-gradient-5" x1="168.53" y1="196.99" x2="470.13" y2="196.99" gradientUnits="userSpaceOnUse"><stop offset="0" stop-color="#e6e6e6"/><stop offset="1" stop-color="#97999b"/></linearGradient><linearGradient id="linear-gradient-6" x1="171.67" y1="195.41" x2="468.82" y2="195.41" gradientUnits="userSpaceOnUse"><stop offset="0" stop-color="#e0e0e0"/><stop offset="1" stop-color="#939497"/></linearGradient><linearGradient id="linear-gradient-7" x1="174.81" y1="193.83" x2="467.51" y2="193.83" gradientUnits="userSpaceOnUse"><stop offset="0" stop-color="#dadada"/><stop offset="1" stop-color="#8f9093"/></linearGradient><linearGradient id="linear-gradient-8" x1="177.95" y1="192.25" x2="466.2" y2="192.25" gradientUnits="userSpaceOnUse"><stop offset="0" stop-color="#d3d3d3"/><stop offset="1" stop-color="#8a8c8f"/></linearGradient><linearGradient id="linear-gradient-9" x1="181.09" y1="190.67" x2="464.89" y2="190.67" gradientUnits="userSpaceOnUse"><stop offset="0" stop-color="#cdcdcd"/><stop offset="1" stop-color="#86888a"/></linearGradient><linearGradient id="linear-gradient-10" x1="184.23" y1="189.09" x2="463.57" y2="189.09" gradientUnits="userSpaceOnUse"><stop offset="0" stop-color="#c7c7c7"/><stop offset="1" stop-color="#828486"/></linearGradient><linearGradient id="linear-gradient-11" x1="187.37" y1="187.51" x2="462.26" y2="187.51" gradientUnits="userSpaceOnUse"><stop offset="0" stop-color="#c1c1c1"/><stop offset="1" stop-color="#7e8082"/></linearGradient><linearGradient id="linear-gradient-12" x1="190.5" y1="185.93" x2="460.95" y2="185.93" gradientUnits="userSpaceOnUse"><stop offset="0" stop-color="#bbb"/><stop offset="1" stop-color="#7a7c7e"/></linearGradient><linearGradient id="linear-gradient-13" x1="193.64" y1="184.35" x2="459.64" y2="184.35" gradientUnits="userSpaceOnUse"><stop offset="0" stop-color="#b4b4b4"/><stop offset="1" stop-color="#76787a"/></linearGradient><linearGradient id="linear-gradient-14" x1="196.78" y1="182.77" x2="458.33" y2="182.77" gradientUnits="userSpaceOnUse"><stop offset="0" stop-color="#aeaeae"/><stop offset="1" stop-color="#727375"/></linearGradient><linearGradient id="linear-gradient-15" x1="199.92" y1="181.19" x2="457.02" y2="181.19" gradientUnits="userSpaceOnUse"><stop offset="0" stop-color="#a8a8a8"/><stop offset="1" stop-color="#6e6f71"/></linearGradient><linearGradient id="linear-gradient-16" x1="203.06" y1="179.61" x2="455.71" y2="179.61" gradientUnits="userSpaceOnUse"><stop offset="0" stop-color="#a2a2a2"/><stop offset="1" stop-color="#6a6b6d"/></linearGradient><linearGradient id="linear-gradient-17" x1="206.2" y1="178.03" x2="454.39" y2="178.03" gradientUnits="userSpaceOnUse"><stop offset="0" stop-color="#9b9b9b"/><stop offset="1" stop-color="#666769"/></linearGradient><linearGradient id="linear-gradient-18" x1="209.34" y1="176.45" x2="453.08" y2="176.45" gradientUnits="userSpaceOnUse"><stop offset="0" stop-color="#959595"/><stop offset="1" stop-color="#626365"/></linearGradient><linearGradient id="linear-gradient-19" x1="212.48" y1="174.87" x2="451.77" y2="174.87" gradientUnits="userSpaceOnUse"><stop offset="0" stop-color="#8f8f8f"/><stop offset="1" stop-color="#5e5f60"/></linearGradient><linearGradient id="linear-gradient-20" x1="215.62" y1="173.29" x2="450.46" y2="173.29" gradientUnits="userSpaceOnUse"><stop offset="0" stop-color="#898989"/><stop offset="1" stop-color="#5a5b5c"/></linearGradient><linearGradient id="linear-gradient-21" x1="218.76" y1="171.71" x2="449.15" y2="171.71" gradientUnits="userSpaceOnUse"><stop offset="0" stop-color="#838383"/><stop offset="1" stop-color="#565758"/></linearGradient><linearGradient id="linear-gradient-22" x1="221.9" y1="170.13" x2="447.84" y2="170.13" gradientUnits="userSpaceOnUse"><stop offset="0" stop-color="#7c7c7c"/><stop offset="1" stop-color="#515254"/></linearGradient><linearGradient id="linear-gradient-23" x1="225.04" y1="168.55" x2="446.52" y2="168.55" gradientUnits="userSpaceOnUse"><stop offset="0" stop-color="#767676"/><stop offset="1" stop-color="#4d4e50"/></linearGradient><linearGradient id="linear-gradient-24" x1="228.18" y1="166.97" x2="445.21" y2="166.97" gradientUnits="userSpaceOnUse"><stop offset="0" stop-color="#707070"/><stop offset="1" stop-color="#494a4c"/></linearGradient><linearGradient id="linear-gradient-25" x1="231.32" y1="165.39" x2="443.9" y2="165.39" gradientUnits="userSpaceOnUse"><stop offset="0" stop-color="#6a6a6a"/><stop offset="1" stop-color="#454647"/></linearGradient><linearGradient id="linear-gradient-26" x1="234.46" y1="163.81" x2="442.59" y2="163.81" gradientUnits="userSpaceOnUse"><stop offset="0" stop-color="#646464"/><stop offset="1" stop-color="#414243"/></linearGradient><linearGradient id="linear-gradient-27" x1="237.6" y1="162.23" x2="441.28" y2="162.23" gradientUnits="userSpaceOnUse"><stop offset="0" stop-color="#5d5d5d"/><stop offset="1" stop-color="#3d3e3f"/></linearGradient><linearGradient id="linear-gradient-28" x1="240.74" y1="160.65" x2="439.97" y2="160.65" gradientUnits="userSpaceOnUse"><stop offset="0" stop-color="#575757"/><stop offset="1" stop-color="#393a3b"/></linearGradient><linearGradient id="linear-gradient-29" x1="243.88" y1="159.07" x2="438.66" y2="159.07" gradientUnits="userSpaceOnUse"><stop offset="0" stop-color="#515151"/><stop offset="1" stop-color="#353637"/></linearGradient><linearGradient id="linear-gradient-30" x1="247.02" y1="157.49" x2="437.34" y2="157.49" gradientUnits="userSpaceOnUse"><stop offset="0" stop-color="#4b4b4b"/><stop offset="1" stop-color="#313132"/></linearGradient><linearGradient id="linear-gradient-31" x1="250.16" y1="155.91" x2="436.03" y2="155.91" gradientUnits="userSpaceOnUse"><stop offset="0" stop-color="#444"/><stop offset="1" stop-color="#2d2d2e"/></linearGradient><linearGradient id="linear-gradient-32" x1="253.3" y1="154.33" x2="434.72" y2="154.33" gradientUnits="userSpaceOnUse"><stop offset="0" stop-color="#3e3e3e"/><stop offset="1" stop-color="#29292a"/></linearGradient><linearGradient id="linear-gradient-33" x1="256.44" y1="152.75" x2="433.41" y2="152.75" gradientUnits="userSpaceOnUse"><stop offset="0" stop-color="#383838"/><stop offset="1" stop-color="#252526"/></linearGradient><linearGradient id="linear-gradient-34" x1="259.58" y1="151.17" x2="432.1" y2="151.17" gradientUnits="userSpaceOnUse"><stop offset="0" stop-color="#323232"/><stop offset="1" stop-color="#212122"/></linearGradient><linearGradient id="linear-gradient-35" x1="262.72" y1="149.59" x2="430.79" y2="149.59" gradientUnits="userSpaceOnUse"><stop offset="0" stop-color="#2c2c2c"/><stop offset="1" stop-color="#1d1d1d"/></linearGradient><linearGradient id="linear-gradient-36" x1="265.86" y1="148.01" x2="429.47" y2="148.01" gradientUnits="userSpaceOnUse"><stop offset="0" stop-color="#252525"/><stop offset="1" stop-color="#181919"/></linearGradient><linearGradient id="linear-gradient-37" x1="269" y1="146.43" x2="428.16" y2="146.43" gradientUnits="userSpaceOnUse"><stop offset="0" stop-color="#1f1f1f"/><stop offset="1" stop-color="#141515"/></linearGradient><linearGradient id="linear-gradient-38" x1="272.14" y1="144.85" x2="426.85" y2="144.85" gradientUnits="userSpaceOnUse"><stop offset="0" stop-color="#191919"/><stop offset="1" stop-color="#101011"/></linearGradient><linearGradient id="linear-gradient-39" x1="275.28" y1="143.27" x2="425.54" y2="143.27" gradientUnits="userSpaceOnUse"><stop offset="0" stop-color="#131313"/><stop offset="1" stop-color="#0c0c0d"/></linearGradient><linearGradient id="linear-gradient-40" x1="278.42" y1="141.69" x2="424.23" y2="141.69" gradientUnits="userSpaceOnUse"><stop offset="0" stop-color="#0c0c0c"/><stop offset="1" stop-color="#080808"/></linearGradient><linearGradient id="linear-gradient-41" x1="281.56" y1="140.11" x2="422.92" y2="140.11" gradientUnits="userSpaceOnUse"><stop offset="0" stop-color="#060606"/><stop offset="1" stop-color="#040404"/></linearGradient><linearGradient id="linear-gradient-42" x1="428.45" y1="71.27" x2="260.59" y2="244.31" gradientUnits="userSpaceOnUse"><stop offset="0" stop-color="#fff"/><stop offset="1" stop-color="#e7e6e6"/></linearGradient><linearGradient id="linear-gradient-43" x1="260.67" y1="241.65" x2="426.58" y2="75.74" gradientUnits="userSpaceOnUse"><stop offset="0" stop-color="#fff"/><stop offset="0.58" stop-color="#fcfcfc"/><stop offset="0.92" stop-color="#f4f4f4"/><stop offset="1" stop-color="#f1f1f1"/></linearGradient><linearGradient id="linear-gradient-44" x1="592.91" y1="94.99" x2="592.91" y2="484.3" gradientUnits="userSpaceOnUse"><stop offset="0" stop-color="#f7d06d"/><stop offset="0.09" stop-color="#f6b453"/><stop offset="0.18" stop-color="#f4825b"/><stop offset="0.27" stop-color="#eb6559"/><stop offset="0.36" stop-color="#ce4e6e"/><stop offset="0.45" stop-color="#9f6baf"/><stop offset="0.54" stop-color="#7765aa"/><stop offset="0.63" stop-color="#7087bd"/><stop offset="0.72" stop-color="#56b0d8"/><stop offset="0.81" stop-color="#8ec474"/><stop offset="0.9" stop-color="#dae56d"/><stop offset="1" stop-color="#f8f068"/></linearGradient><linearGradient id="linear-gradient-45" x1="494.09" y1="114.47" x2="691.73" y2="114.47" gradientUnits="userSpaceOnUse"><stop offset="0.01" stop-color="#d1d3d4"/><stop offset="0.08" stop-color="#e6e7e8"/><stop offset="0.88" stop-color="#f1f2f2"/><stop offset="0.96" stop-color="#f8f9f9"/><stop offset="1" stop-color="#fff"/></linearGradient><linearGradient id="linear-gradient-46" x1="592.91" y1="175.41" x2="592.91" y2="564.72" xlink:href="#linear-gradient-44"/><linearGradient id="linear-gradient-47" x1="494.09" y1="194.89" x2="691.73" y2="194.89" xlink:href="#linear-gradient-45"/><linearGradient id="linear-gradient-48" x1="594.06" y1="94.94" x2="594.06" y2="484.26" gradientTransform="matrix(-1, 0, 0, 1, 693.46, 0)" xlink:href="#linear-gradient-44"/><linearGradient id="linear-gradient-49" x1="495.24" y1="114.43" x2="692.88" y2="114.43" gradientTransform="matrix(-1, 0, 0, 1, 693.46, 0)" gradientUnits="userSpaceOnUse"><stop offset="0" stop-color="#fff"/><stop offset="0.04" stop-color="#f8f9f9"/><stop offset="0.12" stop-color="#f1f2f2"/><stop offset="0.92" stop-color="#e6e7e8"/><stop offset="0.99" stop-color="#d1d3d4"/></linearGradient><linearGradient id="linear-gradient-50" x1="594.06" y1="16.17" x2="594.06" y2="405.49" gradientTransform="matrix(-1, 0, 0, 1, 693.46, 0)" xlink:href="#linear-gradient-44"/><linearGradient id="linear-gradient-51" x1="495.24" y1="35.66" x2="692.88" y2="35.66" xlink:href="#linear-gradient-49"/><linearGradient id="linear-gradient-52" x1="594.06" y1="174.92" x2="594.06" y2="564.23" gradientTransform="matrix(-1, 0, 0, 1, 693.46, 0)" xlink:href="#linear-gradient-44"/><linearGradient id="linear-gradient-53" x1="495.24" y1="194.4" x2="692.88" y2="194.4" xlink:href="#linear-gradient-49"/><linearGradient id="linear-gradient-54" x1="594.06" y1="253.95" x2="594.06" y2="643.26" gradientTransform="matrix(-1, 0, 0, 1, 693.46, 0)" xlink:href="#linear-gradient-44"/><linearGradient id="linear-gradient-55" x1="495.24" y1="273.44" x2="692.88" y2="273.44" xlink:href="#linear-gradient-49"/><linearGradient id="linear-gradient-56" x1="592.91" y1="254.48" x2="592.91" y2="643.8" xlink:href="#linear-gradient-44"/><linearGradient id="linear-gradient-57" x1="494.09" y1="273.97" x2="691.73" y2="273.97" xlink:href="#linear-gradient-45"/><linearGradient id="linear-gradient-58" x1="592.91" y1="16.04" x2="592.91" y2="405.35" xlink:href="#linear-gradient-44"/><linearGradient id="linear-gradient-59" x1="494.09" y1="35.53" x2="691.73" y2="35.53" xlink:href="#linear-gradient-45"/></defs><g class="cls-1"><g id="Layer_2" data-name="Layer 2"><g id="Layer_1-2" data-name="Layer 1"><g class="cls-2"><path class="cls-3" d="M156,203.27h0A159.7,159.7,0,0,1,235.85,65h0a159.69,159.69,0,0,1,159.7,0h0a159.71,159.71,0,0,1,79.83,138.33h0A159.7,159.7,0,0,1,395.5,341.63h0a159.71,159.71,0,0,1-159.71,0h0A159.73,159.73,0,0,1,156,203.27Z"/><path class="cls-4" d="M159.11,201.69h0A157.46,157.46,0,0,1,237.87,65.33h0a157.49,157.49,0,0,1,157.48,0h0a157.48,157.48,0,0,1,78.72,136.4h0A157.49,157.49,0,0,1,395.3,338.12h0a157.49,157.49,0,0,1-157.48,0h0A157.47,157.47,0,0,1,159.11,201.69Z"/><path class="cls-5" d="M162.25,200.12h0A155.24,155.24,0,0,1,239.9,65.68h0a155.21,155.21,0,0,1,155.25,0h0a155.23,155.23,0,0,1,77.6,134.47h0A155.24,155.24,0,0,1,395.1,334.61h0a155.21,155.21,0,0,1-155.25,0h0A155.25,155.25,0,0,1,162.25,200.12Z"/><path class="cls-6" d="M165.39,198.54h0A153,153,0,0,1,241.93,66h0a153,153,0,0,1,153,0h0a153,153,0,0,1,76.48,132.54h0A153,153,0,0,1,394.9,331.11h0a153.06,153.06,0,0,1-153,0h0A153,153,0,0,1,165.39,198.54Z"/><path class="cls-7" d="M168.53,197h0A150.81,150.81,0,0,1,244,66.37h0a150.81,150.81,0,0,1,150.81,0h0A150.81,150.81,0,0,1,470.13,197h0A150.81,150.81,0,0,1,394.71,327.6h0a150.79,150.79,0,0,1-150.8,0h0A150.81,150.81,0,0,1,168.53,197Z"/><path class="cls-8" d="M171.67,195.38h0A148.57,148.57,0,0,1,246,66.72h0a148.59,148.59,0,0,1,148.58,0h0a148.58,148.58,0,0,1,74.26,128.68h0a148.58,148.58,0,0,1-74.31,128.66h0a148.59,148.59,0,0,1-148.58,0h0A148.56,148.56,0,0,1,171.67,195.38Z"/><path class="cls-9" d="M174.81,193.8h0A146.33,146.33,0,0,1,248,67.07h0a146.32,146.32,0,0,1,146.35,0h0a146.36,146.36,0,0,1,73.15,126.75h0a146.35,146.35,0,0,1-73.2,126.73h0a146.34,146.34,0,0,1-146.35,0h0A146.36,146.36,0,0,1,174.81,193.8Z"/><path class="cls-10" d="M178,192.22h0A144.12,144.12,0,0,1,250,67.42h0a144.14,144.14,0,0,1,144.13,0h0a144.13,144.13,0,0,1,72,124.83h0a144.14,144.14,0,0,1-72.09,124.81h0a144.16,144.16,0,0,1-144.13,0h0A144.14,144.14,0,0,1,178,192.22Z"/><path class="cls-11" d="M181.09,190.64h0a141.9,141.9,0,0,1,71-122.88h0a141.89,141.89,0,0,1,141.9,0h0a141.91,141.91,0,0,1,70.93,122.9h0a141.91,141.91,0,0,1-71,122.88h0a141.89,141.89,0,0,1-141.9,0h0A141.9,141.9,0,0,1,181.09,190.64Z"/><path class="cls-12" d="M184.23,189.06h0A139.68,139.68,0,0,1,254.09,68.11h0a139.67,139.67,0,0,1,139.67,0h0a139.67,139.67,0,0,1,69.81,121h0a139.68,139.68,0,0,1-69.86,121h0A139.67,139.67,0,0,1,254,310h0A139.67,139.67,0,0,1,184.23,189.06Z"/><path class="cls-13" d="M187.37,187.48h0a137.41,137.41,0,0,1,68.74-119h0a137.44,137.44,0,0,1,137.45,0h0a137.47,137.47,0,0,1,68.7,119.05h0a137.43,137.43,0,0,1-68.74,119h0a137.42,137.42,0,0,1-137.44,0h0A137.44,137.44,0,0,1,187.37,187.48Z"/><path class="cls-14" d="M190.5,185.9h0A135.22,135.22,0,0,1,258.14,68.81h0a135.22,135.22,0,0,1,135.22,0h0A135.22,135.22,0,0,1,461,186h0a135.24,135.24,0,0,1-67.63,117.1h0a135.26,135.26,0,0,1-135.23,0h0A135.25,135.25,0,0,1,190.5,185.9Z"/><path class="cls-15" d="M193.64,184.32h0A133,133,0,0,1,260.17,69.15h0a133,133,0,0,1,133,0h0a133,133,0,0,1,66.48,115.19h0a133,133,0,0,1-66.52,115.17h0a133,133,0,0,1-133,0h0A133,133,0,0,1,193.64,184.32Z"/><path class="cls-16" d="M196.78,182.74h0A130.79,130.79,0,0,1,262.19,69.5h0a130.77,130.77,0,0,1,130.77,0h0a130.76,130.76,0,0,1,65.37,113.26h0A130.77,130.77,0,0,1,392.92,296h0a130.77,130.77,0,0,1-130.77,0h0A130.75,130.75,0,0,1,196.78,182.74Z"/><path class="cls-17" d="M199.92,181.16h0a128.54,128.54,0,0,1,64.3-111.31h0a128.52,128.52,0,0,1,128.54,0h0A128.57,128.57,0,0,1,457,181.21h0a128.53,128.53,0,0,1-64.3,111.31h0a128.52,128.52,0,0,1-128.54,0h0A128.55,128.55,0,0,1,199.92,181.16Z"/><path class="cls-18" d="M203.06,179.58h0A126.31,126.31,0,0,1,266.25,70.2h0a126.32,126.32,0,0,1,126.32,0h0a126.34,126.34,0,0,1,63.14,109.41h0A126.34,126.34,0,0,1,392.52,289h0a126.34,126.34,0,0,1-126.32,0h0A126.32,126.32,0,0,1,203.06,179.58Z"/><path class="cls-19" d="M206.2,178h0A124.11,124.11,0,0,1,268.27,70.54h0a124.09,124.09,0,0,1,124.1,0h0a124.09,124.09,0,0,1,62,107.48h0a124.12,124.12,0,0,1-62.06,107.46h0a124.07,124.07,0,0,1-124.09,0h0A124.08,124.08,0,0,1,206.2,178Z"/><path class="cls-20" d="M209.34,176.42h0a121.88,121.88,0,0,1,61-105.53h0a121.87,121.87,0,0,1,121.87,0h0a121.85,121.85,0,0,1,60.91,105.55h0A121.87,121.87,0,0,1,392.13,282h0a121.89,121.89,0,0,1-121.87,0h0A121.87,121.87,0,0,1,209.34,176.42Z"/><path class="cls-21" d="M212.48,174.84h0a119.63,119.63,0,0,1,59.85-103.6h0a119.62,119.62,0,0,1,119.64,0h0a119.65,119.65,0,0,1,59.8,103.63h0a119.64,119.64,0,0,1-59.84,103.6h0a119.64,119.64,0,0,1-119.65,0h0A119.65,119.65,0,0,1,212.48,174.84Z"/><path class="cls-22" d="M215.62,173.26h0A117.42,117.42,0,0,1,274.35,71.59h0a117.42,117.42,0,0,1,117.42,0h0a117.43,117.43,0,0,1,58.69,101.7h0A117.41,117.41,0,0,1,391.73,275h0a117.42,117.42,0,0,1-117.42,0h0A117.43,117.43,0,0,1,215.62,173.26Z"/><path class="cls-23" d="M218.76,171.68h0a115.18,115.18,0,0,1,57.62-99.74h0a115.17,115.17,0,0,1,115.19,0h0a115.17,115.17,0,0,1,57.58,99.77h0a115.2,115.2,0,0,1-57.62,99.75h0a115.17,115.17,0,0,1-115.19,0h0A115.17,115.17,0,0,1,218.76,171.68Z"/><path class="cls-24" d="M221.9,170.1h0a113,113,0,0,1,56.5-97.82h0a113,113,0,0,1,113,0h0a113,113,0,0,1,56.47,97.85h0A113,113,0,0,1,391.33,268h0a113,113,0,0,1-113,0h0A113,113,0,0,1,221.9,170.1Z"/><path class="cls-25" d="M225,168.52h0a110.75,110.75,0,0,1,55.39-95.89h0a110.75,110.75,0,0,1,110.74,0h0a110.74,110.74,0,0,1,55.35,95.92h0a110.72,110.72,0,0,1-55.38,95.89h0a110.72,110.72,0,0,1-110.74,0h0A110.74,110.74,0,0,1,225,168.52Z"/><path class="cls-26" d="M228.18,167h0a108.53,108.53,0,0,1,54.28-94h0A108.5,108.5,0,0,1,391,73h0a108.51,108.51,0,0,1,54.24,94h0a108.47,108.47,0,0,1-54.27,94h0a108.52,108.52,0,0,1-108.52,0h0A108.51,108.51,0,0,1,228.18,167Z"/><path class="cls-27" d="M231.32,165.37h0a106.29,106.29,0,0,1,53.16-92h0a106.27,106.27,0,0,1,106.29,0h0a106.26,106.26,0,0,1,53.13,92.06h0a106.3,106.3,0,0,1-53.16,92h0a106.3,106.3,0,0,1-106.29,0h0A106.3,106.3,0,0,1,231.32,165.37Z"/><path class="cls-28" d="M234.46,163.79h0a104.09,104.09,0,0,1,52-90.12h0a104.1,104.1,0,0,1,104.07,0h0a104.08,104.08,0,0,1,52,90.14h0a104.08,104.08,0,0,1-52,90.11h0a104.08,104.08,0,0,1-104.06,0h0A104.06,104.06,0,0,1,234.46,163.79Z"/><path class="cls-29" d="M237.6,162.21h0A101.86,101.86,0,0,1,288.54,74h0a101.85,101.85,0,0,1,101.84,0h0a101.85,101.85,0,0,1,50.9,88.21h0a101.84,101.84,0,0,1-50.94,88.18h0a101.83,101.83,0,0,1-101.84,0h0A101.84,101.84,0,0,1,237.6,162.21Z"/><path class="cls-30" d="M240.74,160.63h0a99.63,99.63,0,0,1,49.82-86.26h0a99.62,99.62,0,0,1,99.62,0h0A99.64,99.64,0,0,1,440,160.67h0a99.6,99.6,0,0,1-49.83,86.25h0a99.6,99.6,0,0,1-99.61,0h0A99.59,99.59,0,0,1,240.74,160.63Z"/><path class="cls-31" d="M243.88,159.05h0a97.39,97.39,0,0,1,48.71-84.33h0a97.38,97.38,0,0,1,97.39,0h0a97.39,97.39,0,0,1,48.68,84.35h0A97.41,97.41,0,0,1,390,243.42h0a97.4,97.4,0,0,1-97.39,0h0A97.39,97.39,0,0,1,243.88,159.05Z"/><path class="cls-32" d="M247,157.47h0a95.18,95.18,0,0,1,47.6-82.41h0a95.18,95.18,0,0,1,95.16,0h0a95.17,95.17,0,0,1,47.56,82.43h0a95.17,95.17,0,0,1-47.59,82.4h0a95.2,95.2,0,0,1-95.17,0h0A95.16,95.16,0,0,1,247,157.47Z"/><path class="cls-33" d="M250.16,155.89h0a93,93,0,0,1,46.48-80.48h0a93,93,0,0,1,92.94,0h0A92.93,92.93,0,0,1,436,155.92h0a92.92,92.92,0,0,1-46.48,80.48h0a92.93,92.93,0,0,1-92.94,0h0A92.92,92.92,0,0,1,250.16,155.89Z"/><path class="cls-34" d="M253.3,154.31h0a90.72,90.72,0,0,1,45.37-78.55h0a90.7,90.7,0,0,1,90.71,0h0a90.71,90.71,0,0,1,45.34,78.56h0a90.72,90.72,0,0,1-45.37,78.55h0a90.7,90.7,0,0,1-90.71,0h0A90.71,90.71,0,0,1,253.3,154.31Z"/><path class="cls-35" d="M256.44,152.73h0A88.5,88.5,0,0,1,300.7,76.11h0a88.46,88.46,0,0,1,88.48,0h0a88.45,88.45,0,0,1,44.23,76.63h0a88.51,88.51,0,0,1-44.26,76.63h0a88.48,88.48,0,0,1-88.48,0h0A88.47,88.47,0,0,1,256.44,152.73Z"/><path class="cls-36" d="M259.58,151.15h0a86.25,86.25,0,0,1,43.14-74.69h0a86.25,86.25,0,0,1,86.26,0h0a86.28,86.28,0,0,1,43.12,74.71h0A86.27,86.27,0,0,1,389,225.88h0a86.25,86.25,0,0,1-86.26,0h0A86.25,86.25,0,0,1,259.58,151.15Z"/><path class="cls-37" d="M262.72,149.57h0a84.06,84.06,0,0,1,42-72.77h0a84,84,0,0,1,84,0h0a84,84,0,0,1,42,72.78h0a84.06,84.06,0,0,1-42,72.77h0a84,84,0,0,1-84,0h0A84,84,0,0,1,262.72,149.57Z"/><path class="cls-38" d="M265.86,148h0a81.78,81.78,0,0,1,40.92-70.84h0a81.79,81.79,0,0,1,81.8,0h0A81.81,81.81,0,0,1,429.47,148h0a81.8,81.8,0,0,1-40.91,70.84h0a81.8,81.8,0,0,1-81.81,0h0A81.8,81.8,0,0,1,265.86,148Z"/><path class="cls-39" d="M269,146.41h0A79.58,79.58,0,0,1,308.8,77.5h0a79.6,79.6,0,0,1,79.59,0h0a79.58,79.58,0,0,1,39.77,68.93h0a79.6,79.6,0,0,1-39.8,68.92h0a79.58,79.58,0,0,1-79.58,0h0A79.58,79.58,0,0,1,269,146.41Z"/><path class="cls-40" d="M272.14,144.83h0a77.32,77.32,0,0,1,38.69-67h0a77.36,77.36,0,0,1,77.36,0h0a77.35,77.35,0,0,1,38.66,67h0a77.35,77.35,0,0,1-38.69,67h0a77.36,77.36,0,0,1-77.36,0h0A77.34,77.34,0,0,1,272.14,144.83Z"/><path class="cls-41" d="M275.28,143.25h0a75.13,75.13,0,0,1,37.58-65.06h0a75.13,75.13,0,0,1,75.13,0h0a75.12,75.12,0,0,1,37.55,65.07h0A75.13,75.13,0,0,1,388,208.34h0a75.11,75.11,0,0,1-75.13,0h0A75.12,75.12,0,0,1,275.28,143.25Z"/><path class="cls-42" d="M278.42,141.67h0a72.9,72.9,0,0,1,36.46-63.13h0a72.91,72.91,0,0,1,72.91,0h0a72.9,72.9,0,0,1,36.44,63.14h0a72.92,72.92,0,0,1-36.47,63.13h0a72.89,72.89,0,0,1-72.9,0h0A72.89,72.89,0,0,1,278.42,141.67Z"/><path class="cls-43" d="M281.56,140.09h0a70.66,70.66,0,0,1,35.35-61.2h0a70.68,70.68,0,0,1,70.68,0h0a70.69,70.69,0,0,1,35.33,61.22h0a70.68,70.68,0,0,1-35.35,61.2h0a70.66,70.66,0,0,1-70.68,0h0A70.67,70.67,0,0,1,281.56,140.09Z"/><path d="M284.7,138.51h0a68.42,68.42,0,0,1,34.24-59.27h0a68.44,68.44,0,0,1,68.45,0h0a68.46,68.46,0,0,1,34.22,59.29h0a68.48,68.48,0,0,1-34.24,59.28h0a68.46,68.46,0,0,1-68.46,0h0A68.45,68.45,0,0,1,284.7,138.51Z"/></g><path class="cls-44" d="M223,158.19A121.15,121.15,0,1,1,344.14,279.33,121.29,121.29,0,0,1,223,158.19Zm6.71,0A114.44,114.44,0,1,0,344.14,43.76,114.56,114.56,0,0,0,229.7,158.19Z"/><circle class="cls-45" cx="344.14" cy="158.19" r="117.79"/><path class="cls-46" d="M424.6,74.55a115.35,115.35,0,0,0-77.52-32.12V57a100.88,100.88,0,0,1,67.25,27.86Z"/><path class="cls-47" d="M271.18,88.4,260.91,78.13a115.32,115.32,0,0,0-32.13,77.52h14.54A100.86,100.86,0,0,1,271.18,88.4Z"/><path class="cls-48" d="M243.32,160.72H228.78a115.32,115.32,0,0,0,32.13,77.52L271.18,228A100.81,100.81,0,0,1,243.32,160.72Z"/><path class="cls-48" d="M445.77,155.65H460.3a115.31,115.31,0,0,0-32.12-77.52L417.91,88.4A100.91,100.91,0,0,1,445.77,155.65Z"/><path class="cls-46" d="M264.49,241.82A115.32,115.32,0,0,0,342,274V259.41a100.86,100.86,0,0,1-67.25-27.86Z"/><path class="cls-47" d="M417.91,228l10.27,10.27a115.31,115.31,0,0,0,32.12-77.52H445.77A100.86,100.86,0,0,1,417.91,228Z"/><path class="cls-49" d="M347.08,259.41V274a115.31,115.31,0,0,0,77.52-32.13l-10.27-10.27A100.83,100.83,0,0,1,347.08,259.41Z"/><path class="cls-49" d="M274.76,84.82A100.91,100.91,0,0,1,342,57V42.43a115.36,115.36,0,0,0-77.52,32.12Z"/><g class="cls-50"><path class="cls-51" d="M638.51,178.82H516.66a38.23,38.23,0,0,1-38.23-38.23h0a38.23,38.23,0,0,1,38.23-38.23H638.51a38.23,38.23,0,0,1,38.23,38.23h0A38.23,38.23,0,0,1,638.51,178.82Z"/><path class="cls-52" d="M638.68,177.64H517a37.5,37.5,0,0,1-37.5-37.5h0a37.5,37.5,0,0,1,37.5-37.5h121.7a37.5,37.5,0,0,1,37.5,37.5h0A37.5,37.5,0,0,1,638.68,177.64Z"/><path class="cls-53" d="M638.86,176.46H517.29a36.76,36.76,0,0,1-36.76-36.77h0a36.76,36.76,0,0,1,36.76-36.76H638.86a36.76,36.76,0,0,1,36.76,36.76h0A36.76,36.76,0,0,1,638.86,176.46Z"/><path class="cls-54" d="M639,175.27H517.61a36,36,0,0,1-36-36h0a36,36,0,0,1,36-36H639a36,36,0,0,1,36,36h0A36,36,0,0,1,639,175.27Z"/><path class="cls-55" d="M639.21,174.09H517.93a35.29,35.29,0,0,1-35.3-35.29h0a35.29,35.29,0,0,1,35.3-35.3H639.21a35.29,35.29,0,0,1,35.29,35.3h0A35.29,35.29,0,0,1,639.21,174.09Z"/><path class="cls-56" d="M639.38,172.91H518.24a34.56,34.56,0,0,1-34.56-34.56h0a34.56,34.56,0,0,1,34.56-34.56H639.38A34.56,34.56,0,0,1,674,138.35h0A34.56,34.56,0,0,1,639.38,172.91Z"/><path class="cls-57" d="M639.56,171.73h-121a33.83,33.83,0,0,1-33.83-33.83h0a33.83,33.83,0,0,1,33.83-33.83h121a33.83,33.83,0,0,1,33.83,33.83h0A33.83,33.83,0,0,1,639.56,171.73Z"/><path class="cls-58" d="M639.73,170.55H518.88a33.1,33.1,0,0,1-33.1-33.09h0a33.1,33.1,0,0,1,33.1-33.1H639.73a33.1,33.1,0,0,1,33.1,33.1h0A33.1,33.1,0,0,1,639.73,170.55Z"/><path class="cls-59" d="M639.91,169.37H519.19A32.36,32.36,0,0,1,486.83,137h0a32.36,32.36,0,0,1,32.36-32.36H639.91A32.36,32.36,0,0,1,672.27,137h0A32.36,32.36,0,0,1,639.91,169.37Z"/><path class="cls-60" d="M640.08,168.19H519.51a31.63,31.63,0,0,1-31.63-31.63h0a31.63,31.63,0,0,1,31.63-31.63H640.08a31.63,31.63,0,0,1,31.63,31.63h0A31.63,31.63,0,0,1,640.08,168.19Z"/><path class="cls-61" d="M640.26,167H519.83a30.89,30.89,0,0,1-30.9-30.9h0a30.89,30.89,0,0,1,30.9-30.89H640.26a30.89,30.89,0,0,1,30.89,30.89h0A30.89,30.89,0,0,1,640.26,167Z"/><path class="cls-62" d="M640.43,165.83H520.14A30.16,30.16,0,0,1,490,135.67h0a30.16,30.16,0,0,1,30.16-30.17H640.43a30.16,30.16,0,0,1,30.16,30.17h0A30.16,30.16,0,0,1,640.43,165.83Z"/><path class="cls-63" d="M640.61,164.65H520.46A29.43,29.43,0,0,1,491,135.22h0a29.43,29.43,0,0,1,29.43-29.43H640.61A29.43,29.43,0,0,1,670,135.22h0A29.43,29.43,0,0,1,640.61,164.65Z"/><path class="cls-64" d="M640.78,163.47h-120a28.7,28.7,0,0,1-28.7-28.7h0a28.69,28.69,0,0,1,28.7-28.69h120a28.69,28.69,0,0,1,28.7,28.69h0A28.7,28.7,0,0,1,640.78,163.47Z"/><path class="cls-65" d="M641,162.29H521.09a28,28,0,0,1-28-28h0a28,28,0,0,1,28-28H641a28,28,0,0,1,28,28h0A28,28,0,0,1,641,162.29Z"/><path class="cls-66" d="M641.13,161.11H521.41a27.23,27.23,0,0,1-27.23-27.23h0a27.23,27.23,0,0,1,27.23-27.23H641.13a27.23,27.23,0,0,1,27.23,27.23h0A27.23,27.23,0,0,1,641.13,161.11Z"/><path class="cls-67" d="M641.31,159.93H521.73a26.5,26.5,0,0,1-26.5-26.5h0a26.5,26.5,0,0,1,26.5-26.5H641.31a26.5,26.5,0,0,1,26.49,26.5h0A26.5,26.5,0,0,1,641.31,159.93Z"/><path class="cls-68" d="M641.48,158.74H522A25.76,25.76,0,0,1,496.28,133h0A25.76,25.76,0,0,1,522,107.22H641.48A25.76,25.76,0,0,1,667.24,133h0A25.76,25.76,0,0,1,641.48,158.74Z"/><path class="cls-69" d="M641.66,157.56H522.36a25,25,0,0,1-25-25h0a25,25,0,0,1,25-25h119.3a25,25,0,0,1,25,25h0A25,25,0,0,1,641.66,157.56Z"/><path class="cls-70" d="M641.83,156.38H522.67a24.29,24.29,0,0,1-24.29-24.29h0a24.3,24.3,0,0,1,24.29-24.3H641.83a24.3,24.3,0,0,1,24.3,24.3h0A24.29,24.29,0,0,1,641.83,156.38Z"/><path class="cls-71" d="M642,155.2H523a23.56,23.56,0,0,1-23.56-23.56h0A23.56,23.56,0,0,1,523,108.08H642a23.56,23.56,0,0,1,23.56,23.56h0A23.56,23.56,0,0,1,642,155.2Z"/><path class="cls-72" d="M642.18,154H523.31a22.83,22.83,0,0,1-22.83-22.83h0a22.83,22.83,0,0,1,22.83-22.83H642.18A22.83,22.83,0,0,1,665,131.19h0A22.83,22.83,0,0,1,642.18,154Z"/><path class="cls-73" d="M642.36,152.84H523.62a22.09,22.09,0,0,1-22.09-22.09h0a22.09,22.09,0,0,1,22.09-22.1H642.36a22.09,22.09,0,0,1,22.09,22.1h0A22.09,22.09,0,0,1,642.36,152.84Z"/><path class="cls-74" d="M642.53,151.66H523.94a21.36,21.36,0,0,1-21.36-21.36h0a21.36,21.36,0,0,1,21.36-21.36H642.53a21.36,21.36,0,0,1,21.36,21.36h0A21.36,21.36,0,0,1,642.53,151.66Z"/><path class="cls-75" d="M642.71,150.48H524.26a20.63,20.63,0,0,1-20.63-20.63h0a20.63,20.63,0,0,1,20.63-20.63H642.71a20.63,20.63,0,0,1,20.63,20.63h0A20.63,20.63,0,0,1,642.71,150.48Z"/><path class="cls-76" d="M642.88,149.3H524.57a19.9,19.9,0,0,1-19.89-19.9h0a19.89,19.89,0,0,1,19.89-19.89H642.88a19.89,19.89,0,0,1,19.9,19.89h0A19.9,19.9,0,0,1,642.88,149.3Z"/><path class="cls-77" d="M643.06,148.12H524.89A19.16,19.16,0,0,1,505.73,129h0a19.16,19.16,0,0,1,19.16-19.17H643.06A19.16,19.16,0,0,1,662.22,129h0A19.16,19.16,0,0,1,643.06,148.12Z"/><path class="cls-78" d="M643.23,146.94h-118a18.43,18.43,0,0,1-18.43-18.43h0a18.43,18.43,0,0,1,18.43-18.43h118a18.43,18.43,0,0,1,18.43,18.43h0A18.43,18.43,0,0,1,643.23,146.94Z"/><path class="cls-79" d="M643.41,145.76H525.52a17.7,17.7,0,0,1-17.69-17.7h0a17.69,17.69,0,0,1,17.69-17.69H643.41a17.69,17.69,0,0,1,17.69,17.69h0A17.7,17.7,0,0,1,643.41,145.76Z"/><path class="cls-80" d="M643.58,144.58H525.84a17,17,0,0,1-17-17h0a17,17,0,0,1,17-17H643.58a17,17,0,0,1,17,17h0A17,17,0,0,1,643.58,144.58Z"/><path class="cls-81" d="M643.76,143.39H526.16a16.23,16.23,0,0,1-16.23-16.22h0a16.23,16.23,0,0,1,16.23-16.23h117.6A16.23,16.23,0,0,1,660,127.17h0A16.23,16.23,0,0,1,643.76,143.39Z"/><path class="cls-82" d="M643.93,142.21H526.47A15.49,15.49,0,0,1,511,126.72h0a15.5,15.5,0,0,1,15.49-15.5H643.93a15.5,15.5,0,0,1,15.5,15.5h0A15.49,15.49,0,0,1,643.93,142.21Z"/></g><path class="cls-83" d="M656.21,148.17H529.61a33.69,33.69,0,0,1-33.69-33.7h0a33.69,33.69,0,0,1,33.69-33.69h126.6a33.69,33.69,0,0,1,33.69,33.69h0A33.69,33.69,0,0,1,656.21,148.17Z"/><path class="cls-84" d="M529.61,150a35.53,35.53,0,0,1,0-71h126.6a35.53,35.53,0,0,1,0,71.05Z"/><path class="cls-48" d="M656.21,148.17H529.61a33.69,33.69,0,0,1-33.69-33.7h0a33.69,33.69,0,0,1,33.69-33.69h126.6a33.69,33.69,0,0,1,33.69,33.69h0A33.69,33.69,0,0,1,656.21,148.17Z"/><g class="cls-50"><path class="cls-51" d="M638.51,259.24H516.66A38.23,38.23,0,0,1,478.43,221h0a38.23,38.23,0,0,1,38.23-38.23H638.51A38.23,38.23,0,0,1,676.74,221h0A38.23,38.23,0,0,1,638.51,259.24Z"/><path class="cls-52" d="M638.68,258.06H517a37.5,37.5,0,0,1-37.5-37.5h0a37.5,37.5,0,0,1,37.5-37.5h121.7a37.5,37.5,0,0,1,37.5,37.5h0A37.5,37.5,0,0,1,638.68,258.06Z"/><path class="cls-53" d="M638.86,256.87H517.29a36.76,36.76,0,0,1-36.76-36.76h0a36.76,36.76,0,0,1,36.76-36.76H638.86a36.76,36.76,0,0,1,36.76,36.76h0A36.76,36.76,0,0,1,638.86,256.87Z"/><path class="cls-54" d="M639,255.69H517.61a36,36,0,0,1-36-36h0a36,36,0,0,1,36-36H639a36,36,0,0,1,36,36h0A36,36,0,0,1,639,255.69Z"/><path class="cls-55" d="M639.21,254.51H517.93a35.29,35.29,0,0,1-35.3-35.29h0a35.29,35.29,0,0,1,35.3-35.3H639.21a35.29,35.29,0,0,1,35.29,35.3h0A35.29,35.29,0,0,1,639.21,254.51Z"/><path class="cls-56" d="M639.38,253.33H518.24a34.56,34.56,0,0,1-34.56-34.56h0a34.56,34.56,0,0,1,34.56-34.56H639.38A34.56,34.56,0,0,1,674,218.77h0A34.56,34.56,0,0,1,639.38,253.33Z"/><path class="cls-57" d="M639.56,252.15h-121a33.83,33.83,0,0,1-33.83-33.83h0a33.83,33.83,0,0,1,33.83-33.83h121a33.83,33.83,0,0,1,33.83,33.83h0A33.83,33.83,0,0,1,639.56,252.15Z"/><path class="cls-58" d="M639.73,251H518.88a33.1,33.1,0,0,1-33.1-33.1h0a33.1,33.1,0,0,1,33.1-33.09H639.73a33.1,33.1,0,0,1,33.1,33.09h0A33.1,33.1,0,0,1,639.73,251Z"/><path class="cls-59" d="M639.91,249.79H519.19a32.36,32.36,0,0,1-32.36-32.36h0a32.36,32.36,0,0,1,32.36-32.37H639.91a32.36,32.36,0,0,1,32.36,32.37h0A32.36,32.36,0,0,1,639.91,249.79Z"/><path class="cls-60" d="M640.08,248.61H519.51A31.63,31.63,0,0,1,487.88,217h0a31.63,31.63,0,0,1,31.63-31.63H640.08A31.63,31.63,0,0,1,671.71,217h0A31.63,31.63,0,0,1,640.08,248.61Z"/><path class="cls-61" d="M640.26,247.43H519.83a30.89,30.89,0,0,1-30.9-30.9h0a30.89,30.89,0,0,1,30.9-30.89H640.26a30.89,30.89,0,0,1,30.89,30.89h0A30.89,30.89,0,0,1,640.26,247.43Z"/><path class="cls-62" d="M640.43,246.25H520.14A30.16,30.16,0,0,1,490,216.09h0a30.16,30.16,0,0,1,30.16-30.17H640.43a30.16,30.16,0,0,1,30.16,30.17h0A30.16,30.16,0,0,1,640.43,246.25Z"/><path class="cls-63" d="M640.61,245.07H520.46A29.43,29.43,0,0,1,491,215.64h0a29.43,29.43,0,0,1,29.43-29.43H640.61A29.43,29.43,0,0,1,670,215.64h0A29.43,29.43,0,0,1,640.61,245.07Z"/><path class="cls-64" d="M640.78,243.89h-120a28.7,28.7,0,0,1-28.7-28.7h0a28.7,28.7,0,0,1,28.7-28.7h120a28.7,28.7,0,0,1,28.7,28.7h0A28.7,28.7,0,0,1,640.78,243.89Z"/><path class="cls-65" d="M641,242.71H521.09a28,28,0,0,1-28-28h0a28,28,0,0,1,28-28H641a28,28,0,0,1,28,28h0A28,28,0,0,1,641,242.71Z"/><path class="cls-66" d="M641.13,241.53H521.41a27.23,27.23,0,0,1-27.23-27.23h0a27.23,27.23,0,0,1,27.23-27.23H641.13a27.23,27.23,0,0,1,27.23,27.23h0A27.23,27.23,0,0,1,641.13,241.53Z"/><path class="cls-67" d="M641.31,240.34H521.73a26.49,26.49,0,0,1-26.5-26.49h0a26.5,26.5,0,0,1,26.5-26.5H641.31a26.5,26.5,0,0,1,26.49,26.5h0A26.49,26.49,0,0,1,641.31,240.34Z"/><path class="cls-68" d="M641.48,239.16H522a25.76,25.76,0,0,1-25.76-25.76h0A25.76,25.76,0,0,1,522,187.64H641.48a25.76,25.76,0,0,1,25.76,25.76h0A25.76,25.76,0,0,1,641.48,239.16Z"/><path class="cls-69" d="M641.66,238H522.36a25,25,0,0,1-25-25h0a25,25,0,0,1,25-25h119.3a25,25,0,0,1,25,25h0A25,25,0,0,1,641.66,238Z"/><path class="cls-70" d="M641.83,236.8H522.67a24.29,24.29,0,0,1-24.29-24.29h0a24.3,24.3,0,0,1,24.29-24.3H641.83a24.3,24.3,0,0,1,24.3,24.3h0A24.29,24.29,0,0,1,641.83,236.8Z"/><path class="cls-71" d="M642,235.62H523a23.56,23.56,0,0,1-23.56-23.56h0A23.56,23.56,0,0,1,523,188.5H642a23.56,23.56,0,0,1,23.56,23.56h0A23.56,23.56,0,0,1,642,235.62Z"/><path class="cls-72" d="M642.18,234.44H523.31a22.83,22.83,0,0,1-22.83-22.83h0a22.83,22.83,0,0,1,22.83-22.83H642.18A22.83,22.83,0,0,1,665,211.61h0A22.83,22.83,0,0,1,642.18,234.44Z"/><path class="cls-73" d="M642.36,233.26H523.62a22.09,22.09,0,0,1-22.09-22.1h0a22.09,22.09,0,0,1,22.09-22.09H642.36a22.09,22.09,0,0,1,22.09,22.09h0A22.09,22.09,0,0,1,642.36,233.26Z"/><path class="cls-74" d="M642.53,232.08H523.94a21.36,21.36,0,0,1-21.36-21.36h0a21.36,21.36,0,0,1,21.36-21.36H642.53a21.36,21.36,0,0,1,21.36,21.36h0A21.36,21.36,0,0,1,642.53,232.08Z"/><path class="cls-75" d="M642.71,230.9H524.26a20.63,20.63,0,0,1-20.63-20.63h0a20.63,20.63,0,0,1,20.63-20.63H642.71a20.63,20.63,0,0,1,20.63,20.63h0A20.63,20.63,0,0,1,642.71,230.9Z"/><path class="cls-76" d="M642.88,229.72H524.57a19.9,19.9,0,0,1-19.89-19.9h0a19.89,19.89,0,0,1,19.89-19.89H642.88a19.89,19.89,0,0,1,19.9,19.89h0A19.9,19.9,0,0,1,642.88,229.72Z"/><path class="cls-77" d="M643.06,228.54H524.89a19.16,19.16,0,0,1-19.16-19.16h0a19.16,19.16,0,0,1,19.16-19.17H643.06a19.16,19.16,0,0,1,19.16,19.17h0A19.16,19.16,0,0,1,643.06,228.54Z"/><path class="cls-78" d="M643.23,227.36h-118a18.43,18.43,0,0,1-18.43-18.43h0a18.43,18.43,0,0,1,18.43-18.43h118a18.43,18.43,0,0,1,18.43,18.43h0A18.43,18.43,0,0,1,643.23,227.36Z"/><path class="cls-79" d="M643.41,226.18H525.52a17.7,17.7,0,0,1-17.69-17.7h0a17.69,17.69,0,0,1,17.69-17.69H643.41a17.69,17.69,0,0,1,17.69,17.69h0A17.7,17.7,0,0,1,643.41,226.18Z"/><path class="cls-80" d="M643.58,225H525.84a17,17,0,0,1-17-17h0a17,17,0,0,1,17-17H643.58a17,17,0,0,1,17,17h0A17,17,0,0,1,643.58,225Z"/><path class="cls-81" d="M643.76,223.81H526.16a16.23,16.23,0,0,1-16.23-16.22h0a16.23,16.23,0,0,1,16.23-16.23h117.6A16.23,16.23,0,0,1,660,207.59h0A16.23,16.23,0,0,1,643.76,223.81Z"/><path class="cls-82" d="M643.93,222.63H526.47A15.49,15.49,0,0,1,511,207.14h0a15.5,15.5,0,0,1,15.49-15.5H643.93a15.5,15.5,0,0,1,15.5,15.5h0A15.49,15.49,0,0,1,643.93,222.63Z"/></g><path class="cls-85" d="M656.21,228.59H529.61a33.69,33.69,0,0,1-33.69-33.7h0a33.69,33.69,0,0,1,33.69-33.69h126.6a33.69,33.69,0,0,1,33.69,33.69h0A33.69,33.69,0,0,1,656.21,228.59Z"/><path class="cls-86" d="M529.61,230.42a35.53,35.53,0,0,1,0-71h126.6a35.53,35.53,0,0,1,0,71Z"/><path class="cls-47" d="M656.21,228.59H529.61a33.69,33.69,0,0,1-33.69-33.7h0a33.69,33.69,0,0,1,33.69-33.69h126.6a33.69,33.69,0,0,1,33.69,33.69h0A33.69,33.69,0,0,1,656.21,228.59Z"/><g class="cls-50"><rect class="cls-51" y="102.31" width="198.31" height="76.46" rx="5.04"/><rect class="cls-52" x="0.56" y="102.6" width="196.7" height="74.99" rx="5.38"/><rect class="cls-53" x="1.12" y="102.88" width="195.09" height="73.53" rx="5.72"/><rect class="cls-54" x="1.68" y="103.17" width="193.48" height="72.06" rx="6.05"/><rect class="cls-55" x="2.23" y="103.46" width="191.87" height="70.59" rx="6.39"/><rect class="cls-56" x="2.79" y="103.74" width="190.27" height="69.13" rx="6.73"/><rect class="cls-57" x="3.35" y="104.03" width="188.66" height="67.66" rx="7.06"/><rect class="cls-58" x="3.91" y="104.31" width="187.05" height="66.19" rx="7.4"/><rect class="cls-59" x="4.47" y="104.6" width="185.44" height="64.73" rx="7.74"/><rect class="cls-60" x="5.03" y="104.89" width="183.83" height="63.26" rx="8.08"/><rect class="cls-61" x="5.58" y="105.17" width="182.22" height="61.79" rx="8.41"/><rect class="cls-62" x="6.14" y="105.46" width="180.62" height="60.32" rx="8.75"/><rect class="cls-63" x="6.7" y="105.74" width="179.01" height="58.86" rx="9.09"/><path class="cls-64" d="M16.68,106H175.23a9.42,9.42,0,0,1,9.42,9.42V154a9.43,9.43,0,0,1-9.43,9.43H16.68A9.42,9.42,0,0,1,7.26,154V115.46A9.43,9.43,0,0,1,16.68,106Z"/><rect class="cls-65" x="7.82" y="106.32" width="175.79" height="55.92" rx="9.76"/><rect class="cls-66" x="8.38" y="106.6" width="174.18" height="54.46" rx="10.1"/><rect class="cls-67" x="8.93" y="106.89" width="172.57" height="52.99" rx="10.44"/><rect class="cls-68" x="9.49" y="107.18" width="170.96" height="51.52" rx="10.77"/><rect class="cls-69" x="10.05" y="107.46" width="169.36" height="50.06" rx="11.11"/><rect class="cls-70" x="10.61" y="107.75" width="167.75" height="48.59" rx="11.45"/><rect class="cls-71" x="11.17" y="108.03" width="166.14" height="47.12" rx="11.79"/><rect class="cls-72" x="11.73" y="108.32" width="164.53" height="45.66" rx="12.12"/><rect class="cls-73" x="12.29" y="108.61" width="162.92" height="44.19" rx="12.46"/><rect class="cls-74" x="12.84" y="108.89" width="161.31" height="42.72" rx="12.8"/><rect class="cls-75" x="13.4" y="109.18" width="159.71" height="41.26" rx="13.13"/><rect class="cls-76" x="13.96" y="109.46" width="158.1" height="39.79" rx="13.47"/><rect class="cls-77" x="14.52" y="109.75" width="156.49" height="38.32" rx="13.81"/><rect class="cls-78" x="15.08" y="110.04" width="154.88" height="36.86" rx="14.15"/><rect class="cls-79" x="15.64" y="110.32" width="153.27" height="35.39" rx="14.48"/><rect class="cls-80" x="16.19" y="110.61" width="151.66" height="33.92" rx="14.82"/><rect class="cls-81" x="16.75" y="110.89" width="150.06" height="32.46" rx="15.16"/><path class="cls-82" d="M32.81,142.17H150.26a15.5,15.5,0,0,0,15.5-15.5h0a15.5,15.5,0,0,0-15.5-15.49H32.81a15.5,15.5,0,0,0-15.5,15.49h0A15.5,15.5,0,0,0,32.81,142.17Z"/></g><path class="cls-87" d="M36.1,148.13H162.7a33.7,33.7,0,0,0,33.7-33.7h0a33.7,33.7,0,0,0-33.7-33.7H36.1a33.69,33.69,0,0,0-33.69,33.7h0A33.69,33.69,0,0,0,36.1,148.13Z"/><path class="cls-88" d="M162.7,150a35.53,35.53,0,0,0,0-71.06H36.1a35.53,35.53,0,0,0,0,71.06Z"/><path class="cls-47" d="M36.1,148.13H162.7a33.7,33.7,0,0,0,33.7-33.7h0a33.7,33.7,0,0,0-33.7-33.7H36.1a33.69,33.69,0,0,0-33.69,33.7h0A33.69,33.69,0,0,0,36.1,148.13Z"/><g class="cls-50"><path class="cls-51" d="M38.23,100H160.08a38.23,38.23,0,0,0,38.23-38.23h0a38.23,38.23,0,0,0-38.23-38.23H38.23A38.23,38.23,0,0,0,0,61.77H0A38.23,38.23,0,0,0,38.23,100Z"/><path class="cls-52" d="M38.05,98.82H159.76a37.49,37.49,0,0,0,37.5-37.49h0a37.5,37.5,0,0,0-37.5-37.5H38.05A37.5,37.5,0,0,0,.56,61.33h0A37.49,37.49,0,0,0,38.05,98.82Z"/><path class="cls-53" d="M37.88,97.64H159.44a36.76,36.76,0,0,0,36.77-36.76h0a36.76,36.76,0,0,0-36.77-36.76H37.88A36.76,36.76,0,0,0,1.12,60.88h0A36.76,36.76,0,0,0,37.88,97.64Z"/><path class="cls-54" d="M37.7,96.46H159.13a36,36,0,0,0,36-36h0a36,36,0,0,0-36-36H37.7a36,36,0,0,0-36,36h0A36,36,0,0,0,37.7,96.46Z"/><path class="cls-55" d="M37.53,95.28H158.81A35.29,35.29,0,0,0,194.11,60h0a35.29,35.29,0,0,0-35.3-35.3H37.53A35.3,35.3,0,0,0,2.23,60h0A35.3,35.3,0,0,0,37.53,95.28Z"/><path class="cls-56" d="M37.36,94.1H158.49a34.56,34.56,0,0,0,34.57-34.56h0A34.57,34.57,0,0,0,158.49,25H37.36A34.57,34.57,0,0,0,2.79,59.54h0A34.56,34.56,0,0,0,37.36,94.1Z"/><path class="cls-57" d="M37.18,92.92h121A33.83,33.83,0,0,0,192,59.09h0a33.83,33.83,0,0,0-33.83-33.83h-121A33.83,33.83,0,0,0,3.35,59.09h0A33.83,33.83,0,0,0,37.18,92.92Z"/><path class="cls-58" d="M37,91.74H157.86A33.1,33.1,0,0,0,191,58.64h0a33.09,33.09,0,0,0-33.1-33.09H37A33.09,33.09,0,0,0,3.91,58.64h0A33.1,33.1,0,0,0,37,91.74Z"/><path class="cls-59" d="M36.83,90.56H157.54A32.36,32.36,0,0,0,189.91,58.2h0a32.37,32.37,0,0,0-32.37-32.37H36.83A32.36,32.36,0,0,0,4.47,58.2h0A32.36,32.36,0,0,0,36.83,90.56Z"/><path class="cls-60" d="M36.66,89.38H157.23a31.63,31.63,0,0,0,31.63-31.63h0a31.63,31.63,0,0,0-31.63-31.63H36.66A31.63,31.63,0,0,0,5,57.75H5A31.63,31.63,0,0,0,36.66,89.38Z"/><path class="cls-61" d="M36.48,88.2H156.91a30.9,30.9,0,0,0,30.9-30.9h0a30.9,30.9,0,0,0-30.9-30.9H36.48A30.91,30.91,0,0,0,5.58,57.3h0A30.91,30.91,0,0,0,36.48,88.2Z"/><path class="cls-62" d="M36.31,87H156.6a30.17,30.17,0,0,0,30.16-30.17h0A30.16,30.16,0,0,0,156.6,26.69H36.31A30.16,30.16,0,0,0,6.14,56.85h0A30.17,30.17,0,0,0,36.31,87Z"/><path class="cls-63" d="M36.13,85.83H156.28a29.43,29.43,0,0,0,29.43-29.42h0A29.43,29.43,0,0,0,156.28,27H36.13A29.43,29.43,0,0,0,6.7,56.41h0A29.43,29.43,0,0,0,36.13,85.83Z"/><path class="cls-64" d="M36,84.65H156A28.69,28.69,0,0,0,184.66,56h0A28.7,28.7,0,0,0,156,27.26H36A28.7,28.7,0,0,0,7.26,56h0A28.69,28.69,0,0,0,36,84.65Z"/><path class="cls-65" d="M35.78,83.47H155.65a28,28,0,0,0,28-28h0a28,28,0,0,0-28-28H35.78a28,28,0,0,0-28,28h0A28,28,0,0,0,35.78,83.47Z"/><path class="cls-66" d="M35.61,82.29H155.33a27.23,27.23,0,0,0,27.23-27.23h0a27.23,27.23,0,0,0-27.23-27.23H35.61A27.23,27.23,0,0,0,8.38,55.06h0A27.23,27.23,0,0,0,35.61,82.29Z"/><path class="cls-67" d="M35.43,81.11H155a26.49,26.49,0,0,0,26.5-26.49h0A26.49,26.49,0,0,0,155,28.12H35.43a26.5,26.5,0,0,0-26.5,26.5h0A26.5,26.5,0,0,0,35.43,81.11Z"/><path class="cls-68" d="M35.26,79.93H154.7a25.76,25.76,0,0,0,25.76-25.76h0A25.76,25.76,0,0,0,154.7,28.41H35.26A25.76,25.76,0,0,0,9.49,54.17h0A25.76,25.76,0,0,0,35.26,79.93Z"/><path class="cls-69" d="M35.08,78.75h119.3a25,25,0,0,0,25-25h0a25,25,0,0,0-25-25H35.08a25,25,0,0,0-25,25h0A25,25,0,0,0,35.08,78.75Z"/><path class="cls-70" d="M34.91,77.57H154.06a24.3,24.3,0,0,0,24.3-24.3h0A24.3,24.3,0,0,0,154.06,29H34.91a24.3,24.3,0,0,0-24.3,24.29h0A24.3,24.3,0,0,0,34.91,77.57Z"/><path class="cls-71" d="M34.73,76.39h119a23.56,23.56,0,0,0,23.56-23.56h0a23.56,23.56,0,0,0-23.56-23.57h-119A23.56,23.56,0,0,0,11.17,52.83h0A23.56,23.56,0,0,0,34.73,76.39Z"/><path class="cls-72" d="M34.56,75.21H153.43a22.83,22.83,0,0,0,22.83-22.83h0a22.83,22.83,0,0,0-22.83-22.83H34.56A22.83,22.83,0,0,0,11.73,52.38h0A22.83,22.83,0,0,0,34.56,75.21Z"/><path class="cls-73" d="M34.38,74H153.11a22.09,22.09,0,0,0,22.1-22.1h0a22.09,22.09,0,0,0-22.1-22.09H34.38A22.09,22.09,0,0,0,12.29,51.93h0A22.09,22.09,0,0,0,34.38,74Z"/><path class="cls-74" d="M34.21,72.85H152.8a21.37,21.37,0,0,0,21.36-21.37h0A21.37,21.37,0,0,0,152.8,30.12H34.21A21.37,21.37,0,0,0,12.84,51.48h0A21.37,21.37,0,0,0,34.21,72.85Z"/><path class="cls-75" d="M34,71.67H152.48A20.63,20.63,0,0,0,173.11,51h0a20.63,20.63,0,0,0-20.63-20.63H34A20.63,20.63,0,0,0,13.4,51h0A20.63,20.63,0,0,0,34,71.67Z"/><path class="cls-76" d="M33.86,70.49h118.3a19.9,19.9,0,0,0,19.9-19.9h0a19.9,19.9,0,0,0-19.9-19.9H33.86A19.9,19.9,0,0,0,14,50.59h0A19.9,19.9,0,0,0,33.86,70.49Z"/><path class="cls-77" d="M33.68,69.3H151.85A19.16,19.16,0,0,0,171,50.14h0A19.16,19.16,0,0,0,151.85,31H33.68A19.16,19.16,0,0,0,14.52,50.14h0A19.16,19.16,0,0,0,33.68,69.3Z"/><path class="cls-78" d="M33.51,68.12h118A18.43,18.43,0,0,0,170,49.7h0a18.43,18.43,0,0,0-18.43-18.43h-118A18.43,18.43,0,0,0,15.08,49.7h0A18.43,18.43,0,0,0,33.51,68.12Z"/><path class="cls-79" d="M33.33,66.94H151.21a17.69,17.69,0,0,0,17.7-17.69h0a17.7,17.7,0,0,0-17.7-17.7H33.33a17.7,17.7,0,0,0-17.69,17.7h0A17.69,17.69,0,0,0,33.33,66.94Z"/><path class="cls-80" d="M33.16,65.76H150.9a17,17,0,0,0,17-17h0a17,17,0,0,0-17-17H33.16a17,17,0,0,0-17,17h0A17,17,0,0,0,33.16,65.76Z"/><path class="cls-81" d="M33,64.58h117.6a16.23,16.23,0,0,0,16.23-16.23h0a16.23,16.23,0,0,0-16.23-16.23H33A16.23,16.23,0,0,0,16.75,48.35h0A16.23,16.23,0,0,0,33,64.58Z"/><path class="cls-82" d="M32.81,63.4H150.26a15.5,15.5,0,0,0,15.5-15.49h0a15.5,15.5,0,0,0-15.5-15.5H32.81a15.5,15.5,0,0,0-15.5,15.5h0A15.5,15.5,0,0,0,32.81,63.4Z"/></g><path class="cls-89" d="M36.1,69.36H162.7a33.7,33.7,0,0,0,33.7-33.7h0A33.7,33.7,0,0,0,162.7,2H36.1A33.69,33.69,0,0,0,2.41,35.66h0A33.69,33.69,0,0,0,36.1,69.36Z"/><path class="cls-90" d="M162.7,71.19a35.53,35.53,0,0,0,0-71H36.1a35.53,35.53,0,0,0,0,71.05Z"/><path class="cls-49" d="M36.1,69.36H162.7a33.7,33.7,0,0,0,33.7-33.7h0A33.7,33.7,0,0,0,162.7,2H36.1A33.69,33.69,0,0,0,2.41,35.66h0A33.69,33.69,0,0,0,36.1,69.36Z"/><g class="cls-50"><path class="cls-51" d="M38.23,258.75H160.08a38.23,38.23,0,0,0,38.23-38.23h0a38.23,38.23,0,0,0-38.23-38.23H38.23A38.23,38.23,0,0,0,0,220.52H0A38.23,38.23,0,0,0,38.23,258.75Z"/><path class="cls-52" d="M38.05,257.57H159.76a37.5,37.5,0,0,0,37.5-37.5h0a37.5,37.5,0,0,0-37.5-37.5H38.05A37.5,37.5,0,0,0,.56,220.07h0A37.5,37.5,0,0,0,38.05,257.57Z"/><path class="cls-53" d="M37.88,256.39H159.44a36.77,36.77,0,0,0,36.77-36.77h0a36.76,36.76,0,0,0-36.77-36.76H37.88A36.76,36.76,0,0,0,1.12,219.62h0A36.76,36.76,0,0,0,37.88,256.39Z"/><path class="cls-54" d="M37.7,255.2H159.13a36,36,0,0,0,36-36h0a36,36,0,0,0-36-36H37.7a36,36,0,0,0-36,36h0A36,36,0,0,0,37.7,255.2Z"/><path class="cls-55" d="M37.53,254H158.81a35.29,35.29,0,0,0,35.3-35.29h0a35.29,35.29,0,0,0-35.3-35.3H37.53a35.3,35.3,0,0,0-35.3,35.3h0A35.3,35.3,0,0,0,37.53,254Z"/><path class="cls-56" d="M37.36,252.84H158.49a34.56,34.56,0,0,0,34.57-34.56h0a34.56,34.56,0,0,0-34.57-34.56H37.36A34.56,34.56,0,0,0,2.79,218.28h0A34.56,34.56,0,0,0,37.36,252.84Z"/><path class="cls-57" d="M37.18,251.66h121A33.83,33.83,0,0,0,192,217.83h0A33.83,33.83,0,0,0,158.18,184h-121A33.83,33.83,0,0,0,3.35,217.83h0A33.83,33.83,0,0,0,37.18,251.66Z"/><path class="cls-58" d="M37,250.48H157.86A33.1,33.1,0,0,0,191,217.39h0a33.1,33.1,0,0,0-33.1-33.1H37a33.1,33.1,0,0,0-33.1,33.1h0A33.1,33.1,0,0,0,37,250.48Z"/><path class="cls-59" d="M36.83,249.3H157.54a32.36,32.36,0,0,0,32.37-32.36h0a32.36,32.36,0,0,0-32.37-32.36H36.83A32.36,32.36,0,0,0,4.47,216.94h0A32.36,32.36,0,0,0,36.83,249.3Z"/><path class="cls-60" d="M36.66,248.12H157.23a31.63,31.63,0,0,0,31.63-31.63h0a31.63,31.63,0,0,0-31.63-31.63H36.66A31.63,31.63,0,0,0,5,216.49H5A31.63,31.63,0,0,0,36.66,248.12Z"/><path class="cls-61" d="M36.48,246.94H156.91a30.89,30.89,0,0,0,30.9-30.9h0a30.89,30.89,0,0,0-30.9-30.89H36.48A30.9,30.9,0,0,0,5.58,216h0A30.9,30.9,0,0,0,36.48,246.94Z"/><path class="cls-62" d="M36.31,245.76H156.6a30.17,30.17,0,0,0,30.16-30.16h0a30.17,30.17,0,0,0-30.16-30.17H36.31A30.17,30.17,0,0,0,6.14,215.6h0A30.17,30.17,0,0,0,36.31,245.76Z"/><path class="cls-63" d="M36.13,244.58H156.28a29.43,29.43,0,0,0,29.43-29.43h0a29.43,29.43,0,0,0-29.43-29.43H36.13A29.43,29.43,0,0,0,6.7,215.15h0A29.43,29.43,0,0,0,36.13,244.58Z"/><path class="cls-64" d="M36,243.4H156a28.7,28.7,0,0,0,28.7-28.7h0A28.69,28.69,0,0,0,156,186H36A28.69,28.69,0,0,0,7.26,214.7h0A28.7,28.7,0,0,0,36,243.4Z"/><path class="cls-65" d="M35.78,242.22H155.65a28,28,0,0,0,28-28h0a28,28,0,0,0-28-28H35.78a28,28,0,0,0-28,28h0A28,28,0,0,0,35.78,242.22Z"/><path class="cls-66" d="M35.61,241H155.33a27.23,27.23,0,0,0,27.23-27.23h0a27.23,27.23,0,0,0-27.23-27.23H35.61A27.23,27.23,0,0,0,8.38,213.81h0A27.23,27.23,0,0,0,35.61,241Z"/><path class="cls-67" d="M35.43,239.86H155a26.5,26.5,0,0,0,26.5-26.5h0a26.5,26.5,0,0,0-26.5-26.5H35.43a26.51,26.51,0,0,0-26.5,26.5h0A26.51,26.51,0,0,0,35.43,239.86Z"/><path class="cls-68" d="M35.26,238.67H154.7a25.76,25.76,0,0,0,25.76-25.76h0a25.76,25.76,0,0,0-25.76-25.76H35.26A25.76,25.76,0,0,0,9.49,212.91h0A25.76,25.76,0,0,0,35.26,238.67Z"/><path class="cls-69" d="M35.08,237.49h119.3a25,25,0,0,0,25-25h0a25,25,0,0,0-25-25H35.08a25,25,0,0,0-25,25h0A25,25,0,0,0,35.08,237.49Z"/><path class="cls-70" d="M34.91,236.31H154.06A24.29,24.29,0,0,0,178.36,212h0a24.3,24.3,0,0,0-24.3-24.3H34.91A24.3,24.3,0,0,0,10.61,212h0A24.29,24.29,0,0,0,34.91,236.31Z"/><path class="cls-71" d="M34.73,235.13h119a23.56,23.56,0,0,0,23.56-23.56h0A23.56,23.56,0,0,0,153.75,188h-119a23.56,23.56,0,0,0-23.56,23.56h0A23.56,23.56,0,0,0,34.73,235.13Z"/><path class="cls-72" d="M34.56,234H153.43a22.83,22.83,0,0,0,22.83-22.83h0a22.83,22.83,0,0,0-22.83-22.83H34.56a22.83,22.83,0,0,0-22.83,22.83h0A22.83,22.83,0,0,0,34.56,234Z"/><path class="cls-73" d="M34.38,232.77H153.11a22.09,22.09,0,0,0,22.1-22.09h0a22.09,22.09,0,0,0-22.1-22.1H34.38a22.09,22.09,0,0,0-22.09,22.1h0A22.09,22.09,0,0,0,34.38,232.77Z"/><path class="cls-74" d="M34.21,231.59H152.8a21.36,21.36,0,0,0,21.36-21.36h0a21.36,21.36,0,0,0-21.36-21.36H34.21a21.36,21.36,0,0,0-21.37,21.36h0A21.36,21.36,0,0,0,34.21,231.59Z"/><path class="cls-75" d="M34,230.41H152.48a20.63,20.63,0,0,0,20.63-20.63h0a20.63,20.63,0,0,0-20.63-20.63H34A20.63,20.63,0,0,0,13.4,209.78h0A20.63,20.63,0,0,0,34,230.41Z"/><path class="cls-76" d="M33.86,229.23h118.3a19.9,19.9,0,0,0,19.9-19.9h0a19.89,19.89,0,0,0-19.9-19.89H33.86A19.89,19.89,0,0,0,14,209.33h0A19.9,19.9,0,0,0,33.86,229.23Z"/><path class="cls-77" d="M33.68,228.05H151.85A19.16,19.16,0,0,0,171,208.89h0a19.16,19.16,0,0,0-19.16-19.17H33.68a19.16,19.16,0,0,0-19.16,19.17h0A19.16,19.16,0,0,0,33.68,228.05Z"/><path class="cls-78" d="M33.51,226.87h118A18.43,18.43,0,0,0,170,208.44h0A18.43,18.43,0,0,0,151.53,190h-118a18.43,18.43,0,0,0-18.43,18.43h0A18.43,18.43,0,0,0,33.51,226.87Z"/><path class="cls-79" d="M33.33,225.69H151.21a17.7,17.7,0,0,0,17.7-17.7h0a17.69,17.69,0,0,0-17.7-17.69H33.33A17.69,17.69,0,0,0,15.64,208h0A17.7,17.7,0,0,0,33.33,225.69Z"/><path class="cls-80" d="M33.16,224.51H150.9a17,17,0,0,0,17-17h0a17,17,0,0,0-17-17H33.16a17,17,0,0,0-17,17h0A17,17,0,0,0,33.16,224.51Z"/><path class="cls-81" d="M33,223.33h117.6a16.23,16.23,0,0,0,16.23-16.23h0a16.23,16.23,0,0,0-16.23-16.23H33A16.23,16.23,0,0,0,16.75,207.1h0A16.23,16.23,0,0,0,33,223.33Z"/><path class="cls-82" d="M32.81,222.14H150.26a15.49,15.49,0,0,0,15.5-15.49h0a15.5,15.5,0,0,0-15.5-15.5H32.81a15.5,15.5,0,0,0-15.5,15.5h0A15.49,15.49,0,0,0,32.81,222.14Z"/></g><path class="cls-91" d="M36.1,228.1H162.7a33.7,33.7,0,0,0,33.7-33.7h0a33.69,33.69,0,0,0-33.7-33.69H36.1A33.69,33.69,0,0,0,2.41,194.4h0A33.69,33.69,0,0,0,36.1,228.1Z"/><path class="cls-92" d="M162.7,229.93a35.53,35.53,0,0,0,0-71.05H36.1a35.53,35.53,0,0,0,0,71.05Z"/><path class="cls-48" d="M36.1,228.1H162.7a33.7,33.7,0,0,0,33.7-33.7h0a33.69,33.69,0,0,0-33.7-33.69H36.1A33.69,33.69,0,0,0,2.41,194.4h0A33.69,33.69,0,0,0,36.1,228.1Z"/><g class="cls-50"><path class="cls-51" d="M38.23,337.78H160.08a38.23,38.23,0,0,0,38.23-38.23h0a38.23,38.23,0,0,0-38.23-38.23H38.23A38.23,38.23,0,0,0,0,299.55H0A38.23,38.23,0,0,0,38.23,337.78Z"/><path class="cls-52" d="M38.05,336.6H159.76a37.5,37.5,0,0,0,37.5-37.5h0a37.5,37.5,0,0,0-37.5-37.5H38.05A37.5,37.5,0,0,0,.56,299.1h0A37.5,37.5,0,0,0,38.05,336.6Z"/><path class="cls-53" d="M37.88,335.42H159.44a36.77,36.77,0,0,0,36.77-36.77h0a36.76,36.76,0,0,0-36.77-36.76H37.88A36.76,36.76,0,0,0,1.12,298.65h0A36.76,36.76,0,0,0,37.88,335.42Z"/><path class="cls-54" d="M37.7,334.24H159.13a36,36,0,0,0,36-36h0a36,36,0,0,0-36-36H37.7a36,36,0,0,0-36,36h0A36,36,0,0,0,37.7,334.24Z"/><path class="cls-55" d="M37.53,333.06H158.81a35.3,35.3,0,0,0,35.3-35.3h0a35.3,35.3,0,0,0-35.3-35.3H37.53a35.31,35.31,0,0,0-35.3,35.3h0A35.31,35.31,0,0,0,37.53,333.06Z"/><path class="cls-56" d="M37.36,331.87H158.49a34.56,34.56,0,0,0,34.57-34.56h0a34.56,34.56,0,0,0-34.57-34.56H37.36A34.56,34.56,0,0,0,2.79,297.31h0A34.56,34.56,0,0,0,37.36,331.87Z"/><path class="cls-57" d="M37.18,330.69h121A33.83,33.83,0,0,0,192,296.86h0A33.83,33.83,0,0,0,158.18,263h-121A33.83,33.83,0,0,0,3.35,296.86h0A33.83,33.83,0,0,0,37.18,330.69Z"/><path class="cls-58" d="M37,329.51H157.86A33.09,33.09,0,0,0,191,296.42h0a33.1,33.1,0,0,0-33.1-33.1H37a33.1,33.1,0,0,0-33.1,33.1h0A33.09,33.09,0,0,0,37,329.51Z"/><path class="cls-59" d="M36.83,328.33H157.54A32.36,32.36,0,0,0,189.91,296h0a32.36,32.36,0,0,0-32.37-32.36H36.83A32.36,32.36,0,0,0,4.47,296h0A32.36,32.36,0,0,0,36.83,328.33Z"/><path class="cls-60" d="M36.66,327.15H157.23a31.63,31.63,0,0,0,31.63-31.63h0a31.63,31.63,0,0,0-31.63-31.63H36.66A31.63,31.63,0,0,0,5,295.52H5A31.63,31.63,0,0,0,36.66,327.15Z"/><path class="cls-61" d="M36.48,326H156.91a30.89,30.89,0,0,0,30.9-30.9h0a30.89,30.89,0,0,0-30.9-30.89H36.48a30.9,30.9,0,0,0-30.9,30.89h0A30.9,30.9,0,0,0,36.48,326Z"/><path class="cls-62" d="M36.31,324.79H156.6a30.16,30.16,0,0,0,30.16-30.16h0a30.17,30.17,0,0,0-30.16-30.17H36.31A30.17,30.17,0,0,0,6.14,294.63h0A30.16,30.16,0,0,0,36.31,324.79Z"/><path class="cls-63" d="M36.13,323.61H156.28a29.43,29.43,0,0,0,29.43-29.43h0a29.43,29.43,0,0,0-29.43-29.43H36.13A29.43,29.43,0,0,0,6.7,294.18h0A29.43,29.43,0,0,0,36.13,323.61Z"/><path class="cls-64" d="M36,322.43H156a28.7,28.7,0,0,0,28.7-28.7h0A28.69,28.69,0,0,0,156,265H36a28.69,28.69,0,0,0-28.7,28.69h0A28.7,28.7,0,0,0,36,322.43Z"/><path class="cls-65" d="M35.78,321.25H155.65a28,28,0,0,0,28-28h0a28,28,0,0,0-28-28H35.78a28,28,0,0,0-28,28h0A28,28,0,0,0,35.78,321.25Z"/><path class="cls-66" d="M35.61,320.07H155.33a27.23,27.23,0,0,0,27.23-27.23h0a27.23,27.23,0,0,0-27.23-27.23H35.61A27.23,27.23,0,0,0,8.38,292.84h0A27.23,27.23,0,0,0,35.61,320.07Z"/><path class="cls-67" d="M35.43,318.89H155a26.5,26.5,0,0,0,26.5-26.5h0a26.5,26.5,0,0,0-26.5-26.5H35.43a26.51,26.51,0,0,0-26.5,26.5h0A26.51,26.51,0,0,0,35.43,318.89Z"/><path class="cls-68" d="M35.26,317.71H154.7a25.77,25.77,0,0,0,25.76-25.77h0a25.77,25.77,0,0,0-25.76-25.76H35.26A25.77,25.77,0,0,0,9.49,291.94h0A25.77,25.77,0,0,0,35.26,317.71Z"/><path class="cls-69" d="M35.08,316.53h119.3a25,25,0,0,0,25-25h0a25,25,0,0,0-25-25H35.08a25,25,0,0,0-25,25h0A25,25,0,0,0,35.08,316.53Z"/><path class="cls-70" d="M34.91,315.34H154.06a24.29,24.29,0,0,0,24.3-24.29h0a24.3,24.3,0,0,0-24.3-24.3H34.91a24.3,24.3,0,0,0-24.3,24.3h0A24.29,24.29,0,0,0,34.91,315.34Z"/><path class="cls-71" d="M34.73,314.16h119a23.56,23.56,0,0,0,23.56-23.56h0A23.56,23.56,0,0,0,153.75,267h-119A23.56,23.56,0,0,0,11.17,290.6h0A23.56,23.56,0,0,0,34.73,314.16Z"/><path class="cls-72" d="M34.56,313H153.43a22.83,22.83,0,0,0,22.83-22.83h0a22.83,22.83,0,0,0-22.83-22.82H34.56a22.83,22.83,0,0,0-22.83,22.82h0A22.83,22.83,0,0,0,34.56,313Z"/><path class="cls-73" d="M34.38,311.8H153.11a22.09,22.09,0,0,0,22.1-22.09h0a22.09,22.09,0,0,0-22.1-22.1H34.38a22.09,22.09,0,0,0-22.09,22.1h0A22.09,22.09,0,0,0,34.38,311.8Z"/><path class="cls-74" d="M34.21,310.62H152.8a21.36,21.36,0,0,0,21.36-21.36h0A21.36,21.36,0,0,0,152.8,267.9H34.21a21.36,21.36,0,0,0-21.37,21.36h0A21.36,21.36,0,0,0,34.21,310.62Z"/><path class="cls-75" d="M34,309.44H152.48a20.63,20.63,0,0,0,20.63-20.63h0a20.63,20.63,0,0,0-20.63-20.63H34A20.63,20.63,0,0,0,13.4,288.81h0A20.63,20.63,0,0,0,34,309.44Z"/><path class="cls-76" d="M33.86,308.26h118.3a19.9,19.9,0,0,0,19.9-19.9h0a19.9,19.9,0,0,0-19.9-19.89H33.86A19.9,19.9,0,0,0,14,288.36h0A19.9,19.9,0,0,0,33.86,308.26Z"/><path class="cls-77" d="M33.68,307.08H151.85A19.16,19.16,0,0,0,171,287.92h0a19.16,19.16,0,0,0-19.16-19.16H33.68a19.16,19.16,0,0,0-19.16,19.16h0A19.16,19.16,0,0,0,33.68,307.08Z"/><path class="cls-78" d="M33.51,305.9h118A18.43,18.43,0,0,0,170,287.47h0A18.43,18.43,0,0,0,151.53,269h-118a18.43,18.43,0,0,0-18.43,18.43h0A18.43,18.43,0,0,0,33.51,305.9Z"/><path class="cls-79" d="M33.33,304.72H151.21a17.69,17.69,0,0,0,17.7-17.7h0a17.69,17.69,0,0,0-17.7-17.69H33.33A17.69,17.69,0,0,0,15.64,287h0A17.69,17.69,0,0,0,33.33,304.72Z"/><path class="cls-80" d="M33.16,303.54H150.9a17,17,0,0,0,17-17h0a17,17,0,0,0-17-17H33.16a17,17,0,0,0-17,17h0A17,17,0,0,0,33.16,303.54Z"/><path class="cls-81" d="M33,302.36h117.6a16.23,16.23,0,0,0,16.23-16.23h0a16.23,16.23,0,0,0-16.23-16.23H33a16.23,16.23,0,0,0-16.23,16.23h0A16.23,16.23,0,0,0,33,302.36Z"/><path class="cls-82" d="M32.81,301.18H150.26a15.5,15.5,0,0,0,15.5-15.5h0a15.49,15.49,0,0,0-15.5-15.49H32.81a15.49,15.49,0,0,0-15.5,15.49h0A15.5,15.5,0,0,0,32.81,301.18Z"/></g><path class="cls-93" d="M36.1,307.13H162.7a33.69,33.69,0,0,0,33.7-33.69h0a33.7,33.7,0,0,0-33.7-33.7H36.1a33.69,33.69,0,0,0-33.69,33.7h0A33.69,33.69,0,0,0,36.1,307.13Z"/><path class="cls-94" d="M162.7,309a35.53,35.53,0,0,0,0-71H36.1a35.53,35.53,0,0,0,0,71Z"/><path class="cls-46" d="M36.1,307.13H162.7a33.69,33.69,0,0,0,33.7-33.69h0a33.7,33.7,0,0,0-33.7-33.7H36.1a33.69,33.69,0,0,0-33.69,33.7h0A33.69,33.69,0,0,0,36.1,307.13Z"/><g class="cls-50"><path class="cls-51" d="M638.51,338.32H516.66a38.23,38.23,0,0,1-38.23-38.23h0a38.23,38.23,0,0,1,38.23-38.23H638.51a38.23,38.23,0,0,1,38.23,38.23h0A38.23,38.23,0,0,1,638.51,338.32Z"/><path class="cls-52" d="M638.68,337.13H517a37.49,37.49,0,0,1-37.5-37.49h0a37.5,37.5,0,0,1,37.5-37.5h121.7a37.5,37.5,0,0,1,37.5,37.5h0A37.49,37.49,0,0,1,638.68,337.13Z"/><path class="cls-53" d="M638.86,336H517.29a36.76,36.76,0,0,1-36.76-36.76h0a36.76,36.76,0,0,1,36.76-36.76H638.86a36.76,36.76,0,0,1,36.76,36.76h0A36.76,36.76,0,0,1,638.86,336Z"/><path class="cls-54" d="M639,334.77H517.61a36,36,0,0,1-36-36h0a36,36,0,0,1,36-36H639a36,36,0,0,1,36,36h0A36,36,0,0,1,639,334.77Z"/><path class="cls-55" d="M639.21,333.59H517.93a35.29,35.29,0,0,1-35.3-35.29h0a35.29,35.29,0,0,1,35.3-35.3H639.21a35.29,35.29,0,0,1,35.29,35.3h0A35.29,35.29,0,0,1,639.21,333.59Z"/><path class="cls-56" d="M639.38,332.41H518.24a34.56,34.56,0,0,1-34.56-34.56h0a34.56,34.56,0,0,1,34.56-34.56H639.38A34.56,34.56,0,0,1,674,297.85h0A34.56,34.56,0,0,1,639.38,332.41Z"/><path class="cls-57" d="M639.56,331.23h-121a33.83,33.83,0,0,1-33.83-33.83h0a33.83,33.83,0,0,1,33.83-33.83h121a33.83,33.83,0,0,1,33.83,33.83h0A33.83,33.83,0,0,1,639.56,331.23Z"/><path class="cls-58" d="M639.73,330.05H518.88a33.1,33.1,0,0,1-33.1-33.1h0a33.09,33.09,0,0,1,33.1-33.09H639.73A33.09,33.09,0,0,1,672.83,297h0A33.1,33.1,0,0,1,639.73,330.05Z"/><path class="cls-59" d="M639.91,328.87H519.19a32.36,32.36,0,0,1-32.36-32.36h0a32.36,32.36,0,0,1,32.36-32.37H639.91a32.36,32.36,0,0,1,32.36,32.37h0A32.36,32.36,0,0,1,639.91,328.87Z"/><path class="cls-60" d="M640.08,327.69H519.51a31.63,31.63,0,0,1-31.63-31.63h0a31.63,31.63,0,0,1,31.63-31.63H640.08a31.63,31.63,0,0,1,31.63,31.63h0A31.63,31.63,0,0,1,640.08,327.69Z"/><path class="cls-61" d="M640.26,326.51H519.83a30.89,30.89,0,0,1-30.9-30.9h0a30.89,30.89,0,0,1,30.9-30.89H640.26a30.89,30.89,0,0,1,30.89,30.89h0A30.89,30.89,0,0,1,640.26,326.51Z"/><path class="cls-62" d="M640.43,325.33H520.14A30.16,30.16,0,0,1,490,295.16h0A30.16,30.16,0,0,1,520.14,265H640.43a30.16,30.16,0,0,1,30.16,30.16h0A30.16,30.16,0,0,1,640.43,325.33Z"/><path class="cls-63" d="M640.61,324.15H520.46A29.43,29.43,0,0,1,491,294.72h0a29.43,29.43,0,0,1,29.43-29.43H640.61A29.43,29.43,0,0,1,670,294.72h0A29.43,29.43,0,0,1,640.61,324.15Z"/><path class="cls-64" d="M640.78,323h-120a28.7,28.7,0,0,1-28.7-28.7h0a28.7,28.7,0,0,1,28.7-28.7h120a28.7,28.7,0,0,1,28.7,28.7h0A28.7,28.7,0,0,1,640.78,323Z"/><path class="cls-65" d="M641,321.78H521.09a28,28,0,0,1-28-28h0a28,28,0,0,1,28-28H641a28,28,0,0,1,28,28h0A28,28,0,0,1,641,321.78Z"/><path class="cls-66" d="M641.13,320.6H521.41a27.23,27.23,0,0,1-27.23-27.22h0a27.23,27.23,0,0,1,27.23-27.23H641.13a27.23,27.23,0,0,1,27.23,27.23h0A27.23,27.23,0,0,1,641.13,320.6Z"/><path class="cls-67" d="M641.31,319.42H521.73a26.49,26.49,0,0,1-26.5-26.49h0a26.49,26.49,0,0,1,26.5-26.5H641.31a26.49,26.49,0,0,1,26.49,26.5h0A26.49,26.49,0,0,1,641.31,319.42Z"/><path class="cls-68" d="M641.48,318.24H522a25.76,25.76,0,0,1-25.76-25.76h0A25.76,25.76,0,0,1,522,266.72H641.48a25.76,25.76,0,0,1,25.76,25.76h0A25.76,25.76,0,0,1,641.48,318.24Z"/><path class="cls-69" d="M641.66,317.06H522.36a25,25,0,0,1-25-25h0a25,25,0,0,1,25-25h119.3a25,25,0,0,1,25,25h0A25,25,0,0,1,641.66,317.06Z"/><path class="cls-70" d="M641.83,315.88H522.67a24.3,24.3,0,0,1-24.29-24.29h0a24.3,24.3,0,0,1,24.29-24.3H641.83a24.3,24.3,0,0,1,24.3,24.3h0A24.3,24.3,0,0,1,641.83,315.88Z"/><path class="cls-71" d="M642,314.7H523a23.56,23.56,0,0,1-23.56-23.56h0A23.56,23.56,0,0,1,523,267.58H642a23.56,23.56,0,0,1,23.56,23.56h0A23.56,23.56,0,0,1,642,314.7Z"/><path class="cls-72" d="M642.18,313.52H523.31a22.83,22.83,0,0,1-22.83-22.83h0a22.83,22.83,0,0,1,22.83-22.83H642.18A22.83,22.83,0,0,1,665,290.69h0A22.83,22.83,0,0,1,642.18,313.52Z"/><path class="cls-73" d="M642.36,312.34H523.62a22.09,22.09,0,0,1-22.09-22.1h0a22.09,22.09,0,0,1,22.09-22.09H642.36a22.09,22.09,0,0,1,22.09,22.09h0A22.09,22.09,0,0,1,642.36,312.34Z"/><path class="cls-74" d="M642.53,311.16H523.94a21.36,21.36,0,0,1-21.36-21.36h0a21.36,21.36,0,0,1,21.36-21.37H642.53a21.36,21.36,0,0,1,21.36,21.37h0A21.36,21.36,0,0,1,642.53,311.16Z"/><path class="cls-75" d="M642.71,310H524.26a20.63,20.63,0,0,1-20.63-20.63h0a20.63,20.63,0,0,1,20.63-20.63H642.71a20.63,20.63,0,0,1,20.63,20.63h0A20.63,20.63,0,0,1,642.71,310Z"/><path class="cls-76" d="M642.88,308.8H524.57a19.9,19.9,0,0,1-19.89-19.9h0A19.89,19.89,0,0,1,524.57,269H642.88a19.89,19.89,0,0,1,19.9,19.89h0A19.9,19.9,0,0,1,642.88,308.8Z"/><path class="cls-77" d="M643.06,307.62H524.89a19.16,19.16,0,0,1-19.16-19.17h0a19.16,19.16,0,0,1,19.16-19.16H643.06a19.16,19.16,0,0,1,19.16,19.16h0A19.16,19.16,0,0,1,643.06,307.62Z"/><path class="cls-78" d="M643.23,306.44h-118A18.43,18.43,0,0,1,506.78,288h0a18.43,18.43,0,0,1,18.43-18.43h118A18.43,18.43,0,0,1,661.66,288h0A18.43,18.43,0,0,1,643.23,306.44Z"/><path class="cls-79" d="M643.41,305.25H525.52a17.69,17.69,0,0,1-17.69-17.69h0a17.7,17.7,0,0,1,17.69-17.7H643.41a17.7,17.7,0,0,1,17.69,17.7h0A17.69,17.69,0,0,1,643.41,305.25Z"/><path class="cls-80" d="M643.58,304.07H525.84a17,17,0,0,1-17-17h0a17,17,0,0,1,17-17H643.58a17,17,0,0,1,17,17h0A17,17,0,0,1,643.58,304.07Z"/><path class="cls-81" d="M643.76,302.89H526.16a16.23,16.23,0,0,1-16.23-16.23h0a16.23,16.23,0,0,1,16.23-16.22h117.6A16.23,16.23,0,0,1,660,286.66h0A16.23,16.23,0,0,1,643.76,302.89Z"/><path class="cls-82" d="M643.93,301.71H526.47A15.49,15.49,0,0,1,511,286.22h0a15.5,15.5,0,0,1,15.49-15.5H643.93a15.5,15.5,0,0,1,15.5,15.5h0A15.49,15.49,0,0,1,643.93,301.71Z"/></g><path class="cls-95" d="M656.21,307.67H529.61A33.69,33.69,0,0,1,495.92,274h0a33.69,33.69,0,0,1,33.69-33.69h126.6A33.69,33.69,0,0,1,689.9,274h0A33.69,33.69,0,0,1,656.21,307.67Z"/><path class="cls-96" d="M529.61,309.5a35.53,35.53,0,0,1,0-71.05h126.6a35.53,35.53,0,0,1,0,71.05Z"/><path class="cls-49" d="M656.21,307.67H529.61A33.69,33.69,0,0,1,495.92,274h0a33.69,33.69,0,0,1,33.69-33.69h126.6A33.69,33.69,0,0,1,689.9,274h0A33.69,33.69,0,0,1,656.21,307.67Z"/><g class="cls-50"><path class="cls-51" d="M638.51,99.87H516.66a38.23,38.23,0,0,1-38.23-38.23h0a38.23,38.23,0,0,1,38.23-38.23H638.51a38.23,38.23,0,0,1,38.23,38.23h0A38.23,38.23,0,0,1,638.51,99.87Z"/><path class="cls-52" d="M638.68,98.69H517a37.5,37.5,0,0,1-37.5-37.5h0A37.5,37.5,0,0,1,517,23.69h121.7a37.5,37.5,0,0,1,37.5,37.5h0A37.5,37.5,0,0,1,638.68,98.69Z"/><path class="cls-53" d="M638.86,97.51H517.29a36.76,36.76,0,0,1-36.76-36.77h0A36.76,36.76,0,0,1,517.29,24H638.86a36.76,36.76,0,0,1,36.76,36.76h0A36.76,36.76,0,0,1,638.86,97.51Z"/><path class="cls-54" d="M639,96.32H517.61a36,36,0,0,1-36-36h0a36,36,0,0,1,36-36H639a36,36,0,0,1,36,36h0A36,36,0,0,1,639,96.32Z"/><path class="cls-55" d="M639.21,95.14H517.93a35.29,35.29,0,0,1-35.3-35.29h0a35.29,35.29,0,0,1,35.3-35.3H639.21a35.29,35.29,0,0,1,35.29,35.3h0A35.29,35.29,0,0,1,639.21,95.14Z"/><path class="cls-56" d="M639.38,94H518.24A34.56,34.56,0,0,1,483.68,59.4h0a34.56,34.56,0,0,1,34.56-34.56H639.38A34.56,34.56,0,0,1,674,59.4h0A34.56,34.56,0,0,1,639.38,94Z"/><path class="cls-57" d="M639.56,92.78h-121A33.83,33.83,0,0,1,484.73,59h0a33.83,33.83,0,0,1,33.83-33.83h121A33.83,33.83,0,0,1,673.39,59h0A33.83,33.83,0,0,1,639.56,92.78Z"/><path class="cls-58" d="M639.73,91.6H518.88a33.1,33.1,0,0,1-33.1-33.09h0a33.1,33.1,0,0,1,33.1-33.1H639.73a33.1,33.1,0,0,1,33.1,33.1h0A33.1,33.1,0,0,1,639.73,91.6Z"/><path class="cls-59" d="M639.91,90.42H519.19a32.36,32.36,0,0,1-32.36-32.36h0A32.36,32.36,0,0,1,519.19,25.7H639.91a32.36,32.36,0,0,1,32.36,32.36h0A32.36,32.36,0,0,1,639.91,90.42Z"/><path class="cls-60" d="M640.08,89.24H519.51a31.63,31.63,0,0,1-31.63-31.63h0A31.63,31.63,0,0,1,519.51,26H640.08a31.63,31.63,0,0,1,31.63,31.63h0A31.63,31.63,0,0,1,640.08,89.24Z"/><path class="cls-61" d="M640.26,88.06H519.83a30.89,30.89,0,0,1-30.9-30.9h0a30.89,30.89,0,0,1,30.9-30.89H640.26a30.89,30.89,0,0,1,30.89,30.89h0A30.89,30.89,0,0,1,640.26,88.06Z"/><path class="cls-62" d="M640.43,86.88H520.14A30.16,30.16,0,0,1,490,56.72h0a30.16,30.16,0,0,1,30.16-30.17H640.43a30.16,30.16,0,0,1,30.16,30.17h0A30.16,30.16,0,0,1,640.43,86.88Z"/><path class="cls-63" d="M640.61,85.7H520.46A29.43,29.43,0,0,1,491,56.27h0a29.43,29.43,0,0,1,29.43-29.43H640.61A29.43,29.43,0,0,1,670,56.27h0A29.43,29.43,0,0,1,640.61,85.7Z"/><path class="cls-64" d="M640.78,84.52h-120a28.7,28.7,0,0,1-28.7-28.7h0a28.69,28.69,0,0,1,28.7-28.69h120a28.69,28.69,0,0,1,28.7,28.69h0A28.7,28.7,0,0,1,640.78,84.52Z"/><path class="cls-65" d="M641,83.34H521.09a28,28,0,0,1-28-28h0a28,28,0,0,1,28-28H641a28,28,0,0,1,28,28h0A28,28,0,0,1,641,83.34Z"/><path class="cls-66" d="M641.13,82.16H521.41a27.23,27.23,0,0,1-27.23-27.23h0A27.23,27.23,0,0,1,521.41,27.7H641.13a27.23,27.23,0,0,1,27.23,27.23h0A27.23,27.23,0,0,1,641.13,82.16Z"/><path class="cls-67" d="M641.31,81H521.73a26.5,26.5,0,0,1-26.5-26.5h0A26.5,26.5,0,0,1,521.73,28H641.31a26.5,26.5,0,0,1,26.49,26.5h0A26.5,26.5,0,0,1,641.31,81Z"/><path class="cls-68" d="M641.48,79.79H522A25.76,25.76,0,0,1,496.28,54h0A25.76,25.76,0,0,1,522,28.27H641.48A25.76,25.76,0,0,1,667.24,54h0A25.76,25.76,0,0,1,641.48,79.79Z"/><path class="cls-69" d="M641.66,78.61H522.36a25,25,0,0,1-25-25h0a25,25,0,0,1,25-25h119.3a25,25,0,0,1,25,25h0A25,25,0,0,1,641.66,78.61Z"/><path class="cls-70" d="M641.83,77.43H522.67a24.29,24.29,0,0,1-24.29-24.29h0a24.3,24.3,0,0,1,24.29-24.3H641.83a24.3,24.3,0,0,1,24.3,24.3h0A24.29,24.29,0,0,1,641.83,77.43Z"/><path class="cls-71" d="M642,76.25H523a23.56,23.56,0,0,1-23.56-23.56h0A23.56,23.56,0,0,1,523,29.13H642a23.56,23.56,0,0,1,23.56,23.56h0A23.56,23.56,0,0,1,642,76.25Z"/><path class="cls-72" d="M642.18,75.07H523.31a22.83,22.83,0,0,1-22.83-22.83h0a22.83,22.83,0,0,1,22.83-22.83H642.18A22.83,22.83,0,0,1,665,52.24h0A22.83,22.83,0,0,1,642.18,75.07Z"/><path class="cls-73" d="M642.36,73.89H523.62A22.09,22.09,0,0,1,501.53,51.8h0a22.09,22.09,0,0,1,22.09-22.1H642.36a22.09,22.09,0,0,1,22.09,22.1h0A22.09,22.09,0,0,1,642.36,73.89Z"/><path class="cls-74" d="M642.53,72.71H523.94a21.36,21.36,0,0,1-21.36-21.36h0A21.36,21.36,0,0,1,523.94,30H642.53a21.36,21.36,0,0,1,21.36,21.36h0A21.36,21.36,0,0,1,642.53,72.71Z"/><path class="cls-75" d="M642.71,71.53H524.26A20.63,20.63,0,0,1,503.63,50.9h0a20.63,20.63,0,0,1,20.63-20.63H642.71A20.63,20.63,0,0,1,663.34,50.9h0A20.63,20.63,0,0,1,642.71,71.53Z"/><path class="cls-76" d="M642.88,70.35H524.57a19.9,19.9,0,0,1-19.89-19.9h0a19.9,19.9,0,0,1,19.89-19.89H642.88a19.9,19.9,0,0,1,19.9,19.89h0A19.9,19.9,0,0,1,642.88,70.35Z"/><path class="cls-77" d="M643.06,69.17H524.89A19.16,19.16,0,0,1,505.73,50h0a19.16,19.16,0,0,1,19.16-19.17H643.06A19.16,19.16,0,0,1,662.22,50h0A19.16,19.16,0,0,1,643.06,69.17Z"/><path class="cls-78" d="M643.23,68h-118a18.43,18.43,0,0,1-18.43-18.43h0a18.43,18.43,0,0,1,18.43-18.43h118a18.43,18.43,0,0,1,18.43,18.43h0A18.43,18.43,0,0,1,643.23,68Z"/><path class="cls-79" d="M643.41,66.81H525.52a17.7,17.7,0,0,1-17.69-17.7h0a17.69,17.69,0,0,1,17.69-17.69H643.41A17.69,17.69,0,0,1,661.1,49.11h0A17.7,17.7,0,0,1,643.41,66.81Z"/><path class="cls-80" d="M643.58,65.63H525.84a17,17,0,0,1-17-17h0a17,17,0,0,1,17-17H643.58a17,17,0,0,1,17,17h0A17,17,0,0,1,643.58,65.63Z"/><path class="cls-81" d="M643.76,64.45H526.16a16.23,16.23,0,0,1-16.23-16.23h0A16.23,16.23,0,0,1,526.16,32h117.6A16.23,16.23,0,0,1,660,48.22h0A16.23,16.23,0,0,1,643.76,64.45Z"/><path class="cls-82" d="M643.93,63.26H526.47A15.49,15.49,0,0,1,511,47.77h0a15.5,15.5,0,0,1,15.49-15.5H643.93a15.5,15.5,0,0,1,15.5,15.5h0A15.49,15.49,0,0,1,643.93,63.26Z"/></g><path class="cls-97" d="M656.21,69.22H529.61a33.69,33.69,0,0,1-33.69-33.7h0A33.69,33.69,0,0,1,529.61,1.83h126.6A33.69,33.69,0,0,1,689.9,35.52h0A33.69,33.69,0,0,1,656.21,69.22Z"/><path class="cls-98" d="M529.61,71.05a35.53,35.53,0,0,1,0-71h126.6a35.53,35.53,0,0,1,0,71.05Z"/><path class="cls-46" d="M656.21,69.22H529.61a33.69,33.69,0,0,1-33.69-33.7h0A33.69,33.69,0,0,1,529.61,1.83h126.6A33.69,33.69,0,0,1,689.9,35.52h0A33.69,33.69,0,0,1,656.21,69.22Z"/><polygon class="cls-99" points="487.01 291.28 431.97 291.28 402.36 251.19 402.87 250.81 432.29 290.64 487.01 290.64 487.01 291.28"/><circle class="cls-99" cx="402.61" cy="251" r="3.21"/><circle class="cls-99" cx="487.01" cy="290.96" r="3.21"/><polygon class="cls-99" points="487.01 202.81 462.04 202.81 461.96 202.76 447.61 193.82 447.94 193.27 462.22 202.17 487.01 202.17 487.01 202.81"/><path class="cls-99" d="M451,193.55a3.21,3.21,0,1,1-3.21-3.21A3.21,3.21,0,0,1,451,193.55Z"/><circle class="cls-99" cx="487.01" cy="202.44" r="3.21"/><polygon class="cls-99" points="402.87 65.57 402.36 65.19 431.97 25.09 487.01 25.09 487.01 25.73 432.29 25.73 402.87 65.57"/><circle class="cls-99" cx="487.01" cy="25.41" r="3.21"/><circle class="cls-99" cx="402.61" cy="65.91" r="3.21"/><polygon class="cls-99" points="447.91 121.1 447.63 120.52 462.13 113.56 487.01 113.56 487.01 114.2 462.2 114.2 447.91 121.1"/><path class="cls-99" d="M490.22,113.93a3.21,3.21,0,1,1-3.21-3.21A3.21,3.21,0,0,1,490.22,113.93Z"/><circle class="cls-99" cx="447.77" cy="121.44" r="3.21"/><polygon class="cls-99" points="202.68 291.28 257.72 291.28 287.34 251.19 286.82 250.81 257.4 290.64 202.68 290.64 202.68 291.28"/><path class="cls-99" d="M283.87,251a3.21,3.21,0,1,0,3.21-3.21A3.21,3.21,0,0,0,283.87,251Z"/><circle class="cls-99" cx="202.68" cy="290.96" r="3.21"/><polygon class="cls-99" points="202.68 202.81 227.66 202.81 227.73 202.76 242.09 193.82 241.75 193.27 227.47 202.17 202.68 202.17 202.68 202.81"/><path class="cls-99" d="M238.71,193.55a3.21,3.21,0,1,0,3.21-3.21A3.21,3.21,0,0,0,238.71,193.55Z"/><circle class="cls-99" cx="202.68" cy="202.44" r="3.21"/><polygon class="cls-99" points="286.82 65.57 287.34 65.19 257.72 25.09 202.68 25.09 202.68 25.73 257.4 25.73 286.82 65.57"/><circle class="cls-99" cx="202.68" cy="25.41" r="3.21"/><path class="cls-99" d="M283.87,65.91a3.21,3.21,0,1,0,3.21-3.21A3.21,3.21,0,0,0,283.87,65.91Z"/><polygon class="cls-99" points="241.78 121.1 242.06 120.52 227.56 113.56 202.68 113.56 202.68 114.2 227.49 114.2 241.78 121.1"/><path class="cls-99" d="M199.47,113.93a3.21,3.21,0,1,0,3.21-3.21A3.21,3.21,0,0,0,199.47,113.93Z"/><circle class="cls-99" cx="241.92" cy="121.44" r="3.21"/>

<image width="689" height="453" transform="translate(276.73 114.44) scale(0.19)" xlink:href="/../images/tulu-logo_RGB.png"/>

<a href="/DealerListing/978c71ce-e338-45ee-bd8d-e5eb9118017a">
<image xmlns="http://www.w3.org/2000/svg" xmlns:xlink="http://www.w3.org/1999/xlink" width="350" height="200" transform="translate(45.98 164.58) scale(0.3)" xlink:href="../../company%20logo/1.png"/>
</a>

<a href="/DealerListing/978c71ce-e338-45ee-bd8d-e5eb9118017d">
<image xmlns="http://www.w3.org/2000/svg" xmlns:xlink="http://www.w3.org/1999/xlink" width="350" height="200" transform="translate(36.73 1.44) scale(0.35)" xlink:href="../../company%20logo/2.png"/>
</a>

<a href="/DealerListing/978c71ce-e338-45ee-bd8d-e5eb9118017e">
<image xmlns="http://www.w3.org/2000/svg" xmlns:xlink="http://www.w3.org/1999/xlink" width="350" height="200" transform="translate(43.04 82.47) scale(0.32)" xlink:href="../../company%20logo/4.png"/>
</a>

<a href="DealerListing/978c71ce-e338-45ee-bd8d-e5eb9118017b">
<image xmlns="http://www.w3.org/2000/svg" xmlns:xlink="http://www.w3.org/1999/xlink" width="350" height="200" transform="translate(526.73 0.44) scale(0.37)" xlink:href="../../company%20logo/5.png"/>
</a>

<a href="/DealerListing/978c71ce-e338-45ee-bd8d-e5eb9118017c">
<image xmlns="http://www.w3.org/2000/svg" xmlns:xlink="http://www.w3.org/1999/xlink" width="350" height="200" transform="translate(525.4 155.54) scale(0.38)" xlink:href="../../company%20logo/6.png"/>
</a>

<a href="/DealerListing/978c71ce-e338-45ee-bd8d-e5eb9118017f">
<image xmlns="http://www.w3.org/2000/svg" xmlns:xlink="http://www.w3.org/1999/xlink" width="800" height="233" transform="translate(529.1 96.47) scale(0.16)" xlink:href="../../company%20logo/countryhills.png"/>
</a>

<a href="/DealerListing/68839cfd-a560-4288-bb7b-d0fead6e4a6c">
<image xmlns="http://www.w3.org/2000/svg" xmlns:xlink="http://www.w3.org/1999/xlink" width="2560" height="513" transform="translate(521.49 261.38) scale(0.05)" xlink:href="../../company%20logo/gtmotorsports.jpg"/>
</a>

<a href="/DealerListing/b52e06c3-d25f-4b14-a713-aa34aea3d98b">
<image xmlns="http://www.w3.org/2000/svg" xmlns:xlink="http://www.w3.org/1999/xlink" width="656" height="139" transform="translate(25.24 257.31) scale(0.22)" xlink:href="../../company%20logo/supreme.png"/>
</a>
</g></g></g></svg>