<svg xmlns="http://www.w3.org/2000/svg" viewBox="0 0 5471 214.49"><defs><style>.cls-1{fill:#4b6d2b;}.cls-2{fill:#6ba33b;}.cls-3{fill:#566349;}</style></defs><title>Asset 3</title><g id="Layer_2" data-name="Layer 2"><g id="Layer_1-2" data-name="Layer 1"><path class="cls-1" d="M977.48,15.06s-26.05,113.35-2.22,160S977.48,15.06,977.48,15.06Z"/><path class="cls-1" d="M990.71,81.51s2,64.79-2.94,91.1S990.71,81.51,990.71,81.51Z"/><path class="cls-1" d="M958.74,87.28s13,62.63,12.68,89.7S958.74,87.28,958.74,87.28Z"/><path class="cls-1" d="M728,63.83s33.64,40.08,43.14,118.31l10.72-1S766.23,60.34,728,63.83Z"/><path class="cls-1" d="M775.2,14.35s-26,113.34-2.21,160S775.2,14.35,775.2,14.35Z"/><path class="cls-1" d="M829.17,105.22s-28.67,53.17-44.89,70.26S829.17,105.22,829.17,105.22Z"/><path class="cls-1" d="M795.32,100.36s-22.69,51.45-15.17,77.72S795.32,100.36,795.32,100.36Z"/><path class="cls-1" d="M801.25,50.21s59.85,43.05,69.83,122h20.5S874.4,50.21,801.25,50.21Z"/><path class="cls-1" d="M806.22,115.47s38.19,10.47,59.24,56.74l10.07-5.57S842.12,95.62,806.22,115.47Z"/><path class="cls-1" d="M852.73,16.71s36.5,75,15.94,150.38l18,12.76S916.87,62.22,852.73,16.71Z"/><path class="cls-1" d="M942.32,68.9s-37.41,32.78-56.4,108l-10.19-3.13S906,57.77,942.32,68.9Z"/><path class="cls-1" d="M938.52,111s-34.61,46.89-52.65,60.57S938.52,111,938.52,111Z"/><path class="cls-1" d="M928.09,109.29s-38,33-40.32,60.84S928.09,109.29,928.09,109.29Z"/><path class="cls-1" d="M687.64,134.14C700.56,69.64,688.35-.17,681,0c-8.53.2-11.44,94.51-11.63,132.71-.19,36.64,2,42.65,3.88,43C677.38,176.61,684.3,150.84,687.64,134.14Z"/><path class="cls-1" d="M662.35,134.23C654.94,70.18,656,.17,658.53.14c3,0,8.27,94.05,10.08,132.17,1.73,36.57,1.25,42.64.62,43.07C667.83,176.35,664.27,150.81,662.35,134.23Z"/><path class="cls-2" d="M724.7,55.67s13.56,82,1.15,115.67S724.7,55.67,724.7,55.67Z"/><path class="cls-2" d="M717.81,103.71s-1,46.85,1.53,65.87S717.81,103.71,717.81,103.71Z"/><path class="cls-2" d="M734.46,107.89s-6.77,45.28-6.6,64.85S734.46,107.89,734.46,107.89Z"/><path class="cls-2" d="M858.16,83.6s-17.52,29-22.47,85.55l-5.58-.71S838.24,81.08,858.16,83.6Z"/><path class="cls-2" d="M833.57,47.83s13.56,82,1.15,115.66S833.57,47.83,833.57,47.83Z"/><path class="cls-2" d="M805.47,113.53s14.93,38.45,23.37,50.8S805.47,113.53,805.47,113.53Z"/><path class="cls-2" d="M823.09,110s11.82,37.21,7.9,56.2S823.09,110,823.09,110Z"/><path class="cls-2" d="M716.46,76.1s-31.16,31.12-36.36,88.17H669.43S678.37,76.1,716.46,76.1Z"/><path class="cls-2" d="M713.87,123.29S694,130.85,683,164.3l-5.24-4S695.18,108.93,713.87,123.29Z"/><path class="cls-2" d="M689.66,51.87s-19,54.22-8.31,108.73L672,169.83S656.26,84.78,689.66,51.87Z"/><path class="cls-2" d="M643,89.61s19.47,23.7,29.36,78.12l5.31-2.26S661.94,81.56,643,89.61Z"/><path class="cls-2" d="M645,120s18,33.9,27.42,43.79S645,120,645,120Z"/><path class="cls-2" d="M650.42,118.81s19.79,23.85,21,44S650.42,118.81,650.42,118.81Z"/><path class="cls-2" d="M975.26,85.43S944.1,116.55,938.9,173.6H928.23S937.17,85.43,975.26,85.43Z"/><path class="cls-2" d="M972.67,132.61s-19.88,7.57-30.85,41l-5.24-4S954,118.26,972.67,132.61Z"/><path class="cls-2" d="M948.46,61.2s-19,54.21-8.31,108.73l-9.36,9.22S915.06,94.11,948.46,61.2Z"/><path class="cls-2" d="M901.8,98.94s19.48,23.69,29.37,78.12l5.31-2.26S920.74,90.89,901.8,98.94Z"/><path class="cls-2" d="M903.78,129.36s18,33.9,27.42,43.79S903.78,129.36,903.78,129.36Z"/><path class="cls-2" d="M909.22,128.14s19.79,23.85,21,44S909.22,128.14,909.22,128.14Z"/><path class="cls-2" d="M613.69,164c-6.73-46.64-.37-97.12,3.46-97,4.44.14,6,68.33,6.06,96,.1,26.49-1,30.84-2,31.12C619,194.71,615.43,176.08,613.69,164Z"/><path class="cls-2" d="M626.86,164.07c3.86-46.31,3.32-96.93,2-96.95-1.54,0-4.31,68-5.25,95.56-.9,26.44-.65,30.83-.32,31.14C624,194.52,625.86,176.06,626.86,164.07Z"/><path class="cls-3" d="M738.85,84.45s-11.8,66.63-1,94S738.85,84.45,738.85,84.45Z"/><path class="cls-3" d="M744.85,123.51s.91,38.09-1.33,53.55S744.85,123.51,744.85,123.51Z"/><path class="cls-3" d="M730.36,126.91s5.9,36.81,5.75,52.72S730.36,126.91,730.36,126.91Z"/><path class="cls-3" d="M627,116.49s15.24,23.56,19.55,69.55l4.86-.57S644.38,114.44,627,116.49Z"/><path class="cls-3" d="M648.44,87.4s-11.8,66.63-1,94S648.44,87.4,648.44,87.4Z"/><path class="cls-3" d="M672.9,140.82s-13,31.26-20.35,41.31S672.9,140.82,672.9,140.82Z"/><path class="cls-3" d="M657.56,138s-10.28,30.25-6.88,45.69S657.56,138,657.56,138Z"/><path class="cls-3" d="M561.29,100.47s27.13,25.31,31.65,71.69h9.29S594.44,100.47,561.29,100.47Z"/><path class="cls-3" d="M563.54,138.84s17.31,6.15,26.85,33.35l4.57-3.27S579.82,127.17,563.54,138.84Z"/><path class="cls-3" d="M584.62,80.78s16.54,44.08,7.23,88.4l8.15,7.5S613.69,107.53,584.62,80.78Z"/><path class="cls-3" d="M625.23,111.46s-17,19.27-25.57,63.52l-4.61-1.84S608.75,104.91,625.23,111.46Z"/><path class="cls-3" d="M623.5,136.2s-15.68,27.56-23.86,35.6S623.5,136.2,623.5,136.2Z"/><path class="cls-3" d="M618.78,135.2S601.55,154.59,600.5,171,618.78,135.2,618.78,135.2Z"/><path class="cls-3" d="M839.82,181.86c5.85-37.91.32-79-3-78.85-3.87.11-5.18,55.55-5.27,78-.09,21.54.91,25.07,1.76,25.3C835.16,206.83,838.3,191.68,839.82,181.86Z"/><path class="cls-3" d="M828.35,181.91c-3.36-37.65-2.89-78.81-1.73-78.82,1.34,0,3.75,55.28,4.57,77.7.78,21.49.57,25.06.28,25.32C830.84,206.67,829.22,191.66,828.35,181.91Z"/><path class="cls-1" d="M1352.11,34.51s-26.54,103.09-2.26,145.5S1352.11,34.51,1352.11,34.51Z"/><path class="cls-1" d="M1365.6,94.94s2,58.94-3,82.87S1365.6,94.94,1365.6,94.94Z"/><path class="cls-1" d="M1333,100.2s13.25,57,12.92,81.58S1333,100.2,1333,100.2Z"/><path class="cls-1" d="M1097.92,78.86s34.27,36.46,43.95,107.62l10.93-.89S1136.89,75.69,1097.92,78.86Z"/><path class="cls-1" d="M1146,33.85s-26.54,103.1-2.26,145.51S1146,33.85,1146,33.85Z"/><path class="cls-1" d="M1201,116.51s-29.22,48.37-45.74,63.91S1201,116.51,1201,116.51Z"/><path class="cls-1" d="M1166.53,112.09s-23.12,46.8-15.46,70.7S1166.53,112.09,1166.53,112.09Z"/><path class="cls-1" d="M1172.57,66.48s61,39.15,71.14,110.92h20.89S1247.09,66.48,1172.57,66.48Z"/><path class="cls-1" d="M1177.63,125.84s38.91,9.52,60.36,51.6l10.25-5.06S1214.21,107.78,1177.63,125.84Z"/><path class="cls-1" d="M1225,36s37.19,68.2,16.25,136.79l18.32,11.6S1290.36,77.4,1225,36Z"/><path class="cls-1" d="M1316.29,83.48s-38.11,29.81-57.46,98.27l-10.39-2.83S1279.24,73.35,1316.29,83.48Z"/><path class="cls-1" d="M1312.42,121.75s-35.26,42.65-53.65,55.09S1312.42,121.75,1312.42,121.75Z"/><path class="cls-1" d="M1301.79,120.21s-38.73,30-41.08,55.34S1301.79,120.21,1301.79,120.21Z"/><path class="cls-1" d="M1056.82,142.82c13.17-58.67.72-122.17-6.77-122-8.69.18-11.66,86-11.86,120.72-.19,33.32,2,38.79,4,39.15C1046.37,181.45,1053.42,158,1056.82,142.82Z"/><path class="cls-1" d="M1031.05,142.9c-7.55-58.26-6.49-121.94-3.89-122,3,0,8.42,85.54,10.27,120.22,1.77,33.26,1.27,38.78.63,39.17C1036.64,181.21,1033,158,1031.05,142.9Z"/><path class="cls-2" d="M1094.58,71.45s13.81,74.54,1.17,105.2S1094.58,71.45,1094.58,71.45Z"/><path class="cls-2" d="M1087.55,115.14s-1,42.62,1.57,59.92S1087.55,115.14,1087.55,115.14Z"/><path class="cls-2" d="M1104.52,118.94s-6.9,41.19-6.73,59S1104.52,118.94,1104.52,118.94Z"/><path class="cls-2" d="M1230.55,96.85s-17.85,26.36-22.89,77.81L1202,174S1210.25,94.55,1230.55,96.85Z"/><path class="cls-2" d="M1205.49,64.31s13.82,74.54,1.18,105.2S1205.49,64.31,1205.49,64.31Z"/><path class="cls-2" d="M1176.86,124.07s15.21,35,23.82,46.21S1176.86,124.07,1176.86,124.07Z"/><path class="cls-2" d="M1194.82,120.87s12,33.84,8,51.12S1194.82,120.87,1194.82,120.87Z"/><path class="cls-2" d="M1086.18,90s-31.75,28.3-37,80.2h-10.88S1047.38,90,1086.18,90Z"/><path class="cls-2" d="M1083.55,132.94s-20.26,6.89-31.43,37.32l-5.34-3.66S1064.5,119.89,1083.55,132.94Z"/><path class="cls-2" d="M1058.88,68s-19.37,49.31-8.47,98.9l-9.53,8.39S1024.85,97.92,1058.88,68Z"/><path class="cls-2" d="M1011.35,102.32s19.84,21.55,29.92,71.05l5.4-2.05S1030.64,95,1011.35,102.32Z"/><path class="cls-2" d="M1013.36,130s18.36,30.83,27.93,39.83S1013.36,130,1013.36,130Z"/><path class="cls-2" d="M1018.9,128.87s20.16,21.7,21.39,40S1018.9,128.87,1018.9,128.87Z"/><path class="cls-2" d="M1349.85,98.51s-31.75,28.3-37,80.2h-10.88S1311,98.51,1349.85,98.51Z"/><path class="cls-2" d="M1347.22,141.43s-20.26,6.88-31.43,37.31l-5.34-3.66S1328.17,128.37,1347.22,141.43Z"/><path class="cls-2" d="M1322.54,76.47s-19.36,49.31-8.46,98.9l-9.54,8.39S1288.51,106.4,1322.54,76.47Z"/><path class="cls-2" d="M1275,110.8s19.85,21.55,29.92,71.05l5.41-2S1294.3,103.47,1275,110.8Z"/><path class="cls-2" d="M1277,138.47s18.36,30.84,27.93,39.83S1277,138.47,1277,138.47Z"/><path class="cls-2" d="M1282.56,137.36s20.17,21.69,21.39,40S1282.56,137.36,1282.56,137.36Z"/><path class="cls-2" d="M981.48,170c-6.86-42.43-.38-88.34,3.52-88.23,4.53.13,6.07,62.16,6.18,87.28.1,24.1-1.07,28.05-2.06,28.31C986.92,197.91,983.25,181,981.48,170Z"/><path class="cls-2" d="M994.9,170c3.93-42.12,3.37-88.17,2-88.18-1.57,0-4.38,61.85-5.34,86.92-.93,24.05-.67,28-.33,28.33C992,197.74,993.88,180.94,994.9,170Z"/><path class="cls-3" d="M1109,97.62s-12,60.61-1,85.54S1109,97.62,1109,97.62Z"/><path class="cls-3" d="M1115.11,133.15s.92,34.64-1.36,48.71S1115.11,133.15,1115.11,133.15Z"/><path class="cls-3" d="M1100.34,136.24s6,33.48,5.86,48S1100.34,136.24,1100.34,136.24Z"/><path class="cls-3" d="M995.08,126.76S1010.61,148.19,1015,190l5-.52S1012.74,124.9,995.08,126.76Z"/><path class="cls-3" d="M1016.88,100.3s-12,60.61-1,85.54S1016.88,100.3,1016.88,100.3Z"/><path class="cls-3" d="M1041.8,148.9s-13.24,28.43-20.73,37.57S1041.8,148.9,1041.8,148.9Z"/><path class="cls-3" d="M1026.17,146.3s-10.47,27.51-7,41.56S1026.17,146.3,1026.17,146.3Z"/><path class="cls-3" d="M928.09,112.2s27.64,23,32.24,65.2h9.47S961.87,112.2,928.09,112.2Z"/><path class="cls-3" d="M930.39,147.09s17.63,5.6,27.35,30.34l4.65-3S947,136.48,930.39,147.09Z"/><path class="cls-3" d="M951.86,94.28s16.86,40.09,7.37,80.41l8.3,6.82S981.48,118.62,951.86,94.28Z"/><path class="cls-3" d="M993.23,122.19S976,139.71,967.19,180l-4.71-1.67S976.44,116.23,993.23,122.19Z"/><path class="cls-3" d="M991.48,144.69s-16,25.07-24.32,32.39S991.48,144.69,991.48,144.69Z"/><path class="cls-3" d="M986.66,143.78S969.11,161.42,968,176.32,986.66,143.78,986.66,143.78Z"/><path class="cls-3" d="M1211.86,186.23c6-34.49.32-71.82-3.07-71.73-3.94.1-5.28,50.53-5.38,71-.08,19.59.93,22.81,1.79,23C1207.12,208.93,1210.31,195.15,1211.86,186.23Z"/><path class="cls-3" d="M1200.18,186.27c-3.42-34.24-2.94-71.68-1.77-71.7,1.37,0,3.82,50.29,4.66,70.68.8,19.55.58,22.79.28,23C1202.71,208.8,1201.06,195.14,1200.18,186.27Z"/><path class="cls-1" d="M19.1,36.51S55.59,139.6,22.21,182,19.1,36.51,19.1,36.51Z"/><path class="cls-1" d="M.56,96.94s-2.79,58.94,4.13,82.87S.56,96.94.56,96.94Z"/><path class="cls-1" d="M45.36,102.2s-18.22,57-17.77,81.58S45.36,102.2,45.36,102.2Z"/><path class="cls-1" d="M368.66,80.86s-47.13,36.46-60.44,107.62l-15-.89S315.06,77.69,368.66,80.86Z"/><path class="cls-1" d="M302.49,35.85S339,139,305.6,181.36,302.49,35.85,302.49,35.85Z"/><path class="cls-1" d="M226.88,118.51s40.18,48.37,62.9,63.91S226.88,118.51,226.88,118.51Z"/><path class="cls-1" d="M274.31,114.09s31.79,46.8,21.25,70.7S274.31,114.09,274.31,114.09Z"/><path class="cls-1" d="M266,68.48s-83.85,39.15-97.83,110.92H139.45S163.52,68.48,266,68.48Z"/><path class="cls-1" d="M259,127.84s-53.5,9.52-83,51.6l-14.1-5.06S208.74,109.78,259,127.84Z"/><path class="cls-1" d="M193.88,38s-51.14,68.2-22.34,136.79l-25.19,11.6S104,79.4,193.88,38Z"/><path class="cls-1" d="M68.36,85.48s52.41,29.81,79,98.27l14.28-2.83S119.3,75.35,68.36,85.48Z"/><path class="cls-1" d="M73.68,123.75s48.49,42.65,73.77,55.09S73.68,123.75,73.68,123.75Z"/><path class="cls-1" d="M88.3,122.21s53.26,30,56.49,55.34S88.3,122.21,88.3,122.21Z"/><path class="cls-1" d="M425.17,144.82c-18.1-58.67-1-122.17,9.32-122,11.95.18,16,86,16.3,120.72.27,33.32-2.81,38.79-5.43,39.15C439.55,183.45,429.85,160,425.17,144.82Z"/><path class="cls-1" d="M460.61,144.9C471,86.64,469.53,23,466,22.94c-4.15,0-11.58,85.54-14.12,120.22-2.43,33.26-1.75,38.78-.87,39.17C452.92,183.21,457.92,160,460.61,144.9Z"/><path class="cls-2" d="M373.25,73.45s-19,74.54-1.62,105.2S373.25,73.45,373.25,73.45Z"/><path class="cls-2" d="M382.91,117.14s1.45,42.62-2.15,59.92S382.91,117.14,382.91,117.14Z"/><path class="cls-2" d="M359.58,120.94s9.49,41.19,9.25,59S359.58,120.94,359.58,120.94Z"/><path class="cls-2" d="M186.27,98.85s24.54,26.36,31.48,77.81l7.82-.64S214.18,96.55,186.27,98.85Z"/><path class="cls-2" d="M220.72,66.31s-19,74.54-1.61,105.2S220.72,66.31,220.72,66.31Z"/><path class="cls-2" d="M260.1,126.07s-20.92,35-32.76,46.21S260.1,126.07,260.1,126.07Z"/><path class="cls-2" d="M235.4,122.87S218.85,156.71,224.33,174,235.4,122.87,235.4,122.87Z"/><path class="cls-2" d="M384.8,92s43.66,28.3,50.93,80.2h15S438.16,92,384.8,92Z"/><path class="cls-2" d="M388.42,134.94s27.86,6.89,43.22,37.32L439,168.6S414.61,121.89,388.42,134.94Z"/><path class="cls-2" d="M422.35,70S449,119.3,434,168.89l13.12,8.39S469.14,99.92,422.35,70Z"/><path class="cls-2" d="M487.71,104.32s-27.29,21.55-41.15,71.05l-7.43-2.05S461.18,97,487.71,104.32Z"/><path class="cls-2" d="M484.94,132s-25.25,30.83-38.42,39.83S484.94,132,484.94,132Z"/><path class="cls-2" d="M477.33,130.87s-27.74,21.7-29.42,40S477.33,130.87,477.33,130.87Z"/><path class="cls-2" d="M22.21,100.51s43.66,28.3,50.94,80.2h15S75.57,100.51,22.21,100.51Z"/><path class="cls-2" d="M25.83,143.43s27.86,6.88,43.22,37.31l7.35-3.66S52,130.37,25.83,143.43Z"/><path class="cls-2" d="M59.76,78.47s26.63,49.31,11.64,98.9l13.11,8.39S106.56,108.4,59.76,78.47Z"/><path class="cls-2" d="M125.12,112.8S97.83,134.35,84,183.85l-7.44-2S98.59,105.47,125.12,112.8Z"/><path class="cls-2" d="M122.35,140.47S97.1,171.31,83.94,180.3,122.35,140.47,122.35,140.47Z"/><path class="cls-2" d="M114.74,139.36s-27.74,21.69-29.42,40S114.74,139.36,114.74,139.36Z"/><path class="cls-2" d="M528.78,172c9.43-42.43.52-88.34-4.85-88.23-6.22.13-8.34,62.16-8.49,87.28-.14,24.1,1.46,28.05,2.83,28.31C521.3,199.91,526.34,183,528.78,172Z"/><path class="cls-2" d="M510.33,172c-5.4-42.12-4.65-88.17-2.78-88.18,2.15,0,6,61.85,7.35,86.92,1.26,24.05.91,28,.45,28.33C514.33,199.74,511.73,182.94,510.33,172Z"/><path class="cls-3" d="M353.42,99.62s16.54,60.61,1.41,85.54S353.42,99.62,353.42,99.62Z"/><path class="cls-3" d="M345,135.15s-1.27,34.64,1.87,48.71S345,135.15,345,135.15Z"/><path class="cls-3" d="M365.32,138.24s-8.26,33.48-8.05,48S365.32,138.24,365.32,138.24Z"/><path class="cls-3" d="M510.08,128.76S488.72,150.19,482.69,192l-6.81-.52S485.79,126.9,510.08,128.76Z"/><path class="cls-3" d="M480.09,102.3s16.54,60.61,1.41,85.54S480.09,102.3,480.09,102.3Z"/><path class="cls-3" d="M445.83,150.9s18.2,28.43,28.5,37.57S445.83,150.9,445.83,150.9Z"/><path class="cls-3" d="M467.32,148.3s14.41,27.51,9.63,41.56S467.32,148.3,467.32,148.3Z"/><path class="cls-3" d="M602.19,114.2s-38,23-44.33,65.2h-13S555.75,114.2,602.19,114.2Z"/><path class="cls-3" d="M599,149.09a62.85,62.85,0,0,0-37.62,30.34l-6.39-3S576.24,138.48,599,149.09Z"/><path class="cls-3" d="M569.51,96.28s-23.18,40.09-10.13,80.41L548,183.51S528.78,120.62,569.51,96.28Z"/><path class="cls-3" d="M512.62,124.19s23.75,17.52,35.81,57.77l6.47-1.67S535.71,118.23,512.62,124.19Z"/><path class="cls-3" d="M515,146.69s22,25.07,33.44,32.39S515,146.69,515,146.69Z"/><path class="cls-3" d="M521.66,145.78s24.14,17.64,25.6,32.54S521.66,145.78,521.66,145.78Z"/><path class="cls-3" d="M212,188.23c-8.2-34.49-.45-71.82,4.22-71.73,5.42.1,7.27,50.53,7.39,71,.12,19.59-1.27,22.81-2.46,23C218.49,210.93,214.1,197.15,212,188.23Z"/><path class="cls-3" d="M228,188.27c4.71-34.24,4.05-71.68,2.43-71.7-1.88,0-5.25,50.29-6.4,70.68-1.1,19.55-.8,22.79-.4,23C224.55,210.8,226.82,197.14,228,188.27Z"/><path class="cls-1" d="M2347.48,15.06s-26.05,113.35-2.22,160S2347.48,15.06,2347.48,15.06Z"/><path class="cls-1" d="M2360.71,81.51s2,64.79-2.94,91.1S2360.71,81.51,2360.71,81.51Z"/><path class="cls-1" d="M2328.74,87.28s13,62.63,12.68,89.7S2328.74,87.28,2328.74,87.28Z"/><path class="cls-1" d="M2098,63.83s33.64,40.08,43.14,118.31l10.72-1S2136.23,60.34,2098,63.83Z"/><path class="cls-1" d="M2145.2,14.35s-26,113.34-2.21,160S2145.2,14.35,2145.2,14.35Z"/><path class="cls-1" d="M2199.17,105.22s-28.67,53.17-44.89,70.26S2199.17,105.22,2199.17,105.22Z"/><path class="cls-1" d="M2165.32,100.36s-22.69,51.45-15.17,77.72S2165.32,100.36,2165.32,100.36Z"/><path class="cls-1" d="M2171.25,50.21s59.85,43.05,69.83,122h20.5S2244.4,50.21,2171.25,50.21Z"/><path class="cls-1" d="M2176.22,115.47s38.19,10.47,59.24,56.74l10.07-5.57S2212.12,95.62,2176.22,115.47Z"/><path class="cls-1" d="M2222.73,16.71s36.5,75,15.94,150.38l18,12.76S2286.87,62.22,2222.73,16.71Z"/><path class="cls-1" d="M2312.32,68.9s-37.41,32.78-56.4,108l-10.19-3.13S2276,57.77,2312.32,68.9Z"/><path class="cls-1" d="M2308.52,111s-34.61,46.89-52.65,60.57S2308.52,111,2308.52,111Z"/><path class="cls-1" d="M2298.09,109.29s-38,33-40.32,60.84S2298.09,109.29,2298.09,109.29Z"/><path class="cls-1" d="M2057.64,134.14C2070.56,69.64,2058.35-.17,2051,0c-8.53.2-11.44,94.51-11.63,132.71-.19,36.64,2,42.65,3.88,43C2047.38,176.61,2054.3,150.84,2057.64,134.14Z"/><path class="cls-1" d="M2032.35,134.23c-7.41-64-6.37-134.06-3.82-134.09,3,0,8.27,94.05,10.08,132.17,1.73,36.57,1.25,42.64.62,43.07C2037.83,176.35,2034.27,150.81,2032.35,134.23Z"/><path class="cls-2" d="M2094.7,55.67s13.56,82,1.15,115.67S2094.7,55.67,2094.7,55.67Z"/><path class="cls-2" d="M2087.81,103.71s-1,46.85,1.53,65.87S2087.81,103.71,2087.81,103.71Z"/><path class="cls-2" d="M2104.46,107.89s-6.77,45.28-6.6,64.85S2104.46,107.89,2104.46,107.89Z"/><path class="cls-2" d="M2228.16,83.6s-17.52,29-22.47,85.55l-5.58-.71S2208.24,81.08,2228.16,83.6Z"/><path class="cls-2" d="M2203.57,47.83s13.56,82,1.15,115.66S2203.57,47.83,2203.57,47.83Z"/><path class="cls-2" d="M2175.47,113.53s14.93,38.45,23.37,50.8S2175.47,113.53,2175.47,113.53Z"/><path class="cls-2" d="M2193.09,110s11.82,37.21,7.9,56.2S2193.09,110,2193.09,110Z"/><path class="cls-2" d="M2086.46,76.1s-31.16,31.12-36.36,88.17h-10.67S2048.37,76.1,2086.46,76.1Z"/><path class="cls-2" d="M2083.87,123.29s-19.88,7.56-30.85,41l-5.24-4S2065.18,108.93,2083.87,123.29Z"/><path class="cls-2" d="M2059.66,51.87s-19,54.22-8.31,108.73l-9.36,9.23S2026.26,84.78,2059.66,51.87Z"/><path class="cls-2" d="M2013,89.61s19.47,23.7,29.36,78.12l5.31-2.26S2031.94,81.56,2013,89.61Z"/><path class="cls-2" d="M2015,120s18,33.9,27.42,43.79S2015,120,2015,120Z"/><path class="cls-2" d="M2020.42,118.81s19.79,23.85,21,44S2020.42,118.81,2020.42,118.81Z"/><path class="cls-2" d="M2345.26,85.43s-31.16,31.12-36.36,88.17h-10.67S2307.17,85.43,2345.26,85.43Z"/><path class="cls-2" d="M2342.67,132.61s-19.88,7.57-30.85,41l-5.24-4S2324,118.26,2342.67,132.61Z"/><path class="cls-2" d="M2318.46,61.2s-19,54.21-8.31,108.73l-9.36,9.22S2285.06,94.11,2318.46,61.2Z"/><path class="cls-2" d="M2271.8,98.94s19.48,23.69,29.37,78.12l5.31-2.26S2290.74,90.89,2271.8,98.94Z"/><path class="cls-2" d="M2273.78,129.36s18,33.9,27.42,43.79S2273.78,129.36,2273.78,129.36Z"/><path class="cls-2" d="M2279.22,128.14s19.79,23.85,21,44S2279.22,128.14,2279.22,128.14Z"/><path class="cls-2" d="M1983.69,164c-6.73-46.64-.37-97.12,3.46-97,4.44.14,6,68.33,6.06,96,.1,26.49-1,30.84-2,31.12C1989,194.71,1985.43,176.08,1983.69,164Z"/><path class="cls-2" d="M1996.86,164.07c3.86-46.31,3.32-96.93,2-96.95-1.54,0-4.31,68-5.25,95.56-.9,26.44-.65,30.83-.32,31.14C1994,194.52,1995.86,176.06,1996.86,164.07Z"/><path class="cls-3" d="M2108.85,84.45s-11.8,66.63-1,94S2108.85,84.45,2108.85,84.45Z"/><path class="cls-3" d="M2114.85,123.51s.91,38.09-1.33,53.55S2114.85,123.51,2114.85,123.51Z"/><path class="cls-3" d="M2100.36,126.91s5.9,36.81,5.75,52.72S2100.36,126.91,2100.36,126.91Z"/><path class="cls-3" d="M1997,116.49s15.24,23.56,19.55,69.55l4.86-.57S2014.38,114.44,1997,116.49Z"/><path class="cls-3" d="M2018.44,87.4s-11.8,66.63-1,94S2018.44,87.4,2018.44,87.4Z"/><path class="cls-3" d="M2042.9,140.82s-13,31.26-20.35,41.31S2042.9,140.82,2042.9,140.82Z"/><path class="cls-3" d="M2027.56,138s-10.28,30.25-6.88,45.69S2027.56,138,2027.56,138Z"/><path class="cls-3" d="M1931.29,100.47s27.13,25.31,31.65,71.69h9.29S1964.44,100.47,1931.29,100.47Z"/><path class="cls-3" d="M1933.54,138.84s17.31,6.15,26.85,33.35l4.57-3.27S1949.82,127.17,1933.54,138.84Z"/><path class="cls-3" d="M1954.62,80.78s16.54,44.08,7.23,88.4l8.15,7.5S1983.69,107.53,1954.62,80.78Z"/><path class="cls-3" d="M1995.23,111.46s-17,19.27-25.57,63.52l-4.61-1.84S1978.75,104.91,1995.23,111.46Z"/><path class="cls-3" d="M1993.5,136.2s-15.68,27.56-23.86,35.6S1993.5,136.2,1993.5,136.2Z"/><path class="cls-3" d="M1988.78,135.2s-17.23,19.39-18.28,35.77S1988.78,135.2,1988.78,135.2Z"/><path class="cls-3" d="M2209.82,181.86c5.85-37.91.32-79-3-78.85-3.87.11-5.18,55.55-5.27,78-.09,21.54.91,25.07,1.76,25.3C2205.16,206.83,2208.3,191.68,2209.82,181.86Z"/><path class="cls-3" d="M2198.35,181.91c-3.36-37.65-2.89-78.81-1.73-78.82,1.34,0,3.75,55.28,4.57,77.7.78,21.49.57,25.06.28,25.32C2200.84,206.67,2199.22,191.66,2198.35,181.91Z"/><path class="cls-1" d="M2722.11,34.51s-26.54,103.09-2.26,145.5S2722.11,34.51,2722.11,34.51Z"/><path class="cls-1" d="M2735.6,94.94s2,58.94-3,82.87S2735.6,94.94,2735.6,94.94Z"/><path class="cls-1" d="M2703,100.2s13.25,57,12.92,81.58S2703,100.2,2703,100.2Z"/><path class="cls-1" d="M2467.92,78.86s34.27,36.46,43.95,107.62l10.93-.89S2506.89,75.69,2467.92,78.86Z"/><path class="cls-1" d="M2516,33.85s-26.54,103.1-2.26,145.51S2516,33.85,2516,33.85Z"/><path class="cls-1" d="M2571,116.51s-29.22,48.37-45.74,63.91S2571,116.51,2571,116.51Z"/><path class="cls-1" d="M2536.53,112.09s-23.12,46.8-15.46,70.7S2536.53,112.09,2536.53,112.09Z"/><path class="cls-1" d="M2542.57,66.48s61,39.15,71.14,110.92h20.89S2617.09,66.48,2542.57,66.48Z"/><path class="cls-1" d="M2547.63,125.84s38.91,9.52,60.36,51.6l10.25-5.06S2584.21,107.78,2547.63,125.84Z"/><path class="cls-1" d="M2595,36s37.19,68.2,16.25,136.79l18.32,11.6S2660.36,77.4,2595,36Z"/><path class="cls-1" d="M2686.29,83.48s-38.11,29.81-57.46,98.27l-10.39-2.83S2649.24,73.35,2686.29,83.48Z"/><path class="cls-1" d="M2682.42,121.75s-35.26,42.65-53.65,55.09S2682.42,121.75,2682.42,121.75Z"/><path class="cls-1" d="M2671.79,120.21s-38.73,30-41.08,55.34S2671.79,120.21,2671.79,120.21Z"/><path class="cls-1" d="M2426.82,142.82c13.17-58.67.72-122.17-6.77-122-8.69.18-11.66,86-11.86,120.72-.19,33.32,2,38.79,3.95,39.15C2416.37,181.45,2423.42,158,2426.82,142.82Z"/><path class="cls-1" d="M2401.05,142.9c-7.55-58.26-6.49-121.94-3.89-122,3,0,8.42,85.54,10.27,120.22,1.77,33.26,1.27,38.78.63,39.17C2406.64,181.21,2403,158,2401.05,142.9Z"/><path class="cls-2" d="M2464.58,71.45s13.81,74.54,1.17,105.2S2464.58,71.45,2464.58,71.45Z"/><path class="cls-2" d="M2457.55,115.14s-1.05,42.62,1.57,59.92S2457.55,115.14,2457.55,115.14Z"/><path class="cls-2" d="M2474.52,118.94s-6.9,41.19-6.73,59S2474.52,118.94,2474.52,118.94Z"/><path class="cls-2" d="M2600.55,96.85s-17.85,26.36-22.89,77.81L2572,174S2580.25,94.55,2600.55,96.85Z"/><path class="cls-2" d="M2575.49,64.31s13.82,74.54,1.18,105.2S2575.49,64.31,2575.49,64.31Z"/><path class="cls-2" d="M2546.86,124.07s15.21,35,23.82,46.21S2546.86,124.07,2546.86,124.07Z"/><path class="cls-2" d="M2564.82,120.87s12,33.84,8,51.12S2564.82,120.87,2564.82,120.87Z"/><path class="cls-2" d="M2456.18,90s-31.75,28.3-37,80.2h-10.88S2417.38,90,2456.18,90Z"/><path class="cls-2" d="M2453.55,132.94s-20.26,6.89-31.43,37.32l-5.34-3.66S2434.5,119.89,2453.55,132.94Z"/><path class="cls-2" d="M2428.88,68s-19.37,49.31-8.47,98.9l-9.53,8.39S2394.85,97.92,2428.88,68Z"/><path class="cls-2" d="M2381.35,102.32s19.84,21.55,29.92,71.05l5.4-2.05S2400.64,95,2381.35,102.32Z"/><path class="cls-2" d="M2383.36,130s18.36,30.83,27.93,39.83S2383.36,130,2383.36,130Z"/><path class="cls-2" d="M2388.9,128.87s20.16,21.7,21.39,40S2388.9,128.87,2388.9,128.87Z"/><path class="cls-2" d="M2719.85,98.51s-31.75,28.3-37,80.2h-10.88S2681,98.51,2719.85,98.51Z"/><path class="cls-2" d="M2717.22,141.43s-20.26,6.88-31.43,37.31l-5.34-3.66S2698.17,128.37,2717.22,141.43Z"/><path class="cls-2" d="M2692.54,76.47s-19.36,49.31-8.46,98.9l-9.54,8.39S2658.51,106.4,2692.54,76.47Z"/><path class="cls-2" d="M2645,110.8s19.85,21.55,29.92,71.05l5.41-2S2664.3,103.47,2645,110.8Z"/><path class="cls-2" d="M2647,138.47s18.36,30.84,27.93,39.83S2647,138.47,2647,138.47Z"/><path class="cls-2" d="M2652.56,137.36s20.17,21.69,21.39,40S2652.56,137.36,2652.56,137.36Z"/><path class="cls-2" d="M2351.48,170c-6.86-42.43-.38-88.34,3.52-88.23,4.53.13,6.07,62.16,6.18,87.28.1,24.1-1.07,28.05-2.06,28.31C2356.92,197.91,2353.25,181,2351.48,170Z"/><path class="cls-2" d="M2364.9,170c3.93-42.12,3.37-88.17,2-88.18-1.57,0-4.38,61.85-5.34,86.92-.93,24.05-.67,28-.33,28.33C2362,197.74,2363.88,180.94,2364.9,170Z"/><path class="cls-3" d="M2479,97.62s-12,60.61-1,85.54S2479,97.62,2479,97.62Z"/><path class="cls-3" d="M2485.11,133.15s.92,34.64-1.36,48.71S2485.11,133.15,2485.11,133.15Z"/><path class="cls-3" d="M2470.34,136.24s6,33.48,5.86,48S2470.34,136.24,2470.34,136.24Z"/><path class="cls-3" d="M2365.08,126.76S2380.61,148.19,2385,190l4.95-.52S2382.74,124.9,2365.08,126.76Z"/><path class="cls-3" d="M2386.88,100.3s-12,60.61-1,85.54S2386.88,100.3,2386.88,100.3Z"/><path class="cls-3" d="M2411.8,148.9s-13.24,28.43-20.73,37.57S2411.8,148.9,2411.8,148.9Z"/><path class="cls-3" d="M2396.17,146.3s-10.47,27.51-7,41.56S2396.17,146.3,2396.17,146.3Z"/><path class="cls-3" d="M2298.09,112.2s27.64,23,32.24,65.2h9.47S2331.87,112.2,2298.09,112.2Z"/><path class="cls-3" d="M2300.39,147.09s17.63,5.6,27.35,30.34l4.65-3S2317,136.48,2300.39,147.09Z"/><path class="cls-3" d="M2321.86,94.28s16.86,40.09,7.37,80.41l8.3,6.82S2351.48,118.62,2321.86,94.28Z"/><path class="cls-3" d="M2363.23,122.19s-17.27,17.52-26,57.77l-4.71-1.67S2346.44,116.23,2363.23,122.19Z"/><path class="cls-3" d="M2361.48,144.69s-16,25.07-24.32,32.39S2361.48,144.69,2361.48,144.69Z"/><path class="cls-3" d="M2356.66,143.78s-17.55,17.64-18.62,32.54S2356.66,143.78,2356.66,143.78Z"/><path class="cls-3" d="M2581.86,186.23c6-34.49.32-71.82-3.07-71.73-3.94.1-5.28,50.53-5.38,71-.08,19.59.93,22.81,1.79,23C2577.12,208.93,2580.31,195.15,2581.86,186.23Z"/><path class="cls-3" d="M2570.18,186.27c-3.42-34.24-2.94-71.68-1.77-71.7,1.37,0,3.82,50.29,4.66,70.68.8,19.55.58,22.79.28,23C2572.71,208.8,2571.06,195.14,2570.18,186.27Z"/><path class="cls-1" d="M1389.1,36.51s36.49,103.09,3.11,145.5S1389.1,36.51,1389.1,36.51Z"/><path class="cls-1" d="M1370.56,96.94s-2.79,58.94,4.13,82.87S1370.56,96.94,1370.56,96.94Z"/><path class="cls-1" d="M1415.36,102.2s-18.22,57-17.77,81.58S1415.36,102.2,1415.36,102.2Z"/><path class="cls-1" d="M1738.66,80.86s-47.13,36.46-60.44,107.62l-15-.89S1685.06,77.69,1738.66,80.86Z"/><path class="cls-1" d="M1672.49,35.85S1709,139,1675.6,181.36,1672.49,35.85,1672.49,35.85Z"/><path class="cls-1" d="M1596.88,118.51s40.18,48.37,62.9,63.91S1596.88,118.51,1596.88,118.51Z"/><path class="cls-1" d="M1644.31,114.09s31.79,46.8,21.25,70.7S1644.31,114.09,1644.31,114.09Z"/><path class="cls-1" d="M1636,68.48s-83.85,39.15-97.83,110.92h-28.72S1533.52,68.48,1636,68.48Z"/><path class="cls-1" d="M1629,127.84s-53.5,9.52-83,51.6l-14.1-5.06S1578.74,109.78,1629,127.84Z"/><path class="cls-1" d="M1563.88,38s-51.14,68.2-22.34,136.79l-25.19,11.6S1474,79.4,1563.88,38Z"/><path class="cls-1" d="M1438.36,85.48s52.41,29.81,79,98.27l14.28-2.83S1489.3,75.35,1438.36,85.48Z"/><path class="cls-1" d="M1443.68,123.75s48.49,42.65,73.77,55.09S1443.68,123.75,1443.68,123.75Z"/><path class="cls-1" d="M1458.3,122.21s53.26,30,56.49,55.34S1458.3,122.21,1458.3,122.21Z"/><path class="cls-1" d="M1795.17,144.82c-18.1-58.67-1-122.17,9.32-122,12,.18,16,86,16.3,120.72.27,33.32-2.81,38.79-5.43,39.15C1809.55,183.45,1799.85,160,1795.17,144.82Z"/><path class="cls-1" d="M1830.61,144.9C1841,86.64,1839.53,23,1836,22.94c-4.15,0-11.58,85.54-14.12,120.22-2.43,33.26-1.75,38.78-.87,39.17C1822.92,183.21,1827.92,160,1830.61,144.9Z"/><path class="cls-2" d="M1743.25,73.45s-19,74.54-1.62,105.2S1743.25,73.45,1743.25,73.45Z"/><path class="cls-2" d="M1752.91,117.14s1.45,42.62-2.15,59.92S1752.91,117.14,1752.91,117.14Z"/><path class="cls-2" d="M1729.58,120.94s9.49,41.19,9.25,59S1729.58,120.94,1729.58,120.94Z"/><path class="cls-2" d="M1556.27,98.85s24.54,26.36,31.48,77.81l7.82-.64S1584.18,96.55,1556.27,98.85Z"/><path class="cls-2" d="M1590.72,66.31s-19,74.54-1.61,105.2S1590.72,66.31,1590.72,66.31Z"/><path class="cls-2" d="M1630.1,126.07s-20.92,35-32.76,46.21S1630.1,126.07,1630.1,126.07Z"/><path class="cls-2" d="M1605.4,122.87s-16.55,33.84-11.07,51.12S1605.4,122.87,1605.4,122.87Z"/><path class="cls-2" d="M1754.8,92s43.66,28.3,50.93,80.2h15S1808.16,92,1754.8,92Z"/><path class="cls-2" d="M1758.42,134.94s27.86,6.89,43.22,37.32l7.34-3.66S1784.61,121.89,1758.42,134.94Z"/><path class="cls-2" d="M1792.35,70S1819,119.3,1804,168.89l13.12,8.39S1839.14,99.92,1792.35,70Z"/><path class="cls-2" d="M1857.71,104.32s-27.29,21.55-41.15,71.05l-7.43-2.05S1831.18,97,1857.71,104.32Z"/><path class="cls-2" d="M1854.94,132s-25.25,30.83-38.42,39.83S1854.94,132,1854.94,132Z"/><path class="cls-2" d="M1847.33,130.87s-27.74,21.7-29.42,40S1847.33,130.87,1847.33,130.87Z"/><path class="cls-2" d="M1392.21,100.51s43.66,28.3,50.94,80.2h15S1445.57,100.51,1392.21,100.51Z"/><path class="cls-2" d="M1395.83,143.43s27.86,6.88,43.22,37.31l7.35-3.66S1422,130.37,1395.83,143.43Z"/><path class="cls-2" d="M1429.76,78.47s26.63,49.31,11.64,98.9l13.11,8.39S1476.56,108.4,1429.76,78.47Z"/><path class="cls-2" d="M1495.12,112.8s-27.29,21.55-41.14,71.05l-7.44-2S1468.59,105.47,1495.12,112.8Z"/><path class="cls-2" d="M1492.35,140.47s-25.25,30.84-38.41,39.83S1492.35,140.47,1492.35,140.47Z"/><path class="cls-2" d="M1484.74,139.36s-27.74,21.69-29.42,40S1484.74,139.36,1484.74,139.36Z"/><path class="cls-2" d="M1898.78,172c9.43-42.43.52-88.34-4.85-88.23-6.22.13-8.34,62.16-8.49,87.28-.14,24.1,1.46,28.05,2.83,28.31C1891.3,199.91,1896.34,183,1898.78,172Z"/><path class="cls-2" d="M1880.33,172c-5.4-42.12-4.65-88.17-2.78-88.18,2.15,0,6,61.85,7.35,86.92,1.26,24.05.91,28,.45,28.33C1884.33,199.74,1881.73,182.94,1880.33,172Z"/><path class="cls-3" d="M1723.42,99.62s16.54,60.61,1.41,85.54S1723.42,99.62,1723.42,99.62Z"/><path class="cls-3" d="M1715,135.15s-1.27,34.64,1.87,48.71S1715,135.15,1715,135.15Z"/><path class="cls-3" d="M1735.32,138.24s-8.26,33.48-8,48S1735.32,138.24,1735.32,138.24Z"/><path class="cls-3" d="M1880.08,128.76s-21.36,21.43-27.39,63.27l-6.81-.52S1855.79,126.9,1880.08,128.76Z"/><path class="cls-3" d="M1850.09,102.3s16.54,60.61,1.41,85.54S1850.09,102.3,1850.09,102.3Z"/><path class="cls-3" d="M1815.83,150.9s18.2,28.43,28.5,37.57S1815.83,150.9,1815.83,150.9Z"/><path class="cls-3" d="M1837.32,148.3s14.41,27.51,9.63,41.56S1837.32,148.3,1837.32,148.3Z"/><path class="cls-3" d="M1972.19,114.2s-38,23-44.33,65.2h-13S1925.75,114.2,1972.19,114.2Z"/><path class="cls-3" d="M1969,149.09a62.85,62.85,0,0,0-37.62,30.34l-6.39-3S1946.24,138.48,1969,149.09Z"/><path class="cls-3" d="M1939.51,96.28s-23.18,40.09-10.13,80.41L1918,183.51S1898.78,120.62,1939.51,96.28Z"/><path class="cls-3" d="M1882.62,124.19s23.75,17.52,35.81,57.77l6.47-1.67S1905.71,118.23,1882.62,124.19Z"/><path class="cls-3" d="M1885,146.69s22,25.07,33.44,32.39S1885,146.69,1885,146.69Z"/><path class="cls-3" d="M1891.66,145.78s24.14,17.64,25.6,32.54S1891.66,145.78,1891.66,145.78Z"/><path class="cls-3" d="M1582,188.23c-8.2-34.49-.45-71.82,4.22-71.73,5.42.1,7.27,50.53,7.39,71,.12,19.59-1.27,22.81-2.46,23C1588.49,210.93,1584.1,197.15,1582,188.23Z"/><path class="cls-3" d="M1598,188.27c4.71-34.24,4-71.68,2.43-71.7-1.88,0-5.25,50.29-6.4,70.68-1.1,19.55-.8,22.79-.4,23C1594.55,210.8,1596.82,197.14,1598,188.27Z"/><path class="cls-1" d="M3714.48,19.06s-26.05,113.35-2.22,160S3714.48,19.06,3714.48,19.06Z"/><path class="cls-1" d="M3727.71,85.51s2,64.79-2.94,91.1S3727.71,85.51,3727.71,85.51Z"/><path class="cls-1" d="M3695.74,91.28s13,62.63,12.68,89.7S3695.74,91.28,3695.74,91.28Z"/><path class="cls-1" d="M3465,67.83s33.64,40.08,43.14,118.31l10.72-1S3503.23,64.34,3465,67.83Z"/><path class="cls-1" d="M3512.2,18.35s-26,113.34-2.21,160S3512.2,18.35,3512.2,18.35Z"/><path class="cls-1" d="M3566.17,109.22s-28.67,53.17-44.89,70.26S3566.17,109.22,3566.17,109.22Z"/><path class="cls-1" d="M3532.32,104.36s-22.69,51.45-15.17,77.72S3532.32,104.36,3532.32,104.36Z"/><path class="cls-1" d="M3538.25,54.21s59.85,43.05,69.83,122h20.5S3611.4,54.21,3538.25,54.21Z"/><path class="cls-1" d="M3543.22,119.47s38.19,10.47,59.24,56.74l10.07-5.57S3579.12,99.62,3543.22,119.47Z"/><path class="cls-1" d="M3589.73,20.71s36.5,75,15.94,150.38l18,12.76S3653.87,66.22,3589.73,20.71Z"/><path class="cls-1" d="M3679.32,72.9s-37.41,32.78-56.4,108l-10.19-3.13S3643,61.77,3679.32,72.9Z"/><path class="cls-1" d="M3675.52,115s-34.61,46.89-52.65,60.57S3675.52,115,3675.52,115Z"/><path class="cls-1" d="M3665.09,113.29s-38,33-40.32,60.84S3665.09,113.29,3665.09,113.29Z"/><path class="cls-1" d="M3424.64,138.14c12.92-64.5.71-134.31-6.65-134.14-8.53.2-11.44,94.51-11.63,132.71-.19,36.64,2,42.65,3.88,43C3414.38,180.61,3421.3,154.84,3424.64,138.14Z"/><path class="cls-1" d="M3399.35,138.23c-7.41-64-6.37-134.06-3.82-134.09,3,0,8.27,94.05,10.08,132.17,1.73,36.57,1.25,42.64.62,43.07C3404.83,180.35,3401.27,154.81,3399.35,138.23Z"/><path class="cls-2" d="M3461.7,59.67s13.56,82,1.15,115.67S3461.7,59.67,3461.7,59.67Z"/><path class="cls-2" d="M3454.81,107.71s-1,46.85,1.53,65.87S3454.81,107.71,3454.81,107.71Z"/><path class="cls-2" d="M3471.46,111.89s-6.77,45.28-6.6,64.85S3471.46,111.89,3471.46,111.89Z"/><path class="cls-2" d="M3595.16,87.6s-17.52,29-22.47,85.55l-5.58-.71S3575.24,85.08,3595.16,87.6Z"/><path class="cls-2" d="M3570.57,51.83s13.56,82,1.15,115.66S3570.57,51.83,3570.57,51.83Z"/><path class="cls-2" d="M3542.47,117.53s14.93,38.45,23.37,50.8S3542.47,117.53,3542.47,117.53Z"/><path class="cls-2" d="M3560.09,114s11.82,37.21,7.9,56.2S3560.09,114,3560.09,114Z"/><path class="cls-2" d="M3453.46,80.1s-31.16,31.12-36.36,88.17h-10.67S3415.37,80.1,3453.46,80.1Z"/><path class="cls-2" d="M3450.87,127.29s-19.88,7.56-30.85,41l-5.24-4S3432.18,112.93,3450.87,127.29Z"/><path class="cls-2" d="M3426.66,55.87s-19,54.22-8.31,108.73l-9.36,9.23S3393.26,88.78,3426.66,55.87Z"/><path class="cls-2" d="M3380,93.61s19.47,23.7,29.36,78.12l5.31-2.26S3398.94,85.56,3380,93.61Z"/><path class="cls-2" d="M3382,124s18,33.9,27.42,43.79S3382,124,3382,124Z"/><path class="cls-2" d="M3387.42,122.81s19.79,23.85,21,44S3387.42,122.81,3387.42,122.81Z"/><path class="cls-2" d="M3712.26,89.43s-31.16,31.12-36.36,88.17h-10.67S3674.17,89.43,3712.26,89.43Z"/><path class="cls-2" d="M3709.67,136.61s-19.88,7.57-30.85,41l-5.24-4S3691,122.26,3709.67,136.61Z"/><path class="cls-2" d="M3685.46,65.2s-19,54.21-8.31,108.73l-9.36,9.22S3652.06,98.11,3685.46,65.2Z"/><path class="cls-2" d="M3638.8,102.94s19.48,23.69,29.37,78.12l5.31-2.26S3657.74,94.89,3638.8,102.94Z"/><path class="cls-2" d="M3640.78,133.36s18,33.9,27.42,43.79S3640.78,133.36,3640.78,133.36Z"/><path class="cls-2" d="M3646.22,132.14s19.79,23.85,21,44S3646.22,132.14,3646.22,132.14Z"/><path class="cls-2" d="M3350.69,168c-6.73-46.64-.37-97.12,3.46-97,4.44.14,6,68.33,6.06,96,.1,26.49-1,30.84-2,31.12C3356,198.71,3352.43,180.08,3350.69,168Z"/><path class="cls-2" d="M3363.86,168.07c3.86-46.31,3.32-96.93,2-96.95-1.54,0-4.31,68-5.25,95.56-.9,26.44-.65,30.83-.32,31.14C3361,198.52,3362.86,180.06,3363.86,168.07Z"/><path class="cls-3" d="M3475.85,88.45s-11.8,66.63-1,94S3475.85,88.45,3475.85,88.45Z"/><path class="cls-3" d="M3481.85,127.51s.91,38.09-1.33,53.55S3481.85,127.51,3481.85,127.51Z"/><path class="cls-3" d="M3467.36,130.91s5.9,36.81,5.75,52.72S3467.36,130.91,3467.36,130.91Z"/><path class="cls-3" d="M3364,120.49s15.24,23.56,19.55,69.55l4.86-.57S3381.38,118.44,3364,120.49Z"/><path class="cls-3" d="M3385.44,91.4s-11.8,66.63-1,94S3385.44,91.4,3385.44,91.4Z"/><path class="cls-3" d="M3409.9,144.82s-13,31.26-20.35,41.31S3409.9,144.82,3409.9,144.82Z"/><path class="cls-3" d="M3394.56,142s-10.28,30.25-6.88,45.69S3394.56,142,3394.56,142Z"/><path class="cls-3" d="M3298.29,104.47s27.13,25.31,31.65,71.69h9.29S3331.44,104.47,3298.29,104.47Z"/><path class="cls-3" d="M3300.54,142.84s17.31,6.15,26.85,33.35l4.57-3.27S3316.82,131.17,3300.54,142.84Z"/><path class="cls-3" d="M3321.62,84.78s16.54,44.08,7.23,88.4l8.15,7.5S3350.69,111.53,3321.62,84.78Z"/><path class="cls-3" d="M3362.23,115.46s-17,19.27-25.57,63.52l-4.61-1.84S3345.75,108.91,3362.23,115.46Z"/><path class="cls-3" d="M3360.5,140.2s-15.68,27.56-23.86,35.6S3360.5,140.2,3360.5,140.2Z"/><path class="cls-3" d="M3355.78,139.2s-17.23,19.39-18.28,35.77S3355.78,139.2,3355.78,139.2Z"/><path class="cls-3" d="M3576.82,185.86c5.85-37.91.32-79-3-78.85-3.87.11-5.18,55.55-5.27,78-.09,21.54.91,25.07,1.76,25.3C3572.16,210.83,3575.3,195.68,3576.82,185.86Z"/><path class="cls-3" d="M3565.35,185.91c-3.36-37.65-2.89-78.81-1.73-78.82,1.34,0,3.75,55.28,4.57,77.7.78,21.49.57,25.06.28,25.32C3567.84,210.67,3566.22,195.66,3565.35,185.91Z"/><path class="cls-1" d="M4089.11,38.51s-26.54,103.09-2.26,145.5S4089.11,38.51,4089.11,38.51Z"/><path class="cls-1" d="M4102.6,98.94s2,58.94-3,82.87S4102.6,98.94,4102.6,98.94Z"/><path class="cls-1" d="M4070,104.2s13.25,57,12.92,81.58S4070,104.2,4070,104.2Z"/><path class="cls-1" d="M3834.92,82.86s34.27,36.46,43.95,107.62l10.93-.89S3873.89,79.69,3834.92,82.86Z"/><path class="cls-1" d="M3883,37.85s-26.54,103.1-2.26,145.51S3883,37.85,3883,37.85Z"/><path class="cls-1" d="M3938,120.51s-29.22,48.37-45.74,63.91S3938,120.51,3938,120.51Z"/><path class="cls-1" d="M3903.53,116.09s-23.12,46.8-15.46,70.7S3903.53,116.09,3903.53,116.09Z"/><path class="cls-1" d="M3909.57,70.48s61,39.15,71.14,110.92h20.89S3984.09,70.48,3909.57,70.48Z"/><path class="cls-1" d="M3914.63,129.84s38.91,9.52,60.36,51.6l10.25-5.06S3951.21,111.78,3914.63,129.84Z"/><path class="cls-1" d="M3962,40s37.19,68.2,16.25,136.79l18.32,11.6S4027.36,81.4,3962,40Z"/><path class="cls-1" d="M4053.29,87.48s-38.11,29.81-57.46,98.27l-10.39-2.83S4016.24,77.35,4053.29,87.48Z"/><path class="cls-1" d="M4049.42,125.75s-35.26,42.65-53.65,55.09S4049.42,125.75,4049.42,125.75Z"/><path class="cls-1" d="M4038.79,124.21s-38.73,30-41.08,55.34S4038.79,124.21,4038.79,124.21Z"/><path class="cls-1" d="M3793.82,146.82c13.17-58.67.72-122.17-6.77-122-8.69.18-11.66,86-11.86,120.72-.19,33.32,2,38.79,3.95,39.15C3783.37,185.45,3790.42,162,3793.82,146.82Z"/><path class="cls-1" d="M3768.05,146.9c-7.55-58.26-6.49-121.94-3.89-122,3,0,8.42,85.54,10.27,120.22,1.77,33.26,1.27,38.78.63,39.17C3773.64,185.21,3770,162,3768.05,146.9Z"/><path class="cls-2" d="M3831.58,75.45s13.81,74.54,1.17,105.2S3831.58,75.45,3831.58,75.45Z"/><path class="cls-2" d="M3824.55,119.14s-1.05,42.62,1.57,59.92S3824.55,119.14,3824.55,119.14Z"/><path class="cls-2" d="M3841.52,122.94s-6.9,41.19-6.73,59S3841.52,122.94,3841.52,122.94Z"/><path class="cls-2" d="M3967.55,100.85s-17.85,26.36-22.89,77.81L3939,178S3947.25,98.55,3967.55,100.85Z"/><path class="cls-2" d="M3942.49,68.31s13.82,74.54,1.18,105.2S3942.49,68.31,3942.49,68.31Z"/><path class="cls-2" d="M3913.86,128.07s15.21,35,23.82,46.21S3913.86,128.07,3913.86,128.07Z"/><path class="cls-2" d="M3931.82,124.87s12,33.84,8,51.12S3931.82,124.87,3931.82,124.87Z"/><path class="cls-2" d="M3823.18,94s-31.75,28.3-37,80.2h-10.88S3784.38,94,3823.18,94Z"/><path class="cls-2" d="M3820.55,136.94s-20.26,6.89-31.43,37.32l-5.34-3.66S3801.5,123.89,3820.55,136.94Z"/><path class="cls-2" d="M3795.88,72s-19.37,49.31-8.47,98.9l-9.53,8.39S3761.85,101.92,3795.88,72Z"/><path class="cls-2" d="M3748.35,106.32s19.84,21.55,29.92,71.05l5.4-2.05S3767.64,99,3748.35,106.32Z"/><path class="cls-2" d="M3750.36,134s18.36,30.83,27.93,39.83S3750.36,134,3750.36,134Z"/><path class="cls-2" d="M3755.9,132.87s20.16,21.7,21.39,40S3755.9,132.87,3755.9,132.87Z"/><path class="cls-2" d="M4086.85,102.51s-31.75,28.3-37,80.2h-10.88S4048,102.51,4086.85,102.51Z"/><path class="cls-2" d="M4084.22,145.43s-20.26,6.88-31.43,37.31l-5.34-3.66S4065.17,132.37,4084.22,145.43Z"/><path class="cls-2" d="M4059.54,80.47s-19.36,49.31-8.46,98.9l-9.54,8.39S4025.51,110.4,4059.54,80.47Z"/><path class="cls-2" d="M4012,114.8s19.85,21.55,29.92,71.05l5.41-2S4031.3,107.47,4012,114.8Z"/><path class="cls-2" d="M4014,142.47s18.36,30.84,27.93,39.83S4014,142.47,4014,142.47Z"/><path class="cls-2" d="M4019.56,141.36s20.17,21.69,21.39,40S4019.56,141.36,4019.56,141.36Z"/><path class="cls-2" d="M3718.48,174c-6.86-42.43-.38-88.34,3.52-88.23,4.53.13,6.07,62.16,6.18,87.28.1,24.1-1.07,28.05-2.06,28.31C3723.92,201.91,3720.25,185,3718.48,174Z"/><path class="cls-2" d="M3731.9,174c3.93-42.12,3.37-88.17,2-88.18-1.57,0-4.38,61.85-5.34,86.92-.93,24.05-.67,28-.33,28.33C3729,201.74,3730.88,184.94,3731.9,174Z"/><path class="cls-3" d="M3846,101.62s-12,60.61-1,85.54S3846,101.62,3846,101.62Z"/><path class="cls-3" d="M3852.11,137.15s.92,34.64-1.36,48.71S3852.11,137.15,3852.11,137.15Z"/><path class="cls-3" d="M3837.34,140.24s6,33.48,5.86,48S3837.34,140.24,3837.34,140.24Z"/><path class="cls-3" d="M3732.08,130.76S3747.61,152.19,3752,194l4.95-.52S3749.74,128.9,3732.08,130.76Z"/><path class="cls-3" d="M3753.88,104.3s-12,60.61-1,85.54S3753.88,104.3,3753.88,104.3Z"/><path class="cls-3" d="M3778.8,152.9s-13.24,28.43-20.73,37.57S3778.8,152.9,3778.8,152.9Z"/><path class="cls-3" d="M3763.17,150.3s-10.47,27.51-7,41.56S3763.17,150.3,3763.17,150.3Z"/><path class="cls-3" d="M3665.09,116.2s27.64,23,32.24,65.2h9.47S3698.87,116.2,3665.09,116.2Z"/><path class="cls-3" d="M3667.39,151.09s17.63,5.6,27.35,30.34l4.65-3S3684,140.48,3667.39,151.09Z"/><path class="cls-3" d="M3688.86,98.28s16.86,40.09,7.37,80.41l8.3,6.82S3718.48,122.62,3688.86,98.28Z"/><path class="cls-3" d="M3730.23,126.19s-17.27,17.52-26,57.77l-4.71-1.67S3713.44,120.23,3730.23,126.19Z"/><path class="cls-3" d="M3728.48,148.69s-16,25.07-24.32,32.39S3728.48,148.69,3728.48,148.69Z"/><path class="cls-3" d="M3723.66,147.78s-17.55,17.64-18.62,32.54S3723.66,147.78,3723.66,147.78Z"/><path class="cls-3" d="M3948.86,190.23c6-34.49.32-71.82-3.07-71.73-3.94.1-5.28,50.53-5.38,71-.08,19.59.93,22.81,1.79,23C3944.12,212.93,3947.31,199.15,3948.86,190.23Z"/><path class="cls-3" d="M3937.18,190.27c-3.42-34.24-2.94-71.68-1.77-71.7,1.37,0,3.82,50.29,4.66,70.68.8,19.55.58,22.79.28,23C3939.71,212.8,3938.06,199.14,3937.18,190.27Z"/><path class="cls-1" d="M2756.1,40.51s36.49,103.09,3.11,145.5S2756.1,40.51,2756.1,40.51Z"/><path class="cls-1" d="M2737.56,100.94s-2.79,58.94,4.13,82.87S2737.56,100.94,2737.56,100.94Z"/><path class="cls-1" d="M2782.36,106.2s-18.22,57-17.77,81.58S2782.36,106.2,2782.36,106.2Z"/><path class="cls-1" d="M3105.66,84.86s-47.13,36.46-60.44,107.62l-15-.89S3052.06,81.69,3105.66,84.86Z"/><path class="cls-1" d="M3039.49,39.85S3076,143,3042.6,185.36,3039.49,39.85,3039.49,39.85Z"/><path class="cls-1" d="M2963.88,122.51s40.18,48.37,62.9,63.91S2963.88,122.51,2963.88,122.51Z"/><path class="cls-1" d="M3011.31,118.09s31.79,46.8,21.25,70.7S3011.31,118.09,3011.31,118.09Z"/><path class="cls-1" d="M3003,72.48s-83.85,39.15-97.83,110.92h-28.72S2900.52,72.48,3003,72.48Z"/><path class="cls-1" d="M2996,131.84s-53.5,9.52-83,51.6l-14.1-5.06S2945.74,113.78,2996,131.84Z"/><path class="cls-1" d="M2930.88,42s-51.14,68.2-22.34,136.79l-25.19,11.6S2841,83.4,2930.88,42Z"/><path class="cls-1" d="M2805.36,89.48s52.41,29.81,79,98.27l14.28-2.83S2856.3,79.35,2805.36,89.48Z"/><path class="cls-1" d="M2810.68,127.75s48.49,42.65,73.77,55.09S2810.68,127.75,2810.68,127.75Z"/><path class="cls-1" d="M2825.3,126.21s53.26,30,56.49,55.34S2825.3,126.21,2825.3,126.21Z"/><path class="cls-1" d="M3162.17,148.82c-18.1-58.67-1-122.17,9.32-122,12,.18,16,86,16.3,120.72.27,33.32-2.81,38.79-5.43,39.15C3176.55,187.45,3166.85,164,3162.17,148.82Z"/><path class="cls-1" d="M3197.61,148.9C3208,90.64,3206.53,27,3203,26.94c-4.15,0-11.58,85.54-14.12,120.22-2.43,33.26-1.75,38.78-.87,39.17C3189.92,187.21,3194.92,164,3197.61,148.9Z"/><path class="cls-2" d="M3110.25,77.45s-19,74.54-1.62,105.2S3110.25,77.45,3110.25,77.45Z"/><path class="cls-2" d="M3119.91,121.14s1.45,42.62-2.15,59.92S3119.91,121.14,3119.91,121.14Z"/><path class="cls-2" d="M3096.58,124.94s9.49,41.19,9.25,59S3096.58,124.94,3096.58,124.94Z"/><path class="cls-2" d="M2923.27,102.85s24.54,26.36,31.48,77.81l7.82-.64S2951.18,100.55,2923.27,102.85Z"/><path class="cls-2" d="M2957.72,70.31s-19,74.54-1.61,105.2S2957.72,70.31,2957.72,70.31Z"/><path class="cls-2" d="M2997.1,130.07s-20.92,35-32.76,46.21S2997.1,130.07,2997.1,130.07Z"/><path class="cls-2" d="M2972.4,126.87s-16.55,33.84-11.07,51.12S2972.4,126.87,2972.4,126.87Z"/><path class="cls-2" d="M3121.8,96s43.66,28.3,50.93,80.2h15S3175.16,96,3121.8,96Z"/><path class="cls-2" d="M3125.42,138.94s27.86,6.89,43.22,37.32l7.34-3.66S3151.61,125.89,3125.42,138.94Z"/><path class="cls-2" d="M3159.35,74S3186,123.3,3171,172.89l13.12,8.39S3206.14,103.92,3159.35,74Z"/><path class="cls-2" d="M3224.71,108.32s-27.29,21.55-41.15,71.05l-7.43-2.05S3198.18,101,3224.71,108.32Z"/><path class="cls-2" d="M3221.94,136s-25.25,30.83-38.42,39.83S3221.94,136,3221.94,136Z"/><path class="cls-2" d="M3214.33,134.87s-27.74,21.7-29.42,40S3214.33,134.87,3214.33,134.87Z"/><path class="cls-2" d="M2759.21,104.51s43.66,28.3,50.94,80.2h15S2812.57,104.51,2759.21,104.51Z"/><path class="cls-2" d="M2762.83,147.43s27.86,6.88,43.22,37.31l7.35-3.66S2789,134.37,2762.83,147.43Z"/><path class="cls-2" d="M2796.76,82.47s26.63,49.31,11.64,98.9l13.11,8.39S2843.56,112.4,2796.76,82.47Z"/><path class="cls-2" d="M2862.12,116.8s-27.29,21.55-41.14,71.05l-7.44-2S2835.59,109.47,2862.12,116.8Z"/><path class="cls-2" d="M2859.35,144.47s-25.25,30.84-38.41,39.83S2859.35,144.47,2859.35,144.47Z"/><path class="cls-2" d="M2851.74,143.36s-27.74,21.69-29.42,40S2851.74,143.36,2851.74,143.36Z"/><path class="cls-2" d="M3265.78,176c9.43-42.43.52-88.34-4.85-88.23-6.22.13-8.34,62.16-8.49,87.28-.14,24.1,1.46,28.05,2.83,28.31C3258.3,203.91,3263.34,187,3265.78,176Z"/><path class="cls-2" d="M3247.33,176c-5.4-42.12-4.65-88.17-2.78-88.18,2.15,0,6,61.85,7.35,86.92,1.26,24.05.91,28,.45,28.33C3251.33,203.74,3248.73,186.94,3247.33,176Z"/><path class="cls-3" d="M3090.42,103.62s16.54,60.61,1.41,85.54S3090.42,103.62,3090.42,103.62Z"/><path class="cls-3" d="M3082,139.15s-1.27,34.64,1.87,48.71S3082,139.15,3082,139.15Z"/><path class="cls-3" d="M3102.32,142.24s-8.26,33.48-8.05,48S3102.32,142.24,3102.32,142.24Z"/><path class="cls-3" d="M3247.08,132.76s-21.36,21.43-27.39,63.27l-6.81-.52S3222.79,130.9,3247.08,132.76Z"/><path class="cls-3" d="M3217.09,106.3s16.54,60.61,1.41,85.54S3217.09,106.3,3217.09,106.3Z"/><path class="cls-3" d="M3182.83,154.9s18.2,28.43,28.5,37.57S3182.83,154.9,3182.83,154.9Z"/><path class="cls-3" d="M3204.32,152.3s14.41,27.51,9.63,41.56S3204.32,152.3,3204.32,152.3Z"/><path class="cls-3" d="M3339.19,118.2s-38,23-44.33,65.2h-13S3292.75,118.2,3339.19,118.2Z"/><path class="cls-3" d="M3336,153.09a62.85,62.85,0,0,0-37.62,30.34l-6.39-3S3313.24,142.48,3336,153.09Z"/><path class="cls-3" d="M3306.51,100.28s-23.18,40.09-10.13,80.41L3285,187.51S3265.78,124.62,3306.51,100.28Z"/><path class="cls-3" d="M3249.62,128.19s23.75,17.52,35.81,57.77l6.47-1.67S3272.71,122.23,3249.62,128.19Z"/><path class="cls-3" d="M3252,150.69s22,25.07,33.44,32.39S3252,150.69,3252,150.69Z"/><path class="cls-3" d="M3258.66,149.78s24.14,17.64,25.6,32.54S3258.66,149.78,3258.66,149.78Z"/><path class="cls-3" d="M2949,192.23c-8.2-34.49-.45-71.82,4.22-71.73,5.42.1,7.27,50.53,7.39,71,.12,19.59-1.27,22.81-2.46,23C2955.49,214.93,2951.1,201.15,2949,192.23Z"/><path class="cls-3" d="M2965,192.27c4.71-34.24,4-71.68,2.43-71.7-1.88,0-5.25,50.29-6.4,70.68-1.1,19.55-.8,22.79-.4,23C2961.55,214.8,2963.82,201.14,2965,192.27Z"/><path class="cls-1" d="M5082.48,19.06s-26,113.35-2.22,160S5082.48,19.06,5082.48,19.06Z"/><path class="cls-1" d="M5095.71,85.51s2,64.79-2.94,91.1S5095.71,85.51,5095.71,85.51Z"/><path class="cls-1" d="M5063.74,91.28s13,62.63,12.68,89.7S5063.74,91.28,5063.74,91.28Z"/><path class="cls-1" d="M4833,67.83s33.64,40.08,43.14,118.31l10.72-1S4871.23,64.34,4833,67.83Z"/><path class="cls-1" d="M4880.2,18.35s-26,113.34-2.21,160S4880.2,18.35,4880.2,18.35Z"/><path class="cls-1" d="M4934.17,109.22s-28.67,53.17-44.89,70.26S4934.17,109.22,4934.17,109.22Z"/><path class="cls-1" d="M4900.32,104.36s-22.69,51.45-15.17,77.72S4900.32,104.36,4900.32,104.36Z"/><path class="cls-1" d="M4906.25,54.21s59.85,43.05,69.83,122h20.5S4979.4,54.21,4906.25,54.21Z"/><path class="cls-1" d="M4911.22,119.47s38.19,10.47,59.24,56.74l10.07-5.57S4947.12,99.62,4911.22,119.47Z"/><path class="cls-1" d="M4957.73,20.71s36.5,75,15.94,150.38l18,12.76S5021.87,66.22,4957.73,20.71Z"/><path class="cls-1" d="M5047.32,72.9s-37.41,32.78-56.4,108l-10.19-3.13S5011,61.77,5047.32,72.9Z"/><path class="cls-1" d="M5043.52,115s-34.61,46.89-52.65,60.57S5043.52,115,5043.52,115Z"/><path class="cls-1" d="M5033.09,113.29s-38,33-40.32,60.84S5033.09,113.29,5033.09,113.29Z"/><path class="cls-1" d="M4792.64,138.14c12.92-64.5.71-134.31-6.65-134.14-8.53.2-11.44,94.51-11.63,132.71-.19,36.64,2,42.65,3.88,43C4782.38,180.61,4789.3,154.84,4792.64,138.14Z"/><path class="cls-1" d="M4767.35,138.23c-7.41-64-6.37-134.06-3.82-134.09,3,0,8.27,94.05,10.08,132.17,1.73,36.57,1.25,42.64.62,43.07C4772.83,180.35,4769.27,154.81,4767.35,138.23Z"/><path class="cls-2" d="M4829.7,59.67s13.56,82,1.15,115.67S4829.7,59.67,4829.7,59.67Z"/><path class="cls-2" d="M4822.81,107.71s-1,46.85,1.53,65.87S4822.81,107.71,4822.81,107.71Z"/><path class="cls-2" d="M4839.46,111.89s-6.77,45.28-6.6,64.85S4839.46,111.89,4839.46,111.89Z"/><path class="cls-2" d="M4963.16,87.6s-17.52,29-22.47,85.55l-5.58-.71S4943.24,85.08,4963.16,87.6Z"/><path class="cls-2" d="M4938.57,51.83s13.56,82,1.15,115.66S4938.57,51.83,4938.57,51.83Z"/><path class="cls-2" d="M4910.47,117.53s14.93,38.45,23.37,50.8S4910.47,117.53,4910.47,117.53Z"/><path class="cls-2" d="M4928.09,114s11.82,37.21,7.9,56.2S4928.09,114,4928.09,114Z"/><path class="cls-2" d="M4821.46,80.1s-31.16,31.12-36.36,88.17h-10.67S4783.37,80.1,4821.46,80.1Z"/><path class="cls-2" d="M4818.87,127.29s-19.88,7.56-30.85,41l-5.24-4S4800.18,112.93,4818.87,127.29Z"/><path class="cls-2" d="M4794.66,55.87s-19,54.22-8.31,108.73l-9.36,9.23S4761.26,88.78,4794.66,55.87Z"/><path class="cls-2" d="M4748,93.61s19.47,23.7,29.36,78.12l5.31-2.26S4766.94,85.56,4748,93.61Z"/><path class="cls-2" d="M4750,124s18,33.9,27.42,43.79S4750,124,4750,124Z"/><path class="cls-2" d="M4755.42,122.81s19.79,23.85,21,44S4755.42,122.81,4755.42,122.81Z"/><path class="cls-2" d="M5080.26,89.43s-31.16,31.12-36.36,88.17h-10.67S5042.17,89.43,5080.26,89.43Z"/><path class="cls-2" d="M5077.67,136.61s-19.88,7.57-30.85,41l-5.24-4S5059,122.26,5077.67,136.61Z"/><path class="cls-2" d="M5053.46,65.2s-19,54.21-8.31,108.73l-9.36,9.22S5020.06,98.11,5053.46,65.2Z"/><path class="cls-2" d="M5006.8,102.94s19.48,23.69,29.37,78.12l5.31-2.26S5025.74,94.89,5006.8,102.94Z"/><path class="cls-2" d="M5008.78,133.36s18,33.9,27.42,43.79S5008.78,133.36,5008.78,133.36Z"/><path class="cls-2" d="M5014.22,132.14s19.79,23.85,21,44S5014.22,132.14,5014.22,132.14Z"/><path class="cls-2" d="M4718.69,168c-6.73-46.64-.37-97.12,3.46-97,4.44.14,6,68.33,6.06,96,.1,26.49-1,30.84-2,31.12C4724,198.71,4720.43,180.08,4718.69,168Z"/><path class="cls-2" d="M4731.86,168.07c3.86-46.31,3.32-96.93,2-96.95-1.54,0-4.31,68-5.25,95.56-.9,26.44-.65,30.83-.32,31.14C4729,198.52,4730.86,180.06,4731.86,168.07Z"/><path class="cls-3" d="M4843.85,88.45s-11.8,66.63-1,94S4843.85,88.45,4843.85,88.45Z"/><path class="cls-3" d="M4849.85,127.51s.91,38.09-1.33,53.55S4849.85,127.51,4849.85,127.51Z"/><path class="cls-3" d="M4835.36,130.91s5.9,36.81,5.75,52.72S4835.36,130.91,4835.36,130.91Z"/><path class="cls-3" d="M4732,120.49s15.24,23.56,19.55,69.55l4.86-.57S4749.38,118.44,4732,120.49Z"/><path class="cls-3" d="M4753.44,91.4s-11.8,66.63-1,94S4753.44,91.4,4753.44,91.4Z"/><path class="cls-3" d="M4777.9,144.82s-13,31.26-20.35,41.31S4777.9,144.82,4777.9,144.82Z"/><path class="cls-3" d="M4762.56,142s-10.28,30.25-6.88,45.69S4762.56,142,4762.56,142Z"/><path class="cls-3" d="M4666.29,104.47s27.13,25.31,31.65,71.69h9.29S4699.44,104.47,4666.29,104.47Z"/><path class="cls-3" d="M4668.54,142.84s17.31,6.15,26.85,33.35l4.57-3.27S4684.82,131.17,4668.54,142.84Z"/><path class="cls-3" d="M4689.62,84.78s16.54,44.08,7.23,88.4l8.15,7.5S4718.69,111.53,4689.62,84.78Z"/><path class="cls-3" d="M4730.23,115.46s-17,19.27-25.57,63.52l-4.61-1.84S4713.75,108.91,4730.23,115.46Z"/><path class="cls-3" d="M4728.5,140.2s-15.68,27.56-23.86,35.6S4728.5,140.2,4728.5,140.2Z"/><path class="cls-3" d="M4723.78,139.2s-17.23,19.39-18.28,35.77S4723.78,139.2,4723.78,139.2Z"/><path class="cls-3" d="M4944.82,185.86c5.85-37.91.32-79-3-78.85-3.87.11-5.18,55.55-5.27,78-.09,21.54.91,25.07,1.76,25.3C4940.16,210.83,4943.3,195.68,4944.82,185.86Z"/><path class="cls-3" d="M4933.35,185.91c-3.36-37.65-2.89-78.81-1.73-78.82,1.34,0,3.75,55.28,4.57,77.7.78,21.49.57,25.06.28,25.32C4935.84,210.67,4934.22,195.66,4933.35,185.91Z"/><path class="cls-1" d="M5457.11,38.51s-26.54,103.09-2.26,145.5S5457.11,38.51,5457.11,38.51Z"/><path class="cls-1" d="M5470.6,98.94s2,58.94-3,82.87S5470.6,98.94,5470.6,98.94Z"/><path class="cls-1" d="M5438,104.2s13.25,57,12.92,81.58S5438,104.2,5438,104.2Z"/><path class="cls-1" d="M5202.92,82.86s34.27,36.46,43.95,107.62l10.93-.89S5241.89,79.69,5202.92,82.86Z"/><path class="cls-1" d="M5251,37.85s-26.54,103.1-2.26,145.51S5251,37.85,5251,37.85Z"/><path class="cls-1" d="M5306,120.51s-29.22,48.37-45.74,63.91S5306,120.51,5306,120.51Z"/><path class="cls-1" d="M5271.53,116.09s-23.12,46.8-15.46,70.7S5271.53,116.09,5271.53,116.09Z"/><path class="cls-1" d="M5277.57,70.48s61,39.15,71.14,110.92h20.89S5352.09,70.48,5277.57,70.48Z"/><path class="cls-1" d="M5282.63,129.84s38.91,9.52,60.36,51.6l10.25-5.06S5319.21,111.78,5282.63,129.84Z"/><path class="cls-1" d="M5330,40s37.19,68.2,16.25,136.79l18.32,11.6S5395.36,81.4,5330,40Z"/><path class="cls-1" d="M5421.29,87.48s-38.11,29.81-57.46,98.27l-10.39-2.83S5384.24,77.35,5421.29,87.48Z"/><path class="cls-1" d="M5417.42,125.75s-35.26,42.65-53.65,55.09S5417.42,125.75,5417.42,125.75Z"/><path class="cls-1" d="M5406.79,124.21s-38.73,30-41.08,55.34S5406.79,124.21,5406.79,124.21Z"/><path class="cls-1" d="M5161.82,146.82c13.17-58.67.72-122.17-6.77-122-8.69.18-11.66,86-11.86,120.72-.19,33.32,2,38.79,4,39.15C5151.37,185.45,5158.42,162,5161.82,146.82Z"/><path class="cls-1" d="M5136.05,146.9c-7.55-58.26-6.49-121.94-3.89-122,3,0,8.42,85.54,10.27,120.22,1.77,33.26,1.27,38.78.63,39.17C5141.64,185.21,5138,162,5136.05,146.9Z"/><path class="cls-2" d="M5199.58,75.45s13.81,74.54,1.17,105.2S5199.58,75.45,5199.58,75.45Z"/><path class="cls-2" d="M5192.55,119.14s-1.05,42.62,1.57,59.92S5192.55,119.14,5192.55,119.14Z"/><path class="cls-2" d="M5209.52,122.94s-6.9,41.19-6.73,59S5209.52,122.94,5209.52,122.94Z"/><path class="cls-2" d="M5335.55,100.85s-17.85,26.36-22.89,77.81L5307,178S5315.25,98.55,5335.55,100.85Z"/><path class="cls-2" d="M5310.49,68.31s13.82,74.54,1.18,105.2S5310.49,68.31,5310.49,68.31Z"/><path class="cls-2" d="M5281.86,128.07s15.21,35,23.82,46.21S5281.86,128.07,5281.86,128.07Z"/><path class="cls-2" d="M5299.82,124.87s12,33.84,8.05,51.12S5299.82,124.87,5299.82,124.87Z"/><path class="cls-2" d="M5191.18,94s-31.75,28.3-37,80.2h-10.88S5152.38,94,5191.18,94Z"/><path class="cls-2" d="M5188.55,136.94s-20.26,6.89-31.43,37.32l-5.34-3.66S5169.5,123.89,5188.55,136.94Z"/><path class="cls-2" d="M5163.88,72s-19.37,49.31-8.47,98.9l-9.53,8.39S5129.85,101.92,5163.88,72Z"/><path class="cls-2" d="M5116.35,106.32s19.84,21.55,29.92,71.05l5.4-2.05S5135.64,99,5116.35,106.32Z"/><path class="cls-2" d="M5118.36,134s18.36,30.83,27.93,39.83S5118.36,134,5118.36,134Z"/><path class="cls-2" d="M5123.9,132.87s20.16,21.7,21.39,40S5123.9,132.87,5123.9,132.87Z"/><path class="cls-2" d="M5454.85,102.51s-31.75,28.3-37,80.2h-10.88S5416,102.51,5454.85,102.51Z"/><path class="cls-2" d="M5452.22,145.43s-20.26,6.88-31.43,37.31l-5.34-3.66S5433.17,132.37,5452.22,145.43Z"/><path class="cls-2" d="M5427.54,80.47s-19.36,49.31-8.46,98.9l-9.54,8.39S5393.51,110.4,5427.54,80.47Z"/><path class="cls-2" d="M5380,114.8s19.85,21.55,29.92,71.05l5.41-2S5399.3,107.47,5380,114.8Z"/><path class="cls-2" d="M5382,142.47s18.36,30.84,27.93,39.83S5382,142.47,5382,142.47Z"/><path class="cls-2" d="M5387.56,141.36s20.17,21.69,21.39,40S5387.56,141.36,5387.56,141.36Z"/><path class="cls-2" d="M5086.48,174c-6.86-42.43-.38-88.34,3.52-88.23,4.53.13,6.07,62.16,6.18,87.28.1,24.1-1.07,28.05-2.06,28.31C5091.92,201.91,5088.25,185,5086.48,174Z"/><path class="cls-2" d="M5099.9,174c3.93-42.12,3.37-88.17,2-88.18-1.57,0-4.38,61.85-5.34,86.92-.93,24.05-.67,28-.33,28.33C5097,201.74,5098.88,184.94,5099.9,174Z"/><path class="cls-3" d="M5214,101.62s-12,60.61-1,85.54S5214,101.62,5214,101.62Z"/><path class="cls-3" d="M5220.11,137.15s.92,34.64-1.36,48.71S5220.11,137.15,5220.11,137.15Z"/><path class="cls-3" d="M5205.34,140.24s6,33.48,5.86,48S5205.34,140.24,5205.34,140.24Z"/><path class="cls-3" d="M5100.08,130.76S5115.61,152.19,5120,194l4.95-.52S5117.74,128.9,5100.08,130.76Z"/><path class="cls-3" d="M5121.88,104.3s-12,60.61-1,85.54S5121.88,104.3,5121.88,104.3Z"/><path class="cls-3" d="M5146.8,152.9s-13.24,28.43-20.73,37.57S5146.8,152.9,5146.8,152.9Z"/><path class="cls-3" d="M5131.17,150.3s-10.47,27.51-7,41.56S5131.17,150.3,5131.17,150.3Z"/><path class="cls-3" d="M5033.09,116.2s27.64,23,32.24,65.2h9.47S5066.87,116.2,5033.09,116.2Z"/><path class="cls-3" d="M5035.39,151.09s17.63,5.6,27.35,30.34l4.65-3S5052,140.48,5035.39,151.09Z"/><path class="cls-3" d="M5056.86,98.28s16.86,40.09,7.37,80.41l8.3,6.82S5086.48,122.62,5056.86,98.28Z"/><path class="cls-3" d="M5098.23,126.19s-17.27,17.52-26,57.77l-4.71-1.67S5081.44,120.23,5098.23,126.19Z"/><path class="cls-3" d="M5096.48,148.69s-16,25.07-24.32,32.39S5096.48,148.69,5096.48,148.69Z"/><path class="cls-3" d="M5091.66,147.78s-17.55,17.64-18.62,32.54S5091.66,147.78,5091.66,147.78Z"/><path class="cls-3" d="M5316.86,190.23c6-34.49.32-71.82-3.07-71.73-3.94.1-5.28,50.53-5.38,71-.08,19.59.93,22.81,1.79,23C5312.12,212.93,5315.31,199.15,5316.86,190.23Z"/><path class="cls-3" d="M5305.18,190.27c-3.42-34.24-2.94-71.68-1.77-71.7,1.37,0,3.82,50.29,4.66,70.68.8,19.55.58,22.79.28,23C5307.71,212.8,5306.06,199.14,5305.18,190.27Z"/><path class="cls-1" d="M4124.1,40.51s36.49,103.09,3.11,145.5S4124.1,40.51,4124.1,40.51Z"/><path class="cls-1" d="M4105.56,100.94s-2.79,58.94,4.13,82.87S4105.56,100.94,4105.56,100.94Z"/><path class="cls-1" d="M4150.36,106.2s-18.22,57-17.77,81.58S4150.36,106.2,4150.36,106.2Z"/><path class="cls-1" d="M4473.66,84.86s-47.13,36.46-60.44,107.62l-15-.89S4420.06,81.69,4473.66,84.86Z"/><path class="cls-1" d="M4407.49,39.85S4444,143,4410.6,185.36,4407.49,39.85,4407.49,39.85Z"/><path class="cls-1" d="M4331.88,122.51s40.18,48.37,62.9,63.91S4331.88,122.51,4331.88,122.51Z"/><path class="cls-1" d="M4379.31,118.09s31.79,46.8,21.25,70.7S4379.31,118.09,4379.31,118.09Z"/><path class="cls-1" d="M4371,72.48s-83.85,39.15-97.83,110.92h-28.72S4268.52,72.48,4371,72.48Z"/><path class="cls-1" d="M4364,131.84s-53.5,9.52-83,51.6l-14.1-5.06S4313.74,113.78,4364,131.84Z"/><path class="cls-1" d="M4298.88,42s-51.14,68.2-22.34,136.79l-25.19,11.6S4209,83.4,4298.88,42Z"/><path class="cls-1" d="M4173.36,89.48s52.41,29.81,79,98.27l14.28-2.83S4224.3,79.35,4173.36,89.48Z"/><path class="cls-1" d="M4178.68,127.75s48.49,42.65,73.77,55.09S4178.68,127.75,4178.68,127.75Z"/><path class="cls-1" d="M4193.3,126.21s53.26,30,56.49,55.34S4193.3,126.21,4193.3,126.21Z"/><path class="cls-1" d="M4530.17,148.82c-18.1-58.67-1-122.17,9.32-122,11.95.18,16,86,16.3,120.72.27,33.32-2.81,38.79-5.43,39.15C4544.55,187.45,4534.85,164,4530.17,148.82Z"/><path class="cls-1" d="M4565.61,148.9C4576,90.64,4574.53,27,4571,26.94c-4.15,0-11.58,85.54-14.12,120.22-2.43,33.26-1.75,38.78-.87,39.17C4557.92,187.21,4562.92,164,4565.61,148.9Z"/><path class="cls-2" d="M4478.25,77.45s-19,74.54-1.62,105.2S4478.25,77.45,4478.25,77.45Z"/><path class="cls-2" d="M4487.91,121.14s1.45,42.62-2.15,59.92S4487.91,121.14,4487.91,121.14Z"/><path class="cls-2" d="M4464.58,124.94s9.49,41.19,9.25,59S4464.58,124.94,4464.58,124.94Z"/><path class="cls-2" d="M4291.27,102.85s24.54,26.36,31.48,77.81l7.82-.64S4319.18,100.55,4291.27,102.85Z"/><path class="cls-2" d="M4325.72,70.31s-19,74.54-1.61,105.2S4325.72,70.31,4325.72,70.31Z"/><path class="cls-2" d="M4365.1,130.07s-20.92,35-32.76,46.21S4365.1,130.07,4365.1,130.07Z"/><path class="cls-2" d="M4340.4,126.87s-16.55,33.84-11.07,51.12S4340.4,126.87,4340.4,126.87Z"/><path class="cls-2" d="M4489.8,96s43.66,28.3,50.93,80.2h15S4543.16,96,4489.8,96Z"/><path class="cls-2" d="M4493.42,138.94s27.86,6.89,43.22,37.32l7.34-3.66S4519.61,125.89,4493.42,138.94Z"/><path class="cls-2" d="M4527.35,74S4554,123.3,4539,172.89l13.12,8.39S4574.14,103.92,4527.35,74Z"/><path class="cls-2" d="M4592.71,108.32s-27.29,21.55-41.15,71.05l-7.43-2.05S4566.18,101,4592.71,108.32Z"/><path class="cls-2" d="M4589.94,136s-25.25,30.83-38.42,39.83S4589.94,136,4589.94,136Z"/><path class="cls-2" d="M4582.33,134.87s-27.74,21.7-29.42,40S4582.33,134.87,4582.33,134.87Z"/><path class="cls-2" d="M4127.21,104.51s43.66,28.3,50.94,80.2h15S4180.57,104.51,4127.21,104.51Z"/><path class="cls-2" d="M4130.83,147.43s27.86,6.88,43.22,37.31l7.35-3.66S4157,134.37,4130.83,147.43Z"/><path class="cls-2" d="M4164.76,82.47s26.63,49.31,11.64,98.9l13.11,8.39S4211.56,112.4,4164.76,82.47Z"/><path class="cls-2" d="M4230.12,116.8s-27.29,21.55-41.14,71.05l-7.44-2S4203.59,109.47,4230.12,116.8Z"/><path class="cls-2" d="M4227.35,144.47s-25.25,30.84-38.41,39.83S4227.35,144.47,4227.35,144.47Z"/><path class="cls-2" d="M4219.74,143.36s-27.74,21.69-29.42,40S4219.74,143.36,4219.74,143.36Z"/><path class="cls-2" d="M4633.78,176c9.43-42.43.52-88.34-4.85-88.23-6.22.13-8.34,62.16-8.49,87.28-.14,24.1,1.46,28.05,2.83,28.31C4626.3,203.91,4631.34,187,4633.78,176Z"/><path class="cls-2" d="M4615.33,176c-5.4-42.12-4.65-88.17-2.78-88.18,2.15,0,6,61.85,7.35,86.92,1.26,24.05.91,28,.45,28.33C4619.33,203.74,4616.73,186.94,4615.33,176Z"/><path class="cls-3" d="M4458.42,103.62s16.54,60.61,1.41,85.54S4458.42,103.62,4458.42,103.62Z"/><path class="cls-3" d="M4450,139.15s-1.27,34.64,1.87,48.71S4450,139.15,4450,139.15Z"/><path class="cls-3" d="M4470.32,142.24s-8.26,33.48-8,48S4470.32,142.24,4470.32,142.24Z"/><path class="cls-3" d="M4615.08,132.76s-21.36,21.43-27.39,63.27l-6.81-.52S4590.79,130.9,4615.08,132.76Z"/><path class="cls-3" d="M4585.09,106.3s16.54,60.61,1.41,85.54S4585.09,106.3,4585.09,106.3Z"/><path class="cls-3" d="M4550.83,154.9s18.2,28.43,28.5,37.57S4550.83,154.9,4550.83,154.9Z"/><path class="cls-3" d="M4572.32,152.3s14.41,27.51,9.63,41.56S4572.32,152.3,4572.32,152.3Z"/><path class="cls-3" d="M4707.19,118.2s-38,23-44.33,65.2h-13S4660.75,118.2,4707.19,118.2Z"/><path class="cls-3" d="M4704,153.09a62.85,62.85,0,0,0-37.62,30.34l-6.39-3S4681.24,142.48,4704,153.09Z"/><path class="cls-3" d="M4674.51,100.28s-23.18,40.09-10.13,80.41L4653,187.51S4633.78,124.62,4674.51,100.28Z"/><path class="cls-3" d="M4617.62,128.19s23.75,17.52,35.81,57.77l6.47-1.67S4640.71,122.23,4617.62,128.19Z"/><path class="cls-3" d="M4620,150.69s22,25.07,33.44,32.39S4620,150.69,4620,150.69Z"/><path class="cls-3" d="M4626.66,149.78s24.14,17.64,25.6,32.54S4626.66,149.78,4626.66,149.78Z"/><path class="cls-3" d="M4317,192.23c-8.2-34.49-.45-71.82,4.22-71.73,5.42.1,7.27,50.53,7.39,71,.12,19.59-1.27,22.81-2.46,23C4323.49,214.93,4319.1,201.15,4317,192.23Z"/><path class="cls-3" d="M4333,192.27c4.71-34.24,4.05-71.68,2.43-71.7-1.88,0-5.25,50.29-6.4,70.68-1.1,19.55-.8,22.79-.4,23C4329.55,214.8,4331.82,201.14,4333,192.27Z"/></g></g></svg>