<svg xmlns="http://www.w3.org/2000/svg" xmlns:xlink="http://www.w3.org/1999/xlink" viewBox="0 0 1366 768"><style><![CDATA[.a{overflow:visible}.b{opacity:.75}.c{opacity:.05}]]></style><path d="M0 0h1366v768H0z" fill="#3a3a3a"/><linearGradient id="A" gradientUnits="userSpaceOnUse" x1="148.752" y1="916.702" x2="1217.248" y2="-151.794"><stop offset="0" stop-color="#4f1e82"/><stop offset="1" stop-color="#145286"/></linearGradient><path d="M0-3h1366v771H0z" fill="url(#A)"/><image width="254" height="811" xlink:href="2C03AE8D.png" transform="translate(511 -15)" class="a c"/><linearGradient id="B" gradientUnits="userSpaceOnUse" x1="638" y1="0" x2="638" y2="781"><stop offset="0" stop-color="#8fbcdb"/><stop offset="1" stop-opacity="0"/></linearGradient><path d="M750 9.8V781H526V0h4v9.8z" fill="url(#B)"/><image width="254" height="786" xlink:href="2C03AE8F.png" transform="translate(1103 -6)" class="a c"/><linearGradient id="C" gradientUnits="userSpaceOnUse" x1="1230" y1="9.796" x2="1230" y2="764.924"><stop offset="0" stop-color="#0c5282"/><stop offset="1"/></linearGradient><path d="M1118 9.8h224v755.1h-224z" fill="url(#C)"/><image width="254" height="740" xlink:href="2C03AE8A.png" transform="translate(596 40)" class="a c"/><linearGradient id="D" gradientUnits="userSpaceOnUse" x1="723" y1="55.131" x2="723" y2="764.921"><stop offset="0" stop-color="#145286"/><stop offset="1"/></linearGradient><path d="M611 55.1h224v709.8H611z" fill="url(#D)"/><image width="254" height="786" xlink:href="2C03AE8B.png" transform="translate(18 -6)" class="a c"/><linearGradient id="E" gradientUnits="userSpaceOnUse" x1="145" y1="9.796" x2="145" y2="764.924"><stop offset="0" stop-color="#145286"/><stop offset="1"/></linearGradient><path d="M33 9.8h224v755.1H33z" fill="url(#E)"/><image width="319" height="754" xlink:href="2C03AE95.png" transform="translate(252 26)" class="a c"/><linearGradient id="F" gradientUnits="userSpaceOnUse" x1="411.5" y1="41.349" x2="411.5" y2="764.921"><stop offset="0" stop-color="#25597c"/><stop offset="1"/></linearGradient><path d="M267 41.3h289v723.6H267z" fill="url(#F)"/><image width="206" height="645" xlink:href="2C03AE97.png" transform="translate(153 138)" class="a c"/><linearGradient id="G" gradientUnits="userSpaceOnUse" x1="256" y1="153.904" x2="256" y2="767.218"><stop offset="0" stop-color="#39bce3"/><stop offset="1"/></linearGradient><path d="M168 153.9h176v613.3H168z" fill="url(#G)"/><image width="254" height="651" xlink:href="2C03AE9A.png" transform="translate(846 128)" class="a c"/><linearGradient id="H" gradientUnits="userSpaceOnUse" x1="973" y1="143.59" x2="973" y2="763.848"><stop offset="0" stop-color="#8fbcdb"/><stop offset="1" stop-opacity="0"/></linearGradient><path d="M861 143.6h224v620.3H861z" fill="url(#H)"/><image width="206" height="589" xlink:href="2C03AE9B.png" transform="translate(988 192)" class="a c"/><linearGradient id="I" gradientUnits="userSpaceOnUse" x1="1091" y1="207.618" x2="1091" y2="765.344"><stop offset="0" stop-color="#1570ad"/><stop offset="1"/></linearGradient><path d="M1003 207.6h176v557.7h-176z" fill="url(#I)"/><image width="159" height="392" xlink:href="2C03AE9D.png" transform="translate(467 388)" class="a c"/><linearGradient id="J" gradientUnits="userSpaceOnUse" x1="546.5" y1="403.135" x2="546.5" y2="764.921"><stop offset="0" stop-color="#1570ad"/><stop offset="1"/></linearGradient><path d="M482 403.1h129v361.8H482z" fill="url(#J)"/><image width="187" height="512" xlink:href="5C883A66.png" transform="translate(727 267)" class="a c"/><linearGradient id="K" gradientUnits="userSpaceOnUse" x1="820.5" y1="282.539" x2="820.5" y2="763.772"><stop offset="0" stop-color="#56d0de"/><stop offset="1"/></linearGradient><path d="M742 282.5h157v481.2H742z" fill="url(#K)"/><image width="187" height="384" xlink:href="5C883A61.png" transform="translate(792 395)" class="a c"/><linearGradient id="L" gradientUnits="userSpaceOnUse" x1="885.5" y1="410.026" x2="885.5" y2="763.772"><stop offset="0" stop-color="#254459"/><stop offset="1"/></linearGradient><path d="M807 410h157v353.7H807z" fill="url(#L)"/><image width="265" height="555" xlink:href="5C883A62.png" transform="translate(688 225)" class="a b"/><linearGradient id="M" gradientUnits="userSpaceOnUse" x1="630.551" y1="312.548" x2="1009.54" y2="691.538"><stop offset="0" stop-color="#51a9e5" stop-opacity=".5"/><stop offset="1" stop-color="#730cc4" stop-opacity=".4"/></linearGradient><path d="M703.1 240h234v524h-234z" fill="url(#M)"/><image width="264" height="555" xlink:href="5C883A60.png" transform="translate(-15 225)" class="a b"/><linearGradient id="N" gradientUnits="userSpaceOnUse" x1="-72.504" y1="312.548" x2="306.485" y2="691.538"><stop offset="0" stop-color="#51a9e5" stop-opacity=".5"/><stop offset="1" stop-color="#730cc4" stop-opacity=".4"/></linearGradient><path d="M0 240h234v524H0z" fill="url(#N)"/><image width="265" height="508" xlink:href="5C883A7E.png" transform="translate(514 272)" class="a b"/><linearGradient id="O" gradientUnits="userSpaceOnUse" x1="468.646" y1="348.276" x2="823.817" y2="703.447"><stop offset="0" stop-color="#51a9e5" stop-opacity=".5"/><stop offset="1" stop-color="#730cc4" stop-opacity=".4"/></linearGradient><path d="M529.2 287.7h234v476.4h-234z" fill="url(#O)"/><image width="264" height="555" xlink:href="5C883A63.png" transform="translate(1117 225)" class="a b"/><linearGradient id="P" gradientUnits="userSpaceOnUse" x1="1059.515" y1="312.548" x2="1438.504" y2="691.538"><stop offset="0" stop-color="#51a9e5" stop-opacity=".5"/><stop offset="1" stop-color="#730cc4" stop-opacity=".4"/></linearGradient><path d="M1132 240h234v524h-234z" fill="url(#P)"/><image width="333" height="549" xlink:href="5C883A67.png" transform="translate(815 -6)" class="a b"/><linearGradient id="Q" gradientUnits="userSpaceOnUse" x1="776.993" y1="63.653" x2="1186.657" y2="473.317"><stop offset="0" stop-color="#51a9e5" stop-opacity=".5"/><stop offset="1" stop-color="#730cc4" stop-opacity=".4"/></linearGradient><path d="M830.8 9.8h302v517.4h-302z" fill="url(#Q)"/><image width="215" height="443" xlink:href="5C883A65.png" transform="translate(1026 339)" class="a b"/><linearGradient id="R" gradientUnits="userSpaceOnUse" x1="984.857" y1="411.487" x2="1282.525" y2="709.156"><stop offset="0" stop-color="#51a9e5" stop-opacity=".5"/><stop offset="1" stop-color="#730cc4" stop-opacity=".4"/></linearGradient><path d="M1041.8 354.6h183.8v411.5h-183.8z" fill="url(#R)"/><image width="265" height="392" xlink:href="5C883A6C.png" transform="translate(280 -15)" class="a b"/><linearGradient id="S" gradientUnits="userSpaceOnUse" x1="269.112" y1="36.664" x2="561.726" y2="329.278"><stop offset="0" stop-color="#51a9e5" stop-opacity=".5"/><stop offset="1" stop-color="#730cc4" stop-opacity=".4"/></linearGradient><path d="M530 0v361H296V9.8h230V0z" fill="url(#S)"/><image width="215" height="406" xlink:href="5C883A6D.png" transform="translate(231 357)" class="a b"/><linearGradient id="T" gradientUnits="userSpaceOnUse" x1="198.68" y1="420.611" x2="478.105" y2="700.036"><stop offset="0" stop-color="#51a9e5" stop-opacity=".5"/><stop offset="1" stop-color="#730cc4" stop-opacity=".4"/></linearGradient><path d="M246.5 372.8h183.8v375H246.5z" fill="url(#T)"/><image width="324" height="208" xlink:href="5C883A85.png" transform="translate(18 445)" class="a b"/><linearGradient id="U" gradientUnits="userSpaceOnUse" x1="62.635" y1="431.397" x2="297.836" y2="666.598"><stop offset="0" stop-color="#51a9e5" stop-opacity=".5"/><stop offset="1" stop-color="#730cc4" stop-opacity=".4"/></linearGradient><path d="M33.5 460.6H327v176.9H33.5z" fill="url(#U)"/><image width="166" height="275" xlink:href="5C883A87.png" transform="translate(748 506)" class="a b"/><linearGradient id="V" gradientUnits="userSpaceOnUse" x1="736.114" y1="548.915" x2="925.147" y2="737.948"><stop offset="0" stop-color="#51a9e5" stop-opacity=".5"/><stop offset="1" stop-color="#730cc4" stop-opacity=".4"/></linearGradient><path d="M763.2 521.8H898V765H763.2z" fill="url(#V)"/><image width="166" height="199" xlink:href="5C883A84.png" transform="translate(1166 -6)" class="a b"/><linearGradient id="W" gradientUnits="userSpaceOnUse" x1="1173.121" y1="17.895" x2="1324.139" y2="168.913"><stop offset="0" stop-color="#51a9e5" stop-opacity=".5"/><stop offset="1" stop-color="#730cc4" stop-opacity=".4"/></linearGradient><path d="M1181.2 9.8H1316V177h-134.8z" fill="url(#W)"/><image width="195" height="355" xlink:href="5C883A83.png" transform="translate(447 425)" class="a b"/><linearGradient id="X" gradientUnits="userSpaceOnUse" x1="422.507" y1="480.607" x2="666.059" y2="724.159"><stop offset="0" stop-color="#51a9e5" stop-opacity=".5"/><stop offset="1" stop-color="#730cc4" stop-opacity=".4"/></linearGradient><path d="M462.4 440.7h163.8V764H462.4z" fill="url(#X)"/><image width="195" height="268" xlink:href="5C883A8D.png" transform="translate(415 74)" class="a b"/><linearGradient id="Y" gradientUnits="userSpaceOnUse" x1="412.079" y1="107.631" x2="612.556" y2="308.108"><stop offset="0" stop-color="#51a9e5" stop-opacity=".5"/><stop offset="1" stop-color="#730cc4" stop-opacity=".4"/></linearGradient><path d="M430.4 89.3h163.8v237.2H430.4z" fill="url(#Y)"/></svg>