<svg xmlns="http://www.w3.org/2000/svg" viewBox="0 0 392 526.41"><defs><style>.cls-1{fill:#fff;}</style></defs><g id="Layer_2" data-name="Layer 2"><g id="Layer_1-2" data-name="Layer 1"><path class="cls-1" d="M196,0c-23.71,0-43.8,13.77-54.07,33.6H106.4c-8.79,0-16.8,8-16.8,16.8V56H16.8C7.7,56.06,0,64.28,0,72.81v436.8c0,8.79,8,16.8,16.8,16.8H375.2c8.8,0,16.8-8,16.8-16.8V72.81C392,64,384,56,375.2,56H302.4V50.4c0-8.79-8-16.8-16.8-16.8H250.08C239.8,13.77,219.71,0,196,0Zm0,33.6a27.63,27.63,0,0,1,27.13,20.83A17.31,17.31,0,0,0,239.4,67.2h29.4V89.6H123.2V67.2h29.39a17.32,17.32,0,0,0,16.28-12.77A27.62,27.62,0,0,1,196,33.6ZM33.6,89.6h56v16.8c0,8.8,8,16.8,16.8,16.8H285.6c8.8,0,16.8-8,16.8-16.8V89.6h56V492.8H33.6ZM84,140a16.8,16.8,0,0,0,0,33.6H308a16.8,16.8,0,1,0,0-33.6Zm0,89.6a16.8,16.8,0,0,0,0,33.6H308a16.8,16.8,0,1,0,0-33.6Zm0,89.6a16.81,16.81,0,0,0,0,33.61H308a16.81,16.81,0,0,0,0-33.61Zm245.52,44.63a17,17,0,0,0-11.38,5.42l-62.47,67.38-32.73-24.5c-7-5.46-18.44-3.92-23.8,3.15s-3.65,18.36,3.5,23.62l44.8,33.61a17.4,17.4,0,0,0,22.4-1.93l72.8-78.4a17.12,17.12,0,0,0,3.15-18.55,17.42,17.42,0,0,0-16.28-9.8ZM84,408.81a16.8,16.8,0,1,0,0,33.6h84a16.8,16.8,0,0,0,0-33.6Z"/></g></g></svg>