<svg xmlns="http://www.w3.org/2000/svg" viewBox="0 0 515.2 399.85"><defs><style>.cls-1{fill:#fff;}</style></defs><g id="Layer_2" data-name="Layer 2"><g id="Layer_1-2" data-name="Layer 1"><path class="cls-1" d="M0,0V322H221.2v66.7H178a5.6,5.6,0,1,0,0,11.2H337.29a5.6,5.6,0,1,0,0-11.2H294V322H515.2V0ZM504,310.75H11.2V294H504ZM282.8,388.64H232.4V322h50.4ZM11.2,282.76V39.22H504V282.76Zm0-271.55H504V28H11.2Z"/><path class="cls-1" d="M277,125.83H264.72a14.07,14.07,0,0,0-6.33,1.51l-6.67-47.6c-1-10.81-30.18-16.35-86.8-16.35s-85.79,5.49-86.8,16.35l-6.66,47.6a14.07,14.07,0,0,0-6.33-1.51H52.86a14.51,14.51,0,0,0-14.5,14.51v2.12A14.51,14.51,0,0,0,52.86,157H55.5v82h12v5.32A15.72,15.72,0,0,0,83.22,260H94a15.72,15.72,0,0,0,15.68-15.68V239H220.08v5.38A15.69,15.69,0,0,0,235.76,260h10.81a15.69,15.69,0,0,0,15.68-15.68V239h12V157h2.63a14.51,14.51,0,0,0,14.51-14.51v-2.12A14.43,14.43,0,0,0,277,125.83Zm3.31,16.63a3.28,3.28,0,0,1-3.31,3.31H267a36.78,36.78,0,0,0-5.6-2.3v-3.13a3.28,3.28,0,0,1,3.31-3.31H277a3.28,3.28,0,0,1,3.31,3.31ZM263.1,227.75H66.71v-72L68.1,155a57.13,57.13,0,0,1,11.48-3.25c4-.84,8.85-1.62,14.4-2.35,17.07-2.24,41.21-3.92,70.84-3.92,6.55,0,12.82.11,18.81.22l5.6.17c2,.05,4,.11,5.88.22,12.38.51,23.35,1.35,32.65,2.35l5.71.67c.73.12,1.46.17,2.18.29,1.18.16,2.36.28,3.42.45,4.14.61,7.78,1.23,11,1.84A57.81,57.81,0,0,1,261.53,155a7.82,7.82,0,0,1,1.39.78v72Zm-12,16.52a4.49,4.49,0,0,1-4.48,4.48H235.77a4.49,4.49,0,0,1-4.48-4.48V238.9h19.77Zm-152.55,0A4.49,4.49,0,0,1,94,248.75H83.27a4.49,4.49,0,0,1-4.48-4.48V239H98.56v5.32ZM49.57,142.46v-2.12a3.27,3.27,0,0,1,3.3-3.31H65.14a3.28,3.28,0,0,1,3.3,3.31v3.13a53.86,53.86,0,0,0-5.6,2.3h-10a3.27,3.27,0,0,1-3.3-3.31Zm191.18-60.2,8.06,57.91c-2.69-.56-5.54-1-8.46-1.46a28.54,28.54,0,0,0-56.17-4.14c-7.28-.17-13.88-.23-19.32-.23-20.66,0-58.63.79-83.94,5.83L89,82.27c5.32-2.91,31-7.68,75.82-7.68,45,0,70.63,4.77,75.95,7.68Zm-45,52.65a17.41,17.41,0,0,1,33.09,2.29c-10.75-1.17-22.28-1.85-33.09-2.29Z"/><path class="cls-1" d="M90.55,158.87a16.52,16.52,0,1,0,16.52,16.52,16.55,16.55,0,0,0-16.52-16.52Zm0,21.9a5.32,5.32,0,1,1,5.32-5.32A5.32,5.32,0,0,1,90.55,180.77Z"/><path class="cls-1" d="M239.23,158.87a16.35,16.35,0,0,0-5.54,1,16.61,16.61,0,0,0-8.46,6.78,16.16,16.16,0,0,0-2.57,8.73,16.52,16.52,0,1,0,16.57-16.52Zm0,21.9a5.32,5.32,0,1,1,5.32-5.32A5.32,5.32,0,0,1,239.23,180.77Z"/><path class="cls-1" d="M116.87,158.87v50.51H213V158.87Zm84.9,39.31h-73.7V170.07h73.76v28.11Z"/><path class="cls-1" d="M314.27,260H471.13V63.39H314.27Zm11.2-185.36H459.93V248.75H325.47Z"/><path class="cls-1" d="M430.64,209H354.76a5.61,5.61,0,0,0,0,11.21h75.88a5.61,5.61,0,0,0,0-11.21Z"/><path class="cls-1" d="M430.64,181H354.76a5.61,5.61,0,0,0,0,11.21h75.88a5.61,5.61,0,0,0,0-11.21Z"/><path class="cls-1" d="M430.64,153H354.76a5.61,5.61,0,0,0,0,11.21h75.88a5.61,5.61,0,0,0,0-11.21Z"/><path class="cls-1" d="M430.64,125H354.76a5.61,5.61,0,0,0,0,11.21h75.88a5.61,5.61,0,0,0,0-11.21Z"/><path class="cls-1" d="M430.64,97H354.76a5.61,5.61,0,0,0,0,11.21h75.88a5.61,5.61,0,0,0,0-11.21Z"/></g></g></svg>