<svg xmlns="http://www.w3.org/2000/svg" viewBox="0 0 560 490"><defs><style>.cls-1{fill:#fff;}</style></defs><g id="Layer_2" data-name="Layer 2"><g id="Layer_1-2" data-name="Layer 1"><path class="cls-1" d="M244.15,371.78l-13.6-54.4a26.21,26.21,0,0,0-25.47-19.88H57.42A26.22,26.22,0,0,0,32,317.38l-13.6,54.4L7.69,382.44A26.06,26.06,0,0,0,0,401v27.74a26.21,26.21,0,0,0,17.5,24.64v10.36a26.25,26.25,0,0,0,52.5,0V455H192.5v8.75a26.25,26.25,0,0,0,52.5,0V453.39a26.2,26.2,0,0,0,17.5-24.64V401a26.1,26.1,0,0,0-7.69-18.57ZM48.92,321.64a8.75,8.75,0,0,1,8.5-6.64H205.09a8.73,8.73,0,0,1,8.48,6.64L225,367.5H37.45ZM52.5,463.76a8.75,8.75,0,0,1-17.5,0V455H52.5Zm166.25,8.75a8.77,8.77,0,0,1-8.75-8.75V455h17.5v8.75A8.77,8.77,0,0,1,218.75,472.51ZM245,428.76a8.77,8.77,0,0,1-8.75,8.75h-210a8.77,8.77,0,0,1-8.75-8.75V401a8.74,8.74,0,0,1,2.56-6.2l9.81-9.8H232.62l9.81,9.8A8.74,8.74,0,0,1,245,401Z"/><path class="cls-1" d="M61.25,402.5H43.75a8.75,8.75,0,0,0,0,17.5h17.5a8.75,8.75,0,0,0,0-17.5Z"/><path class="cls-1" d="M218.75,402.5h-17.5a8.75,8.75,0,0,0,0,17.5h17.5a8.75,8.75,0,0,0,0-17.5Z"/><path class="cls-1" d="M552.31,382.44l-10.67-10.67L528,317.38a26.19,26.19,0,0,0-25.46-19.88H354.92a26.21,26.21,0,0,0-25.46,19.88l-13.6,54.39L305.2,382.44A26,26,0,0,0,297.5,401v27.74A26.21,26.21,0,0,0,315,453.39v10.36a26.25,26.25,0,0,0,52.5,0V455H490v8.75a26.25,26.25,0,0,0,52.5,0V453.39A26.2,26.2,0,0,0,560,428.75V401a26.06,26.06,0,0,0-7.69-18.57Zm-205.89-60.8a8.75,8.75,0,0,1,8.5-6.64H502.59a8.76,8.76,0,0,1,8.49,6.64l11.47,45.86H335ZM350,463.76a8.75,8.75,0,0,1-17.5,0V455H350Zm166.25,8.75a8.76,8.76,0,0,1-8.75-8.75V455H525v8.75A8.76,8.76,0,0,1,516.25,472.51Zm26.25-43.75a8.76,8.76,0,0,1-8.75,8.75h-210a8.76,8.76,0,0,1-8.75-8.75V401a8.74,8.74,0,0,1,2.56-6.2l9.81-9.8H530.12l9.81,9.8a8.74,8.74,0,0,1,2.56,6.2Z"/><path class="cls-1" d="M358.75,402.5h-17.5a8.75,8.75,0,0,0,0,17.5h17.5a8.75,8.75,0,0,0,0-17.5Z"/><path class="cls-1" d="M516.25,402.5h-17.5a8.75,8.75,0,0,0,0,17.5h17.5a8.75,8.75,0,0,0,0-17.5Z"/><path class="cls-1" d="M402.5,122.5A122.5,122.5,0,1,0,280,245,122.63,122.63,0,0,0,402.5,122.5ZM280,227.5a105,105,0,1,1,105-105A105.12,105.12,0,0,1,280,227.5Z"/><path class="cls-1" d="M350,78.75H301.12l11.31-11.31a8.75,8.75,0,1,0-12.37-12.37L273.81,81.32a8.88,8.88,0,0,0-1.89,2.84,8.78,8.78,0,0,0,0,6.68,9,9,0,0,0,1.89,2.85l26.25,26.25a8.75,8.75,0,1,0,12.38-12.37L301.12,96.25H350a8.75,8.75,0,0,0,0-17.5Z"/><path class="cls-1" d="M296.83,154.16a8.79,8.79,0,0,0-1.9-2.85l-26.24-26.24a8.75,8.75,0,0,0-12.37,12.37l11.31,11.31H218.75a8.75,8.75,0,0,0,0,17.5h48.88l-11.31,11.32a8.75,8.75,0,0,0,12.37,12.37l26.24-26.24a8.9,8.9,0,0,0,1.9-2.85,8.81,8.81,0,0,0,0-6.69Z"/></g></g></svg>