<?xml version="1.0" encoding="UTF-8"?>
<svg width="700pt" height="700pt" version="1.1" viewBox="0 0 700 700" xmlns="http://www.w3.org/2000/svg" xmlns:xlink="http://www.w3.org/1999/xlink">
 <defs>
  <symbol id="w" overflow="visible">
   <path d="m0.03125 0h-0.015625-0.015625v-0.015625-0.015625h0.015625 0.015625-0.015625v0.015625 0.015625h0.015625v-0.015625z"/>
  </symbol>
  <symbol id="e" overflow="visible">
   <path d="m0.015625-0.015625v0.015625h-0.015625v-0.03125h0.015625v0.015625-0.015625z"/>
  </symbol>
  <symbol id="b" overflow="visible">
   <path d="m0.03125-0.015625h-0.015625v0.015625c0.0078125 0 0.015625-0.0039062 0.015625-0.015625v0.015625h-0.015625-0.015625v-0.015625l0.015625-0.015625v0.015625h0.015625z"/>
  </symbol>
  <symbol id="a" overflow="visible">
   <path d="m0.015625-0.015625v0.015625-0.015625zm0.015625 0v0.015625h-0.015625-0.015625v-0.015625h0.015625-0.015625v-0.015625h0.015625v0.015625h0.015625z"/>
  </symbol>
  <symbol id="d" overflow="visible">
   <path d="m0.015625-0.03125v0.015625 0.015625h-0.015625v-0.015625-0.015625z"/>
  </symbol>
  <symbol id="l" overflow="visible">
   <path d="m0.015625-0.015625v-0.015625h0.015625v0.03125h-0.015625-0.015625v-0.015625l0.015625-0.015625v0.015625zm0 0.015625v-0.015625 0.015625z"/>
  </symbol>
  <symbol id="k" overflow="visible">
   <path d="m0.015625 0v-0.015625 0.015625zm0-0.015625v-0.015625c0.0078125 0 0.015625 0.0078125 0.015625 0.015625v0.015625h-0.015625-0.015625v-0.03125h0.015625z"/>
  </symbol>
  <symbol id="j" overflow="visible">
   <path d="m0-0.03125h0.015625v0.015625-0.015625h0.015625l-0.015625 0.03125v0.015625h-0.015625v-0.015625h0.015625z"/>
  </symbol>
  <symbol id="i" overflow="visible">
   <path d="m0.015625-0.03125v0.015625 0.015625h0.015625v-0.015625c0-0.0078125-0.0078125-0.015625-0.015625-0.015625zm0 0h0.015625v0.015625 0.015625h-0.015625-0.015625v-0.015625-0.015625h0.015625z"/>
  </symbol>
  <symbol id="v" overflow="visible">
   <path d="m0-0.03125h0.015625v0.03125h-0.015625z"/>
  </symbol>
  <symbol id="f" overflow="visible">
   <path d="m0.03125-0.015625v0.015625h-0.015625v-0.015625 0.015625h-0.015625v-0.03125h0.015625v0.015625-0.015625c0.0078125 0 0.015625 0.0078125 0.015625 0.015625z"/>
  </symbol>
  <symbol id="h" overflow="visible">
   <path d="m0-0.03125h0.015625 0.015625v0.015625h-0.015625v0.015625h-0.015625zm0.015625 0v0.015625-0.015625z"/>
  </symbol>
  <symbol id="g" overflow="visible">
   <path d="m0.03125-0.03125v0.015625h-0.015625c0.0078125 0 0.015625 0.0078125 0.015625 0.015625h-0.015625-0.015625 0.015625v-0.015625h-0.015625l0.015625-0.015625h0.015625z"/>
  </symbol>
  <symbol id="c" overflow="visible">
   <path d="m0.015625-0.015625v0.015625-0.015625zm0-0.015625v0.015625h0.015625c0 0.011719-0.0078125 0.015625-0.015625 0.015625h-0.015625v-0.015625l0.015625-0.015625z"/>
  </symbol>
  <symbol id="u" overflow="visible">
   <path d="m0-0.03125h0.015625v0.015625-0.015625h0.015625l-0.015625 0.03125z"/>
  </symbol>
  <symbol id="t" overflow="visible">
   <path d="m0-0.03125h0.015625v0.015625-0.015625h0.015625l-0.015625 0.015625 0.015625 0.015625h-0.015625v-0.015625 0.015625h-0.015625z"/>
  </symbol>
  <symbol id="s" overflow="visible">
   <path d="m0.015625-0.03125v0.03125h-0.015625v-0.03125h0.015625z"/>
  </symbol>
  <symbol id="r" overflow="visible">
   <path d="m0.03125-0.015625v-0.015625c0.0078125 0 0.015625 0.0078125 0.015625 0.015625v0.015625h-0.015625v-0.015625 0.015625h-0.015625v-0.015625 0.015625h-0.015625v-0.03125h0.015625v0.015625-0.015625 0.015625h0.015625z"/>
  </symbol>
  <symbol id="q" overflow="visible">
   <path d="m0.03125-0.015625v0.015625h-0.015625v-0.015625 0.015625h-0.015625v-0.03125h0.015625v0.015625-0.015625c0.0078125 0 0.015625 0.0078125 0.015625 0.015625z"/>
  </symbol>
  <symbol id="p" overflow="visible">
   <path d="m0-0.03125h0.015625l0.015625 0.015625v-0.015625 0.03125l-0.015625-0.015625v0.015625h-0.015625z"/>
  </symbol>
  <symbol id="o" overflow="visible">
   <path d="m0-0.015625v-0.015625h0.015625v0.015625 0.015625-0.015625-0.015625h0.015625v0.03125h-0.015625-0.015625v-0.015625z"/>
  </symbol>
  <symbol id="n" overflow="visible">
   <path d="m0-0.03125h0.015625v0.03125h-0.015625v0.015625zm0 0h0.015625z"/>
  </symbol>
  <symbol id="m" overflow="visible">
   <path d="m0.03125-0.03125v0.015625h-0.015625v0.015625h0.015625-0.015625-0.015625v-0.015625l0.015625-0.015625h0.015625z"/>
  </symbol>
 </defs>
 <g>
  <path d="m535.36 330.64c7.5469 0 14.383 3.0586 19.332 8.0078 4.9453 4.9453 8.0078 11.781 8.0078 19.332 0 7.5469-3.0586 14.383-8.0078 19.332-4.9492 4.9492-11.781 8.0078-19.332 8.0078-7.5469 0-14.383-3.0586-19.332-8.0078-4.9492-4.9453-8.0078-11.781-8.0078-19.332 0-7.5469 3.0586-14.383 8.0078-19.332 4.9453-4.9453 11.781-8.0078 19.332-8.0078zm-402.44-69.379-3.8281 2.668-2.668-3.8281 3.8281-2.668zm21.352 30.625-3.8281 2.668-2.668-3.8281 3.8281-2.668zm-10.676-15.312-3.8281 2.668-2.668-3.8281 3.8281-2.668zm-25.047-6.2383-3.8281 2.668-2.668-3.8281 3.8281-2.668zm21.352 30.625-3.8281 2.668-2.668-3.8281 3.8281-2.668zm-10.676-15.312-3.8281 2.668-2.668-3.8281 3.8281-2.668zm30.781 44.996c7.5469 0 14.383 3.0586 19.332 8.0078 4.9453 4.9453 8.0078 11.781 8.0078 19.332 0 7.5469-3.0586 14.383-8.0078 19.332-4.9453 4.9453-11.781 8.0078-19.332 8.0078-7.5469 0-14.383-3.0586-19.332-8.0078-4.9492-4.9453-8.0078-11.781-8.0078-19.332 0-7.5469 3.0586-14.383 8.0078-19.332 4.9453-4.9453 11.781-8.0078 19.332-8.0078zm14.051 13.285c-3.5977-3.5977-8.5625-5.8203-14.051-5.8203s-10.457 2.2227-14.051 5.8203c-3.5977 3.5977-5.8203 8.5625-5.8203 14.051s2.2227 10.457 5.8203 14.051c3.5977 3.5977 8.5625 5.8203 14.051 5.8203s10.457-2.2227 14.051-5.8203c3.5977-3.5977 5.8203-8.5625 5.8203-14.051s-2.2227-10.457-5.8203-14.051zm-14.051-38.699c14.566 0 27.754 5.9062 37.301 15.449 6.5156 6.5156 11.332 14.727 13.738 23.914l107.21 1.0938 2.3164-71.992c0.007812-1.1719 0.039062-2.3125 0.066406-3.5117 0.26562-10.852 0.66016-26.82-13.664-29.707-0.72266-0.14453-1.3516-0.48828-1.8477-0.96484l-58.383 0.38281c-0.074219 0-0.14453 0-0.21875-0.003907v0.003907l-1.2227-0.070313c-18.984-1.0859-57.789-3.3008-72.57-17.328-5.6133-5.3281-4.6992-15-1.0977-25.48 2.6172-7.6133 6.6406-15.773 10.41-22.762-7.5273-0.10547-14.816-0.19531-21.766-0.27734-19.004-0.23438-35.508-0.43359-47.574-0.83984-2.6953-0.089844-4.5312 0.95312-5.4258 2.3828-0.03125 0.046874-0.058593 0.09375-0.089843 0.13672-0.29688 0.51562-0.47656 1.0859-0.53516 1.6602-0.0625 0.60547 0.015625 1.2148 0.24219 1.7734 0.53516 1.3281 1.9844 2.4648 4.4961 2.8281 0.85938 0.125 6.8047 0.36719 12.145 0.49609 3.8477 0.09375 7.2891 0.12891 8.0273 0.015625 2.0391-0.30469 3.9375 1.0977 4.2422 3.1367 0.30469 2.0391-1.0977 3.9375-3.1367 4.2422-1.1094 0.16797-5.0391 0.14453-9.3086 0.042969-2.125-0.050781-4.3594-0.12109-6.3672-0.19922-4.2734 4.6484-7.6211 9.5977-10.539 15.285-2.5938 5.0547-4.8906 10.781-7.2148 17.445l23.07-0.28125c2.9922-0.035157 5.4062 0.41016 7.2852 1.2578 1.7617 0.79688 3.0898 1.9336 4.0078 3.3633 0.91406 1.418 1.3633 3.0508 1.3867 4.8555 0.023437 2.0703-0.53125 4.3398-1.6094 6.7227-2.3438 5.1836-9.0078 11.672-14.703 17.211-1.6094 1.5664-3.1367 3.0508-4.418 4.3672-5.3945 5.5234-14.266 5.4961-22.305 5.4727-0.76172-0.003907-1.5156-0.003907-2.2578 0 0.18359 3.6523 0.14062 7.2852-0.47266 10.863l-0.21875 1.2852-0.99219 0.875c-2.457 2.1719-4.4062 3.6719-5.9766 4.8828-3.6719 2.8281-4.3633 3.3594-3.1484 9.8945 0.11328 0.61328 0.38281 2.1055 0.66406 3.6562 2.9453 16.32 7.2539 40.156 19.711 41.625 1.875 0.22266 3.9961 0.34766 6.4492 0.37891 1.543 0.019532 3.2578 0 5.1641-0.054687 2.6758-6.832 6.7344-12.973 11.836-18.07 9.5469-9.5469 22.734-15.449 37.301-15.449zm52.422 46.816c0.21875 1.9492 0.33203 3.9258 0.33203 5.9336 0 14.566-5.9062 27.754-15.449 37.301-9.5469 9.5469-22.734 15.449-37.301 15.449s-27.754-5.9062-37.301-15.449c-9.5469-9.5469-15.449-22.734-15.449-37.301 0-4.0352 0.45312-7.9648 1.3125-11.738-1.0273 0.011718-2.0078 0.011718-2.9453 0-2.8438-0.035156-5.207-0.17188-7.2109-0.40625-17.949-2.1172-22.84-29.188-26.188-47.719-0.17578-0.96875-0.34375-1.9141-0.66406-3.6289-2.0391-11-0.78125-11.965 5.9219-17.129 1.2734-0.98047 2.8086-2.1641 4.5781-3.6719 0.46094-3.6484 0.28516-7.5312-0.03125-11.469-0.011719-0.09375-0.019532-0.1875-0.027344-0.28125 0-0.027344-0.003906-0.054687-0.003906-0.078125-0.082032-1.0195-0.17578-2.043-0.26953-3.0664-1.1133-12.316-2.2227-24.633 9.0625-34.754 2.8906-8.6562 5.6875-15.953 9.0391-22.48 2.3828-4.6406 5.0195-8.832 8.125-12.773-4.125-1.2188-6.7422-3.8477-7.9766-6.918-0.67969-1.6914-0.91797-3.5-0.73828-5.2734 0.16797-1.6562 0.70312-3.293 1.5859-4.7773 0.046875-0.085937 0.09375-0.17187 0.14844-0.25781 2.1836-3.4844 6.2773-6.043 11.961-5.8555 6.3164 0.21094 13.781 0.36719 22.148 0.5l-0.050781-0.089843c1.707-0.97266 3.5117-1.9258 5.4062-2.8516 1.9336-0.94531 3.8203-1.8008 5.6602-2.5703 24.719-10.328 79.984-13.449 134.79-10.188 52.062 3.0977 103.98 11.961 129.22 25.883 14.793 8.1562 27.266 17.41 39.734 26.66 7.5 5.5625 15 11.129 23.055 16.465 19.129 12.68 30.141 13.09 51.207 13.879 3.1992 0.12109 6.6172 0.24609 10.035 0.41016 13.324 0.63281 26.602 1.4023 39.188 4.2227 12.84 2.875 24.836 7.8516 35.199 16.895 8.4258 7.3516 10.176 17.203 11.871 26.773 0.125 0.71094-0.16797-0.94922 0.19141 1.0664v0.015625c0.089844 0.49609 0.25391 1.4883 0.39453 2.3281 0.24219 1.4453 0.35156 2.1094 0.37891 2.1523 0.023438 0.039063 0.31641 0.21094 0.94531 0.67578 0.70703 0.51953 1.6406 1.207 3.0508 2.3633 0.63281 0.51953 1.2148 1.0977 1.7344 1.7734 0.53906 0.69922 1.0039 1.4805 1.3789 2.3711 0.51172 1.2227 0.76172 3.8594 0.83984 7.2188 0.007812 0.085938 0.011719 0.17578 0.015625 0.26562 0 0.074219 0 0.15234-0.003906 0.22656 0.019531 1.0977 0.023437 2.2656 0.011719 3.4844-0.042969 4.8906-0.26563 10.582-0.49609 15.438-0.32422 6.9062-3.9023 14.492-9.3828 20.812-5.2148 6.0156-12.223 10.984-19.844 13.199-2.1445 0.625-4.5039 1.0586-7.1211 1.25-1.375 0.10156-2.8359 0.13281-4.3984 0.09375 0.015625 0.51953 0.023438 1.0391 0.023438 1.5586 0 14.566-5.9062 27.754-15.449 37.301-9.5469 9.5469-22.734 15.449-37.301 15.449-14.566 0-27.754-5.9062-37.301-15.449-9.5469-9.5469-15.449-22.734-15.449-37.301 0-1.0664 0.03125-2.1289 0.09375-3.1797l-270.28-2.7539zm-20.398-26.09c-8.1953-8.1953-19.516-13.262-32.023-13.262-12.504 0-23.828 5.0703-32.023 13.262-8.1953 8.1953-13.262 19.516-13.262 32.023 0 12.504 5.0703 23.828 13.262 32.023 8.1953 8.1953 19.516 13.262 32.023 13.262 12.504 0 23.828-5.0703 32.023-13.262 8.1953-8.1953 13.262-19.516 13.262-32.023 0-12.504-5.0703-23.828-13.262-32.023zm395.31 22.984c1.6523 0.070313 3.1875 0.046876 4.6211-0.054687 2.1172-0.15234 3.957-0.48438 5.5781-0.95703 6.1836-1.7969 11.941-5.9141 16.285-10.926 4.4414-5.1211 7.3281-11.07 7.5742-16.293 0.22656-4.8281 0.44922-10.391 0.49219-14.957l-12.117 0.20703c-3.0781 0.050781-5.8281-0.03125-8.3906-0.66797-2.8828-0.71875-5.4062-2.0742-7.6406-4.543l-21.996-24.316c-0.10938-0.12109-0.21094-0.25-0.30078-0.38281l-0.003906 0.003906c-1.5977-2.3125-2.418-4.6094-2.4688-6.7305-0.035156-1.3906 0.25391-2.6953 0.86328-3.8828 0.60938-1.1836 1.5-2.1992 2.6719-3.0078 1.8594-1.2852 4.4492-2.0508 7.7383-2.1328l22.488-0.54688c-9.1016-7.6367-19.672-11.934-31.016-14.473-11.969-2.6797-24.918-3.4258-37.93-4.0469-3.7383-0.17578-6.9453-0.29688-9.9492-0.41016-22.461-0.83984-34.199-1.2773-55.059-15.105-8.1094-5.375-15.742-11.039-23.375-16.699-12.242-9.0781-24.48-18.16-38.891-26.105-24.25-13.371-74.965-21.938-126.07-24.98-51.703-3.0781-103.52-0.49219-128.54 8.4922 2.7578 0.035156 5.5742 0.070312 8.4531 0.10547 76.293 0.93359 192.85 2.3594 230.38 19.812 12.289 5.7148 24.316 13.461 35.523 22.059 13.504 10.359 25.832 21.969 35.988 32.754 8.5391 9.0664 8.1562 17.34 7.6836 27.523-0.097656 2.0938-0.19922 4.2734-0.21484 6.3867v0.20313l-2.3164 71.926 16.266 0.16406c2.1055-10.309 7.2188-19.527 14.383-26.691 9.5469-9.5469 22.734-15.449 37.301-15.449s27.754 5.9062 37.301 15.449c7.5273 7.5273 12.789 17.32 14.68 28.266zm-37.93-5.0156c-3.5977-3.5977-8.5625-5.8203-14.051-5.8203s-10.457 2.2227-14.051 5.8203c-3.5977 3.5977-5.8203 8.5625-5.8203 14.051s2.2227 10.457 5.8203 14.051c3.5977 3.5977 8.5625 5.8203 14.051 5.8203s10.457-2.2227 14.051-5.8203c3.5977-3.5977 5.8203-8.5625 5.8203-14.051s-2.2227-10.457-5.8203-14.051zm17.969-17.969c-8.1953-8.1953-19.516-13.262-32.023-13.262-12.504 0-23.828 5.0703-32.023 13.262-8.1953 8.1953-13.262 19.516-13.262 32.023 0 12.504 5.0703 23.828 13.262 32.023 8.1953 8.1953 19.516 13.262 32.023 13.262 12.504 0 23.828-5.0703 32.023-13.262 8.1953-8.1953 13.262-19.516 13.262-32.023 0-12.504-5.0703-23.828-13.262-32.023zm-471.93-96.09c-8.1211 7.6328-7.2617 17.832-6.3398 28.043 0.92188-0.007812 1.8711-0.003906 2.832 0 6.5469 0.019532 13.773 0.039063 16.965-3.2266 1.3594-1.3906 2.9219-2.9102 4.5664-4.5117 5.2188-5.0781 11.332-11.027 13.098-14.934 0.64453-1.4258 0.98047-2.6328 0.96875-3.5703-0.003906-0.38672-0.074218-0.69922-0.21875-0.91797-0.13672-0.21094-0.39844-0.41016-0.80078-0.58984-0.92969-0.42187-2.293-0.64062-4.1367-0.61719l-26.938 0.33203zm526.3 68.449c-0.046875-0.50391-0.10547-0.85547-0.17578-1.0273-0.11328-0.27344-0.24219-0.49609-0.38672-0.67969-0.16406-0.21094-0.35547-0.40234-0.57031-0.57422-1.0938-0.89844-2.0234-1.582-2.7266-2.1016-1.3906-1.0234-2.1406-1.5742-2.8711-2.7461-0.80469-1.2891-0.99219-2.4141-1.3984-4.8672-0.074219-0.44141-0.16016-0.96484-0.39062-2.2578h-0.003906c-0.23047-1.2969 0.0625 0.33594-0.19141-1.0977-0.97656-5.5078-1.9727-11.121-4.4141-15.918-0.023438 0-0.046875 0.003907-0.070312 0.003907l-28.141 0.6875c-1.7656 0.042968-2.9844 0.33594-3.6836 0.82031-0.14844 0.10547-0.24219 0.19141-0.28125 0.26562-0.035157 0.070313-0.050781 0.17969-0.046875 0.32422 0.015625 0.64062 0.36328 1.4883 1.0469 2.5117l21.801 24.102c1.1211 1.2383 2.4141 1.9258 3.9062 2.2969 1.8164 0.45312 3.9961 0.50781 6.4922 0.46484zm-296.07 47.445 134.27 1.3672 2.3203-72.105c0.019531-2.4375 0.12109-4.5938 0.21484-6.6562 0.39062-8.457 0.71094-15.324-5.6719-22.102-2.3828-2.5312-4.8906-5.1094-7.5039-7.7031l-128.58 0.84375c7.8906 7.9688 7.5664 21.152 7.3242 30.949-0.03125 1.2305-0.058594 2.4023-0.066406 3.3906v0.20312l-2.3125 71.812zm115.94-114.59c-6.2109-5.7617-12.891-11.48-19.883-16.848-10.816-8.2969-22.379-15.75-34.125-21.215-31.578-14.688-123.88-17.617-197.14-18.738-4.0977 7.3633-8.8945 16.637-11.789 25.059-2.7188 7.9141-3.8125 14.832-0.82812 17.664 12.793 12.141 49.758 14.254 67.844 15.285l1.1992 0.070312z"/>
  <use x="70" y="560.140625" xlink:href="#w"/>
  <use x="70.035156" y="560.140625" xlink:href="#e"/>
  <use x="70.058594" y="560.140625" xlink:href="#b"/>
  <use x="70.089844" y="560.140625" xlink:href="#a"/>
  <use x="70.121094" y="560.140625" xlink:href="#d"/>
  <use x="70.144531" y="560.140625" xlink:href="#b"/>
  <use x="70.175781" y="560.140625" xlink:href="#l"/>
  <use x="70.222656" y="560.140625" xlink:href="#k"/>
  <use x="70.257812" y="560.140625" xlink:href="#j"/>
  <use x="70.304688" y="560.140625" xlink:href="#i"/>
  <use x="70.34375" y="560.140625" xlink:href="#v"/>
  <use x="70.359375" y="560.140625" xlink:href="#b"/>
  <use x="70.390625" y="560.140625" xlink:href="#f"/>
  <use x="70.425781" y="560.140625" xlink:href="#a"/>
  <use x="70.472656" y="560.140625" xlink:href="#h"/>
  <use x="70.507812" y="560.140625" xlink:href="#a"/>
  <use x="70.539062" y="560.140625" xlink:href="#f"/>
  <use x="70.570312" y="560.140625" xlink:href="#a"/>
  <use x="70.601562" y="560.140625" xlink:href="#g"/>
  <use x="70.628906" y="560.140625" xlink:href="#c"/>
  <use x="70.664062" y="560.140625" xlink:href="#u"/>
  <use x="70.691406" y="560.140625" xlink:href="#g"/>
  <use x="70.722656" y="560.140625" xlink:href="#t"/>
  <use x="70.75" y="560.140625" xlink:href="#a"/>
  <use x="70" y="560.1875" xlink:href="#s"/>
  <use x="70.019531" y="560.1875" xlink:href="#e"/>
  <use x="70.042969" y="560.1875" xlink:href="#c"/>
  <use x="70.074219" y="560.1875" xlink:href="#r"/>
  <use x="70.140625" y="560.1875" xlink:href="#d"/>
  <use x="70.164062" y="560.1875" xlink:href="#q"/>
  <use x="70.195312" y="560.1875" xlink:href="#b"/>
  <use x="70.242188" y="560.1875" xlink:href="#p"/>
  <use x="70.28125" y="560.1875" xlink:href="#c"/>
  <use x="70.316406" y="560.1875" xlink:href="#o"/>
  <use x="70.347656" y="560.1875" xlink:href="#f"/>
  <use x="70.398438" y="560.1875" xlink:href="#h"/>
  <use x="70.433594" y="560.1875" xlink:href="#e"/>
  <use x="70.453125" y="560.1875" xlink:href="#c"/>
  <use x="70.488281" y="560.1875" xlink:href="#n"/>
  <use x="70.503906" y="560.1875" xlink:href="#b"/>
  <use x="70.535156" y="560.1875" xlink:href="#m"/>
  <use x="70.5625" y="560.1875" xlink:href="#d"/>
 </g>
</svg>
