<?xml version="1.0" encoding="UTF-8"?>
<svg width="700pt" height="700pt" version="1.1" viewBox="0 0 700 700" xmlns="http://www.w3.org/2000/svg" xmlns:xlink="http://www.w3.org/1999/xlink">
 <defs>
  <symbol id="w" overflow="visible">
   <path d="m0.03125 0h-0.015625-0.015625v-0.015625-0.015625h0.015625 0.015625-0.015625v0.015625 0.015625h0.015625v-0.015625z"/>
  </symbol>
  <symbol id="e" overflow="visible">
   <path d="m0.015625-0.015625v0.015625h-0.015625v-0.03125h0.015625v0.015625-0.015625z"/>
  </symbol>
  <symbol id="b" overflow="visible">
   <path d="m0.03125-0.015625h-0.015625v0.015625c0.0078125 0 0.015625-0.0039062 0.015625-0.015625v0.015625h-0.015625-0.015625v-0.015625l0.015625-0.015625v0.015625h0.015625z"/>
  </symbol>
  <symbol id="a" overflow="visible">
   <path d="m0.015625-0.015625v0.015625-0.015625zm0.015625 0v0.015625h-0.015625-0.015625v-0.015625h0.015625-0.015625v-0.015625h0.015625v0.015625h0.015625z"/>
  </symbol>
  <symbol id="d" overflow="visible">
   <path d="m0.015625-0.03125v0.015625 0.015625h-0.015625v-0.015625-0.015625z"/>
  </symbol>
  <symbol id="l" overflow="visible">
   <path d="m0.015625-0.015625v-0.015625h0.015625v0.03125h-0.015625-0.015625v-0.015625l0.015625-0.015625v0.015625zm0 0.015625v-0.015625 0.015625z"/>
  </symbol>
  <symbol id="k" overflow="visible">
   <path d="m0.015625 0v-0.015625 0.015625zm0-0.015625v-0.015625c0.0078125 0 0.015625 0.0078125 0.015625 0.015625v0.015625h-0.015625-0.015625v-0.03125h0.015625z"/>
  </symbol>
  <symbol id="j" overflow="visible">
   <path d="m0-0.03125h0.015625v0.015625-0.015625h0.015625l-0.015625 0.03125v0.015625h-0.015625v-0.015625h0.015625z"/>
  </symbol>
  <symbol id="i" overflow="visible">
   <path d="m0.015625-0.03125v0.015625 0.015625h0.015625v-0.015625c0-0.0078125-0.0078125-0.015625-0.015625-0.015625zm0 0h0.015625v0.015625 0.015625h-0.015625-0.015625v-0.015625-0.015625h0.015625z"/>
  </symbol>
  <symbol id="v" overflow="visible">
   <path d="m0-0.03125h0.015625v0.03125h-0.015625z"/>
  </symbol>
  <symbol id="f" overflow="visible">
   <path d="m0.03125-0.015625v0.015625h-0.015625v-0.015625 0.015625h-0.015625v-0.03125h0.015625v0.015625-0.015625c0.0078125 0 0.015625 0.0078125 0.015625 0.015625z"/>
  </symbol>
  <symbol id="h" overflow="visible">
   <path d="m0-0.03125h0.015625 0.015625v0.015625h-0.015625v0.015625h-0.015625zm0.015625 0v0.015625-0.015625z"/>
  </symbol>
  <symbol id="g" overflow="visible">
   <path d="m0.03125-0.03125v0.015625h-0.015625c0.0078125 0 0.015625 0.0078125 0.015625 0.015625h-0.015625-0.015625 0.015625v-0.015625h-0.015625l0.015625-0.015625h0.015625z"/>
  </symbol>
  <symbol id="c" overflow="visible">
   <path d="m0.015625-0.015625v0.015625-0.015625zm0-0.015625v0.015625h0.015625c0 0.011719-0.0078125 0.015625-0.015625 0.015625h-0.015625v-0.015625l0.015625-0.015625z"/>
  </symbol>
  <symbol id="u" overflow="visible">
   <path d="m0-0.03125h0.015625v0.015625-0.015625h0.015625l-0.015625 0.03125z"/>
  </symbol>
  <symbol id="t" overflow="visible">
   <path d="m0-0.03125h0.015625v0.015625-0.015625h0.015625l-0.015625 0.015625 0.015625 0.015625h-0.015625v-0.015625 0.015625h-0.015625z"/>
  </symbol>
  <symbol id="s" overflow="visible">
   <path d="m0.015625-0.03125v0.03125h-0.015625v-0.03125h0.015625z"/>
  </symbol>
  <symbol id="r" overflow="visible">
   <path d="m0.03125-0.015625v-0.015625c0.0078125 0 0.015625 0.0078125 0.015625 0.015625v0.015625h-0.015625v-0.015625 0.015625h-0.015625v-0.015625 0.015625h-0.015625v-0.03125h0.015625v0.015625-0.015625 0.015625h0.015625z"/>
  </symbol>
  <symbol id="q" overflow="visible">
   <path d="m0.03125-0.015625v0.015625h-0.015625v-0.015625 0.015625h-0.015625v-0.03125h0.015625v0.015625-0.015625c0.0078125 0 0.015625 0.0078125 0.015625 0.015625z"/>
  </symbol>
  <symbol id="p" overflow="visible">
   <path d="m0-0.03125h0.015625l0.015625 0.015625v-0.015625 0.03125l-0.015625-0.015625v0.015625h-0.015625z"/>
  </symbol>
  <symbol id="o" overflow="visible">
   <path d="m0-0.015625v-0.015625h0.015625v0.015625 0.015625-0.015625-0.015625h0.015625v0.03125h-0.015625-0.015625v-0.015625z"/>
  </symbol>
  <symbol id="n" overflow="visible">
   <path d="m0-0.03125h0.015625v0.03125h-0.015625v0.015625zm0 0h0.015625z"/>
  </symbol>
  <symbol id="m" overflow="visible">
   <path d="m0.03125-0.03125v0.015625h-0.015625v0.015625h0.015625-0.015625-0.015625v-0.015625l0.015625-0.015625h0.015625z"/>
  </symbol>
 </defs>
 <g>
  <path d="m527.92 327.36c7.1055 0 13.539 2.8789 18.195 7.5391 4.6562 4.6562 7.5391 11.09 7.5391 18.195 0 7.1055-2.8789 13.539-7.5391 18.195-4.6562 4.6562-11.09 7.5391-18.195 7.5391s-13.539-2.8789-18.195-7.5391c-4.6562-4.6562-7.5391-11.09-7.5391-18.195 0-7.1055 2.8789-13.539 7.5391-18.195 4.6562-4.6562 11.09-7.5391 18.195-7.5391zm-140.95-155.28c0.21875-0.003906 0.43359 0.011719 0.64844 0.042969 1.4414 0.097656 2.8867 0.21484 4.332 0.34766 1.3438 0.12109 2.6836 0.26172 4.0195 0.41406 31.262 0.22656 52.188 16.359 73.555 32.832 19.742 15.223 39.879 30.742 68.836 33.082 0.9375 0.058594 1.875 0.11719 2.8125 0.18359 0.082031 0.003906 0.16016 0.007813 0.24219 0.011719 0.089844 0.003906 0.18359 0.011718 0.27344 0.023437 8.6992 0.61719 17.508 1.6016 25.805 3.1094 24.055 4.375 43.961 13.285 46.062 30.742 0.48047 3.9883-0.39063 9.7305-1.8828 16.152-1.2031 5.1797-2.8164 10.852-4.4336 16.367 5.5117 0.15625 9.9414 0.53125 11.746 1.3672 3.125 1.4531 5.5625 4.8594 6.7539 9.3516 1.1055 4.1602 1.1992 9.418-0.24219 14.891-1.418 5.3828-4.3242 11.012-9.2227 16.035-7.6992 7.8945-20.336 14.289-39.879 15.719-1.9375 9.7695-6.7539 18.508-13.531 25.281-8.9414 8.9414-21.297 14.473-34.945 14.473-13.645 0-26-5.5312-34.945-14.473-5.832-5.832-10.215-13.117-12.555-21.266l-139.97-0.27734c-0.14062 0.007812-0.28516 0.007812-0.42578 0l-119.07-0.23438c-2.3047 8.3555-6.7461 15.824-12.699 21.781-8.9414 8.9414-21.297 14.473-34.945 14.473-13.645 0-26-5.5312-34.945-14.473-8.4453-8.4453-13.848-19.934-14.422-32.68-2.4766-1.2852-5.0352-2.5469-7.5195-3.7734-19.375-9.5586-34.594-17.062-32.098-45.125l3.4727-39.059c0.79297-8.9258 5.0312-14.203 11.363-17.246 5.7617-2.7734 13.145-3.4609 21.098-3.3906l206.45 2.8359c1.0039-7.7695 2.1992-15.508 3.5859-22.879 4.7695-25.359 12.031-46.762 22.133-51.789 6.0039-2.9883 19.996-3.7969 34.551-2.8555zm0.94531 7.5195c-4.0859 2.5703-7.6484 8.9844-10.754 18.023-3.543 10.312-6.3203 23.754-8.5078 38.777-0.042969 0.29297-0.074219 0.58984-0.097656 0.88672-0.22656 3.1289 0.82812 6.0039 2.8828 8.2344 2.1875 2.375 5.5195 4.0703 9.6953 4.6797 0.48438 0.070313 0.98047 0.125 1.4961 0.16797l82.41 1.1328c0.16406-0.011718 0.33203-0.007812 0.50391 0.003906 0.46484 0.035157 0.98438-0.19141 1.5039-0.59375 0.84375-0.65625 1.5938-1.6719 2.1797-2.8906 0.63281-1.3242 1.0547-2.8633 1.1758-4.4453 0.16406-2.1133-0.23438-4.2344-1.418-5.8555-0.74219-0.78125-1.4883-1.6328-2.2383-2.5625-3.5664-4.418-6.7969-8.7461-10.027-13.074-9.3359-12.508-18.672-25.012-31.523-34.047-5.1016-3.5859-17.023-6.2852-29.805-7.7383-0.054687-0.003906-0.10547-0.011719-0.16016-0.019531-1.3125-0.14844-2.6367-0.28125-3.9609-0.40625-1.1211-0.10156-2.2461-0.19531-3.3633-0.27734zm-5 78.215c-0.20703 0.019532-0.41797 0.023438-0.62891 0.007813-0.089844-0.007813-0.17969-0.011719-0.27344-0.019531l-48.742-0.67188c-3.1602 27.203-3.9609 53.527-2.5 64.195 1.0898 7.9648 2.8672 16.285 5.2188 23.594 1.7812 5.5469 3.8789 10.473 6.2266 14.141l136.68 0.26953c-0.25781-2.043-0.39062-4.125-0.39062-6.2383 0-13.645 5.5312-26 14.473-34.945 8.9414-8.9414 21.297-14.473 34.945-14.473 13.645 0 26 5.5312 34.945 14.473 8.9414 8.9414 14.473 21.297 14.473 34.945 0 0.71094-0.015625 1.4141-0.046875 2.1172 16.629-1.4609 27.258-6.8203 33.645-13.367 3.9219-4.0195 6.2383-8.4883 7.3555-12.738 1.0938-4.1602 1.0469-8.0703 0.24219-11.102-0.62109-2.3398-1.5898-3.9766-2.6719-4.4805-2.0039-0.92969-14.375-0.83594-25.535-0.75-5.6836 0.042968-11.066 0.085937-14.816-0.035157-2.0547-0.0625-3.668-1.7812-3.6016-3.8359 0.0625-2.0547 1.7812-3.668 3.8359-3.6016 2.2266 0.070313 5.0234 0.085938 8.1133 0.074219l-3.7461-24.141c-0.10156-0.64453-0.16016-1.2695-0.1875-1.8672-0.13672-3.3906 0.82031-6.4375 2.6992-8.8086 1.8945-2.3906 4.6758-4.0273 8.1602-4.5664 0.60156-0.09375 1.207-0.15234 1.8203-0.17969l10-0.41016c-6.3516-8.1211-20.305-13.023-36.43-15.957-8.0273-1.4609-16.574-2.4102-25.039-3.0117-0.027344 0-0.050781 0-0.078125-0.003906-1.2188-0.058594-2.418-0.14063-3.6055-0.23828-13.684-0.81641-26.914-0.76953-37.113-0.53516-1.2227 0.027344-2.5742 0.074219-3.8828 0.12109-7.2344 0.24609-13.117 0.44922-18.613-1.7852l-0.007812 0.13281c-0.19141 2.4805-0.87109 4.9414-1.9062 7.1016-1.0859 2.2656-2.5703 4.2188-4.3086 5.5742-1.9414 1.5117-4.2031 2.3281-6.6406 2.1406l-0.042969-0.003906-82.031-1.1289zm-17.344-7.6758c-3.1953-3.6758-4.8164-8.3281-4.4531-13.375 0.035156-0.46094 0.085937-0.93359 0.15625-1.4102 2.2578-15.488 5.1367-29.398 8.8281-40.148 2.25-6.5469 4.8477-12.008 7.8516-16.074-9.8984-0.18359-18.375 0.57813-22.207 2.4844-7.6562 3.8086-13.754 23.184-18.137 46.48-1.3125 6.9766-2.4492 14.277-3.418 21.609l31.379 0.42969zm240.42 22.582-13.086 0.53516c-0.35156 0.015626-0.67578 0.046876-0.97266 0.089844-1.5312 0.23828-2.7109 0.90234-3.4648 1.8555-0.76953 0.97266-1.1602 2.3125-1.0938 3.8789 0.015625 0.34375 0.046875 0.68359 0.097656 1.0195l3.8945 25.105c0.007813 0.042969 0.011719 0.082031 0.015625 0.125 2.7031-0.019531 5.4531-0.039062 8.125-0.035156 1.7695-6.0156 3.5938-12.309 4.9023-17.934 1.3164-5.6641 2.1055-10.574 1.7383-13.617-0.042969-0.34766-0.097656-0.6875-0.16016-1.0273zm-509.47-10c1.1562 0.69141 2.2656 1.3008 3.3008 1.8711 6.8125 3.75 11.078 6.0938 11.078 16.766 0 0.16406-0.011719 0.32031-0.03125 0.48047l-0.93359 16.133c-0.003906 0.074219-0.011719 0.14453-0.019532 0.21875h0.003907c-1.2344 10.613-5.7383 12.449-12.938 15.391-1.3906 0.56641-2.9023 1.1836-4.3906 1.8867-0.28125 0.13281-0.56641 0.22656-0.85938 0.28516 1.6836 16.18 13.496 22.008 27.988 29.16 1.4766 0.72656 2.9766 1.4688 4.5273 2.25 1.3516-11.273 6.4961-21.383 14.121-29.008 8.9414-8.9414 21.297-14.473 34.945-14.473 13.645 0 26 5.5312 34.945 14.473 8.9414 8.9414 14.473 21.297 14.473 34.945 0 1.9375-0.11328 3.8477-0.32812 5.7305l111.25 0.21875c-1.7734-3.4922-3.3633-7.5195-4.7539-11.848-2.4883-7.7383-4.3633-16.504-5.5078-24.879-1.5-10.969-0.73828-37.684 2.4102-65.289l-205.62-2.8281c-6.9531-0.058593-13.27 0.48047-17.809 2.6641-2.5742 1.2383-4.5977 3.1055-5.8477 5.8555zm-4.8359 44.984c0.88672-0.37891 1.707-0.71875 2.4961-1.0391 4.6719-1.9062 7.5977-3.1016 8.3242-9.293l0.92578-15.977v-0.039063c0-6.2734-2.7695-7.7969-7.1992-10.234-0.40234-0.22266-0.81641-0.44922-1.2422-0.68359l-3.2578 36.668c-0.019531 0.20312-0.03125 0.39844-0.046875 0.59766zm169.79-13.641c-1.2891 0-2.332-1.043-2.332-2.332s1.043-2.332 2.332-2.332h11.422c4.0195 0 6.8672 0.82031 8.8281 2.7227 1.9805 1.9219 2.8281 4.7188 2.8281 8.6523v8.9844c0 1.2891-1.043 2.332-2.332 2.332-1.2891 0-2.332-1.043-2.332-2.332v-8.9844c0-2.6328-0.42187-4.3594-1.4062-5.3164-1.0039-0.97656-2.8164-1.3945-5.582-1.3945zm11.02 22.805c1.2891 0 2.332 1.043 2.332 2.332s-1.043 2.332-2.332 2.332h-11.422c-4.0195 0-6.8672-0.82031-8.8281-2.7227-1.9805-1.9219-2.8281-4.7188-2.8281-8.6523v-8.9844c0-1.2891 1.043-2.332 2.332-2.332 1.2891 0 2.332 1.043 2.332 2.332v8.9844c0 2.6328 0.42188 4.3594 1.4062 5.3164 1.0039 0.97266 2.8164 1.3945 5.582 1.3945zm233.44-78.75c-15.324-6.7539-28.219-16.695-40.953-26.512-5.6055-4.3242-11.184-8.6211-16.918-12.586 5.2031 5.9492 9.9258 12.273 14.648 18.602 3.293 4.4102 6.5859 8.8242 9.8516 12.871 6.8008 8.4258 13.664 8.1914 23.68 7.8516 1.2148-0.042968 2.4766-0.085937 3.9688-0.12109 1.8164-0.042968 3.7305-0.078124 5.7227-0.10547zm-332.62 89.242c7.1055 0 13.539 2.8789 18.195 7.5391 4.6562 4.6562 7.5391 11.09 7.5391 18.195 0 7.1055-2.8789 13.539-7.5391 18.195-4.6562 4.6562-11.09 7.5391-18.195 7.5391-7.1055 0-13.539-2.8789-18.195-7.5391-4.6562-4.6562-7.5391-11.09-7.5391-18.195 0-7.1055 2.8789-13.539 7.5391-18.195 4.6562-4.6562 11.09-7.5391 18.195-7.5391zm12.918 12.816c-3.3047-3.3047-7.8711-5.3516-12.918-5.3516-5.043 0-9.6094 2.043-12.918 5.3516-3.3047 3.3047-5.3516 7.8711-5.3516 12.918 0 5.043 2.043 9.6094 5.3516 12.918 3.3047 3.3047 7.8711 5.3516 12.918 5.3516 5.043 0 9.6094-2.043 12.918-5.3477 3.3047-3.3047 5.3516-7.8711 5.3516-12.918 0-5.043-2.043-9.6094-5.3516-12.918zm16.75-16.75c-7.5898-7.5898-18.078-12.285-29.664-12.285s-22.074 4.6953-29.664 12.285c-7.5898 7.5898-12.285 18.078-12.285 29.664s4.6953 22.074 12.285 29.664c7.5898 7.5898 18.078 12.285 29.664 12.285s22.074-4.6953 29.664-12.285c7.5898-7.5898 12.285-18.078 12.285-29.664s-4.6953-22.074-12.285-29.664zm337.86 16.75c-3.3047-3.3047-7.8711-5.3516-12.918-5.3516-5.043 0-9.6094 2.043-12.918 5.3516-3.3047 3.3047-5.3516 7.8711-5.3516 12.918 0 5.043 2.043 9.6094 5.3516 12.918 3.3047 3.3047 7.8711 5.3516 12.918 5.3516 5.043 0 9.6094-2.043 12.918-5.3477 3.3047-3.3047 5.3516-7.8711 5.3516-12.918 0-5.043-2.043-9.6094-5.3516-12.918zm16.75-16.75c-7.5898-7.5898-18.078-12.285-29.664-12.285-11.586 0-22.074 4.6953-29.664 12.285-7.5898 7.5898-12.285 18.078-12.285 29.664s4.6953 22.074 12.285 29.664c7.5898 7.5898 18.078 12.285 29.664 12.285 11.586 0 22.074-4.6953 29.664-12.285 7.5898-7.5898 12.285-18.078 12.285-29.664s-4.6953-22.074-12.285-29.664z"/>
  <use x="70" y="560.140625" xlink:href="#w"/>
  <use x="70.035156" y="560.140625" xlink:href="#e"/>
  <use x="70.058594" y="560.140625" xlink:href="#b"/>
  <use x="70.089844" y="560.140625" xlink:href="#a"/>
  <use x="70.121094" y="560.140625" xlink:href="#d"/>
  <use x="70.144531" y="560.140625" xlink:href="#b"/>
  <use x="70.175781" y="560.140625" xlink:href="#l"/>
  <use x="70.222656" y="560.140625" xlink:href="#k"/>
  <use x="70.257812" y="560.140625" xlink:href="#j"/>
  <use x="70.304688" y="560.140625" xlink:href="#i"/>
  <use x="70.34375" y="560.140625" xlink:href="#v"/>
  <use x="70.359375" y="560.140625" xlink:href="#b"/>
  <use x="70.390625" y="560.140625" xlink:href="#f"/>
  <use x="70.425781" y="560.140625" xlink:href="#a"/>
  <use x="70.472656" y="560.140625" xlink:href="#h"/>
  <use x="70.507812" y="560.140625" xlink:href="#a"/>
  <use x="70.539062" y="560.140625" xlink:href="#f"/>
  <use x="70.570312" y="560.140625" xlink:href="#a"/>
  <use x="70.601562" y="560.140625" xlink:href="#g"/>
  <use x="70.628906" y="560.140625" xlink:href="#c"/>
  <use x="70.664062" y="560.140625" xlink:href="#u"/>
  <use x="70.691406" y="560.140625" xlink:href="#g"/>
  <use x="70.722656" y="560.140625" xlink:href="#t"/>
  <use x="70.75" y="560.140625" xlink:href="#a"/>
  <use x="70" y="560.1875" xlink:href="#s"/>
  <use x="70.019531" y="560.1875" xlink:href="#e"/>
  <use x="70.042969" y="560.1875" xlink:href="#c"/>
  <use x="70.074219" y="560.1875" xlink:href="#r"/>
  <use x="70.140625" y="560.1875" xlink:href="#d"/>
  <use x="70.164062" y="560.1875" xlink:href="#q"/>
  <use x="70.195312" y="560.1875" xlink:href="#b"/>
  <use x="70.242188" y="560.1875" xlink:href="#p"/>
  <use x="70.28125" y="560.1875" xlink:href="#c"/>
  <use x="70.316406" y="560.1875" xlink:href="#o"/>
  <use x="70.347656" y="560.1875" xlink:href="#f"/>
  <use x="70.398438" y="560.1875" xlink:href="#h"/>
  <use x="70.433594" y="560.1875" xlink:href="#e"/>
  <use x="70.453125" y="560.1875" xlink:href="#c"/>
  <use x="70.488281" y="560.1875" xlink:href="#n"/>
  <use x="70.503906" y="560.1875" xlink:href="#b"/>
  <use x="70.535156" y="560.1875" xlink:href="#m"/>
  <use x="70.5625" y="560.1875" xlink:href="#d"/>
 </g>
</svg>
