<?xml version="1.0" encoding="UTF-8"?>
<svg width="700pt" height="700pt" version="1.1" viewBox="0 0 700 700" xmlns="http://www.w3.org/2000/svg" xmlns:xlink="http://www.w3.org/1999/xlink">
 <defs>
  <symbol id="w" overflow="visible">
   <path d="m0.03125 0h-0.015625-0.015625v-0.015625-0.015625h0.015625 0.015625-0.015625v0.015625 0.015625h0.015625v-0.015625z"/>
  </symbol>
  <symbol id="e" overflow="visible">
   <path d="m0.015625-0.015625v0.015625h-0.015625v-0.03125h0.015625v0.015625-0.015625z"/>
  </symbol>
  <symbol id="b" overflow="visible">
   <path d="m0.03125-0.015625h-0.015625v0.015625c0.0078125 0 0.015625-0.0039062 0.015625-0.015625v0.015625h-0.015625-0.015625v-0.015625l0.015625-0.015625v0.015625h0.015625z"/>
  </symbol>
  <symbol id="a" overflow="visible">
   <path d="m0.015625-0.015625v0.015625-0.015625zm0.015625 0v0.015625h-0.015625-0.015625v-0.015625h0.015625-0.015625v-0.015625h0.015625v0.015625h0.015625z"/>
  </symbol>
  <symbol id="d" overflow="visible">
   <path d="m0.015625-0.03125v0.015625 0.015625h-0.015625v-0.015625-0.015625z"/>
  </symbol>
  <symbol id="l" overflow="visible">
   <path d="m0.015625-0.015625v-0.015625h0.015625v0.03125h-0.015625-0.015625v-0.015625l0.015625-0.015625v0.015625zm0 0.015625v-0.015625 0.015625z"/>
  </symbol>
  <symbol id="k" overflow="visible">
   <path d="m0.015625 0v-0.015625 0.015625zm0-0.015625v-0.015625c0.0078125 0 0.015625 0.0078125 0.015625 0.015625v0.015625h-0.015625-0.015625v-0.03125h0.015625z"/>
  </symbol>
  <symbol id="j" overflow="visible">
   <path d="m0-0.03125h0.015625v0.015625-0.015625h0.015625l-0.015625 0.03125v0.015625h-0.015625v-0.015625h0.015625z"/>
  </symbol>
  <symbol id="i" overflow="visible">
   <path d="m0.015625-0.03125v0.015625 0.015625h0.015625v-0.015625c0-0.0078125-0.0078125-0.015625-0.015625-0.015625zm0 0h0.015625v0.015625 0.015625h-0.015625-0.015625v-0.015625-0.015625h0.015625z"/>
  </symbol>
  <symbol id="v" overflow="visible">
   <path d="m0-0.03125h0.015625v0.03125h-0.015625z"/>
  </symbol>
  <symbol id="f" overflow="visible">
   <path d="m0.03125-0.015625v0.015625h-0.015625v-0.015625 0.015625h-0.015625v-0.03125h0.015625v0.015625-0.015625c0.0078125 0 0.015625 0.0078125 0.015625 0.015625z"/>
  </symbol>
  <symbol id="h" overflow="visible">
   <path d="m0-0.03125h0.015625 0.015625v0.015625h-0.015625v0.015625h-0.015625zm0.015625 0v0.015625-0.015625z"/>
  </symbol>
  <symbol id="g" overflow="visible">
   <path d="m0.03125-0.03125v0.015625h-0.015625c0.0078125 0 0.015625 0.0078125 0.015625 0.015625h-0.015625-0.015625 0.015625v-0.015625h-0.015625l0.015625-0.015625h0.015625z"/>
  </symbol>
  <symbol id="c" overflow="visible">
   <path d="m0.015625-0.015625v0.015625-0.015625zm0-0.015625v0.015625h0.015625c0 0.011719-0.0078125 0.015625-0.015625 0.015625h-0.015625v-0.015625l0.015625-0.015625z"/>
  </symbol>
  <symbol id="u" overflow="visible">
   <path d="m0-0.03125h0.015625v0.015625-0.015625h0.015625l-0.015625 0.03125z"/>
  </symbol>
  <symbol id="t" overflow="visible">
   <path d="m0-0.03125h0.015625v0.015625-0.015625h0.015625l-0.015625 0.015625 0.015625 0.015625h-0.015625v-0.015625 0.015625h-0.015625z"/>
  </symbol>
  <symbol id="s" overflow="visible">
   <path d="m0.015625-0.03125v0.03125h-0.015625v-0.03125h0.015625z"/>
  </symbol>
  <symbol id="r" overflow="visible">
   <path d="m0.03125-0.015625v-0.015625c0.0078125 0 0.015625 0.0078125 0.015625 0.015625v0.015625h-0.015625v-0.015625 0.015625h-0.015625v-0.015625 0.015625h-0.015625v-0.03125h0.015625v0.015625-0.015625 0.015625h0.015625z"/>
  </symbol>
  <symbol id="q" overflow="visible">
   <path d="m0.03125-0.015625v0.015625h-0.015625v-0.015625 0.015625h-0.015625v-0.03125h0.015625v0.015625-0.015625c0.0078125 0 0.015625 0.0078125 0.015625 0.015625z"/>
  </symbol>
  <symbol id="p" overflow="visible">
   <path d="m0-0.03125h0.015625l0.015625 0.015625v-0.015625 0.03125l-0.015625-0.015625v0.015625h-0.015625z"/>
  </symbol>
  <symbol id="o" overflow="visible">
   <path d="m0-0.015625v-0.015625h0.015625v0.015625 0.015625-0.015625-0.015625h0.015625v0.03125h-0.015625-0.015625v-0.015625z"/>
  </symbol>
  <symbol id="n" overflow="visible">
   <path d="m0-0.03125h0.015625v0.03125h-0.015625v0.015625zm0 0h0.015625z"/>
  </symbol>
  <symbol id="m" overflow="visible">
   <path d="m0.03125-0.03125v0.015625h-0.015625v0.015625h0.015625-0.015625-0.015625v-0.015625l0.015625-0.015625h0.015625z"/>
  </symbol>
 </defs>
 <g>
  <path d="m521.07 294.62c7.1055 0 13.539 2.8789 18.195 7.5391 4.6562 4.6562 7.5391 11.09 7.5391 18.195s-2.8789 13.539-7.5391 18.195c-4.6562 4.6562-11.09 7.5391-18.195 7.5391s-13.539-2.8789-18.195-7.5391c-4.6562-4.6562-7.5391-11.09-7.5391-18.195s2.8789-13.539 7.5391-18.195c4.6562-4.6562 11.09-7.5391 18.195-7.5391zm81.414-23.379-20.34-0.57422c-0.33984 0.023437-0.62891 0.050781-0.87109 0.082031 0.15234 0.23828 0.34375 0.50391 0.55859 0.78516 2.2969 2.9961 6.6055 6.2539 8.9727 7.5234 2.207 1.1836 4.4688 2.3516 6.6523 3.3398 2.1133 0.95703 4.1094 1.7422 5.8438 2.1914 1.8828 0.48828 5.8711 0.49609 9.7852 0.5 1.9102 0.003906 3.8047 0.003906 5.4648 0.058594 0-1.25 0.003906-2.375 0.011718-3.3359-4.9766-4.082-10.359-7.5664-16.074-10.566zm16.062 21.355c-1.7031-0.070312-3.5742-0.070312-5.4648-0.074218-4.3945-0.007813-8.875-0.011719-11.652-0.73438-2.2344-0.57812-4.6172-1.5-7.0391-2.5977-2.3477-1.0664-4.7656-2.3125-7.1172-3.5742-2.9766-1.5977-8.4258-5.7305-11.363-9.5625-1.2109-1.5781-2.0859-3.2109-2.4023-4.8047-0.47656-2.4023 0.13281-4.5312 2.2656-6.1602 1.3359-1.0234 3.2891-1.6914 6.0078-1.8633v0.007813c0.10938-0.007813 0.22266-0.007813 0.33594-0.007813l1.25 0.035157c-23.285-7.6484-50.07-10.18-76.855-12.707-21.668-2.0469-43.332-4.0898-63.328-8.7969-0.23047-0.054687-0.44922-0.12891-0.66016-0.21875-0.82422-0.28906-1.6406-0.58203-2.4492-0.88281 0.085937 0.09375 0.17578 0.19141 0.26172 0.28516 7.043 7.7461 12.395 16.461 13.68 25.395 1.1719 8.1641 1.0859 19.695 0.36328 32.145-0.64062 11.047-1.7734 22.773-2.9648 33.488l21.672 0.23438c-0.93359-3.793-1.4297-7.7617-1.4297-11.844 0-13.645 5.5312-26 14.473-34.945 8.9414-8.9414 21.297-14.473 34.945-14.473 13.645 0 26 5.5312 34.945 14.473 8.9414 8.9414 14.473 21.297 14.473 34.945 0 3.0195-0.26953 5.9727-0.78906 8.8398 3.3672-0.44531 7.2461-0.83984 11.324-1.25 13.309-1.3477 28.875-2.9219 34.613-7.2578 2.5273-1.9102 2.875-16.637 2.9102-28.086zm-517.91-48.641 12.789 0.82031c2.5234 0.16016 4.3672 0.86328 5.6641 1.9336 1.8008 1.4844 2.4609 3.3984 2.3203 5.5195-0.10156 1.543-0.67578 3.1289-1.5195 4.6406-1.8438 3.3086-5.3398 6.6836-7.3398 7.7812l-0.625 0.34375c-5.7891 3.1836-12.535 6.8945-18.152 8.3516-3.3008 0.85547-5.6953 0.98438-9.3633 1.1836l-0.71094 0.039062c-0.34375 0.92188-0.62891 1.8203-0.86719 2.7148-0.89453 3.3867-1.1406 6.8594-1.3711 10.961-0.35547 6.375 1.0312 11.414 3.8867 15.383 2.9219 4.0664 7.4531 7.1758 13.281 9.5742 11.848 4.8789 29.371 7.7383 43.371 10.023 5.0312 0.82031 9.6211 1.5703 13.34 2.3086-0.17578-1.7031-0.26953-3.4297-0.26953-5.1797 0-13.645 5.5312-26 14.473-34.945 8.9414-8.9414 21.297-14.473 34.945-14.473 5.5234 0 10.836 0.90625 15.793 2.5781-4.5-7.3086-8.8789-15.785-11.41-23.758-3.1719-9.9961-3.5-19.426 2.0195-25.66 5.1719-5.8398 10.711-10.879 16.711-15.145-15.77 4.5039-31.402 9.9922-46.938 15.445-7.2344 2.5391-14.449 5.0742-21.703 7.5156-14.113 4.75-29.176 5.8281-43.984 6.8828-1.3594 0.097656-2.7148 0.19531-4.0664 0.29297-5.707 0.41797-8.332 2-10.277 4.8672zm-12.836 22.887c1.4102-0.13281 2.6875-0.33203 4.1094-0.70312 4.668-1.2109 11-4.6953 16.434-7.6797l0.625-0.34375c1.1406-0.62891 3.2266-2.7148 4.4219-4.8633 0.19531-0.34766 0.35156-0.67188 0.45312-0.94922-0.22266-0.035157-0.51172-0.0625-0.88281-0.085938l-15.914-1.0195c-1.2383 2.6562-2.5312 5.0664-3.875 7.3398-1.5938 2.6953-3.2812 5.2539-5.0469 7.8359-0.10938 0.16016-0.21484 0.31641-0.32031 0.47266zm226.31-16.539c1.0664 1.6602 2.0312 3.3438 2.8711 5.0508 1.7695 3.5859 3.0039 7.2617 3.5391 10.977 1.1211 7.8164 1.0898 18.719 0.44922 30.562-0.59375 11.004-1.707 22.785-2.8945 33.629l125.84 1.3594c1.2188-10.875 2.3789-22.781 3.0195-33.816 0.69922-12.008 0.79297-23.043-0.30469-30.684-0.82422-5.7344-3.8711-11.543-8.125-17.047l-124.4-0.027344zm-3.5234 80.133c1.2148-10.988 2.3516-22.934 2.9453-33.926 0.61719-11.402 0.66016-21.82-0.39062-29.133-0.41797-2.9062-1.4102-5.832-2.8398-8.7305-1.3984-2.832-3.207-5.6289-5.3086-8.3477l-88.051-0.019531c4.168 11.352 11.867 23.41 17.5 30.762 1.7617 1.3438 3.4258 2.8008 4.9922 4.3633 8.9414 8.9414 14.473 21.297 14.473 34.945 0 3.2383-0.3125 6.4023-0.90625 9.4648l57.582 0.62109zm-95.844-87.594 217.16 0.050781c-7.043-7.0156-15.418-13.074-22.699-17.34-0.65234-0.37109-1.3008-0.74219-1.9531-1.1172-0.17578-0.097656-0.35156-0.19531-0.52734-0.29297-0.097656-0.054687-0.19531-0.11328-0.28906-0.17578-0.74609-0.42578-1.4883-0.85547-2.2305-1.2852-17.711-10.191-35.422-20.379-59.23-23.613-8.5234-1.1562-18.523-1.4805-29.004-1.3906-10.484 0.09375-21.621 0.61328-32.246 1.1328-5.3711 0.26172-10.723 0.76953-16.059 1.4766-10.566 1.9883-19.949 5.3203-28.391 10.07-8.4609 4.7617-15.98 10.957-22.805 18.664-2.7266 3.082-2.9609 8.0625-1.7266 13.816zm51.805-49.918c0.046875-0.007812 0.09375-0.011719 0.14062-0.019531 5.5312-0.73438 11.094-1.2578 16.688-1.5312 10.594-0.51562 21.715-1.0352 32.535-1.1328 10.824-0.09375 21.176 0.24219 30.055 1.4453 25.234 3.4258 43.59 13.988 61.945 24.547 0.74219 0.42578 1.4844 0.85547 2.2305 1.2812 0.058594 0.027344 0.11719 0.058594 0.17578 0.089844 1.1445 0.62891 2.3203 1.3047 3.5234 2.0234 9.8555 5.5977 19.906 10.957 31.133 14.875 19.598 4.6055 40.922 6.6172 62.246 8.6289 43.613 4.1172 87.223 8.2344 117.53 34.129 0.83594 0.71484 1.3438 1.7891 1.3008 2.9727-0.0625 1.5586-0.058593 3.957-0.054687 6.8594 0.019531 12.918 0.054687 35.066-5.8555 39.527-7.3867 5.5781-24.094 7.2695-38.375 8.7148-5.2852 0.53516-10.223 1.0352-14.152 1.6875-2.4883 6.9336-6.4805 13.152-11.586 18.258-8.9414 8.9414-21.297 14.473-34.945 14.473-13.645 0-26-5.5312-34.945-14.473-4.4531-4.4531-8.0586-9.7539-10.559-15.637l-224.62-2.4297c-2.4922 6.8555-6.457 13.008-11.516 18.062-8.9414 8.9414-21.297 14.473-34.945 14.473-13.645 0-26-5.5312-34.945-14.473-6.0391-6.0391-10.523-13.637-12.797-22.137-0.46094 0.082031-0.94531 0.082031-1.4336-0.023437-3.9336-0.83594-8.9414-1.6523-14.512-2.5586-14.367-2.3438-32.352-5.2773-45.004-10.488-7.0898-2.918-12.703-6.8398-16.492-12.113-3.8555-5.3633-5.7461-11.969-5.2852-20.137 0.25391-4.5312 0.53516-8.3906 1.6055-12.449 0.51172-1.9414 1.1992-3.8906 2.1328-5.9258l0.03125-0.066406c1.0469-2.2656 2.4023-4.6367 4.1758-7.2305 1.6797-2.4492 3.2812-4.8789 4.7852-7.4258 1.4648-2.4766 2.8203-5.0195 4.0391-7.7383 0.03125-0.09375 0.070313-0.1875 0.10938-0.27734l0.011719-0.03125 0.011719 0.003907 0.003906-0.003907c4.125-9.293 6.2461-14.07 19.457-15.043 1.3516-0.097656 2.7109-0.19531 4.0664-0.29297 14.363-1.0273 28.973-2.0703 42.148-6.5039 7.1523-2.4062 14.375-4.9414 21.617-7.4844 28.918-10.152 58.168-20.422 88.324-24.441zm-62.051 101.7c7.1055 0 13.539 2.8789 18.195 7.5391 4.6562 4.6562 7.5391 11.09 7.5391 18.195s-2.8789 13.539-7.5391 18.195c-4.6562 4.6562-11.09 7.5391-18.195 7.5391-7.1055 0-13.539-2.8789-18.195-7.5391-4.6562-4.6562-7.5391-11.09-7.5391-18.195s2.8789-13.539 7.5391-18.195c4.6562-4.6562 11.09-7.5391 18.195-7.5391zm12.918 12.816c-3.3047-3.3047-7.8711-5.3516-12.918-5.3516-5.043 0-9.6094 2.043-12.918 5.3516-3.3047 3.3047-5.3516 7.8711-5.3516 12.918 0 5.043 2.043 9.6094 5.3516 12.918 3.3047 3.3047 7.8711 5.3516 12.918 5.3516 5.043 0 9.6094-2.043 12.918-5.3477 3.3047-3.3047 5.3516-7.8711 5.3516-12.918 0-5.043-2.043-9.6094-5.3516-12.918zm16.75-16.75c-7.5898-7.5898-18.078-12.285-29.664-12.285s-22.074 4.6953-29.664 12.285c-7.5898 7.5898-12.285 18.078-12.285 29.664 0 11.586 4.6953 22.074 12.285 29.664 7.5898 7.5898 18.078 12.285 29.664 12.285s22.074-4.6953 29.664-12.285c7.5898-7.5898 12.285-18.078 12.285-29.664 0-11.586-4.6953-22.074-12.285-29.664zm299.84 16.75c-3.3047-3.3047-7.8711-5.3516-12.918-5.3516-5.043 0-9.6094 2.043-12.918 5.3516-3.3047 3.3047-5.3516 7.8711-5.3516 12.918 0 5.043 2.043 9.6094 5.3516 12.918 3.3047 3.3047 7.8711 5.3516 12.918 5.3516 5.043 0 9.6094-2.043 12.918-5.3477 3.3047-3.3047 5.3516-7.8711 5.3516-12.918 0-5.043-2.043-9.6094-5.3516-12.918zm16.75-16.75c-7.5898-7.5898-18.078-12.285-29.664-12.285-11.586 0-22.074 4.6953-29.664 12.285s-12.285 18.078-12.285 29.664c0 11.586 4.6953 22.074 12.285 29.664s18.078 12.285 29.664 12.285c11.586 0 22.074-4.6953 29.664-12.285s12.285-18.078 12.285-29.664c0-11.586-4.6953-22.074-12.285-29.664z"/>
  <use x="70" y="560.140625" xlink:href="#w"/>
  <use x="70.035156" y="560.140625" xlink:href="#e"/>
  <use x="70.058594" y="560.140625" xlink:href="#b"/>
  <use x="70.089844" y="560.140625" xlink:href="#a"/>
  <use x="70.121094" y="560.140625" xlink:href="#d"/>
  <use x="70.144531" y="560.140625" xlink:href="#b"/>
  <use x="70.175781" y="560.140625" xlink:href="#l"/>
  <use x="70.222656" y="560.140625" xlink:href="#k"/>
  <use x="70.257812" y="560.140625" xlink:href="#j"/>
  <use x="70.304688" y="560.140625" xlink:href="#i"/>
  <use x="70.34375" y="560.140625" xlink:href="#v"/>
  <use x="70.359375" y="560.140625" xlink:href="#b"/>
  <use x="70.390625" y="560.140625" xlink:href="#f"/>
  <use x="70.425781" y="560.140625" xlink:href="#a"/>
  <use x="70.472656" y="560.140625" xlink:href="#h"/>
  <use x="70.507812" y="560.140625" xlink:href="#a"/>
  <use x="70.539062" y="560.140625" xlink:href="#f"/>
  <use x="70.570312" y="560.140625" xlink:href="#a"/>
  <use x="70.601562" y="560.140625" xlink:href="#g"/>
  <use x="70.628906" y="560.140625" xlink:href="#c"/>
  <use x="70.664062" y="560.140625" xlink:href="#u"/>
  <use x="70.691406" y="560.140625" xlink:href="#g"/>
  <use x="70.722656" y="560.140625" xlink:href="#t"/>
  <use x="70.75" y="560.140625" xlink:href="#a"/>
  <use x="70" y="560.1875" xlink:href="#s"/>
  <use x="70.019531" y="560.1875" xlink:href="#e"/>
  <use x="70.042969" y="560.1875" xlink:href="#c"/>
  <use x="70.074219" y="560.1875" xlink:href="#r"/>
  <use x="70.140625" y="560.1875" xlink:href="#d"/>
  <use x="70.164062" y="560.1875" xlink:href="#q"/>
  <use x="70.195312" y="560.1875" xlink:href="#b"/>
  <use x="70.242188" y="560.1875" xlink:href="#p"/>
  <use x="70.28125" y="560.1875" xlink:href="#c"/>
  <use x="70.316406" y="560.1875" xlink:href="#o"/>
  <use x="70.347656" y="560.1875" xlink:href="#f"/>
  <use x="70.398438" y="560.1875" xlink:href="#h"/>
  <use x="70.433594" y="560.1875" xlink:href="#e"/>
  <use x="70.453125" y="560.1875" xlink:href="#c"/>
  <use x="70.488281" y="560.1875" xlink:href="#n"/>
  <use x="70.503906" y="560.1875" xlink:href="#b"/>
  <use x="70.535156" y="560.1875" xlink:href="#m"/>
  <use x="70.5625" y="560.1875" xlink:href="#d"/>
 </g>
</svg>
