<?xml version="1.0" encoding="UTF-8"?>
<svg width="700pt" height="700pt" version="1.1" viewBox="0 0 700 700" xmlns="http://www.w3.org/2000/svg" xmlns:xlink="http://www.w3.org/1999/xlink">
 <defs>
  <symbol id="w" overflow="visible">
   <path d="m0.03125 0h-0.015625-0.015625v-0.015625-0.015625h0.015625 0.015625-0.015625v0.015625 0.015625h0.015625v-0.015625z"/>
  </symbol>
  <symbol id="e" overflow="visible">
   <path d="m0.015625-0.015625v0.015625h-0.015625v-0.03125h0.015625v0.015625-0.015625z"/>
  </symbol>
  <symbol id="b" overflow="visible">
   <path d="m0.03125-0.015625h-0.015625v0.015625c0.0078125 0 0.015625-0.0039062 0.015625-0.015625v0.015625h-0.015625-0.015625v-0.015625l0.015625-0.015625v0.015625h0.015625z"/>
  </symbol>
  <symbol id="a" overflow="visible">
   <path d="m0.015625-0.015625v0.015625-0.015625zm0.015625 0v0.015625h-0.015625-0.015625v-0.015625h0.015625-0.015625v-0.015625h0.015625v0.015625h0.015625z"/>
  </symbol>
  <symbol id="d" overflow="visible">
   <path d="m0.015625-0.03125v0.015625 0.015625h-0.015625v-0.015625-0.015625z"/>
  </symbol>
  <symbol id="l" overflow="visible">
   <path d="m0.015625-0.015625v-0.015625h0.015625v0.03125h-0.015625-0.015625v-0.015625l0.015625-0.015625v0.015625zm0 0.015625v-0.015625 0.015625z"/>
  </symbol>
  <symbol id="k" overflow="visible">
   <path d="m0.015625 0v-0.015625 0.015625zm0-0.015625v-0.015625c0.0078125 0 0.015625 0.0078125 0.015625 0.015625v0.015625h-0.015625-0.015625v-0.03125h0.015625z"/>
  </symbol>
  <symbol id="j" overflow="visible">
   <path d="m0-0.03125h0.015625v0.015625-0.015625h0.015625l-0.015625 0.03125v0.015625h-0.015625v-0.015625h0.015625z"/>
  </symbol>
  <symbol id="i" overflow="visible">
   <path d="m0.015625-0.03125v0.015625 0.015625h0.015625v-0.015625c0-0.0078125-0.0078125-0.015625-0.015625-0.015625zm0 0h0.015625v0.015625 0.015625h-0.015625-0.015625v-0.015625-0.015625h0.015625z"/>
  </symbol>
  <symbol id="v" overflow="visible">
   <path d="m0-0.03125h0.015625v0.03125h-0.015625z"/>
  </symbol>
  <symbol id="f" overflow="visible">
   <path d="m0.03125-0.015625v0.015625h-0.015625v-0.015625 0.015625h-0.015625v-0.03125h0.015625v0.015625-0.015625c0.0078125 0 0.015625 0.0078125 0.015625 0.015625z"/>
  </symbol>
  <symbol id="h" overflow="visible">
   <path d="m0-0.03125h0.015625 0.015625v0.015625h-0.015625v0.015625h-0.015625zm0.015625 0v0.015625-0.015625z"/>
  </symbol>
  <symbol id="g" overflow="visible">
   <path d="m0.03125-0.03125v0.015625h-0.015625c0.0078125 0 0.015625 0.0078125 0.015625 0.015625h-0.015625-0.015625 0.015625v-0.015625h-0.015625l0.015625-0.015625h0.015625z"/>
  </symbol>
  <symbol id="c" overflow="visible">
   <path d="m0.015625-0.015625v0.015625-0.015625zm0-0.015625v0.015625h0.015625c0 0.011719-0.0078125 0.015625-0.015625 0.015625h-0.015625v-0.015625l0.015625-0.015625z"/>
  </symbol>
  <symbol id="u" overflow="visible">
   <path d="m0-0.03125h0.015625v0.015625-0.015625h0.015625l-0.015625 0.03125z"/>
  </symbol>
  <symbol id="t" overflow="visible">
   <path d="m0-0.03125h0.015625v0.015625-0.015625h0.015625l-0.015625 0.015625 0.015625 0.015625h-0.015625v-0.015625 0.015625h-0.015625z"/>
  </symbol>
  <symbol id="s" overflow="visible">
   <path d="m0.015625-0.03125v0.03125h-0.015625v-0.03125h0.015625z"/>
  </symbol>
  <symbol id="r" overflow="visible">
   <path d="m0.03125-0.015625v-0.015625c0.0078125 0 0.015625 0.0078125 0.015625 0.015625v0.015625h-0.015625v-0.015625 0.015625h-0.015625v-0.015625 0.015625h-0.015625v-0.03125h0.015625v0.015625-0.015625 0.015625h0.015625z"/>
  </symbol>
  <symbol id="q" overflow="visible">
   <path d="m0.03125-0.015625v0.015625h-0.015625v-0.015625 0.015625h-0.015625v-0.03125h0.015625v0.015625-0.015625c0.0078125 0 0.015625 0.0078125 0.015625 0.015625z"/>
  </symbol>
  <symbol id="p" overflow="visible">
   <path d="m0-0.03125h0.015625l0.015625 0.015625v-0.015625 0.03125l-0.015625-0.015625v0.015625h-0.015625z"/>
  </symbol>
  <symbol id="o" overflow="visible">
   <path d="m0-0.015625v-0.015625h0.015625v0.015625 0.015625-0.015625-0.015625h0.015625v0.03125h-0.015625-0.015625v-0.015625z"/>
  </symbol>
  <symbol id="n" overflow="visible">
   <path d="m0-0.03125h0.015625v0.03125h-0.015625v0.015625zm0 0h0.015625z"/>
  </symbol>
  <symbol id="m" overflow="visible">
   <path d="m0.03125-0.03125v0.015625h-0.015625v0.015625h0.015625-0.015625-0.015625v-0.015625l0.015625-0.015625h0.015625z"/>
  </symbol>
 </defs>
 <g>
  <path d="m491.61 323.18c7.1055 0 13.539 2.8789 18.195 7.5391 4.6562 4.6562 7.5391 11.09 7.5391 18.195 0 7.1055-2.8789 13.539-7.5391 18.195-4.6562 4.6562-11.09 7.5391-18.195 7.5391s-13.539-2.8789-18.195-7.5391c-4.6562-4.6562-7.5391-11.09-7.5391-18.195 0-7.1055 2.8789-13.539 7.5391-18.195 4.6562-4.6562 11.09-7.5391 18.195-7.5391zm34.742-59.312c-0.34766 0.54687-0.67969 1.082-0.98047 1.6172-0.80078 1.4062-1.4531 2.8164-1.875 4.2773-0.76563 2.6484 0.35937 9.3281 1.4453 15.77 0.55859 3.3281 1.1094 6.5938 1.4102 9.4922 0.46875 4.5195 14.344 8.0586 23.75 10.461 1.4453 0.36719 2.7969 0.71484 4.0273 1.0469-0.90234-6.8086-2.7109-13.344-6.4023-19.492-5.1523-8.5781-12.258-16.719-21.371-23.172zm28.469 50.629c-1.5312-0.5-3.8789-1.0977-6.5586-1.7812-11.438-2.918-28.312-7.2266-29.32-16.934-0.26953-2.582-0.80469-5.7734-1.3516-9.0234-1.2188-7.2461-2.4844-14.762-1.2422-19.066 0.60547-2.0977 1.4883-4.0234 2.5469-5.8828 0.375-0.65625 0.76562-1.3008 1.168-1.9336-6.2617-3.543-13.336-6.3164-21.23-8.0234-3.2656-0.28516-6.457-0.78906-9.582-1.4844-0.39453-0.039063-0.78906-0.074219-1.1875-0.10547-2.2461-0.1875-17.23-0.29297-32.637-0.32031-16.414-0.027344-33.332 0.042969-35.941 0.21094-0.31641 0.019531-0.625 0-0.92188-0.054688l-86.902 0.90625c-6.6602 0.63672-11.477 3.2031-14.82 6.8906-4.0859 4.5039-6.1211 10.762-6.6992 17.293-0.72266 8.1719-0.62891 21.484 1.4297 35.469 1.5078 10.254 4.0742 20.801 8.1445 29.805 2.3047 5.0938 6.5469 10.875 11.793 15.348 4.2031 3.582 8.9922 6.2734 13.82 6.9609l98.934 0.35547c-1.3477-4.5-2.0742-9.2656-2.0742-14.207 0-13.645 5.5312-26 14.473-34.945 8.9414-8.9414 21.297-14.473 34.945-14.473 13.645 0 26 5.5312 34.945 14.473 8.9414 8.9414 14.473 21.297 14.473 34.945 0 2.4844-0.18359 4.9297-0.53906 7.3164 4.0234-3.3906 7.2852-6.7578 9.6797-10.391 3.2656-4.957 4.9844-10.559 4.9219-17.645l-0.015625-2.0117c-0.03125-3.9531-0.0625-7.8555-0.25391-11.688zm-121.79-49.328-4.668 0.019531-0.019531-4.668 4.668-0.019531zm0.31641 74.664-4.668 0.019531-0.019532-4.668 4.668-0.019532zm-0.078125-18.668-4.668 0.019532-0.019531-4.668 4.668-0.019531zm-0.078125-18.668-4.668 0.019531-0.019532-4.668 4.668-0.019531zm-0.078125-18.668-4.668 0.019531-0.019531-4.668 4.668-0.019532zm-101.74-40.273h0.10547l92.152-0.96094c6.7461-0.085938 19.406-0.12109 31.797-0.10156 4.4219 0.007812 8.8086 0.019531 12.883 0.039062-16.805-8.75-31.719-22.285-46.148-35.383-17.434-15.82-34.133-30.98-51.922-35.328-9.707-2.375-29.27-2.8516-49.844-2.707-12.281 0.20312-24.109 0.74609-35.363 2.7812-11.086 2.0039-21.664 5.4727-31.66 11.535-11.711 7.1016-17.086 21.219-22.242 34.746-0.17969 0.47266-0.0625 0.16016 0 0h-0.003906c-0.085937 0.22266-0.375 0.96484-1.1328 2.9375-2.6758 6.957 2.5 11.926 15.023 15.508 14.809 4.2383 38.684 6.3242 70.949 7.0938zm13.797 126.64c-0.082031 0.003906-0.16797 0.003906-0.25 0l-73.297-0.26172c-2.4492 5.1992-5.7734 9.9023-9.793 13.918-8.9414 8.9414-21.297 14.473-34.945 14.473-13.645 0-26-5.5312-34.945-14.473-6.4961-6.4961-11.191-14.793-13.273-24.078l-30.938-3.0469c-6.3047-0.62109-8.8984-6.4961-9.8086-13.297-0.74609-5.5742-0.37109-11.727-0.16016-15.18 0.69922-11.469 3.5156-12.473 10.598-14.996 1.4766-0.52734 3.2109-1.1445 5.2031-2.0469 1.4922-0.67969 2.8867-1.4219 3.9961-2.25 0.85547-0.63672 1.4883-1.2773 1.7539-1.8906 0.63672-1.457 0.9375-3.3359 1.0859-5.3438 0.003906-0.12891 0.011718-0.25391 0.027343-0.38281 0.10156-1.6016 0.11328-3.2812 0.12891-4.8906 0.003906-0.58203 0.007812-1.1562 0.015624-1.6523 0.054688-3.8203-0.11719-7.75-0.28125-11.617-0.55859-12.973-1.0859-25.25 6.4297-35.77 2.3867-3.3398 4.7344-5.5195 7.1992-7.8086 3.4023-3.1602 7.0664-6.5625 11.141-13.852 2.625-4.6953 5.25-9.875 7.8047-14.918 4.0586-8.0117 7.9414-15.668 11.715-21.133 5.0742-7.3477 11.484-14.23 20.41-19.23 8.8867-4.9805 20.195-8.0469 35.051-7.7734 6.5938 0.03125 15.934-0.18359 26.469-0.42578 10.504-0.24219 22.191-0.51172 33.629-0.58984l0.14844-0.003906c21.098-0.14062 41.328 0.37109 51.711 2.9102 19.664 4.8086 37.047 20.586 55.188 37.051 19.293 17.512 39.484 35.836 63.348 41.344 13.91 1.4336 25.844 5.8008 35.844 11.969 12.098 7.4648 21.312 17.551 27.742 28.254 8.1641 13.594 8.2812 27.898 8.4023 42.91l0.015625 2.0117c0.078125 8.6758-2.0664 15.598-6.1445 21.785-3.957 6.0039-9.6562 11.172-16.871 16.547-0.59766 0.44531-1.2852 0.67969-1.9766 0.72656-2.5078 6.293-6.2695 11.949-10.98 16.66-8.9414 8.9414-21.297 14.473-34.945 14.473-13.645 0-26-5.5312-34.945-14.473-3.8516-3.8516-7.0742-8.3398-9.4883-13.289l-102.01-0.36719zm-16.984-7.5c-0.51562-0.40234-1.0195-0.81641-1.5195-1.2422-6.0898-5.1914-11.035-11.953-13.746-17.941-4.3867-9.6992-7.1289-20.93-8.7305-31.785-2.1406-14.543-2.2266-28.535-1.4609-37.188 0.71094-8.0352 3.3164-15.848 8.5938-21.668 0.55859-0.61719 1.1484-1.2109 1.7656-1.7812-31.57-0.83594-55.137-3-70.121-7.2891-17.703-5.0664-24.609-13.145-19.926-25.336 1.2734-3.3086-0.078125 0.17187 1.1094-2.9375 5.5938-14.684 11.43-30 25.363-38.453 4.6055-2.793 9.3086-5.0781 14.109-6.9453-1.2969 0.007812-2.5195 0.007812-3.6719 0.003906h-0.042969c-13.383-0.24609-23.457 2.4531-31.289 6.8398-7.7891 4.3633-13.434 10.441-17.93 16.953-3.4688 5.0195-7.2422 12.469-11.191 20.258-2.5586 5.0508-5.1914 10.242-7.9531 15.18-3.0234 5.4102-5.8086 8.9102-8.4297 11.668 0.86719 1.3047 1.8086 2.625 2.7227 3.9102 2.8633 4.0195 5.5 7.7227 6.8438 12.359 1.2461 4.3047-0.019532 11.82-1.2422 19.066-0.54688 3.25-1.0859 6.4414-1.3516 9.0234-0.97656 9.3789-10.945 13.746-19.234 17.379-1.1289 0.49609-2.2266 0.97656-3.2383 1.4453-0.25781 2.0352-0.70313 4.0156-1.4883 5.8203-0.84375 1.9336-2.2969 3.5352-4.1172 4.8945-1.5664 1.1719-3.4336 2.1758-5.3945 3.0664-2.2578 1.0234-4.1602 1.7031-5.7852 2.2812-3.75 1.3359-5.2422 1.8672-5.6406 8.4023-0.19531 3.2148-0.54297 8.9414 0.10156 13.781 0.48438 3.6094 1.3984 6.6797 3.1602 6.8516l29.117 2.8672c-0.070312-1.082-0.10937-2.1758-0.10937-3.2773 0-13.645 5.5312-26 14.473-34.945 8.9414-8.9414 21.297-14.473 34.945-14.473 13.645 0 26 5.5312 34.945 14.473 8.9414 8.9414 14.473 21.297 14.473 34.945 0 4.7148-0.66016 9.2773-1.8945 13.598l53.777 0.19141zm-97.055-144.52c0.03125-0.082031 0.046876-0.125-0.003906 0zm-63.141 77.719c6.4609-2.832 14.176-6.2344 14.699-11.27 0.30078-2.8945 0.85156-6.1641 1.4102-9.4883 1.0859-6.4414 2.2109-13.125 1.4453-15.77-0.98438-3.4062-3.2734-6.6211-5.7617-10.113-0.68359-0.96094-1.3828-1.9414-2.0977-2.9883-1.7188 1.625-3.3633 3.2969-4.9062 5.457-6.0352 8.4453-5.5586 19.477-5.0586 31.129 0.16797 3.9141 0.33984 7.8945 0.28125 12.023-0.003906 0.35938-0.007812 0.69141-0.011718 1.0195zm98.406 67.141v-0.5625h0.19922c1.4531-4.2578 2.2422-8.8203 2.2422-13.566 0-11.586-4.6953-22.074-12.285-29.664-7.5898-7.5898-18.078-12.285-29.664-12.285s-22.074 4.6953-29.664 12.285c-7.5898 7.5898-12.285 18.078-12.285 29.664s4.6953 22.074 12.285 29.664c7.5898 7.5898 18.078 12.285 29.664 12.285s22.074-4.6953 29.664-12.285c4.3438-4.3438 7.7344-9.6328 9.8477-15.531zm-39.512-39.863c7.1055 0 13.539 2.8789 18.195 7.5391 4.6562 4.6562 7.5391 11.09 7.5391 18.195s-2.8789 13.539-7.5391 18.195c-4.6562 4.6562-11.09 7.5391-18.195 7.5391s-13.539-2.8789-18.195-7.5391c-4.6562-4.6562-7.5391-11.09-7.5391-18.195s2.8789-13.539 7.5391-18.195c4.6562-4.6562 11.09-7.5391 18.195-7.5391zm12.918 12.816c-3.3047-3.3047-7.8711-5.3516-12.918-5.3516-5.043 0-9.6094 2.043-12.918 5.3516-3.3047 3.3047-5.3516 7.8711-5.3516 12.918 0 5.043 2.043 9.6094 5.3516 12.918 3.3047 3.3047 7.8711 5.3516 12.918 5.3516 5.043 0 9.6094-2.043 12.918-5.3477 3.3047-3.3047 5.3516-7.8711 5.3516-12.918 0-5.043-2.043-9.6094-5.3516-12.918zm264.72 0c-3.3047-3.3047-7.8711-5.3516-12.918-5.3516-5.043 0-9.6094 2.043-12.918 5.3516-3.3047 3.3047-5.3516 7.8711-5.3516 12.918 0 5.043 2.043 9.6094 5.3516 12.918 3.3047 3.3047 7.8711 5.3516 12.918 5.3516 5.043 0 9.6094-2.043 12.918-5.3477 3.3047-3.3047 5.3516-7.8711 5.3516-12.918 0-5.043-2.043-9.6094-5.3516-12.918zm16.75-16.75c-7.5898-7.5898-18.078-12.285-29.664-12.285-11.586 0-22.074 4.6953-29.664 12.285-7.5898 7.5898-12.285 18.078-12.285 29.664 0 11.586 4.6953 22.074 12.285 29.664 7.5898 7.5898 18.078 12.285 29.664 12.285 11.586 0 22.074-4.6953 29.664-12.285s12.285-18.078 12.285-29.664c0-11.586-4.6953-22.074-12.285-29.664z"/>
  <use x="70" y="560.140625" xlink:href="#w"/>
  <use x="70.035156" y="560.140625" xlink:href="#e"/>
  <use x="70.058594" y="560.140625" xlink:href="#b"/>
  <use x="70.089844" y="560.140625" xlink:href="#a"/>
  <use x="70.121094" y="560.140625" xlink:href="#d"/>
  <use x="70.144531" y="560.140625" xlink:href="#b"/>
  <use x="70.175781" y="560.140625" xlink:href="#l"/>
  <use x="70.222656" y="560.140625" xlink:href="#k"/>
  <use x="70.257812" y="560.140625" xlink:href="#j"/>
  <use x="70.304688" y="560.140625" xlink:href="#i"/>
  <use x="70.34375" y="560.140625" xlink:href="#v"/>
  <use x="70.359375" y="560.140625" xlink:href="#b"/>
  <use x="70.390625" y="560.140625" xlink:href="#f"/>
  <use x="70.425781" y="560.140625" xlink:href="#a"/>
  <use x="70.472656" y="560.140625" xlink:href="#h"/>
  <use x="70.507812" y="560.140625" xlink:href="#a"/>
  <use x="70.539062" y="560.140625" xlink:href="#f"/>
  <use x="70.570312" y="560.140625" xlink:href="#a"/>
  <use x="70.601562" y="560.140625" xlink:href="#g"/>
  <use x="70.628906" y="560.140625" xlink:href="#c"/>
  <use x="70.664062" y="560.140625" xlink:href="#u"/>
  <use x="70.691406" y="560.140625" xlink:href="#g"/>
  <use x="70.722656" y="560.140625" xlink:href="#t"/>
  <use x="70.75" y="560.140625" xlink:href="#a"/>
  <use x="70" y="560.1875" xlink:href="#s"/>
  <use x="70.019531" y="560.1875" xlink:href="#e"/>
  <use x="70.042969" y="560.1875" xlink:href="#c"/>
  <use x="70.074219" y="560.1875" xlink:href="#r"/>
  <use x="70.140625" y="560.1875" xlink:href="#d"/>
  <use x="70.164062" y="560.1875" xlink:href="#q"/>
  <use x="70.195312" y="560.1875" xlink:href="#b"/>
  <use x="70.242188" y="560.1875" xlink:href="#p"/>
  <use x="70.28125" y="560.1875" xlink:href="#c"/>
  <use x="70.316406" y="560.1875" xlink:href="#o"/>
  <use x="70.347656" y="560.1875" xlink:href="#f"/>
  <use x="70.398438" y="560.1875" xlink:href="#h"/>
  <use x="70.433594" y="560.1875" xlink:href="#e"/>
  <use x="70.453125" y="560.1875" xlink:href="#c"/>
  <use x="70.488281" y="560.1875" xlink:href="#n"/>
  <use x="70.503906" y="560.1875" xlink:href="#b"/>
  <use x="70.535156" y="560.1875" xlink:href="#m"/>
  <use x="70.5625" y="560.1875" xlink:href="#d"/>
 </g>
</svg>
