<?xml version="1.0" encoding="UTF-8"?>
<svg width="700pt" height="700pt" version="1.1" viewBox="0 0 700 700" xmlns="http://www.w3.org/2000/svg" xmlns:xlink="http://www.w3.org/1999/xlink">
 <defs>
  <symbol id="w" overflow="visible">
   <path d="m0.03125 0h-0.015625-0.015625v-0.015625-0.015625h0.015625 0.015625-0.015625v0.015625 0.015625h0.015625v-0.015625z"/>
  </symbol>
  <symbol id="e" overflow="visible">
   <path d="m0.015625-0.015625v0.015625h-0.015625v-0.03125h0.015625v0.015625-0.015625z"/>
  </symbol>
  <symbol id="b" overflow="visible">
   <path d="m0.03125-0.015625h-0.015625v0.015625c0.0078125 0 0.015625-0.0039062 0.015625-0.015625v0.015625h-0.015625-0.015625v-0.015625l0.015625-0.015625v0.015625h0.015625z"/>
  </symbol>
  <symbol id="a" overflow="visible">
   <path d="m0.015625-0.015625v0.015625-0.015625zm0.015625 0v0.015625h-0.015625-0.015625v-0.015625h0.015625-0.015625v-0.015625h0.015625v0.015625h0.015625z"/>
  </symbol>
  <symbol id="d" overflow="visible">
   <path d="m0.015625-0.03125v0.015625 0.015625h-0.015625v-0.015625-0.015625z"/>
  </symbol>
  <symbol id="l" overflow="visible">
   <path d="m0.015625-0.015625v-0.015625h0.015625v0.03125h-0.015625-0.015625v-0.015625l0.015625-0.015625v0.015625zm0 0.015625v-0.015625 0.015625z"/>
  </symbol>
  <symbol id="k" overflow="visible">
   <path d="m0.015625 0v-0.015625 0.015625zm0-0.015625v-0.015625c0.0078125 0 0.015625 0.0078125 0.015625 0.015625v0.015625h-0.015625-0.015625v-0.03125h0.015625z"/>
  </symbol>
  <symbol id="j" overflow="visible">
   <path d="m0-0.03125h0.015625v0.015625-0.015625h0.015625l-0.015625 0.03125v0.015625h-0.015625v-0.015625h0.015625z"/>
  </symbol>
  <symbol id="i" overflow="visible">
   <path d="m0.015625-0.03125v0.015625 0.015625h0.015625v-0.015625c0-0.0078125-0.0078125-0.015625-0.015625-0.015625zm0 0h0.015625v0.015625 0.015625h-0.015625-0.015625v-0.015625-0.015625h0.015625z"/>
  </symbol>
  <symbol id="v" overflow="visible">
   <path d="m0-0.03125h0.015625v0.03125h-0.015625z"/>
  </symbol>
  <symbol id="f" overflow="visible">
   <path d="m0.03125-0.015625v0.015625h-0.015625v-0.015625 0.015625h-0.015625v-0.03125h0.015625v0.015625-0.015625c0.0078125 0 0.015625 0.0078125 0.015625 0.015625z"/>
  </symbol>
  <symbol id="h" overflow="visible">
   <path d="m0-0.03125h0.015625 0.015625v0.015625h-0.015625v0.015625h-0.015625zm0.015625 0v0.015625-0.015625z"/>
  </symbol>
  <symbol id="g" overflow="visible">
   <path d="m0.03125-0.03125v0.015625h-0.015625c0.0078125 0 0.015625 0.0078125 0.015625 0.015625h-0.015625-0.015625 0.015625v-0.015625h-0.015625l0.015625-0.015625h0.015625z"/>
  </symbol>
  <symbol id="c" overflow="visible">
   <path d="m0.015625-0.015625v0.015625-0.015625zm0-0.015625v0.015625h0.015625c0 0.011719-0.0078125 0.015625-0.015625 0.015625h-0.015625v-0.015625l0.015625-0.015625z"/>
  </symbol>
  <symbol id="u" overflow="visible">
   <path d="m0-0.03125h0.015625v0.015625-0.015625h0.015625l-0.015625 0.03125z"/>
  </symbol>
  <symbol id="t" overflow="visible">
   <path d="m0-0.03125h0.015625v0.015625-0.015625h0.015625l-0.015625 0.015625 0.015625 0.015625h-0.015625v-0.015625 0.015625h-0.015625z"/>
  </symbol>
  <symbol id="s" overflow="visible">
   <path d="m0.015625-0.03125v0.03125h-0.015625v-0.03125h0.015625z"/>
  </symbol>
  <symbol id="r" overflow="visible">
   <path d="m0.03125-0.015625v-0.015625c0.0078125 0 0.015625 0.0078125 0.015625 0.015625v0.015625h-0.015625v-0.015625 0.015625h-0.015625v-0.015625 0.015625h-0.015625v-0.03125h0.015625v0.015625-0.015625 0.015625h0.015625z"/>
  </symbol>
  <symbol id="q" overflow="visible">
   <path d="m0.03125-0.015625v0.015625h-0.015625v-0.015625 0.015625h-0.015625v-0.03125h0.015625v0.015625-0.015625c0.0078125 0 0.015625 0.0078125 0.015625 0.015625z"/>
  </symbol>
  <symbol id="p" overflow="visible">
   <path d="m0-0.03125h0.015625l0.015625 0.015625v-0.015625 0.03125l-0.015625-0.015625v0.015625h-0.015625z"/>
  </symbol>
  <symbol id="o" overflow="visible">
   <path d="m0-0.015625v-0.015625h0.015625v0.015625 0.015625-0.015625-0.015625h0.015625v0.03125h-0.015625-0.015625v-0.015625z"/>
  </symbol>
  <symbol id="n" overflow="visible">
   <path d="m0-0.03125h0.015625v0.03125h-0.015625v0.015625zm0 0h0.015625z"/>
  </symbol>
  <symbol id="m" overflow="visible">
   <path d="m0.03125-0.03125v0.015625h-0.015625v0.015625h0.015625-0.015625-0.015625v-0.015625l0.015625-0.015625h0.015625z"/>
  </symbol>
 </defs>
 <g>
  <path d="m528.05 312.52c7.2578 0 13.824 2.8945 18.582 7.5703 4.7539 4.6758 7.6953 11.141 7.6953 18.277 0 7.1367-2.9414 13.598-7.6953 18.277-4.7539 4.6758-11.324 7.5703-18.582 7.5703-7.2578 0-13.824-2.8945-18.582-7.5703-4.7539-4.6758-7.6953-11.141-7.6953-18.277 0-7.1367 2.9414-13.598 7.6953-18.277 4.7539-4.6758 11.324-7.5703 18.582-7.5703zm-337.22 0c7.2578 0 13.824 2.8945 18.582 7.5703 4.7539 4.6758 7.6953 11.141 7.6953 18.277 0 7.1367-2.9414 13.598-7.6953 18.277-4.7539 4.6758-11.324 7.5703-18.582 7.5703s-13.824-2.8945-18.582-7.5703c-4.7539-4.6758-7.6953-11.141-7.6953-18.277 0-7.1367 2.9414-13.598 7.6953-18.277 4.7539-4.6758 11.324-7.5703 18.582-7.5703zm13.285 12.781c-3.3984-3.3438-8.0977-5.4102-13.285-5.4102s-9.8867 2.0664-13.285 5.4102c-3.3984 3.3438-5.5039 7.9648-5.5039 13.066 0 5.1016 2.1016 9.7227 5.5039 13.066 3.3984 3.3438 8.0977 5.4102 13.285 5.4102s9.8867-2.0664 13.285-5.4102c3.3984-3.3438 5.5039-7.9648 5.5039-13.066 0-5.1016-2.1016-9.7227-5.5039-13.066zm-13.285-36.094c13.801 0 26.297 5.5039 35.344 14.398 9.0469 8.8984 14.641 21.188 14.641 34.762 0 5.957-1.0781 11.664-3.0508 16.945l62.68-0.21094c-5.0859-6.2812-9.4844-12.523-13.195-18.816-4.9336-8.3672-8.6523-16.836-11.156-25.641-1.6719-5.875-3.0547-14.605-4.1367-24.441-1.1602-10.527-1.9844-22.426-2.4531-33.445-0.78125-0.046874-1.5586-0.09375-2.3398-0.14453-54.473-3.418-109.2-10.098-164.03-18.57-0.11719-0.019531-0.23438-0.042969-0.34766-0.070313l-0.003906 0.011719c-1.0078-0.25-1.9375-0.36328-2.7969-0.34766-2.4219 0.035156-4.5508 1.0195-6.2305 2.5625-1.7852 1.6367-3.0781 3.8984-3.7148 6.3633-0.30859 1.1953-0.46094 2.4023-0.44531 3.5703 0.039062 2.4336 0.38672 4.5859 0.89844 6.5039 0.43359 1.6094 0.97656 3.0469 1.5586 4.3398l28.547-0.21875c0.34375-0.003906 0.61328 0.003907 0.80469 0.015626 2.6172 0.16406 4.5078 1.1992 5.793 2.7539 1.2266 1.4805 1.7578 3.3203 1.7734 5.2422v0.015625c0.003906 0.32422-0.003906 0.58594-0.015625 0.78516-0.17578 2.7109-1.6445 6.3555-3.7695 9.8164-1.9805 3.2227-4.6172 6.4414-7.3555 8.6797-5.6562 4.6211-19.648 3.4805-29.355 2.6875l-0.92578-0.074218c-0.046875-0.003907-0.089844-0.007813-0.13672-0.015626-0.18359 0.19141-0.36328 0.38281-0.54688 0.57031-3.4336 3.5859-6.6758 6.9727-5.293 11.93 2.9961 10.766 10.984 20.293 21.004 28.012 11.77 9.0703 26.25 15.586 38.863 18.738-0.38672-2.4609-0.58594-4.9844-0.58594-7.5547 0-13.574 5.5938-25.867 14.641-34.762 9.0469-8.8984 21.539-14.398 35.344-14.398zm43.512 73.367c-2.2344 3.875-4.9883 7.4258-8.168 10.555-9.0469 8.8984-21.539 14.398-35.344 14.398-13.801 0-26.297-5.5039-35.344-14.398-5.4961-5.4062-9.7188-12.07-12.188-19.512-0.46484 0.078124-0.94922 0.070312-1.4375-0.039063-14.023-3.1445-30.578-10.359-43.883-20.609-11.18-8.6133-20.141-19.418-23.605-31.867-2.4883-8.9375 2.1445-13.773 7.0508-18.898 4.6367-4.8438 9.6172-10.047 4.2344-21.328-0.89062-1.8672-1.7461-3.9648-2.3906-6.3633-0.64844-2.418-1.0859-5.1523-1.1328-8.2891-0.03125-1.8711 0.19531-3.7148 0.64844-5.4727 0.97656-3.7852 3.0195-7.3164 5.8789-9.9336 2.9648-2.7148 6.793-4.4531 11.234-4.5195 1.5352-0.023437 3.1016 0.14844 4.6914 0.53906 9.25 1.4297 18.5 2.8047 27.746 4.125 1.7422-4.4961 3.8008-8.957 6.543-12.535 3.293-4.3008 7.4805-7.2734 13.082-7.5938 0.16406-0.011719 0.32812-0.015625 0.49609-0.007812 2.1133 0.10547 5.7031 0.22656 10.305 0.375 21.117 0.69531 62.598 2.0664 67.492 5.7969 3.4492 2.6289 5.75 6.9375 7.2383 11.715 1.4922 4.7812 2.2031 10.121 2.4492 14.547 9.2344 0.75781 18.461 1.4297 27.688 2.0078 50.84 3.1914 101.51 3.5312 151.91-0.17969-1.1055-0.87109-2.2656-1.8008-3.5039-2.8047-13.289-10.758-25.758-19.707-38.062-27.035-12.215-7.2734-24.23-12.914-36.695-17.109-1.543-0.51953-1.0469-0.35547-1.2031-0.40625-1.4727-0.48438-3.1758-1.0391-4.7656-1.668-6.918-2.7227-13.805-7.1641-10.316-15.734 2.168-5.3281 6.0625-7.3906 10.48-7.7969 3.7383-0.34375 7.6289 0.64062 10.953 1.6562 13.953 4.2617 27.23 10.172 40.645 17.953 13.32 7.7266 26.801 17.324 41.246 29.02 5.8711 4.7539 9.8477 7.7969 14.16 9.9961 4.2773 2.1797 9.1016 3.6367 16.742 5.2539 17.055 3.6133 37.066 5.457 57.082 7.3008 53.172 4.9023 106.34 9.8086 108.5 47.547h0.003907c1.4141 11.105 1.7891 20.895 1.3477 29.352-0.45703 8.8008-1.8008 16.152-3.7734 22.043-0.058594 0.26953-0.14844 0.52734-0.26172 0.76953-0.046876 0.13672-0.09375 0.26953-0.14453 0.40625-3.4492 9.5508-11.188 14.742-20.805 17.438-8.9453 2.5078-19.516 2.7891-29.574 2.5039-0.23828-0.007812-0.47266-0.035156-0.69531-0.082031-2.1094 3.4414-4.6328 6.6133-7.5039 9.4375-9.0469 8.8984-21.539 14.398-35.344 14.398-13.801 0-26.297-5.5039-35.344-14.398-3.3867-3.3281-6.2891-7.1367-8.5938-11.305l-175.56 0.58984c-0.125 0.007813-0.24609 0.007813-0.37109 0l-73.039 0.24609c-0.27734 0-0.55078-0.03125-0.8125-0.085938zm-13.465-53.758c-7.6875-7.5625-18.312-12.242-30.047-12.242s-22.355 4.6797-30.047 12.242c-7.6875 7.5625-12.445 18.012-12.445 29.551 0 11.539 4.7578 21.988 12.445 29.551s18.312 12.242 30.047 12.242 22.355-4.6797 30.047-12.242c7.6875-7.5625 12.445-18.012 12.445-29.551 0-11.543-4.7578-21.988-12.445-29.551zm233.23-34.16-4.6836 0.023438-0.023437-4.6055 4.6836-0.023438zm0.26953 55.266-4.6836 0.023437-0.023437-4.6055 4.6836-0.023438zm-0.089844-18.422-4.6836 0.023438-0.023437-4.6055 4.6836-0.023438zm-0.089844-18.422-4.6836 0.023437-0.023438-4.6055 4.6836-0.023438zm-221.77-50.449c-0.26562-3.6914-0.88672-7.9453-2.0742-11.754-1.082-3.4727-2.5977-6.4844-4.6641-8.0586-3-2.2891-42.867-3.6016-63.16-4.2734-4.6719-0.15234-8.3516-0.27734-10.25-0.36719-3.0078 0.20703-5.4219 2.0273-7.4336 4.6562-1.9219 2.5117-3.5117 5.7734-4.9102 9.2031 30.863 4.293 61.699 7.9102 92.492 10.594zm-139.37 37.105c7.9258 0.59375 17.207 0.97656 20-1.3047 2.0508-1.6758 4.1094-4.2227 5.7148-6.8398 1.5586-2.5352 2.6172-4.9609 2.7148-6.4766 0.011719-0.15234 0.015625-0.24609 0.015625-0.28516-0.003906-0.33203-0.035156-0.57422-0.10547-0.66016-0.011719-0.011719-0.14844-0.027344-0.46484-0.046875-0.15625-0.011719-0.25-0.015625-0.27734-0.015625l-25.773 0.19922c1.7852 6.6602 0.57031 11.465-1.8242 15.43zm205.72-9.8633h40.18c1.293 0 2.3398 1.0312 2.3398 2.3008v7.6367c0 1.2734-1.0469 2.3008-2.3398 2.3008h-40.18c-1.293 0-2.3398-1.0312-2.3398-2.3008v-7.6367c0-1.2734 1.0469-2.3008 2.3398-2.3008zm37.836 4.6055h-35.496v3.0312h35.496zm-59.625-21.281c0.46484 10.602 1.2695 22.031 2.3906 32.23 1.043 9.4805 2.3516 17.809 3.9023 23.258 2.3242 8.168 5.8008 16.07 10.426 23.914 4.4102 7.4805 9.8672 14.91 16.371 22.469l170.74-0.57422c-1.7852-5.0508-2.7539-10.48-2.7539-16.129 0-13.574 5.5938-25.867 14.641-34.762 9.0469-8.8984 21.539-14.398 35.344-14.398 13.801 0 26.297 5.5039 35.344 14.398 9.0469 8.8984 14.641 21.188 14.641 34.762 0 6.4023-1.2461 12.52-3.5078 18.129 8.5586 0.14062 17.293-0.25781 24.598-2.3047 6.1797-1.7344 11.312-4.6875 14.289-9.625-2.0508-0.71094-3.8125-1.8867-4.8516-3.8359-0.85938-1.6133-1.6289-3.7812-2.1562-5.8711-0.55859-2.1953-0.89062-4.4531-0.83984-6.0703 0.023438-0.69531 0.097657-1.3555 0.23438-1.9375 0.22656-0.96094 0.63281-1.8438 1.2539-2.5664 0.9375-1.0938 2.1719-1.7109 3.7461-1.6758h0.054687c0.35547 0.011719 0.6875 0.050781 0.99609 0.12109l6.5586 1.5039c0.11719-1.293 0.21094-2.625 0.28125-3.9961 0.16797-3.2578 0.20703-6.7383 0.10156-10.449-1.0586-0.050781-2.1836-0.09375-3.3828-0.14062-9.7461-0.36328-23.797-0.89062-28.832-6.1367-2.4297-2.5312-4.6484-6.0391-6.2266-9.4844-1.6875-3.6914-2.6992-7.4805-2.543-10.184 0.011719-0.22266 0.039062-0.48828 0.078125-0.79688 0.25-1.9141 1.0078-3.6836 2.4062-5.0078 1.4609-1.3867 3.457-2.1875 6.0703-2.043 0.21875 0.011718 0.48437 0.039062 0.80469 0.078124l26.379 3.3555c-12.758-20.547-55.34-24.477-97.926-28.406-20.309-1.8711-40.617-3.7461-57.957-7.418-8.3242-1.7617-13.672-3.3945-18.613-5.9141-4.9062-2.5039-9.1992-5.7773-15.477-10.859-14.109-11.422-27.285-20.801-40.312-28.355-12.93-7.5-25.684-13.184-39.035-17.262-2.6367-0.80469-5.6445-1.5898-8.0859-1.3672-1.7578 0.16406-3.3203 1.0117-4.2188 3.2188-1.1211 2.7539 2.5703 4.7656 6.1602 6.1758 1.5859 0.625 3.0547 1.1055 4.3242 1.5234 1.0273 0.33594 0.49219 0.14844 1.2617 0.40625 13.012 4.3789 25.504 10.238 38.156 17.77 12.559 7.4766 25.316 16.637 38.941 27.668 4.3672 3.5352 7.6875 6.125 10.875 8.125 0.13672 0.074219 0.26562 0.15234 0.39062 0.24219 0.96484 0.59375 1.9219 1.1328 2.8945 1.6289 4.2773 2.1797 9.1016 3.6367 16.738 5.2539 2.0195 0.42188 3.3125 2.375 2.8828 4.3594-0.42969 1.9883-2.4141 3.2578-4.4336 2.8359-8.3242-1.7617-13.672-3.3945-18.613-5.9141-0.86719-0.44141-1.7148-0.91016-2.5586-1.4062-50.387 4.1875-101.07 4.2773-151.96 1.4531zm340.46 78.379-4.3086-0.98828c0.10937 0.74219 0.28516 1.6016 0.51172 2.4883 0.41406 1.6289 0.95703 3.2148 1.5156 4.2617 0.027344 0.050781 0.32031 0.16797 0.73438 0.30859 0.058594 0.019531 0.12109 0.039063 0.17969 0.058594 0.52344-1.8906 0.98438-3.9336 1.3672-6.1289zm-0.72656-44.352c-0.10938-0.003906-0.21875-0.011718-0.33203-0.027344l-30.16-3.8359c-0.050781-0.007813-0.14453-0.015625-0.27734-0.019531-0.32422-0.019532-0.46875-0.015625-0.48438 0-0.078124 0.074218-0.14062 0.3125-0.18359 0.63281-0.007813 0.042969-0.011719 0.14062-0.019531 0.27734-0.085938 1.5234 0.66406 4.0586 1.8984 6.7578 1.2695 2.7773 3.0039 5.5469 4.8477 7.4688 2.9375 3.0586 15.168 3.5195 23.652 3.8359 0.96484 0.035156 1.8867 0.070312 2.7383 0.10547-0.24219-3.2695-0.58594-6.6875-1.043-10.262h0.007812c-0.011719-0.089844-0.019531-0.17969-0.023438-0.27344-0.082031-1.625-0.30078-3.1719-0.62891-4.6602zm-75.395 38.078c-3.3984-3.3438-8.0977-5.4102-13.285-5.4102s-9.8867 2.0664-13.285 5.4102-5.5039 7.9648-5.5039 13.066c0 5.1016 2.1016 9.7227 5.5039 13.066 3.3984 3.3438 8.0977 5.4102 13.285 5.4102s9.8867-2.0664 13.285-5.4102c3.3984-3.3438 5.5039-7.9648 5.5039-13.066 0-5.1016-2.1016-9.7227-5.5039-13.066zm16.762-16.484c-7.6875-7.5625-18.312-12.242-30.047-12.242s-22.355 4.6797-30.047 12.242c-7.6875 7.5625-12.445 18.012-12.445 29.551 0 11.543 4.7578 21.988 12.445 29.551s18.312 12.242 30.047 12.242 22.355-4.6758 30.047-12.242c7.6875-7.5625 12.445-18.012 12.445-29.551 0-11.543-4.7578-21.988-12.445-29.551z"/>
  <use x="70" y="560.140625" xlink:href="#w"/>
  <use x="70.035156" y="560.140625" xlink:href="#e"/>
  <use x="70.058594" y="560.140625" xlink:href="#b"/>
  <use x="70.089844" y="560.140625" xlink:href="#a"/>
  <use x="70.121094" y="560.140625" xlink:href="#d"/>
  <use x="70.144531" y="560.140625" xlink:href="#b"/>
  <use x="70.175781" y="560.140625" xlink:href="#l"/>
  <use x="70.222656" y="560.140625" xlink:href="#k"/>
  <use x="70.257812" y="560.140625" xlink:href="#j"/>
  <use x="70.304688" y="560.140625" xlink:href="#i"/>
  <use x="70.34375" y="560.140625" xlink:href="#v"/>
  <use x="70.359375" y="560.140625" xlink:href="#b"/>
  <use x="70.390625" y="560.140625" xlink:href="#f"/>
  <use x="70.425781" y="560.140625" xlink:href="#a"/>
  <use x="70.472656" y="560.140625" xlink:href="#h"/>
  <use x="70.507812" y="560.140625" xlink:href="#a"/>
  <use x="70.539062" y="560.140625" xlink:href="#f"/>
  <use x="70.570312" y="560.140625" xlink:href="#a"/>
  <use x="70.601562" y="560.140625" xlink:href="#g"/>
  <use x="70.628906" y="560.140625" xlink:href="#c"/>
  <use x="70.664062" y="560.140625" xlink:href="#u"/>
  <use x="70.691406" y="560.140625" xlink:href="#g"/>
  <use x="70.722656" y="560.140625" xlink:href="#t"/>
  <use x="70.75" y="560.140625" xlink:href="#a"/>
  <use x="70" y="560.1875" xlink:href="#s"/>
  <use x="70.019531" y="560.1875" xlink:href="#e"/>
  <use x="70.042969" y="560.1875" xlink:href="#c"/>
  <use x="70.074219" y="560.1875" xlink:href="#r"/>
  <use x="70.140625" y="560.1875" xlink:href="#d"/>
  <use x="70.164062" y="560.1875" xlink:href="#q"/>
  <use x="70.195312" y="560.1875" xlink:href="#b"/>
  <use x="70.242188" y="560.1875" xlink:href="#p"/>
  <use x="70.28125" y="560.1875" xlink:href="#c"/>
  <use x="70.316406" y="560.1875" xlink:href="#o"/>
  <use x="70.347656" y="560.1875" xlink:href="#f"/>
  <use x="70.398438" y="560.1875" xlink:href="#h"/>
  <use x="70.433594" y="560.1875" xlink:href="#e"/>
  <use x="70.453125" y="560.1875" xlink:href="#c"/>
  <use x="70.488281" y="560.1875" xlink:href="#n"/>
  <use x="70.503906" y="560.1875" xlink:href="#b"/>
  <use x="70.535156" y="560.1875" xlink:href="#m"/>
  <use x="70.5625" y="560.1875" xlink:href="#d"/>
 </g>
</svg>
