<?xml version="1.0" encoding="UTF-8"?>
<svg width="700pt" height="700pt" version="1.1" viewBox="0 0 700 700" xmlns="http://www.w3.org/2000/svg" xmlns:xlink="http://www.w3.org/1999/xlink">
 <defs>
  <symbol id="w" overflow="visible">
   <path d="m0.03125 0h-0.015625-0.015625v-0.015625-0.015625h0.015625 0.015625-0.015625v0.015625 0.015625h0.015625v-0.015625z"/>
  </symbol>
  <symbol id="e" overflow="visible">
   <path d="m0.015625-0.015625v0.015625h-0.015625v-0.03125h0.015625v0.015625-0.015625z"/>
  </symbol>
  <symbol id="b" overflow="visible">
   <path d="m0.03125-0.015625h-0.015625v0.015625c0.0078125 0 0.015625-0.0039062 0.015625-0.015625v0.015625h-0.015625-0.015625v-0.015625l0.015625-0.015625v0.015625h0.015625z"/>
  </symbol>
  <symbol id="a" overflow="visible">
   <path d="m0.015625-0.015625v0.015625-0.015625zm0.015625 0v0.015625h-0.015625-0.015625v-0.015625h0.015625-0.015625v-0.015625h0.015625v0.015625h0.015625z"/>
  </symbol>
  <symbol id="d" overflow="visible">
   <path d="m0.015625-0.03125v0.015625 0.015625h-0.015625v-0.015625-0.015625z"/>
  </symbol>
  <symbol id="l" overflow="visible">
   <path d="m0.015625-0.015625v-0.015625h0.015625v0.03125h-0.015625-0.015625v-0.015625l0.015625-0.015625v0.015625zm0 0.015625v-0.015625 0.015625z"/>
  </symbol>
  <symbol id="k" overflow="visible">
   <path d="m0.015625 0v-0.015625 0.015625zm0-0.015625v-0.015625c0.0078125 0 0.015625 0.0078125 0.015625 0.015625v0.015625h-0.015625-0.015625v-0.03125h0.015625z"/>
  </symbol>
  <symbol id="j" overflow="visible">
   <path d="m0-0.03125h0.015625v0.015625-0.015625h0.015625l-0.015625 0.03125v0.015625h-0.015625v-0.015625h0.015625z"/>
  </symbol>
  <symbol id="i" overflow="visible">
   <path d="m0.015625-0.03125v0.015625 0.015625h0.015625v-0.015625c0-0.0078125-0.0078125-0.015625-0.015625-0.015625zm0 0h0.015625v0.015625 0.015625h-0.015625-0.015625v-0.015625-0.015625h0.015625z"/>
  </symbol>
  <symbol id="v" overflow="visible">
   <path d="m0-0.03125h0.015625v0.03125h-0.015625z"/>
  </symbol>
  <symbol id="f" overflow="visible">
   <path d="m0.03125-0.015625v0.015625h-0.015625v-0.015625 0.015625h-0.015625v-0.03125h0.015625v0.015625-0.015625c0.0078125 0 0.015625 0.0078125 0.015625 0.015625z"/>
  </symbol>
  <symbol id="h" overflow="visible">
   <path d="m0-0.03125h0.015625 0.015625v0.015625h-0.015625v0.015625h-0.015625zm0.015625 0v0.015625-0.015625z"/>
  </symbol>
  <symbol id="g" overflow="visible">
   <path d="m0.03125-0.03125v0.015625h-0.015625c0.0078125 0 0.015625 0.0078125 0.015625 0.015625h-0.015625-0.015625 0.015625v-0.015625h-0.015625l0.015625-0.015625h0.015625z"/>
  </symbol>
  <symbol id="c" overflow="visible">
   <path d="m0.015625-0.015625v0.015625-0.015625zm0-0.015625v0.015625h0.015625c0 0.011719-0.0078125 0.015625-0.015625 0.015625h-0.015625v-0.015625l0.015625-0.015625z"/>
  </symbol>
  <symbol id="u" overflow="visible">
   <path d="m0-0.03125h0.015625v0.015625-0.015625h0.015625l-0.015625 0.03125z"/>
  </symbol>
  <symbol id="t" overflow="visible">
   <path d="m0-0.03125h0.015625v0.015625-0.015625h0.015625l-0.015625 0.015625 0.015625 0.015625h-0.015625v-0.015625 0.015625h-0.015625z"/>
  </symbol>
  <symbol id="s" overflow="visible">
   <path d="m0.015625-0.03125v0.03125h-0.015625v-0.03125h0.015625z"/>
  </symbol>
  <symbol id="r" overflow="visible">
   <path d="m0.03125-0.015625v-0.015625c0.0078125 0 0.015625 0.0078125 0.015625 0.015625v0.015625h-0.015625v-0.015625 0.015625h-0.015625v-0.015625 0.015625h-0.015625v-0.03125h0.015625v0.015625-0.015625 0.015625h0.015625z"/>
  </symbol>
  <symbol id="q" overflow="visible">
   <path d="m0.03125-0.015625v0.015625h-0.015625v-0.015625 0.015625h-0.015625v-0.03125h0.015625v0.015625-0.015625c0.0078125 0 0.015625 0.0078125 0.015625 0.015625z"/>
  </symbol>
  <symbol id="p" overflow="visible">
   <path d="m0-0.03125h0.015625l0.015625 0.015625v-0.015625 0.03125l-0.015625-0.015625v0.015625h-0.015625z"/>
  </symbol>
  <symbol id="o" overflow="visible">
   <path d="m0-0.015625v-0.015625h0.015625v0.015625 0.015625-0.015625-0.015625h0.015625v0.03125h-0.015625-0.015625v-0.015625z"/>
  </symbol>
  <symbol id="n" overflow="visible">
   <path d="m0-0.03125h0.015625v0.03125h-0.015625v0.015625zm0 0h0.015625z"/>
  </symbol>
  <symbol id="m" overflow="visible">
   <path d="m0.03125-0.03125v0.015625h-0.015625v0.015625h0.015625-0.015625-0.015625v-0.015625l0.015625-0.015625h0.015625z"/>
  </symbol>
 </defs>
 <g>
  <path d="m523.77 323.62c7.1055 0 13.539 2.8789 18.195 7.5391 4.6562 4.6562 7.5391 11.09 7.5391 18.195s-2.8789 13.539-7.5391 18.195c-4.6562 4.6562-11.09 7.5391-18.195 7.5391s-13.539-2.8789-18.195-7.5391c-4.6562-4.6562-7.5391-11.09-7.5391-18.195s2.8789-13.539 7.5391-18.195c4.6562-4.6562 11.09-7.5391 18.195-7.5391zm82.09-54.367-27.559-0.10937-0.20703 0.003906c-1.2852 0.023437-2.2695 0.35547-2.8711 0.94531-0.58203 0.57422-0.91016 1.5156-0.91797 2.7891 0.046874 4.0312 0.15625 8.0742 0.23437 12.109 0.015626 0.75 0.3125 1.3984 0.80469 1.8945 0.61719 0.625 1.5547 1.0508 2.6836 1.2148l40.152 5.9062c-1.9141-5.7383-4.9844-12.449-8.7734-19.008-1.125-1.9453-2.3125-3.8711-3.5469-5.7461zm14.285 32.582-43.199-6.3516c-2.7227-0.39844-5.1445-1.5859-6.9102-3.375-1.7891-1.8086-2.8789-4.1992-2.9336-7l-0.23047-11.898c0-0.097656-0.003906-0.21094-0.003906-0.34375v-0.015625c0.011718-3.3711 1.1367-6.1055 3.1328-8.0703 1.9805-1.9453 4.7109-3.0117 7.9766-3.0742 0.10156 0 0.21875-0.003907 0.35156-0.003907l22.105 0.089844c-3.3594-4.1641-6.9258-7.7539-10.516-10.301-2.5781-1.8281-8.2812-3.9844-15.219-6.1797-1.1406-0.35938-2.3047-0.71875-3.4844-1.0742-4.5625-1.0312-9.5859-1.4141-14.559-1.3984-11.906 0.039062-23.5 2.3789-28.266 3.5898-5.168 1.3125-10.215 2.0781-15.125 1.668l-15.535-0.15234c0.082031 0.082031 0.16797 0.16406 0.25 0.24609 4.6016 4.582 7.4922 10.781 7 17.719-0.019531 0.25391-0.015625 0.23047-0.019531 0.29688l-0.003907 0.027343-0.3125 37.539c5.8828-2.4688 12.34-3.8359 19.117-3.8359 13.645 0 26 5.5312 34.945 14.473 8.9297 8.9297 14.457 21.262 14.473 34.883 1.3242-0.17578 2.7383-0.35547 4.207-0.53906 12.039-1.5234 28.008-3.5469 33.645-9.0977 1.9609-1.9336 3.5938-4.1484 4.918-6.5586 1.457-2.6445 2.543-5.4883 3.2969-8.4141 0.79297-3.082 1.1445-6.4336 1.2617-9.8828 0.12109-3.5586-0.007812-7.2539-0.16406-10.875-0.027344-0.65234-0.097656-1.3516-0.20312-2.0938zm-494.21-38.773h105.69c1.2891 0 2.332 1.043 2.332 2.332v6.4219c0 1.2891-1.043 2.332-2.332 2.332h-105.69c-1.2891 0-2.332-1.043-2.332-2.332v-6.4219c0-1.2891 1.043-2.332 2.332-2.332zm103.36 4.668h-101.03v1.7539h101.03zm250.39-27.398c0.35547-0.082032 0.73047-0.11719 1.1172-0.089844 0.27734 0.019531 0.27734 0.019531 0.33594 0.023437 0.28906 0.023438 0.57422 0.054688 0.86328 0.089844l14.629 0.14453c-8.3867-7.3164-16.633-15.645-24.883-23.973-10.488-10.59-20.973-21.18-31.574-29.477h-293.38c-4.0039 0.71875-7.2344 3.7617-9.6836 7.957-2.4883 4.2617-4.1523 9.6328-5.0234 15.105-0.87891 5.5078-0.94141 11.09-0.22656 15.746 0.67969 4.4414 1.9453 7.7734 3.7188 8.8086 1.2539 0.73047 2.7891 1.2812 4.4297 1.6719 1.9766 0.46875 4 0.69141 5.8398 0.71094l210.26 2.0703c0.16016-0.007812 0.32422-0.007812 0.49219 0.003906l0.039063 0.003906 123.05 1.2109zm24.023 72.172c-0.53516 0.62891-1.2773 1.0781-2.1211 1.2383-2.7188 1.6953-5.2266 3.6953-7.4844 5.9492-7.5898 7.5898-12.285 18.078-12.285 29.664s4.6953 22.074 12.285 29.664c7.5898 7.5898 18.078 12.285 29.664 12.285s22.074-4.6953 29.664-12.285c7.5898-7.5898 12.285-18.078 12.285-29.664s-4.6953-22.074-12.285-29.664c-7.5898-7.5898-18.078-12.285-29.664-12.285-7.2656 0-14.102 1.8477-20.059 5.0977zm-6.5312-4.8086 0.34375-41.516c-0.015625-0.19141-0.015625-0.38672 0.003907-0.58594 0.019531-0.23438 0.011718-0.12109 0.019531-0.20703 0.32422-4.5977-1.6602-8.7773-4.8125-11.918-3.082-3.0664-7.2266-5.1406-11.441-5.6875l-107.86-1.0625c0.11719 0.11328 0.23438 0.22656 0.35156 0.34375 4.6016 4.582 7.4922 10.781 7 17.719-0.019532 0.25391-0.015625 0.23047-0.019532 0.29688l-0.003906 0.027344-0.73047 88.191 94.547 0.78125c-0.14844-1.5547-0.22266-3.1328-0.22266-4.7266 0-13.645 5.5312-26 14.473-34.945 2.5273-2.5273 5.3281-4.7852 8.3555-6.7188zm-266.56-62.199c-0.32812-0.023438-0.64062-0.085938-0.9375-0.1875l-83.887-0.82422c-2.4336-0.023437-5.0469-0.30078-7.5039-0.88281-2.2812-0.54297-4.5-1.3555-6.4414-2.4883-3.8906-2.2695-6.3555-7.5547-7.3633-14.145-0.81641-5.3359-0.74609-11.723 0.25781-18.02 1.0078-6.332 2.9688-12.605 5.9258-17.672 3.5547-6.0977 8.5469-10.539 15.082-11.613 0.24219-0.050781 0.49609-0.074219 0.75391-0.074219h283c-6.3906-3.8906-12.832-6.6875-19.352-7.9062-2.5781-0.23828-5.2734-0.46094-8.0781-0.66797-0.14844-0.003906-0.29297-0.011719-0.4375-0.03125-47.355-3.4297-125.39-2.3008-188.46-1.3867-31.016 0.44922-58.426 0.84766-76.875 0.62109-8.9766 0.070313-15.691 2.4336-20.594 6.0234-5.9844 4.3828-9.3438 10.66-10.84 16.812l-11.809 58.137c-0.36328 1.793-0.56641 3.7656-0.66406 5.7695-0.10156 2.082-0.089843 4.1562-0.03125 6.1055l1.625 57.188 51.023-4.2148c0.50391-0.55078 1.0195-1.0938 1.5508-1.6211 8.9414-8.9414 21.297-14.473 34.945-14.473 13.645 0 26 5.5312 34.945 14.473 8.9414 8.9414 14.473 21.297 14.473 34.945 0 0.91016-0.023437 1.8125-0.074219 2.707l16.285 0.13672 0.73047-88.203c-0.015626-0.19141-0.015626-0.38672 0.003906-0.58594 0.019531-0.23438 0.011718-0.12109 0.019531-0.20703 0.32422-4.5977-1.6602-8.7773-4.8125-11.918-3.2656-3.2539-7.7305-5.3867-12.211-5.7695-0.25-0.019532-0.16406-0.015625-0.24609-0.023438zm17.168-0.011719c0.18359 0.17188 0.36328 0.34375 0.53906 0.52344 4.6016 4.582 7.4922 10.781 7 17.719-0.019531 0.25391-0.015624 0.23047-0.019531 0.29688l-0.003906 0.027344-0.73047 88.211 118.02 0.97656 0.73047-88.184c-0.015625-0.19141-0.015625-0.38672 0.003906-0.58594 0.019532-0.23438 0.011719-0.12109 0.019532-0.20703 0.32422-4.5977-1.6602-8.7773-4.8125-11.918-3.2656-3.2539-7.7305-5.3867-12.211-5.7695-0.25-0.019531-0.16406-0.015625-0.24609-0.023437l-0.03125-0.003907-108.26-1.0664zm154.35-81.914c3.1445-0.0625 6.2422 0.20703 9.3047 0.76953 7.9336 0.74609 14.777 1.6523 20.254 2.7539 3.1445 0.63281 6.2969 1.5312 9.457 2.6602 3.2031 1.1406 6.4141 2.5 9.6406 4.0391 16.254 7.7539 29.07 16.938 41.594 25.91 17.914 12.836 35.215 25.23 60.891 31.867 6.6328 1.7148 13.73 3.6133 20.078 5.5156 2.2539 0.53125 4.4258 1.2031 6.4727 2.0391 6.3008 2.1016 11.527 4.2461 14.422 6.2969 7.9766 5.6602 15.648 15.527 21.613 25.844 6.8945 11.922 11.605 24.68 11.934 32.367 0.16016 3.7461 0.29297 7.5781 0.16406 11.402-0.13281 3.9297-0.54688 7.8086-1.4922 11.484-0.91797 3.5703-2.2227 7.0039-3.9648 10.164-1.6602 3.0117-3.7227 5.8086-6.2305 8.2773-7.418 7.3047-24.812 9.5039-37.934 11.168-2.0195 0.25391-3.9297 0.49609-5.7109 0.75-1.625 10.633-6.6406 20.148-13.906 27.414-8.9414 8.9414-21.297 14.473-34.945 14.473-13.645 0-26-5.5312-34.945-14.473-6.1914-6.1914-10.746-14.016-12.961-22.77l-245.98-2.0352c-1.9961 9.5781-6.7656 18.141-13.434 24.805-8.9414 8.9414-21.297 14.473-34.945 14.473-13.645 0-26-5.5312-34.945-14.473-6.7344-6.7344-11.535-15.406-13.496-25.105h-46.391c-7.5977 0-11.859-3.4883-13.711-8.4961-0.90234-2.4336-1.1406-5.1953-0.85938-8.0352 0.26172-2.6602 0.99219-5.4102 2.0625-8.0078 2.5586-6.2266 7.2305-11.719 12.406-13.492l-1.6484-57.891c-0.066407-2.1484-0.078125-4.418 0.03125-6.6602 0.11328-2.3203 0.35547-4.6523 0.80859-6.8789l11.867-58.426c1.8672-7.6719 6.0977-15.523 13.672-21.07 6.0742-4.4492 14.246-7.375 24.996-7.4531h0.058593c18.355 0.22266 45.738-0.17188 76.73-0.62109 63.102-0.91406 141.11-2.043 189.05 1.418zm36.887 13.336c12.98 9.0898 25.496 21.727 38.008 34.367 8.6484 8.7344 17.301 17.469 26.012 24.918 3.2656 2.793 6.8203 4.1094 10.59 4.4688 3.9883 0.37891 8.3516-0.29687 12.93-1.4648 3.1484-0.80078 9.1328-2.0664 16.297-2.9141-22.422-7.3047-38.371-18.73-54.824-30.516-12.258-8.7812-24.805-17.77-40.457-25.238-2.9297-1.3984-5.7891-2.6172-8.5586-3.6211zm-299.95 147.11-48.602 4.0156-0.30469-0.019531c-3.2773-0.19531-6.9766 4.2734-9.1133 9.4688-0.80078 1.9492-1.3438 3.9805-1.5352 5.9102-0.17188 1.75-0.050781 3.3867 0.45312 4.7422 0.78516 2.1211 2.8438 3.5977 6.7109 3.5977h45.465c-0.039062-0.78516-0.058593-1.5742-0.058593-2.3711 0-9.2656 2.5508-17.934 6.9844-25.344zm42.434-0.39062c7.1055 0 13.539 2.8789 18.195 7.5391 4.6562 4.6562 7.5391 11.09 7.5391 18.195s-2.8789 13.539-7.5391 18.195c-4.6562 4.6562-11.09 7.5391-18.195 7.5391-7.1055 0-13.539-2.8789-18.195-7.5391-4.6562-4.6562-7.5391-11.09-7.5391-18.195s2.8789-13.539 7.5391-18.195c4.6562-4.6562 11.09-7.5391 18.195-7.5391zm12.918 12.816c-3.3047-3.3047-7.8711-5.3516-12.918-5.3516-5.043 0-9.6094 2.043-12.918 5.3516-3.3047 3.3047-5.3516 7.8711-5.3516 12.918 0 5.043 2.043 9.6094 5.3516 12.918 3.3047 3.3047 7.8711 5.3516 12.918 5.3516 5.043 0 9.6094-2.043 12.918-5.3477 3.3047-3.3047 5.3516-7.8711 5.3516-12.918 0-5.043-2.043-9.6094-5.3516-12.918zm16.75-16.75c-7.5898-7.5898-18.078-12.285-29.664-12.285-11.586 0-22.074 4.6953-29.664 12.285s-12.285 18.078-12.285 29.664c0 11.586 4.6953 22.074 12.285 29.664 7.5898 7.5898 18.078 12.285 29.664 12.285 11.586 0 22.074-4.6953 29.664-12.285 7.5898-7.5898 12.285-18.078 12.285-29.664 0-11.586-4.6953-22.074-12.285-29.664zm325.52 16.75c-3.3047-3.3047-7.8711-5.3516-12.918-5.3516-5.043 0-9.6094 2.043-12.918 5.3516-3.3047 3.3047-5.3516 7.8711-5.3516 12.918 0 5.043 2.043 9.6094 5.3516 12.918 3.3047 3.3047 7.8711 5.3516 12.918 5.3516 5.043 0 9.6094-2.043 12.918-5.3477 3.3047-3.3047 5.3516-7.8711 5.3516-12.918 0-5.043-2.043-9.6094-5.3516-12.918z"/>
  <use x="70" y="560.140625" xlink:href="#w"/>
  <use x="70.035156" y="560.140625" xlink:href="#e"/>
  <use x="70.058594" y="560.140625" xlink:href="#b"/>
  <use x="70.089844" y="560.140625" xlink:href="#a"/>
  <use x="70.121094" y="560.140625" xlink:href="#d"/>
  <use x="70.144531" y="560.140625" xlink:href="#b"/>
  <use x="70.175781" y="560.140625" xlink:href="#l"/>
  <use x="70.222656" y="560.140625" xlink:href="#k"/>
  <use x="70.257812" y="560.140625" xlink:href="#j"/>
  <use x="70.304688" y="560.140625" xlink:href="#i"/>
  <use x="70.34375" y="560.140625" xlink:href="#v"/>
  <use x="70.359375" y="560.140625" xlink:href="#b"/>
  <use x="70.390625" y="560.140625" xlink:href="#f"/>
  <use x="70.425781" y="560.140625" xlink:href="#a"/>
  <use x="70.472656" y="560.140625" xlink:href="#h"/>
  <use x="70.507812" y="560.140625" xlink:href="#a"/>
  <use x="70.539062" y="560.140625" xlink:href="#f"/>
  <use x="70.570312" y="560.140625" xlink:href="#a"/>
  <use x="70.601562" y="560.140625" xlink:href="#g"/>
  <use x="70.628906" y="560.140625" xlink:href="#c"/>
  <use x="70.664062" y="560.140625" xlink:href="#u"/>
  <use x="70.691406" y="560.140625" xlink:href="#g"/>
  <use x="70.722656" y="560.140625" xlink:href="#t"/>
  <use x="70.75" y="560.140625" xlink:href="#a"/>
  <use x="70" y="560.1875" xlink:href="#s"/>
  <use x="70.019531" y="560.1875" xlink:href="#e"/>
  <use x="70.042969" y="560.1875" xlink:href="#c"/>
  <use x="70.074219" y="560.1875" xlink:href="#r"/>
  <use x="70.140625" y="560.1875" xlink:href="#d"/>
  <use x="70.164062" y="560.1875" xlink:href="#q"/>
  <use x="70.195312" y="560.1875" xlink:href="#b"/>
  <use x="70.242188" y="560.1875" xlink:href="#p"/>
  <use x="70.28125" y="560.1875" xlink:href="#c"/>
  <use x="70.316406" y="560.1875" xlink:href="#o"/>
  <use x="70.347656" y="560.1875" xlink:href="#f"/>
  <use x="70.398438" y="560.1875" xlink:href="#h"/>
  <use x="70.433594" y="560.1875" xlink:href="#e"/>
  <use x="70.453125" y="560.1875" xlink:href="#c"/>
  <use x="70.488281" y="560.1875" xlink:href="#n"/>
  <use x="70.503906" y="560.1875" xlink:href="#b"/>
  <use x="70.535156" y="560.1875" xlink:href="#m"/>
  <use x="70.5625" y="560.1875" xlink:href="#d"/>
 </g>
</svg>
