<?xml version="1.0" encoding="UTF-8"?>
<svg width="700pt" height="700pt" version="1.1" viewBox="0 0 700 700" xmlns="http://www.w3.org/2000/svg" xmlns:xlink="http://www.w3.org/1999/xlink">
 <defs>
  <symbol id="w" overflow="visible">
   <path d="m0.03125 0h-0.015625-0.015625v-0.015625-0.015625h0.015625 0.015625-0.015625v0.015625 0.015625h0.015625v-0.015625z"/>
  </symbol>
  <symbol id="e" overflow="visible">
   <path d="m0.015625-0.015625v0.015625h-0.015625v-0.03125h0.015625v0.015625-0.015625z"/>
  </symbol>
  <symbol id="b" overflow="visible">
   <path d="m0.03125-0.015625h-0.015625v0.015625c0.0078125 0 0.015625-0.0039062 0.015625-0.015625v0.015625h-0.015625-0.015625v-0.015625l0.015625-0.015625v0.015625h0.015625z"/>
  </symbol>
  <symbol id="a" overflow="visible">
   <path d="m0.015625-0.015625v0.015625-0.015625zm0.015625 0v0.015625h-0.015625-0.015625v-0.015625h0.015625-0.015625v-0.015625h0.015625v0.015625h0.015625z"/>
  </symbol>
  <symbol id="d" overflow="visible">
   <path d="m0.015625-0.03125v0.015625 0.015625h-0.015625v-0.015625-0.015625z"/>
  </symbol>
  <symbol id="l" overflow="visible">
   <path d="m0.015625-0.015625v-0.015625h0.015625v0.03125h-0.015625-0.015625v-0.015625l0.015625-0.015625v0.015625zm0 0.015625v-0.015625 0.015625z"/>
  </symbol>
  <symbol id="k" overflow="visible">
   <path d="m0.015625 0v-0.015625 0.015625zm0-0.015625v-0.015625c0.0078125 0 0.015625 0.0078125 0.015625 0.015625v0.015625h-0.015625-0.015625v-0.03125h0.015625z"/>
  </symbol>
  <symbol id="j" overflow="visible">
   <path d="m0-0.03125h0.015625v0.015625-0.015625h0.015625l-0.015625 0.03125v0.015625h-0.015625v-0.015625h0.015625z"/>
  </symbol>
  <symbol id="i" overflow="visible">
   <path d="m0.015625-0.03125v0.015625 0.015625h0.015625v-0.015625c0-0.0078125-0.0078125-0.015625-0.015625-0.015625zm0 0h0.015625v0.015625 0.015625h-0.015625-0.015625v-0.015625-0.015625h0.015625z"/>
  </symbol>
  <symbol id="v" overflow="visible">
   <path d="m0-0.03125h0.015625v0.03125h-0.015625z"/>
  </symbol>
  <symbol id="f" overflow="visible">
   <path d="m0.03125-0.015625v0.015625h-0.015625v-0.015625 0.015625h-0.015625v-0.03125h0.015625v0.015625-0.015625c0.0078125 0 0.015625 0.0078125 0.015625 0.015625z"/>
  </symbol>
  <symbol id="h" overflow="visible">
   <path d="m0-0.03125h0.015625 0.015625v0.015625h-0.015625v0.015625h-0.015625zm0.015625 0v0.015625-0.015625z"/>
  </symbol>
  <symbol id="g" overflow="visible">
   <path d="m0.03125-0.03125v0.015625h-0.015625c0.0078125 0 0.015625 0.0078125 0.015625 0.015625h-0.015625-0.015625 0.015625v-0.015625h-0.015625l0.015625-0.015625h0.015625z"/>
  </symbol>
  <symbol id="c" overflow="visible">
   <path d="m0.015625-0.015625v0.015625-0.015625zm0-0.015625v0.015625h0.015625c0 0.011719-0.0078125 0.015625-0.015625 0.015625h-0.015625v-0.015625l0.015625-0.015625z"/>
  </symbol>
  <symbol id="u" overflow="visible">
   <path d="m0-0.03125h0.015625v0.015625-0.015625h0.015625l-0.015625 0.03125z"/>
  </symbol>
  <symbol id="t" overflow="visible">
   <path d="m0-0.03125h0.015625v0.015625-0.015625h0.015625l-0.015625 0.015625 0.015625 0.015625h-0.015625v-0.015625 0.015625h-0.015625z"/>
  </symbol>
  <symbol id="s" overflow="visible">
   <path d="m0.015625-0.03125v0.03125h-0.015625v-0.03125h0.015625z"/>
  </symbol>
  <symbol id="r" overflow="visible">
   <path d="m0.03125-0.015625v-0.015625c0.0078125 0 0.015625 0.0078125 0.015625 0.015625v0.015625h-0.015625v-0.015625 0.015625h-0.015625v-0.015625 0.015625h-0.015625v-0.03125h0.015625v0.015625-0.015625 0.015625h0.015625z"/>
  </symbol>
  <symbol id="q" overflow="visible">
   <path d="m0.03125-0.015625v0.015625h-0.015625v-0.015625 0.015625h-0.015625v-0.03125h0.015625v0.015625-0.015625c0.0078125 0 0.015625 0.0078125 0.015625 0.015625z"/>
  </symbol>
  <symbol id="p" overflow="visible">
   <path d="m0-0.03125h0.015625l0.015625 0.015625v-0.015625 0.03125l-0.015625-0.015625v0.015625h-0.015625z"/>
  </symbol>
  <symbol id="o" overflow="visible">
   <path d="m0-0.015625v-0.015625h0.015625v0.015625 0.015625-0.015625-0.015625h0.015625v0.03125h-0.015625-0.015625v-0.015625z"/>
  </symbol>
  <symbol id="n" overflow="visible">
   <path d="m0-0.03125h0.015625v0.03125h-0.015625v0.015625zm0 0h0.015625z"/>
  </symbol>
  <symbol id="m" overflow="visible">
   <path d="m0.03125-0.03125v0.015625h-0.015625v0.015625h0.015625-0.015625-0.015625v-0.015625l0.015625-0.015625h0.015625z"/>
  </symbol>
 </defs>
 <g>
  <path d="m165.36 337.98c7.5469 0 14.383 3.0586 19.332 8.0078 4.9453 4.9453 8.0078 11.781 8.0078 19.332 0 7.5469-3.0586 14.383-8.0078 19.332-4.9492 4.9492-11.781 8.0078-19.332 8.0078-7.5469 0-14.383-3.0586-19.332-8.0078-4.9492-4.9453-8.0078-11.781-8.0078-19.332 0-7.5469 3.0586-14.383 8.0078-19.332 4.9453-4.9453 11.781-8.0078 19.332-8.0078zm-64.152-110.54 23.055-0.33203c2.4375-0.035156 4.4883 0.29688 6.1797 0.94141 2.125 0.8125 3.7188 2.1055 4.8125 3.793 1.0547 1.6289 1.5781 3.543 1.6094 5.6836 0.03125 2.2617-0.49219 4.7695-1.5078 7.4297-2.2773 5.9453-8.8438 13.48-14.449 19.918-1.6328 1.875-3.1836 3.6562-4.3945 5.1172-5.3711 6.4883-14.273 6.457-22.336 6.4297-0.75-0.003906-1.4961-0.003906-2.2266 0 0.20703 4.4141 0.19141 8.8047-0.43359 13.125l-0.17188 1.1875-0.83203 0.86719c-2.4297 2.5312-4.3594 4.2852-5.9141 5.6953-3.8984 3.543-4.6289 4.207-3.3281 12.477 0.67578 4.3008 0.66406 4.207 0.67188 4.2734 2.9492 19.258 7.2539 47.391 19.57 49.102 1.8008 0.25 3.8711 0.39453 6.3047 0.42969 1.4492 0.019532 3.0547 0.003907 4.832-0.054687 0.46484-13.848 6.2695-26.344 15.418-35.496 9.5469-9.5469 22.734-15.449 37.301-15.449 6.9062 0 13.504 1.3281 19.547 3.7422-0.89062-2.0352-1.9023-4.2891-2.9844-6.7031-10.477-23.34-27.16-60.523-11.168-72.34 3.3125-2.4453 6.375-4.4023 9.4219-5.7266-2.3398-1.5781-4.418-3.332-6.1602-5.2812-5.3047-5.9375-4.3984-16.863-0.9375-28.742 0.83203-2.8516 1.8008-5.7617 2.8594-8.668l-53.629-3.9062c-4.625 5.7734-8.7539 12.395-12.422 19.977-3.2461 6.7148-6.1367 14.195-8.6875 22.516zm-9.7617 41.543c0.88672-0.007812 1.7969-0.003906 2.7227 0 6.3945 0.023438 13.449 0.046876 16.59-3.7461 1.4102-1.7031 2.918-3.4375 4.5117-5.2617 5.2109-5.9805 11.312-12.984 13.109-17.672 0.69922-1.8281 1.0625-3.4141 1.043-4.6875-0.011719-0.72266-0.14453-1.3047-0.41406-1.7188-0.23047-0.35156-0.63281-0.64844-1.2266-0.875-0.85938-0.32812-2-0.49609-3.4375-0.47656l-26.516 0.38281c-8.2891 9.2148-7.3516 21.496-6.4102 33.781l0.019532 0.27344zm535.46 50.609c0.003906 0.070312 0.007812 0.14062 0.011718 0.21094 0 0.078125 0 0.15625-0.003906 0.23047 0.019531 1.2852 0.023438 2.6562 0.011719 4.0898-0.042969 5.6797-0.26562 12.328-0.49219 18.016-0.3125 7.8398-3.7891 16.5-9.1172 23.75-5.1602 7.0234-12.117 12.832-19.703 15.434-2.1445 0.73438-4.5234 1.25-7.1992 1.4766-1.9727 0.16797-4.1172 0.18359-6.4609 0.011719-2.6445 7.5312-6.9531 14.281-12.48 19.809-9.5469 9.5469-22.734 15.449-37.301 15.449-14.566 0-27.754-5.9062-37.301-15.449-5.9609-5.9609-10.5-13.336-13.07-21.586l-267.05-3.7734c-2.2617 9.7695-7.2383 18.504-14.094 25.359-9.5469 9.5469-22.734 15.449-37.301 15.449-14.566 0-27.754-5.9062-37.301-15.449-8.2969-8.2969-13.844-19.348-15.152-31.664-1.8633 0.058593-3.5859 0.074219-5.1875 0.050781-2.8203-0.039062-5.1953-0.20312-7.2383-0.48828-17.832-2.4805-22.637-33.879-25.93-55.371-0.46094-3.0117-0.39453-2.668-0.64453-4.2422-1.9219-12.234-0.72656-13.32 5.6641-19.125 1.3047-1.1875 2.8828-2.6211 4.7109-4.4688 0.65625-5.6914 0.17969-11.871-0.29297-18.047-1.0859-14.164-2.168-28.328 8.8945-39.949 2.9375-10.312 6.3633-19.48 10.305-27.629 3.1016-6.418 6.5156-12.195 10.254-17.387l-1.3281-0.097657v-0.003906c-5.3828-0.30469-8.918-3.332-10.43-7.1133-0.61328-1.5352-0.88281-3.1914-0.78906-4.832 0.089843-1.6367 0.53906-3.2773 1.3594-4.7812 2.0352-3.7383 6.2578-6.5781 12.75-6.3203 6.1953 0.24609 13.488 0.42578 21.648 0.58203l-0.023437-0.03125c1.7109-1.1523 3.5039-2.2656 5.375-3.3438 1.8867-1.0898 3.7578-2.0898 5.6133-3.0039 24.59-12.121 79.477-15.785 133.88-11.965 51.68 3.6289 103.23 14.016 128.32 30.336 14.695 9.5586 27.043 20.363 39.395 31.172 7.4688 6.5352 14.938 13.07 22.852 19.258 18.883 14.762 29.746 15.242 50.543 16.16 3.1719 0.14062 6.5625 0.28906 9.9492 0.48047 13.254 0.74219 26.457 1.6484 38.969 4.9492 12.773 3.3711 24.699 9.2031 34.98 19.789 8.2109 8.4492 9.918 19.801 11.574 30.824l0.19141 1.2656c0.070313 0.45312 0.24219 1.6875 0.39062 2.7344 0.25781 1.8281 0.375 2.668 0.48828 2.8789 0.027344 0.046875 0.37891 0.35547 1.0312 0.92188 0.74219 0.64453 1.7227 1.4961 3.0078 2.7422 0.625 0.60547 1.1914 1.2656 1.6836 2.0156 0.49219 0.75 0.91797 1.6016 1.2695 2.5859 0.46875 1.3203 0.69531 4.2891 0.76562 8.1055zm-7.418 4.0781-11.969 0.23828c-3.1016 0.0625-5.8828-0.039063-8.5-0.80859-2.9062-0.85547-5.4336-2.4414-7.6328-5.3125l-21.805-28.434c-0.14062-0.1875-0.26562-0.38281-0.36719-0.58203-1.3984-2.4492-2.125-4.8359-2.1875-7.0156-0.050781-1.7188 0.30469-3.3125 1.0625-4.7305 0.77344-1.4453 1.9258-2.6445 3.4531-3.5391 1.75-1.0234 3.9844-1.6328 6.6758-1.707l23.32-0.67188c-0.12109-0.13281-0.24219-0.26172-0.36719-0.39062-9.207-9.4766-19.969-14.723-31.539-17.777-11.832-3.125-24.625-3.9961-37.48-4.7148-3.707-0.20703-6.8867-0.34766-9.8594-0.48047-22.355-0.98438-34.039-1.5-54.801-17.734-8.1094-6.3398-15.641-12.93-23.172-19.52-12.148-10.629-24.293-21.258-38.551-30.527-23.977-15.594-74.168-25.586-124.76-29.141-53.199-3.7344-106.5-0.33984-129.97 11.152 3.543 0.054688 7.2031 0.10547 10.961 0.16016 75.688 1.0938 191.32 2.7617 228.62 23.227 12.16 6.6719 24.09 15.738 35.223 25.812 13.402 12.129 25.613 25.688 35.652 38.262 8.2539 10.336 7.8789 19.809 7.4219 31.48-0.097656 2.4609-0.19922 5.0273-0.21484 7.5625v0.13672l-2.3008 84.328c-0.003906 0.14062-0.015625 0.27734-0.03125 0.41016l15.695 0.22266c-0.42188-2.6875-0.64453-5.4453-0.64453-8.2539 0-14.566 5.9062-27.754 15.449-37.301 9.5469-9.5469 22.734-15.449 37.301-15.449 14.566 0 27.754 5.9062 37.301 15.449 9.5469 9.5469 15.449 22.734 15.449 37.301 0 3.4648-0.33594 6.8516-0.97266 10.129 1.3672 0.046876 2.6484 0.015626 3.8516-0.089843 2.0234-0.17578 3.8047-0.55469 5.3906-1.0977 6.1016-2.0938 11.801-6.9102 16.117-12.781 4.5039-6.1289 7.4375-13.297 7.6914-19.641 0.22656-5.7188 0.44922-12.336 0.49219-17.75l0.003906-0.42578zm-13.289-45.254-27.773 0.80078c-1.3906 0.039062-2.4297 0.28125-3.1172 0.6875-0.3125 0.18359-0.53125 0.39453-0.65234 0.62109-0.13672 0.25781-0.19922 0.60547-0.1875 1.0273 0.027343 0.94922 0.41016 2.1133 1.1562 3.4375l21.688 28.277c1.125 1.4648 2.3828 2.2656 3.8125 2.6875 1.7188 0.50391 3.8281 0.56641 6.2539 0.51953l12.012-0.24219c-0.0625-1.125-0.14844-1.9141-0.27344-2.2656-0.13281-0.375-0.29688-0.69922-0.48047-0.98438-0.1875-0.28516-0.39062-0.52344-0.60156-0.73047-1.1953-1.1523-2.0625-1.9062-2.7188-2.4766-1.3477-1.1719-2.0781-1.8047-2.75-3.0781-0.71484-1.3477-0.89062-2.6016-1.2734-5.3281-0.066406-0.45703-0.14062-0.99219-0.39062-2.6445l-0.19141-1.2656c-0.99219-6.5859-2-13.305-4.5039-19.039zm-287.73 92.848v-0.054687l2.3008-84.344c0.019531-2.8281 0.11719-5.3672 0.21484-7.8008 0.39844-10.133 0.72266-18.359-5.8164-26.551-0.31641-0.40234-0.53906-0.84766-0.67188-1.3086l-68.355-4.6328c-12.629-0.85156-34.074-2.2969-51.281-8.0859-0.26172-0.050781-0.52344-0.125-0.77734-0.23438-0.17969-0.078125-0.35938-0.14844-0.53906-0.21875-0.22266-0.078125-0.44141-0.16016-0.66016-0.23828-2.6602-0.89453-5.0938-0.90625-7.5312-0.21484-3.1133 0.88281-6.3984 2.8867-10.164 5.6719-11.184 8.2578 4 42.09 13.527 63.324 2.8477 6.3438 5.2266 11.645 6.3867 15.176 2.7109 1.8555 5.2422 3.9531 7.5547 6.2695 9.5469 9.5469 15.449 22.734 15.449 37.301 0 1.5234-0.066406 3.0312-0.19141 4.5195l100.55 1.4219zm5.3086-119.43c5.3789 8.8555 5.043 17.355 4.6445 27.52-0.097656 2.4609-0.19922 5.0273-0.21484 7.5625v0.13672l-2.3008 84.312 133.07 1.8789c-0.015625-0.16016-0.023437-0.32031-0.019531-0.48438l2.3008-84.344c0.019532-2.8281 0.11719-5.3672 0.21484-7.8008 0.28516-7.2734 0.53125-13.566-1.7695-19.57l-135.93-9.2148zm-126.78-20.438c0.085938 0.035156 0.16797 0.074219 0.25 0.11719 16.09 5.375 37.129 6.793 49.391 7.6211l208.38 14.129c-9.7305-12.113-21.426-25.055-34.16-36.578-10.699-9.6836-22.156-18.391-33.824-24.789-31.184-17.109-122.46-20.535-194.99-21.848-4.1094 8.6953-8.9258 19.656-11.805 29.547-2.8086 9.6328-3.8906 18.105-0.66797 21.711 3.3711 3.7734 8.4375 6.7148 14.395 9.0234 0.99609 0.27344 2.0078 0.62891 3.043 1.0664zm-18.238-49.816c1.668-4.0742 3.418-8.0312 5.1016-11.68-7.6016-0.125-14.953-0.23047-21.961-0.33203-18.867-0.27344-35.25-0.50781-47.195-0.98047-3.2031-0.125-5.125 0.97656-5.9219 2.4414-0.27344 0.50391-0.42578 1.0625-0.45703 1.6328-0.03125 0.56641 0.058594 1.1328 0.26562 1.6523 0.51953 1.2969 1.8516 2.3398 3.9688 2.4531l0.074219 0.003906v-0.003906l66.121 4.8164zm0.64844 169.69c-3.5977-3.5977-8.5625-5.8203-14.051-5.8203-5.4883 0-10.457 2.2227-14.051 5.8203-3.5977 3.5977-5.8203 8.5625-5.8203 14.051s2.2227 10.457 5.8203 14.051c3.5977 3.5977 8.5625 5.8203 14.051 5.8203 5.4883 0 10.457-2.2227 14.051-5.8203 3.5977-3.5977 5.8203-8.5625 5.8203-14.051s-2.2227-10.457-5.8203-14.051zm17.969-17.969c-8.1953-8.1953-19.516-13.262-32.023-13.262-12.504 0-23.828 5.0703-32.023 13.262-8.1953 8.1953-13.262 19.516-13.262 32.023 0 12.504 5.0703 23.828 13.262 32.023 8.1953 8.1953 19.516 13.262 32.023 13.262 12.504 0 23.828-5.0703 32.023-13.262 8.1953-8.1953 13.262-19.516 13.262-32.023 0-12.504-5.0703-23.828-13.262-32.023zm336.79 4.6836c7.5469 0 14.383 3.0586 19.332 8.0078 4.9453 4.9453 8.0078 11.781 8.0078 19.332 0 7.5469-3.0586 14.383-8.0078 19.332-4.9492 4.9492-11.781 8.0078-19.332 8.0078-7.5469 0-14.383-3.0586-19.332-8.0078-4.9492-4.9453-8.0078-11.781-8.0078-19.332 0-7.5469 3.0586-14.383 8.0078-19.332 4.9453-4.9453 11.781-8.0078 19.332-8.0078zm14.051 13.285c-3.5977-3.5977-8.5625-5.8203-14.051-5.8203s-10.457 2.2227-14.051 5.8203c-3.5977 3.5977-5.8203 8.5625-5.8203 14.051s2.2227 10.457 5.8203 14.051c3.5977 3.5977 8.5625 5.8203 14.051 5.8203s10.457-2.2227 14.051-5.8203c3.5977-3.5977 5.8203-8.5625 5.8203-14.051s-2.2227-10.457-5.8203-14.051zm17.969-17.969c-8.1953-8.1953-19.516-13.262-32.023-13.262-12.504 0-23.828 5.0703-32.023 13.262-8.1953 8.1953-13.262 19.516-13.262 32.023 0 12.504 5.0703 23.828 13.262 32.023 8.1953 8.1953 19.516 13.262 32.023 13.262 12.504 0 23.828-5.0703 32.023-13.262 8.1953-8.1953 13.262-19.516 13.262-32.023 0-12.504-5.0703-23.828-13.262-32.023z"/>
  <use x="70" y="560.140625" xlink:href="#w"/>
  <use x="70.035156" y="560.140625" xlink:href="#e"/>
  <use x="70.058594" y="560.140625" xlink:href="#b"/>
  <use x="70.089844" y="560.140625" xlink:href="#a"/>
  <use x="70.121094" y="560.140625" xlink:href="#d"/>
  <use x="70.144531" y="560.140625" xlink:href="#b"/>
  <use x="70.175781" y="560.140625" xlink:href="#l"/>
  <use x="70.222656" y="560.140625" xlink:href="#k"/>
  <use x="70.257812" y="560.140625" xlink:href="#j"/>
  <use x="70.304688" y="560.140625" xlink:href="#i"/>
  <use x="70.34375" y="560.140625" xlink:href="#v"/>
  <use x="70.359375" y="560.140625" xlink:href="#b"/>
  <use x="70.390625" y="560.140625" xlink:href="#f"/>
  <use x="70.425781" y="560.140625" xlink:href="#a"/>
  <use x="70.472656" y="560.140625" xlink:href="#h"/>
  <use x="70.507812" y="560.140625" xlink:href="#a"/>
  <use x="70.539062" y="560.140625" xlink:href="#f"/>
  <use x="70.570312" y="560.140625" xlink:href="#a"/>
  <use x="70.601562" y="560.140625" xlink:href="#g"/>
  <use x="70.628906" y="560.140625" xlink:href="#c"/>
  <use x="70.664062" y="560.140625" xlink:href="#u"/>
  <use x="70.691406" y="560.140625" xlink:href="#g"/>
  <use x="70.722656" y="560.140625" xlink:href="#t"/>
  <use x="70.75" y="560.140625" xlink:href="#a"/>
  <use x="70" y="560.1875" xlink:href="#s"/>
  <use x="70.019531" y="560.1875" xlink:href="#e"/>
  <use x="70.042969" y="560.1875" xlink:href="#c"/>
  <use x="70.074219" y="560.1875" xlink:href="#r"/>
  <use x="70.140625" y="560.1875" xlink:href="#d"/>
  <use x="70.164062" y="560.1875" xlink:href="#q"/>
  <use x="70.195312" y="560.1875" xlink:href="#b"/>
  <use x="70.242188" y="560.1875" xlink:href="#p"/>
  <use x="70.28125" y="560.1875" xlink:href="#c"/>
  <use x="70.316406" y="560.1875" xlink:href="#o"/>
  <use x="70.347656" y="560.1875" xlink:href="#f"/>
  <use x="70.398438" y="560.1875" xlink:href="#h"/>
  <use x="70.433594" y="560.1875" xlink:href="#e"/>
  <use x="70.453125" y="560.1875" xlink:href="#c"/>
  <use x="70.488281" y="560.1875" xlink:href="#n"/>
  <use x="70.503906" y="560.1875" xlink:href="#b"/>
  <use x="70.535156" y="560.1875" xlink:href="#m"/>
  <use x="70.5625" y="560.1875" xlink:href="#d"/>
 </g>
</svg>
