<?xml version="1.0" encoding="UTF-8"?>
<svg width="700pt" height="700pt" version="1.1" viewBox="0 0 700 700" xmlns="http://www.w3.org/2000/svg" xmlns:xlink="http://www.w3.org/1999/xlink">
 <defs>
  <symbol id="w" overflow="visible">
   <path d="m0.03125 0h-0.015625-0.015625v-0.015625-0.015625h0.015625 0.015625-0.015625v0.015625 0.015625h0.015625v-0.015625z"/>
  </symbol>
  <symbol id="e" overflow="visible">
   <path d="m0.015625-0.015625v0.015625h-0.015625v-0.03125h0.015625v0.015625-0.015625z"/>
  </symbol>
  <symbol id="b" overflow="visible">
   <path d="m0.03125-0.015625h-0.015625v0.015625c0.0078125 0 0.015625-0.0039062 0.015625-0.015625v0.015625h-0.015625-0.015625v-0.015625l0.015625-0.015625v0.015625h0.015625z"/>
  </symbol>
  <symbol id="a" overflow="visible">
   <path d="m0.015625-0.015625v0.015625-0.015625zm0.015625 0v0.015625h-0.015625-0.015625v-0.015625h0.015625-0.015625v-0.015625h0.015625v0.015625h0.015625z"/>
  </symbol>
  <symbol id="d" overflow="visible">
   <path d="m0.015625-0.03125v0.015625 0.015625h-0.015625v-0.015625-0.015625z"/>
  </symbol>
  <symbol id="l" overflow="visible">
   <path d="m0.015625-0.015625v-0.015625h0.015625v0.03125h-0.015625-0.015625v-0.015625l0.015625-0.015625v0.015625zm0 0.015625v-0.015625 0.015625z"/>
  </symbol>
  <symbol id="k" overflow="visible">
   <path d="m0.015625 0v-0.015625 0.015625zm0-0.015625v-0.015625c0.0078125 0 0.015625 0.0078125 0.015625 0.015625v0.015625h-0.015625-0.015625v-0.03125h0.015625z"/>
  </symbol>
  <symbol id="j" overflow="visible">
   <path d="m0-0.03125h0.015625v0.015625-0.015625h0.015625l-0.015625 0.03125v0.015625h-0.015625v-0.015625h0.015625z"/>
  </symbol>
  <symbol id="i" overflow="visible">
   <path d="m0.015625-0.03125v0.015625 0.015625h0.015625v-0.015625c0-0.0078125-0.0078125-0.015625-0.015625-0.015625zm0 0h0.015625v0.015625 0.015625h-0.015625-0.015625v-0.015625-0.015625h0.015625z"/>
  </symbol>
  <symbol id="v" overflow="visible">
   <path d="m0-0.03125h0.015625v0.03125h-0.015625z"/>
  </symbol>
  <symbol id="f" overflow="visible">
   <path d="m0.03125-0.015625v0.015625h-0.015625v-0.015625 0.015625h-0.015625v-0.03125h0.015625v0.015625-0.015625c0.0078125 0 0.015625 0.0078125 0.015625 0.015625z"/>
  </symbol>
  <symbol id="h" overflow="visible">
   <path d="m0-0.03125h0.015625 0.015625v0.015625h-0.015625v0.015625h-0.015625zm0.015625 0v0.015625-0.015625z"/>
  </symbol>
  <symbol id="g" overflow="visible">
   <path d="m0.03125-0.03125v0.015625h-0.015625c0.0078125 0 0.015625 0.0078125 0.015625 0.015625h-0.015625-0.015625 0.015625v-0.015625h-0.015625l0.015625-0.015625h0.015625z"/>
  </symbol>
  <symbol id="c" overflow="visible">
   <path d="m0.015625-0.015625v0.015625-0.015625zm0-0.015625v0.015625h0.015625c0 0.011719-0.0078125 0.015625-0.015625 0.015625h-0.015625v-0.015625l0.015625-0.015625z"/>
  </symbol>
  <symbol id="u" overflow="visible">
   <path d="m0-0.03125h0.015625v0.015625-0.015625h0.015625l-0.015625 0.03125z"/>
  </symbol>
  <symbol id="t" overflow="visible">
   <path d="m0-0.03125h0.015625v0.015625-0.015625h0.015625l-0.015625 0.015625 0.015625 0.015625h-0.015625v-0.015625 0.015625h-0.015625z"/>
  </symbol>
  <symbol id="s" overflow="visible">
   <path d="m0.015625-0.03125v0.03125h-0.015625v-0.03125h0.015625z"/>
  </symbol>
  <symbol id="r" overflow="visible">
   <path d="m0.03125-0.015625v-0.015625c0.0078125 0 0.015625 0.0078125 0.015625 0.015625v0.015625h-0.015625v-0.015625 0.015625h-0.015625v-0.015625 0.015625h-0.015625v-0.03125h0.015625v0.015625-0.015625 0.015625h0.015625z"/>
  </symbol>
  <symbol id="q" overflow="visible">
   <path d="m0.03125-0.015625v0.015625h-0.015625v-0.015625 0.015625h-0.015625v-0.03125h0.015625v0.015625-0.015625c0.0078125 0 0.015625 0.0078125 0.015625 0.015625z"/>
  </symbol>
  <symbol id="p" overflow="visible">
   <path d="m0-0.03125h0.015625l0.015625 0.015625v-0.015625 0.03125l-0.015625-0.015625v0.015625h-0.015625z"/>
  </symbol>
  <symbol id="o" overflow="visible">
   <path d="m0-0.015625v-0.015625h0.015625v0.015625 0.015625-0.015625-0.015625h0.015625v0.03125h-0.015625-0.015625v-0.015625z"/>
  </symbol>
  <symbol id="n" overflow="visible">
   <path d="m0-0.03125h0.015625v0.03125h-0.015625v0.015625zm0 0h0.015625z"/>
  </symbol>
  <symbol id="m" overflow="visible">
   <path d="m0.03125-0.03125v0.015625h-0.015625v0.015625h0.015625-0.015625-0.015625v-0.015625l0.015625-0.015625h0.015625z"/>
  </symbol>
 </defs>
 <g>
  <path d="m530.67 294.41c7.1055 0 13.539 2.8789 18.195 7.5391 4.6562 4.6562 7.5391 11.09 7.5391 18.195s-2.8789 13.539-7.5391 18.195c-4.6562 4.6562-11.09 7.5391-18.195 7.5391s-13.539-2.8789-18.195-7.5391c-4.6562-4.6562-7.5391-11.09-7.5391-18.195s2.8789-13.539 7.5391-18.195c4.6562-4.6562 11.09-7.5391 18.195-7.5391zm90.828-3.9609c-6.3633 0.027343-12.762 0.097656-19.098 0-4.0742-0.066407-8.2031-0.13672-10.98-4.2656l-6.4297-9.5586c-1.0859-1.6133-1.7812-3.3633-1.957-5.0469-0.12891-1.2422 0.019532-2.4609 0.48438-3.5938 0.5-1.2109 1.3281-2.2578 2.5273-3.0664 1.1211-0.75391 2.543-1.2656 4.2969-1.4453l0.13281-0.011718v-0.003907l5.5977-0.38672c-23.48-9.8984-55.023-12.227-86.566-14.555-8.4727-0.625-16.945-1.25-25.922-2.0898-24.066-2.25-50.578-12.367-76.406-22.789 10.98 7.6758 21.789 16.469 33.188 26.387 4.2578 3.707 6.5273 6.6133 7.7344 10.211 1.1602 3.4609 1.1562 7.0938 0.91797 12.488l0.60156 54.922 32.23 0.23047c-0.39453-2.5195-0.60156-5.1016-0.60156-7.7305 0-13.645 5.5312-26 14.473-34.945 8.9414-8.9414 21.297-14.473 34.945-14.473 13.645 0 26 5.5312 34.945 14.473 8.9414 8.9414 14.473 21.297 14.473 34.945 0 2.3398-0.16406 4.6445-0.47656 6.8984 1.9414-0.17578 3.8438-0.3125 5.7344-0.44922 11.312-0.81641 22.012-1.5898 28.164-9.4766 4.3008-5.5156 7.6094-15.078 7.9648-24.227 0.03125-0.82031 0.039063-1.6328 0.023438-2.4375zm-12.832-20.777-17.688 1.2188c-0.20703 0.027344-0.375 0.058594-0.50781 0.09375 0.085938 0.42578 0.33203 0.94531 0.70312 1.4961l6.4297 9.5586c0.60156 0.89844 2.7734 0.93359 4.9141 0.96875l0.41797 0.007813 17.531-0.011719c-0.89453-3.168-2.3984-5.918-4.6484-7.9102-2.2188-1.9648-4.6094-3.7656-7.1562-5.4258zm-511.97-28.289c6.2148 0.3125 11.816 3.4023 15.965 7.9453l0.003907 0.003906 0.003906-0.003906c4.1836 4.582 6.9062 10.676 7.2656 16.871 0.015625 0.23828 0.023438 0.48047 0.03125 0.72266 4.7891 1.5117 9.2461 3.8125 13.043 7.3633l22.07 20.637c2.1133-3.5547 4.6562-6.8203 7.5625-9.7227 8.9414-8.9414 21.297-14.473 34.945-14.473 13.645 0 26 5.5312 34.945 14.473 8.9414 8.9414 14.473 21.297 14.473 34.945 0 2.043-0.125 4.0586-0.36719 6.0352l69.246 0.5c-1-0.75391-1.9766-1.5625-2.9336-2.4258-7.3672-6.6406-13.355-16.434-17.32-28.82-4.9805-15.578-5.043-29.48-5.1055-44.688-0.011719-2.7461-0.023438-5.5391-0.066406-8.4219l-143.38-6.0039h-0.03125l-41.281-1.7266c-2.2969-0.027344-4.5898 0.75391-6.4375 2.668-1 1.0312-1.8906 2.3906-2.625 4.125zm18.531 24.309c-0.46875-4.8477-2.6836-9.5938-6.0039-13.227l0.003907-0.003906c-3.4375-3.7617-8.0469-6.2969-13.082-6.4453-0.26953-0.007813-0.54688-0.007813-0.83203 0-0.023437 0.11328-0.046875 0.22656-0.066406 0.34375l-2.2383 17.441 0.9375 0.027344c6.9492 0.19531 14.336 0.40234 21.277 1.8633zm37.598 33.48-22.988-21.492c-9.0352-8.4492-23.309-8.8477-36.012-9.2031-0.73047-0.019531-1.4531-0.039062-2.1641-0.0625-2.082 3.6328-5.8984 5.582-9.7148 7.5312-0.47656 0.24219-0.95312 0.48828-1.4766 0.76172-2.9883 1.5664-1.8438 7.5508-0.86328 12.676 0.050781 0.26172 0.097656 0.50391 0.35938 1.957 0.71094 3.9219 33.168 18.543 50.707 26.441 1.8594 0.83594 3.5586 1.6016 5.043 2.2773 4.6641 2.1172 8.1914 2.3398 12.504 2.3594-0.035156-0.75391-0.050781-1.5117-0.050781-2.2773 0-7.4961 1.6719-14.605 4.6562-20.969zm145.07-56.539c0.039062 2.7266 0.050781 5.4219 0.058594 8.0781 0.0625 14.613 0.11719 27.973 4.7539 42.473 3.543 11.074 8.8047 19.742 15.219 25.527 5.4727 4.9336 11.805 7.7461 18.617 8.1172l105.63 0.76172-0.60156-54.961v-0.19141c0.19922-4.5547 0.23047-7.5469-0.53906-9.8398-0.72656-2.1641-2.3672-4.1523-5.5781-6.9453-3.0195-2.625-5.9922-5.1719-8.9375-7.6328l-128.63-5.3828zm41.605 91.652c-1.1289 0.042969-2.25 0.035156-3.3594-0.023437l-91-0.65625c-2.3281 8.2344-6.7344 15.594-12.617 21.48-8.9414 8.9414-21.297 14.473-34.945 14.473-13.645 0-26-5.5312-34.945-14.473-6.7617-6.7617-11.574-15.477-13.52-25.227-5.6758 0-10.086-0.10156-16.469-3-1.4844-0.67578-3.1836-1.4414-5.043-2.2773-18.789-8.4609-53.555-24.121-54.965-31.926-0.039062-0.20703-0.16016-0.82812-0.35938-1.8711-1.457-7.625-3.1602-16.523 4.7422-20.668 0.47266-0.24609 1.0039-0.51953 1.5352-0.78906 3.0664-1.5664 6.1289-3.1289 6.918-5.2461l2.418-18.855 0.027343-0.21875c1.0938-5.8477 3.2695-10.051 6.0312-12.906 3.4609-3.582 7.7461-5.0273 12.023-4.9414h0.074219l41.312 1.7305c6.4727 0.26953 14.133-0.90625 21.504-2.6914 9.9961-2.4219 19.367-5.9414 24.605-8.5352 1.8633-0.92187 1.5391-0.76953 4.9414-2.4648 16.957-8.4375 34.004-16.918 47.301-19.852 10.621-2.3438 28.594-3.9648 46.332-4.5977 13.844-0.49609 27.613-0.39062 37.715 0.42969 0.19141 0.011718 0.38281 0.027343 0.57031 0.039062 0.10156 0.007812 0.19922 0.019531 0.30078 0.035156 2.5703 0.22266 4.8828 0.49609 6.8828 0.82031 19.438 3.1562 41.965 12.293 65.301 21.758 27.59 11.191 56.324 22.844 81.441 25.195 8.0469 0.75391 16.91 1.4062 25.773 2.0586 42.855 3.1602 85.715 6.3164 110.72 28.449 4.6758 4.1367 7.1133 10.129 7.9062 16.715l0.003906 0.019531c0.26953 2.2539 0.34766 4.5742 0.25781 6.918-0.41797 10.633-4.375 21.895-9.543 28.516-8.1953 10.508-20.496 11.398-33.5 12.336-2.668 0.19141-5.3672 0.38672-7.957 0.66016-2.3984 7.7969-6.6719 14.77-12.297 20.395-8.9414 8.9414-21.297 14.473-34.945 14.473-13.645 0-26-5.5312-34.945-14.473-5.4727-5.4727-9.6641-12.219-12.098-19.762l-144.12-1.0391zm-141.92-39.875c7.1055 0 13.539 2.8789 18.195 7.5391 4.6562 4.6562 7.5391 11.09 7.5391 18.195s-2.8789 13.539-7.5391 18.195c-4.6562 4.6562-11.09 7.5391-18.195 7.5391-7.1055 0-13.539-2.8789-18.195-7.5391-4.6562-4.6562-7.5391-11.09-7.5391-18.195s2.8789-13.539 7.5391-18.195c4.6562-4.6562 11.09-7.5391 18.195-7.5391zm12.918 12.816c-3.3047-3.3047-7.8711-5.3516-12.918-5.3516-5.043 0-9.6094 2.043-12.918 5.3516-3.3047 3.3047-5.3516 7.8711-5.3516 12.918 0 5.043 2.043 9.6094 5.3516 12.918 3.3047 3.3047 7.8711 5.3516 12.918 5.3516 5.043 0 9.6094-2.043 12.918-5.3477 3.3047-3.3047 5.3516-7.8711 5.3516-12.918 0-5.043-2.043-9.6094-5.3516-12.918zm16.75-16.75c-7.5898-7.5898-18.078-12.285-29.664-12.285-11.586 0-22.074 4.6953-29.664 12.285-7.5898 7.5898-12.285 18.078-12.285 29.664s4.6953 22.074 12.285 29.664c7.5898 7.5898 18.078 12.285 29.664 12.285 11.586 0 22.074-4.6953 29.664-12.285 7.5898-7.5898 12.285-18.078 12.285-29.664s-4.6953-22.074-12.285-29.664zm-45.684-60.164 47.762 2c7.1875-15.918 20.234-26.012 35.145-32.27-6.7227 0.70312-12.652 1.5625-17.152 2.5547-12.312 2.7188-28.992 11.016-45.582 19.27-0.097657 0.046874 0.1875-0.09375-4.9727 2.4648-3.5977 1.7812-8.9961 3.9688-15.199 5.9805zm55.871 2.3398 179.44 7.5117c-9.457-7.457-18.758-14.039-28.395-19.742-15.75-9.3203-32.473-16.332-52.355-21.039-1.793-0.28516-3.8594-0.52734-6.1484-0.73047-0.058594 0-0.11328-0.003906-0.17188-0.007813-15.938-1.1484-41.32-0.58594-62.449 8.2695-12.438 5.2109-23.387 13.332-29.922 25.738zm306.15 74.57c-3.3047-3.3047-7.8711-5.3516-12.918-5.3516-5.043 0-9.6094 2.043-12.918 5.3516-3.3047 3.3047-5.3516 7.8711-5.3516 12.918 0 5.043 2.043 9.6094 5.3516 12.918 3.3047 3.3047 7.8711 5.3516 12.918 5.3516 5.043 0 9.6094-2.043 12.918-5.3477 3.3047-3.3047 5.3516-7.8711 5.3516-12.918 0-5.043-2.043-9.6094-5.3516-12.918zm16.75-16.75c-7.5898-7.5898-18.078-12.285-29.664-12.285-11.586 0-22.074 4.6953-29.664 12.285-7.5898 7.5898-12.285 18.078-12.285 29.664 0 11.586 4.6953 22.074 12.285 29.664 7.5898 7.5898 18.078 12.285 29.664 12.285 11.586 0 22.074-4.6953 29.664-12.285 7.5898-7.5898 12.285-18.078 12.285-29.664 0-11.586-4.6953-22.074-12.285-29.664z"/>
  <use x="70" y="560.140625" xlink:href="#w"/>
  <use x="70.035156" y="560.140625" xlink:href="#e"/>
  <use x="70.058594" y="560.140625" xlink:href="#b"/>
  <use x="70.089844" y="560.140625" xlink:href="#a"/>
  <use x="70.121094" y="560.140625" xlink:href="#d"/>
  <use x="70.144531" y="560.140625" xlink:href="#b"/>
  <use x="70.175781" y="560.140625" xlink:href="#l"/>
  <use x="70.222656" y="560.140625" xlink:href="#k"/>
  <use x="70.257812" y="560.140625" xlink:href="#j"/>
  <use x="70.304688" y="560.140625" xlink:href="#i"/>
  <use x="70.34375" y="560.140625" xlink:href="#v"/>
  <use x="70.359375" y="560.140625" xlink:href="#b"/>
  <use x="70.390625" y="560.140625" xlink:href="#f"/>
  <use x="70.425781" y="560.140625" xlink:href="#a"/>
  <use x="70.472656" y="560.140625" xlink:href="#h"/>
  <use x="70.507812" y="560.140625" xlink:href="#a"/>
  <use x="70.539062" y="560.140625" xlink:href="#f"/>
  <use x="70.570312" y="560.140625" xlink:href="#a"/>
  <use x="70.601562" y="560.140625" xlink:href="#g"/>
  <use x="70.628906" y="560.140625" xlink:href="#c"/>
  <use x="70.664062" y="560.140625" xlink:href="#u"/>
  <use x="70.691406" y="560.140625" xlink:href="#g"/>
  <use x="70.722656" y="560.140625" xlink:href="#t"/>
  <use x="70.75" y="560.140625" xlink:href="#a"/>
  <use x="70" y="560.1875" xlink:href="#s"/>
  <use x="70.019531" y="560.1875" xlink:href="#e"/>
  <use x="70.042969" y="560.1875" xlink:href="#c"/>
  <use x="70.074219" y="560.1875" xlink:href="#r"/>
  <use x="70.140625" y="560.1875" xlink:href="#d"/>
  <use x="70.164062" y="560.1875" xlink:href="#q"/>
  <use x="70.195312" y="560.1875" xlink:href="#b"/>
  <use x="70.242188" y="560.1875" xlink:href="#p"/>
  <use x="70.28125" y="560.1875" xlink:href="#c"/>
  <use x="70.316406" y="560.1875" xlink:href="#o"/>
  <use x="70.347656" y="560.1875" xlink:href="#f"/>
  <use x="70.398438" y="560.1875" xlink:href="#h"/>
  <use x="70.433594" y="560.1875" xlink:href="#e"/>
  <use x="70.453125" y="560.1875" xlink:href="#c"/>
  <use x="70.488281" y="560.1875" xlink:href="#n"/>
  <use x="70.503906" y="560.1875" xlink:href="#b"/>
  <use x="70.535156" y="560.1875" xlink:href="#m"/>
  <use x="70.5625" y="560.1875" xlink:href="#d"/>
 </g>
</svg>
