<svg xmlns="http://www.w3.org/2000/svg" viewBox="0 0 300.04 407.87"><defs><style>.cls-1{fill:#fff;}</style></defs><title>Asset 3</title><g id="Layer_2" data-name="Layer 2"><g id="Layer_1-2" data-name="Layer 1"><path class="cls-1" d="M15.23,115.31c-13.16,66.4-30.54,154.08,10,187,20.8,16.9,40.25,5.88,54,26,16.51,24.17-3.16,52.34,15,70,10.11,9.83,27.93,12.51,40,6,18.15-9.78,17.28-37,17-42-1-17.67-9.43-21-17-42-6.65-18.44-15.06-57.24,3-72,11.44-9.35,32.82-8.5,40,1,6.22,8.24-2,18-6,47-2.65,19-6.27,45.06,5,52,9.36,5.77,28.38-2,37-15,3.75-5.64,7.1-14.64-1-58-6.88-36.82-10.62-37.44-11-54-.52-22.64,5.64-58.21,24-63,9.09-2.36,21.64,2.68,28,12,16.16,23.69-19.08,58.26-3,82,6.08,9,18.13,14.38,27,12,12.86-3.44,17.22-22.71,20-35,1.8-8,7.36-34.27-5-64-6.62-15.9-10.36-13.54-24-40-10.59-20.53-15.84-31-14-42,3.17-18.89,21-22.57,21-36,0-17.78-31.36-31.16-38-34C173.35-14,66.89-.59,29.23,65.31,23,76.27,20.39,89.28,15.23,115.31Z"/></g></g></svg>