<svg xmlns="http://www.w3.org/2000/svg" viewBox="0 0 299 543"><defs><style>.cls-1{fill:#4d4d4d;}.cls-2{fill:#333;}.cls-3{fill:#c69c6d;}.cls-4{fill:#a67c52;}.cls-5{fill:#1a1a1a;}.cls-6{fill:gray;}.cls-7{fill:#666;}</style></defs><title>Asset 27</title><g id="Layer_2" data-name="Layer 2"><g id="Layer_1-2" data-name="Layer 1"><path class="cls-1" d="M226.8,206h.41A32.8,32.8,0,0,1,260,238.8V286a0,0,0,0,1,0,0H194a0,0,0,0,1,0,0V238.8A32.8,32.8,0,0,1,226.8,206Z"/><path class="cls-2" d="M260,275v11H194V238.51a32.87,32.87,0,0,1,24.64-31.72,32.52,32.52,0,0,0-7.64,21V275Z"/><path class="cls-3" d="M263,366.82v36.36a8.82,8.82,0,0,1-8.82,8.82H246a45.26,45.26,0,0,1-45-45.37V286h52v72h1.18A8.82,8.82,0,0,1,263,366.82Z"/><path class="cls-3" d="M206.35,387.63A26,26,0,0,1,201,371.77v-5.52A45.17,45.17,0,0,0,206.35,387.63Z"/><path class="cls-4" d="M263,399v4.18a8.82,8.82,0,0,1-8.82,8.82H246a45.26,45.26,0,0,1-45-45.37V286h12v67.51A46,46,0,0,0,218.26,375a44.36,44.36,0,0,0,39.25,24Z"/><rect class="cls-5" x="185" y="351" width="59" height="191"/><path class="cls-6" d="M234.88,493h14.24A49.88,49.88,0,0,1,299,542.88V543a0,0,0,0,1,0,0H185a0,0,0,0,1,0,0v-.12A49.88,49.88,0,0,1,234.88,493Z"/><path class="cls-7" d="M298.66,542H185.2c0-13.69,4.65-26.09,12.17-35.06a40.18,40.18,0,0,1,20.16-13.29,43.48,43.48,0,0,0-3.05,3.29c-7.52,9-12.17,21.37-12.17,35.06h95.51A59.53,59.53,0,0,1,298.66,542Z"/><rect class="cls-5" x="69" y="351" width="68" height="191"/><path class="cls-6" d="M117.88,493h31.24A49.88,49.88,0,0,1,199,542.88V543a0,0,0,0,1,0,0H68a0,0,0,0,1,0,0v-.12A49.88,49.88,0,0,1,117.88,493Z"/><path class="cls-7" d="M198.88,543H69a50.49,50.49,0,0,1,13.93-35.06A46.93,46.93,0,0,1,106,494.65a47,47,0,0,0-3.49,3.29A50.49,50.49,0,0,0,88.59,533H197.91A51.38,51.38,0,0,1,198.88,543Z"/><path class="cls-1" d="M246,276.41v61.36q0,2.37-.12,4.71c0,1-.1,1.93-.18,2.9a97.5,97.5,0,0,1-194.4,0c-.08-1-.14-1.93-.18-2.9q-.12-2.34-.12-4.71V276.41A69.42,69.42,0,0,1,118.42,207c.67,0,1.34,0,2,0h56.1a70,70,0,0,1,13.6,1.33c1.45.29,2.89.63,4.3,1A69.43,69.43,0,0,1,246,276.41Z"/><path class="cls-2" d="M214.36,404.7a95.1,95.1,0,0,1-67.29,27.9c-51.5,0-93.53-41.11-96-92.74-.07-1.55-.11-3.13-.11-4.71V273.79a69.36,69.36,0,0,1,46.84-65.88A69.67,69.67,0,0,0,81,253.5v61.37c0,1.58,0,3.15.11,4.71,2.43,51.62,44.46,92.73,96,92.73A94.61,94.61,0,0,0,214.36,404.7Z"/><path class="cls-5" d="M246,342a97.44,97.44,0,0,1-194.66,0Z"/><path class="cls-3" d="M190.31,205.33c-6.38,11.28-19.06,19-33.66,19-15.17,0-28.27-8.3-34.37-20.29h54.44A70,70,0,0,1,190.31,205.33Z"/><path class="cls-5" d="M159,208H104A104,104,0,0,1,0,104V0H159A104,104,0,0,1,263,104V104A104,104,0,0,1,159,208Z"/><path class="cls-3" d="M257.5,148.58c-2,20.88-11,39-23.94,51.49s-29.88,19.2-47.69,17.32L135.17,212c-27.74-2.94-49.46-26-55.83-55.78a33.18,33.18,0,0,1-3.18,1.12c-16.56,4.87-33.62-5-38.1-22.05S43.4,100.49,60,95.62a30.61,30.61,0,0,1,8.49-1.24l9.33,35.55a2.28,2.28,0,0,1,0-.36c.11-1.12.23-2.24.37-3.33A89.41,89.41,0,0,1,77.66,105,86.48,86.48,0,0,1,85,77.14L227.63,63a77.53,77.53,0,0,1,14.08,27.43C253.35,105.65,259.58,126.44,257.5,148.58Z"/><path class="cls-4" d="M91.55,117.62,82.42,82.8Q83.6,79.52,85,76.41l9.76-1A89,89,0,0,0,92,113.92c-.15,1.1-.27,2.21-.38,3.34Z"/><path class="cls-4" d="M236.73,196.09c-1,1.12-2.08,2.21-3.17,3.25-13,12.45-29.88,19.21-47.69,17.32l-50.7-5.36c-27.74-2.94-49.46-26-55.83-55.78a30.7,30.7,0,0,1-3.18,1.13c-16.56,4.87-33.62-5-38.1-22.06C33.93,118.83,42,102.46,56.33,96.22A33.13,33.13,0,0,0,51.83,123c4.48,17.06,21.53,26.92,38.1,22.06a30.53,30.53,0,0,0,3.17-1.13c6.38,29.79,28.09,52.84,55.83,55.78l50.7,5.36A57.53,57.53,0,0,0,236.73,196.09Z"/><ellipse class="cls-5" cx="175" cy="116" rx="8.47" ry="20.23" transform="translate(-16.82 30.63) rotate(-9.55)"/><ellipse class="cls-5" cx="211" cy="110" rx="8.47" ry="20.23" transform="translate(-15.32 36.52) rotate(-9.55)"/><ellipse class="cls-4" cx="199" cy="146.5" rx="2.82" ry="6.58" transform="matrix(0.99, -0.17, 0.17, 0.99, -22.21, 36.37)"/><ellipse class="cls-4" cx="210" cy="144.5" rx="2.82" ry="6.58" transform="translate(-21.71 38.23) rotate(-9.89)"/><path class="cls-1" d="M83.82,206h.37A36.82,36.82,0,0,1,121,242.82V296a0,0,0,0,1,0,0H47a0,0,0,0,1,0,0V242.82A36.82,36.82,0,0,1,83.82,206Z"/><path class="cls-2" d="M121,284v12H47V242.69a36.86,36.86,0,0,1,27.54-35.6A36.57,36.57,0,0,0,66,230.62V284Z"/><path class="cls-3" d="M124,385.9v41.2a9.9,9.9,0,0,1-9.9,9.9h-9a50,50,0,0,1-44.2-26.82,51,51,0,0,1-5.92-24V296h58v80h1.1A9.9,9.9,0,0,1,124,385.9Z"/><path class="cls-3" d="M61,410.43a29.24,29.24,0,0,1-6-17.8v-6.2A50.56,50.56,0,0,0,61,410.43Z"/><path class="cls-4" d="M124,422v5.1a9.9,9.9,0,0,1-9.9,9.9h-9a50,50,0,0,1-44.2-26.82,51,51,0,0,1-5.92-24V296H67v75.28A50.69,50.69,0,0,0,117.74,422Z"/></g></g></svg>