<svg xmlns="http://www.w3.org/2000/svg" viewBox="0 0 313.93 546"><defs><style>.cls-1{fill:gray;}.cls-2{fill:#666;}.cls-3{fill:#1a1a1a;}.cls-4{fill:#4d4d4d;}.cls-5{fill:#333;}.cls-6{fill:#c69c6d;}.cls-7{fill:#a67c52;}</style></defs><title>Asset 26</title><g id="Layer_2" data-name="Layer 2"><g id="Layer_1-2" data-name="Layer 1"><path class="cls-1" d="M.93,541.88V542"/><path class="cls-2" d="M0,532a58.5,58.5,0,0,1,.84,10"/><path class="cls-3" d="M283.93,105V105"/><path class="cls-4" d="M241.72,211h.41a32.8,32.8,0,0,1,32.8,32.8V291a0,0,0,0,1,0,0h-66a0,0,0,0,1,0,0V243.8A32.8,32.8,0,0,1,241.72,211Z"/><path class="cls-5" d="M274.93,280v11h-66V243.51a32.87,32.87,0,0,1,24.64-31.72,32.52,32.52,0,0,0-7.64,21V280Z"/><path class="cls-6" d="M277.93,371.82v36.36a8.82,8.82,0,0,1-8.82,8.82H261a45.26,45.26,0,0,1-45-45.37V291h52v72h1.18A8.82,8.82,0,0,1,277.93,371.82Z"/><path class="cls-6" d="M221.28,392.63a26,26,0,0,1-5.35-15.86v-5.52A45.06,45.06,0,0,0,221.28,392.63Z"/><path class="cls-7" d="M277.93,404v4.18a8.82,8.82,0,0,1-8.82,8.82H261a45.26,45.26,0,0,1-45-45.37V291h12v67.51A46.11,46.11,0,0,0,233.18,380a44.37,44.37,0,0,0,39.25,24Z"/><rect class="cls-3" x="199.93" y="354" width="59" height="191"/><path class="cls-1" d="M249.81,496H264a49.88,49.88,0,0,1,49.88,49.88V546a0,0,0,0,1,0,0h-114a0,0,0,0,1,0,0v-.12A49.88,49.88,0,0,1,249.81,496Z"/><path class="cls-2" d="M313.59,545H200.13c0-13.69,4.65-26.09,12.17-35.06a40.14,40.14,0,0,1,20.16-13.29,43.48,43.48,0,0,0-3.05,3.29c-7.52,9-12.17,21.37-12.17,35.06h95.5A58.5,58.5,0,0,1,313.59,545Z"/><rect class="cls-3" x="83.93" y="354" width="68" height="191"/><path class="cls-1" d="M132.81,496H164a49.88,49.88,0,0,1,49.88,49.88V546a0,0,0,0,1,0,0h-131a0,0,0,0,1,0,0v-.12A49.88,49.88,0,0,1,132.81,496Z"/><path class="cls-2" d="M213.8,546H83.94a50.49,50.49,0,0,1,13.93-35.06,46.89,46.89,0,0,1,23.07-13.29,45.13,45.13,0,0,0-3.49,3.29A50.49,50.49,0,0,0,103.52,536H212.84A52.17,52.17,0,0,1,213.8,546Z"/><path class="cls-4" d="M260.93,277.41v61.36q0,2.37-.12,4.71c0,1-.11,1.93-.18,2.9a97.51,97.51,0,0,1-194.41,0c-.07-1-.13-1.93-.18-2.9-.08-1.56-.11-3.13-.11-4.71V277.41A69.41,69.41,0,0,1,133.34,208c.68,0,1.35,0,2,0h56.11a70.08,70.08,0,0,1,13.6,1.33c1.45.29,2.89.63,4.3,1A69.44,69.44,0,0,1,260.93,277.41Z"/><path class="cls-5" d="M229.29,405.7A95.1,95.1,0,0,1,162,433.6c-51.5,0-93.54-41.11-96-92.74-.08-1.55-.11-3.13-.11-4.71V274.79a69.36,69.36,0,0,1,46.84-65.88A69.67,69.67,0,0,0,95.93,254.5v61.37c0,1.58,0,3.15.11,4.71,2.42,51.62,44.46,92.73,96,92.73A94.61,94.61,0,0,0,229.29,405.7Z"/><path class="cls-3" d="M260.93,343a97.44,97.44,0,0,1-194.65,0Z"/><path class="cls-6" d="M205.24,206.33c-6.38,11.28-19.07,19-33.66,19-15.18,0-28.27-8.3-34.37-20.29h54.43A70.08,70.08,0,0,1,205.24,206.33Z"/><path class="cls-3" d="M174,208H118.89a104,104,0,0,1-104-104V0H174a104,104,0,0,1,104,104V104A104,104,0,0,1,174,208Z"/><path class="cls-6" d="M272.42,148.58c-2,20.88-11,39-23.93,51.49s-29.88,19.2-47.7,17.32L150.09,212c-27.74-2.94-49.45-26-55.83-55.78a32.06,32.06,0,0,1-3.17,1.12c-16.57,4.87-33.62-5-38.1-22.05s5.34-34.83,21.91-39.7a30.61,30.61,0,0,1,8.49-1.24l9.32,35.55c0-.12,0-.23,0-.36.11-1.12.24-2.24.38-3.33A88.88,88.88,0,0,1,92.58,105,86.74,86.74,0,0,1,100,77.14L242.55,63a77.39,77.39,0,0,1,14.09,27.43C268.27,105.65,274.51,126.44,272.42,148.58Z"/><path class="cls-7" d="M106.48,117.62,97.35,82.8q1.17-3.28,2.6-6.39l9.77-1a87.32,87.32,0,0,0-3.37,17.23,88.88,88.88,0,0,0,.54,21.25c-.15,1.1-.27,2.21-.38,3.34C106.49,117.38,106.49,117.5,106.48,117.62Z"/><path class="cls-7" d="M251.65,196.09c-1,1.12-2.08,2.21-3.16,3.25-13,12.45-29.88,19.21-47.7,17.32l-50.7-5.36c-27.74-2.94-49.45-26-55.83-55.78a29.72,29.72,0,0,1-3.17,1.13c-16.57,4.87-33.62-5-38.1-22.06-4.13-15.76,3.93-32.13,18.27-38.37A33.13,33.13,0,0,0,66.76,123c4.47,17.06,21.53,26.92,38.1,22.06a31.38,31.38,0,0,0,3.17-1.13c6.38,29.79,28.09,52.84,55.83,55.78l50.7,5.36A57.5,57.5,0,0,0,251.65,196.09Z"/><ellipse class="cls-3" cx="189.93" cy="116" rx="8.47" ry="20.23" transform="translate(-16.61 33.11) rotate(-9.55)"/><ellipse class="cls-3" cx="225.93" cy="110" rx="8.47" ry="20.23" transform="translate(-15.12 39) rotate(-9.55)"/><ellipse class="cls-7" cx="213.93" cy="146.5" rx="2.82" ry="6.58" transform="matrix(0.99, -0.17, 0.17, 0.99, -21.99, 38.94)"/><ellipse class="cls-7" cx="224.93" cy="144.5" rx="2.82" ry="6.58" transform="translate(-21.48 40.8) rotate(-9.89)"/><path class="cls-4" d="M98.74,211h.37a36.82,36.82,0,0,1,36.82,36.82V301a0,0,0,0,1,0,0h-74a0,0,0,0,1,0,0V247.82A36.82,36.82,0,0,1,98.74,211Z"/><path class="cls-5" d="M135.93,289v12h-74V247.69a36.86,36.86,0,0,1,27.54-35.6,36.52,36.52,0,0,0-8.54,23.53V289Z"/><path class="cls-6" d="M138.93,390.9v41.2A9.9,9.9,0,0,1,129,442h-9a50,50,0,0,1-44.2-26.82,51,51,0,0,1-5.92-24V301h58v80H129A9.9,9.9,0,0,1,138.93,390.9Z"/><path class="cls-6" d="M75.93,415.43a29.23,29.23,0,0,1-6-17.8v-6.2A50.67,50.67,0,0,0,75.93,415.43Z"/><path class="cls-7" d="M138.93,427v5.1A9.9,9.9,0,0,1,129,442h-9a50,50,0,0,1-44.2-26.82,51,51,0,0,1-5.92-24V301h12v75.28A50.69,50.69,0,0,0,132.66,427Z"/></g></g></svg>