<svg xmlns="http://www.w3.org/2000/svg" viewBox="0 0 165.8 77.6"><defs><style>.cls-1{fill:#79c6ac;}</style></defs><g id="Layer_2" data-name="Layer 2"><g id="Layer_1-2" data-name="Layer 1"><path class="cls-1" d="M137.91,53.83a8.11,8.11,0,1,1-5.74,2.37A8.13,8.13,0,0,1,137.91,53.83ZM18.47,33.24,17.34,34l-.79-1.14,1.13-.79Zm6.34,9.09-1.14.79L22.88,42,24,41.19Zm-3.17-4.55-1.13.79-.8-1.13,1.14-.79Zm-7.43-1.85-1.14.79-.79-1.13,1.14-.8ZM20.54,45l-1.13.79-.79-1.14,1.13-.79Zm-3.16-4.55-1.14.8-.79-1.14,1.13-.79Zm9.13,13.36a8.09,8.09,0,1,1-5.74,2.37A8.13,8.13,0,0,1,26.51,53.83Zm4.17,3.94a5.89,5.89,0,1,0,1.73,4.17A5.87,5.87,0,0,0,30.68,57.77ZM26.51,46.29A15.66,15.66,0,0,1,41.66,58l31.82.32.68-21.36c0-.35,0-.69,0-1,.08-3.23.2-8-4.05-8.82a1.09,1.09,0,0,1-.55-.29l-17.33.12h-.06l-.36,0c-5.64-.33-17.16-1-21.54-5.15-1.67-1.58-1.4-4.45-.33-7.56a47.39,47.39,0,0,1,3.09-6.75l-6.46-.09C21,7.26,16.05,7.2,12.47,7.08a1.76,1.76,0,0,0-1.61.71l0,0a1.23,1.23,0,0,0-.16.49,1.07,1.07,0,0,0,.07.53,1.58,1.58,0,0,0,1.33.84c.26,0,2,.11,3.61.15,1.14,0,2.16,0,2.38,0A1.11,1.11,0,1,1,18.4,12c-.33.05-1.5,0-2.76,0l-1.89,0a19.56,19.56,0,0,0-3.13,4.53A40.63,40.63,0,0,0,8.48,21.7l6.84-.08a5,5,0,0,1,2.17.37,2.74,2.74,0,0,1,1.19,1,2.69,2.69,0,0,1,.41,1.44,4.85,4.85,0,0,1-.48,2c-.7,1.54-2.67,3.47-4.36,5.11l-1.32,1.3c-1.6,1.64-4.23,1.63-6.61,1.62H5.65a15.06,15.06,0,0,1-.14,3.22l-.07.39-.29.26c-.73.64-1.31,1.09-1.78,1.45-1.09.83-1.29,1-.93,2.93l.19,1.09c.88,4.84,2.16,11.91,5.85,12.35a17.65,17.65,0,0,0,1.92.11c.46,0,1,0,1.53,0a15.87,15.87,0,0,1,3.51-5.37,15.63,15.63,0,0,1,11.07-4.58ZM42.07,60.18a17,17,0,0,1,.1,1.76,15.66,15.66,0,1,1-31.31,0,15.34,15.34,0,0,1,.39-3.48h-.88a20.75,20.75,0,0,1-2.14-.12C2.91,57.71,1.45,49.67.46,44.17c-.05-.28-.1-.56-.2-1.07C-.34,39.83,0,39.55,2,38c.38-.29.84-.64,1.36-1.09a16.11,16.11,0,0,0,0-3.4.22.22,0,0,0,0-.08v0c0-.3,0-.6-.08-.91C3,28.85,2.62,25.19,6,22.19a48.36,48.36,0,0,1,2.68-6.67,22.64,22.64,0,0,1,2.42-3.79A3.48,3.48,0,0,1,8.7,9.67a3.33,3.33,0,0,1-.22-1.56A3.51,3.51,0,0,1,9,6.69l0-.07a3.86,3.86,0,0,1,3.55-1.74c1.88.06,4.09.11,6.58.15l0,0c.51-.29,1-.57,1.61-.85s1.13-.53,1.68-.76c7.33-3.06,23.73-4,40-3,15.45.92,30.86,3.55,38.35,7.68A103.42,103.42,0,0,1,112.53,16c2.23,1.65,4.45,3.3,6.84,4.89,5.68,3.76,8.95,3.88,15.2,4.12l3,.12a68.32,68.32,0,0,1,11.63,1.25,23.06,23.06,0,0,1,10.44,5c2.5,2.19,3,5.11,3.53,7.95,0,.21-.05-.28,0,.32h0c0,.15.08.44.12.69.07.43.1.63.11.64s.1.06.28.2.49.36.91.7a3.28,3.28,0,0,1,.92,1.23,7.43,7.43,0,0,1,.25,2.15.17.17,0,0,0,0,.07.15.15,0,0,1,0,.07c0,.33,0,.67,0,1,0,1.45-.08,3.14-.15,4.58a10.71,10.71,0,0,1-2.78,6.17A12.76,12.76,0,0,1,157,61.08a10.16,10.16,0,0,1-2.12.37c-.4,0-.84,0-1.3,0,0,.15,0,.31,0,.46a15.66,15.66,0,1,1-31.31,0c0-.31,0-.63,0-.94l-80.21-.82Zm-6-7.74A13.45,13.45,0,1,0,40,61.94,13.4,13.4,0,0,0,36,52.44Zm117.31,6.82a12.48,12.48,0,0,0,1.38,0,7.65,7.65,0,0,0,1.65-.28,10.58,10.58,0,0,0,4.83-3.24,8.46,8.46,0,0,0,2.25-4.84c.07-1.43.13-3.08.15-4.44l-3.6.06a9.42,9.42,0,0,1-2.49-.2A4.39,4.39,0,0,1,155.23,45l-6.52-7.22a.44.44,0,0,1-.09-.11h0a3.75,3.75,0,0,1-.74-2,2.37,2.37,0,0,1,.26-1.15,2.42,2.42,0,0,1,.79-.9,4.24,4.24,0,0,1,2.3-.63l6.67-.16a21.18,21.18,0,0,0-9.2-4.3,68,68,0,0,0-11.26-1.2l-2.95-.12c-6.67-.25-10.15-.38-16.34-4.48-2.41-1.6-4.67-3.28-6.94-5A100,100,0,0,0,99.67,10c-7.2-4-22.25-6.52-37.42-7.42-15.34-.91-30.72-.14-38.14,2.52l2.51,0C49.26,5.4,83.85,5.82,95,11a58.12,58.12,0,0,1,10.54,6.55,90.41,90.41,0,0,1,10.68,9.72c2.53,2.69,2.42,5.15,2.28,8.17,0,.62-.06,1.27-.06,1.89v.06l-.69,21.35,4.83,0a15.66,15.66,0,0,1,30.76.47Zm-11.25-1.49a5.91,5.91,0,1,0,1.72,4.17A5.87,5.87,0,0,0,142.08,57.77Zm5.33-5.33a13.42,13.42,0,1,0,3.94,9.5A13.36,13.36,0,0,0,147.41,52.44ZM7.35,23.92c-2.41,2.26-2.15,5.29-1.88,8.32h.84c1.94,0,4.09,0,5-1,.4-.41.86-.86,1.35-1.33,1.55-1.51,3.36-3.28,3.89-4.44a2.74,2.74,0,0,0,.29-1.06.54.54,0,0,0-.07-.27.53.53,0,0,0-.24-.17,3,3,0,0,0-1.22-.19l-8,.1Zm156.2,20.31a1.5,1.5,0,0,0-.06-.3.75.75,0,0,0-.11-.2.91.91,0,0,0-.17-.17c-.33-.27-.6-.47-.81-.63a2.66,2.66,0,0,1-.85-.81,3.53,3.53,0,0,1-.42-1.45c0-.13,0-.28-.11-.67h0c-.07-.38,0,.1-.06-.32A17.15,17.15,0,0,0,159.65,35h0l-8.35.21a2.13,2.13,0,0,0-1.1.24.29.29,0,0,0-.08.08.25.25,0,0,0,0,.1,1.41,1.41,0,0,0,.31.74l6.47,7.16a2.23,2.23,0,0,0,1.16.68,8,8,0,0,0,1.92.14ZM75.68,58.31l39.85.41.69-21.4c0-.72,0-1.36.06-2,.12-2.51.21-4.55-1.68-6.56-.71-.75-1.46-1.52-2.23-2.29l-38.16.25c2.34,2.37,2.25,6.28,2.17,9.19,0,.36,0,.71,0,1V37l-.68,21.31Zm34.41-34c-1.85-1.71-3.83-3.41-5.9-5A54.7,54.7,0,0,0,94.06,13C84.69,8.65,57.29,7.78,35.55,7.45a49.83,49.83,0,0,0-3.5,7.44c-.8,2.35-1.13,4.4-.24,5.24,3.8,3.6,14.77,4.23,20.13,4.53l.36,0Z"/></g></g></svg>