<svg xmlns="http://www.w3.org/2000/svg" viewBox="0 0 164.01 63.83"><defs><style>.cls-1{fill:#79c6ac;}</style></defs><g id="Layer_2" data-name="Layer 2"><g id="Layer_1-2" data-name="Layer 1"><path class="cls-1" d="M134.85,41.57a7.82,7.82,0,0,1,5.51,2.24,7.59,7.59,0,0,1,0,10.85,7.88,7.88,0,0,1-11,0,7.59,7.59,0,0,1,0-10.85,7.83,7.83,0,0,1,5.52-2.24Zm-100.08,0a7.82,7.82,0,0,1,5.51,2.24,7.57,7.57,0,0,1,0,10.85,7.88,7.88,0,0,1-11,0,7.59,7.59,0,0,1,0-10.85A7.83,7.83,0,0,1,34.77,41.57Zm3.94,3.79a5.63,5.63,0,0,0-7.88,0,5.4,5.4,0,0,0,0,7.75,5.63,5.63,0,0,0,7.88,0,5.42,5.42,0,0,0,0-7.75ZM34.77,34.65a14.93,14.93,0,0,1,10.49,4.27A14.44,14.44,0,0,1,48.7,54.26l18.6-.06a45.46,45.46,0,0,1-3.92-5.58A32.36,32.36,0,0,1,60.07,41a50.39,50.39,0,0,1-1.23-7.25c-.34-3.13-.58-6.66-.72-9.93l-.7,0c-16.16-1-32.41-3-48.68-5.51l-.1,0h0a3.22,3.22,0,0,0-.83-.11A2.82,2.82,0,0,0,6,18.92a3.77,3.77,0,0,0-1.1,1.88,4,4,0,0,0-.14,1.06A8.39,8.39,0,0,0,5,23.79a8.77,8.77,0,0,0,.46,1.29L13.92,25h.24a2.32,2.32,0,0,1,1.72.82,2.41,2.41,0,0,1,.53,1.55h0a1.48,1.48,0,0,1,0,.23,7,7,0,0,1-1.11,2.92,10.53,10.53,0,0,1-2.19,2.57c-1.68,1.37-5.83,1-8.71.8l-.27,0h0l-.17.17c-1,1.07-2,2.07-1.57,3.54.89,3.2,3.26,6,6.24,8.32a32.7,32.7,0,0,0,11.53,5.56,13.86,13.86,0,0,1-.17-2.25,14.44,14.44,0,0,1,4.34-10.31,14.92,14.92,0,0,1,10.49-4.28ZM47.68,56.42a14.72,14.72,0,0,1-2.42,3.13,15,15,0,0,1-21,0,14.51,14.51,0,0,1-3.62-5.79,1,1,0,0,1-.43,0,34.69,34.69,0,0,1-13-6.12c-3.32-2.55-6-5.76-7-9.45-.74-2.66.63-4.09,2.09-5.61s2.85-3,1.26-6.33a10.65,10.65,0,0,1-.71-1.89,9.49,9.49,0,0,1-.34-2.46,6.2,6.2,0,0,1,.19-1.62,6,6,0,0,1,1.75-2.95A5,5,0,0,1,7.78,16a5.12,5.12,0,0,1,1.39.16c2.75.42,5.49.83,8.24,1.22a15.08,15.08,0,0,1,1.94-3.72,5.15,5.15,0,0,1,3.88-2.25h.15c.63,0,1.69.07,3.06.12,6.26.2,18.57.61,20,1.72a6.94,6.94,0,0,1,2.15,3.47A18.48,18.48,0,0,1,49.34,21c2.74.23,5.48.42,8.22.6a332.41,332.41,0,0,0,45.08-.06l-1-.83a96.27,96.27,0,0,0-11.29-8A55.89,55.89,0,0,0,79.42,7.62l-.36-.12c-.44-.14-.94-.31-1.42-.5-2-.8-4.09-2.12-3.06-4.67A3.48,3.48,0,0,1,77.69,0a8.75,8.75,0,0,1,3.25.49A57.07,57.07,0,0,1,93,5.84a96.93,96.93,0,0,1,12.24,8.61,24.57,24.57,0,0,0,4.2,3,19.35,19.35,0,0,0,5,1.56,154.84,154.84,0,0,0,16.94,2.17c15.78,1.45,31.56,2.91,32.2,14.11h0A49.2,49.2,0,0,1,164,44a24.85,24.85,0,0,1-1.12,6.54.9.9,0,0,1-.08.23s0,.08,0,.12c-1,2.83-3.32,4.37-6.17,5.17a30.45,30.45,0,0,1-8.78.75,1.52,1.52,0,0,1-.21,0,14.63,14.63,0,0,1-2.22,2.8,15,15,0,0,1-21,0,14.56,14.56,0,0,1-2.55-3.35l-52.11.17h-.11l-21.67.08a.93.93,0,0,1-.24,0Zm-4-16a12.74,12.74,0,0,0-17.83,0,12.27,12.27,0,0,0,0,17.54,12.76,12.76,0,0,0,17.83,0,12.24,12.24,0,0,0,0-17.54ZM112.9,30.33h-1.39V29h1.39Zm.08,16.4h-1.39V45.37H113Zm0-5.47h-1.39V39.9H113Zm0-5.46h-1.39V34.44h1.39Zm-65.82-15a16.11,16.11,0,0,0-.61-3.48,4.77,4.77,0,0,0-1.39-2.4c-.89-.68-12.72-1.07-18.74-1.26l-3-.11A3.08,3.08,0,0,0,21.12,15a12.11,12.11,0,0,0-1.46,2.73C28.82,19,38,20,47.11,20.82Zm-41.36,11c2.35.17,5.11.29,5.94-.39a8.34,8.34,0,0,0,1.69-2,4.94,4.94,0,0,0,.81-1.92v-.09a.36.36,0,0,0,0-.19l-.14,0h-.08l-7.65.06a5.55,5.55,0,0,1-.54,4.58ZM66.8,28.91H78.73a.68.68,0,0,1,.69.68v2.27a.68.68,0,0,1-.69.68H66.8a.69.69,0,0,1-.69-.68V29.59A.68.68,0,0,1,66.8,28.91ZM78,30.27H67.5v.9H78ZM60.34,24c.14,3.15.37,6.54.71,9.56a46.75,46.75,0,0,0,1.15,6.91,30.21,30.21,0,0,0,3.1,7.09,46.43,46.43,0,0,0,4.86,6.67L120.83,54a14.4,14.4,0,0,1,3.53-15.1,15,15,0,0,1,21,0,14.44,14.44,0,0,1,3.3,15.7,26.38,26.38,0,0,0,7.3-.69,6.81,6.81,0,0,0,4.24-2.86,2.47,2.47,0,0,1-1.44-1.13,8.74,8.74,0,0,1-.64-1.75,7.09,7.09,0,0,1-.25-1.8,3.29,3.29,0,0,1,.07-.57,1.8,1.8,0,0,1,.37-.76,1.36,1.36,0,0,1,1.11-.5h0a1.45,1.45,0,0,1,.3,0l1.94.45c0-.38.07-.78.09-1.19.05-1,.06-2,0-3.1l-1,0c-2.89-.11-7.06-.26-8.55-1.82a10.38,10.38,0,0,1-1.85-2.81,7.19,7.19,0,0,1-.76-3c0-.06,0-.14,0-.23a2.43,2.43,0,0,1,.71-1.49,2.34,2.34,0,0,1,1.8-.61l.24,0,7.83,1c-3.79-6.09-16.42-7.26-29.06-8.43a154.47,154.47,0,0,1-17.2-2.2,21.74,21.74,0,0,1-5.53-1.75,27,27,0,0,1-4.59-3.23,94.82,94.82,0,0,0-12-8.41A54.69,54.69,0,0,0,80.29,2.6a6.7,6.7,0,0,0-2.4-.41,1.41,1.41,0,0,0-1.25,1C76.31,4,77.4,4.56,78.47,5c.47.18.9.33,1.28.45l.38.12a58.85,58.85,0,0,1,11.32,5.27A98.77,98.77,0,0,1,103,19a35.47,35.47,0,0,0,3.22,2.41l.12.07a9.26,9.26,0,0,0,.86.48,19.35,19.35,0,0,0,5,1.56,1.09,1.09,0,0,1,.85,1.3,1.11,1.11,0,0,1-1.31.84,21.7,21.7,0,0,1-5.53-1.76c-.26-.13-.51-.27-.76-.42a326.15,326.15,0,0,1-45.1.44Zm101,23.26-1.28-.29a6.48,6.48,0,0,0,.15.74,5.71,5.71,0,0,0,.45,1.26.72.72,0,0,0,.22.09l.05,0C161.13,48.48,161.26,47.87,161.38,47.22Zm-.22-13.16h-.1l-8.95-1.14h-.22a.28.28,0,0,0-.06.18v.09a4.87,4.87,0,0,0,.56,2,8.26,8.26,0,0,0,1.44,2.22c.87.91,4.5,1,7,1.14l.81,0c-.07-1-.17-2-.31-3h0v-.08a8.66,8.66,0,0,0-.19-1.38Zm-22.37,11.3a5.64,5.64,0,0,0-7.89,0,5.42,5.42,0,0,0,0,7.75,5.64,5.64,0,0,0,7.89,0,5.42,5.42,0,0,0,0-7.75Zm5-4.89a12.74,12.74,0,0,0-17.83,0,12.24,12.24,0,0,0,0,17.54,12.76,12.76,0,0,0,17.83,0,12.27,12.27,0,0,0,0-17.54Z"/></g></g></svg>