<svg xmlns="http://www.w3.org/2000/svg" viewBox="0 0 165.57 53.16"><defs><style>.cls-1{fill:#79c6ac;}</style></defs><g id="Layer_2" data-name="Layer 2"><g id="Layer_1-2" data-name="Layer 1"><path class="cls-1" d="M136.41,30.85a7.65,7.65,0,1,1-5.4,2.24A7.64,7.64,0,0,1,136.41,30.85Zm27-1.17c-1.89,0-3.79,0-5.67,0-1.2,0-2.43,0-3.25-1.27l-1.91-2.84a3.29,3.29,0,0,1-.58-1.49,2.16,2.16,0,0,1,.14-1.07,2,2,0,0,1,.75-.91,2.77,2.77,0,0,1,1.28-.43h0l1.66-.12c-7-2.94-16.33-3.63-25.69-4.32-2.52-.18-5-.37-7.7-.62-7.14-.67-15-3.67-22.67-6.76a121.09,121.09,0,0,1,9.85,7.83,6.92,6.92,0,0,1,2.29,3,9.78,9.78,0,0,1,.27,3.71l.18,16.3,9.57.06a14.35,14.35,0,0,1-.18-2.29,14.67,14.67,0,1,1,29.33,0,15.46,15.46,0,0,1-.14,2l1.7-.14c3.36-.24,6.53-.47,8.36-2.81a13.31,13.31,0,0,0,2.36-7.19c0-.24,0-.48,0-.72Zm-3.81-6.17-5.25.36-.15,0a1.34,1.34,0,0,0,.21.44l1.91,2.84c.18.27.82.28,1.46.29h5.33a4.91,4.91,0,0,0-1.38-2.35,18,18,0,0,0-2.13-1.61ZM7.61,15.12a7,7,0,0,1,4.74,2.35h0a8.25,8.25,0,0,1,2.16,5,1.55,1.55,0,0,1,0,.22,9.89,9.89,0,0,1,3.87,2.18L24.94,31a14.94,14.94,0,0,1,2.24-2.88,14.67,14.67,0,0,1,25,10.37,15.09,15.09,0,0,1-.11,1.79l20.55.15q-.43-.33-.87-.72a19.38,19.38,0,0,1-5.14-8.55c-1.48-4.63-1.49-8.75-1.51-13.27,0-.81,0-1.64,0-2.49L22.57,13.61h0L10.31,13.1a2.51,2.51,0,0,0-1.91.79,3.77,3.77,0,0,0-.78,1.23Zm5.5,7.21a6.9,6.9,0,0,0-1.78-3.93h0a5.56,5.56,0,0,0-3.88-1.91H7.2a.36.36,0,0,1,0,.1l-.66,5.18H6.8a35.4,35.4,0,0,1,6.31.55Zm11.16,9.94-6.82-6.38c-2.68-2.51-6.92-2.63-10.69-2.73l-.64,0a6.38,6.38,0,0,1-2.88,2.23l-.44.23c-.89.46-.55,2.24-.26,3.76,0,.08,0,.15.11.58.21,1.17,9.84,5.5,15.05,7.85l1.49.67a8.07,8.07,0,0,0,3.72.7c0-.22,0-.44,0-.67a14.64,14.64,0,0,1,1.38-6.22ZM67.32,15.49c0,.81,0,1.61,0,2.39,0,4.34,0,8.31,1.41,12.61a17,17,0,0,0,4.52,7.57,8.86,8.86,0,0,0,5.52,2.41l31.35.23L110,24.39v-.06a8.56,8.56,0,0,0-.16-2.92,5,5,0,0,0-1.65-2.06c-.9-.78-1.78-1.53-2.65-2.26l-38.18-1.6Zm12.35,27.2c-.33,0-.67,0-1,0l-27-.19a14.67,14.67,0,0,1-28.5-1.12,10.33,10.33,0,0,1-4.89-.89l-1.49-.67C11.21,37.3.89,32.65.47,30.33c0-.06,0-.24-.1-.55-.44-2.27-.94-4.91,1.4-6.14l.46-.23c.91-.47,1.82-.93,2.05-1.56L5,16.26v-.07A7.3,7.3,0,0,1,6.8,12.36a4.76,4.76,0,0,1,3.57-1.47h0l12.26.52a24.18,24.18,0,0,0,6.38-.8,38.3,38.3,0,0,0,7.3-2.53l1.47-.74c5-2.5,10.09-5,14-5.89A89.12,89.12,0,0,1,65.59.09,100.63,100.63,0,0,1,76.78.22H77c.76.06,1.45.15,2,.24,5.77.94,12.46,3.65,19.38,6.46,8.19,3.32,16.72,6.78,24.17,7.48,2.39.22,5,.41,7.65.61,12.72.94,25.44,1.87,32.86,8.44a7.7,7.7,0,0,1,2.35,5h0a12.66,12.66,0,0,1,.07,2A15.71,15.71,0,0,1,162.73,39c-2.43,3.12-6.08,3.39-9.94,3.66-.79.06-1.59.12-2.36.2a14.67,14.67,0,0,1-28,.19l-42.78-.31ZM37.55,30.85a7.63,7.63,0,1,1-5.4,2.24,7.62,7.62,0,0,1,5.4-2.24Zm3.84,3.81A5.41,5.41,0,1,0,43,38.49a5.42,5.42,0,0,0-1.59-3.83Zm5-5A12.46,12.46,0,1,0,50,38.49,12.39,12.39,0,0,0,46.36,29.69ZM32.8,11.83,47,12.42A18.89,18.89,0,0,1,57.41,2.85a49.49,49.49,0,0,0-5.09.75c-3.66.81-8.61,3.27-13.53,5.72l-1.48.74a37.36,37.36,0,0,1-4.51,1.77Zm16.58.69,53.26,2.23a78.61,78.61,0,0,0-8.43-5.86A54.73,54.73,0,0,0,78.67,2.65c-.53-.08-1.14-.16-1.82-.22h0c-4.73-.34-12.27-.17-18.54,2.46a17.05,17.05,0,0,0-8.88,7.63Zm90.86,22.14a5.41,5.41,0,1,0,1.59,3.83,5.37,5.37,0,0,0-1.59-3.83Zm5-5a12.45,12.45,0,1,0,3.65,8.81A12.4,12.4,0,0,0,145.21,29.68Z"/></g></g></svg>