<svg xmlns="http://www.w3.org/2000/svg" viewBox="0 0 126.15 70.24"><defs><style>.cls-1{fill:#79c6ac;}</style></defs><g id="Layer_2" data-name="Layer 2"><g id="Layer_1-2" data-name="Layer 1"><path class="cls-1" d="M105.1,47.94a7.63,7.63,0,1,1-5.4,2.23,7.61,7.61,0,0,1,5.4-2.23Zm10.31-17.61-.29.48a6.15,6.15,0,0,0-.56,1.27c-.23.79.11,2.77.43,4.68.17,1,.33,2,.42,2.82.14,1.34,4.26,2.39,7,3.11.43.1.83.21,1.19.31a14.76,14.76,0,0,0-1.9-5.79,23,23,0,0,0-6.34-6.88Zm8.45,15c-.46-.15-1.15-.33-2-.53-3.39-.86-8.4-2.14-8.7-5-.08-.77-.24-1.72-.4-2.68-.36-2.15-.74-4.38-.37-5.66a8,8,0,0,1,.76-1.75c.11-.19.22-.38.34-.57a22.51,22.51,0,0,0-6.3-2.38,24,24,0,0,1-2.84-.44l-.35,0c-.67-.06-5.12-.09-9.69-.1-4.87,0-9.89,0-10.67.06a1.22,1.22,0,0,1-.27,0l-25.79.27a6.55,6.55,0,0,0-4.4,2,8.75,8.75,0,0,0-2,5.13,48.8,48.8,0,0,0,.43,10.53,34,34,0,0,0,2.41,8.85,14,14,0,0,0,3.5,4.55,8.51,8.51,0,0,0,4.11,2.07l29.36.1a14.67,14.67,0,1,1,28.71-4.21,14.22,14.22,0,0,1-.16,2.17,14.68,14.68,0,0,0,2.88-3.09,8.94,8.94,0,0,0,1.46-5.23v-.6c0-1.17,0-2.33-.07-3.47ZM87.71,30.72H86.33V29.34h1.39Zm.1,22.16H86.42V51.5H87.8Zm0-5.54H86.4V46h1.39Zm0-5.54H86.38V40.42h1.38Zm0-5.54H86.35V34.88h1.38ZM57.54,24.31h0L84.92,24c2,0,5.76,0,9.44,0h3.82c-5-2.59-9.41-6.61-13.69-10.5C79.31,8.81,74.36,4.31,69.08,3c-2.88-.71-8.69-.85-14.79-.81A65.79,65.79,0,0,0,43.79,3,26.87,26.87,0,0,0,34.4,6.46c-3.48,2.11-5.08,6.3-6.61,10.31-.05.14,0,.05,0,0h0c0,.07-.11.29-.33.88-.8,2.06.74,3.54,4.46,4.6,4.39,1.26,11.48,1.88,21,2.1Zm4.1,37.58h-.08l-21.75-.08a14.67,14.67,0,0,1-23.65,4.13,14.73,14.73,0,0,1-3.94-7.14L3,57.89C1.17,57.71.4,56,.13,54a24.62,24.62,0,0,1,0-4.51c.21-3.4,1-3.7,3.15-4.45.44-.16.95-.34,1.54-.61A6.63,6.63,0,0,0,6,43.72a1.58,1.58,0,0,0,.52-.57,4.86,4.86,0,0,0,.32-1.58s0-.08,0-.11c0-.48,0-1,0-1.46v-.49c0-1.13,0-2.3-.08-3.44-.17-3.85-.32-7.5,1.91-10.62a14.74,14.74,0,0,1,2.13-2.32A14.84,14.84,0,0,0,14.12,19c.78-1.39,1.56-2.93,2.32-4.43a58.14,58.14,0,0,1,3.47-6.27A18.1,18.1,0,0,1,26,2.62,20,20,0,0,1,36.37.31c2,0,4.73-.06,7.86-.13S50.81,0,54.21,0h0C60.51,0,66.52.12,69.6.87,75.44,2.3,80.59,7,86,11.87c5.72,5.19,11.72,10.63,18.8,12.27a24.53,24.53,0,0,1,18.87,11.93c2.42,4,2.46,8.28,2.49,12.74v.59a11.12,11.12,0,0,1-1.83,6.47,20.16,20.16,0,0,1-5,4.91,1.19,1.19,0,0,1-.59.22,14.68,14.68,0,0,1-26.82,1l-30.27-.11Zm-5-2.23-.45-.36A16.09,16.09,0,0,1,52.07,54a36,36,0,0,1-2.59-9.43,50.93,50.93,0,0,1-.44-11,11,11,0,0,1,2.55-6.43c.17-.18.34-.36.53-.53-9.37-.25-16.37-.89-20.81-2.16-5.26-1.5-7.31-3.9-5.92-7.52.38-1,0,.05.33-.87,1.66-4.36,3.39-8.9,7.53-11.41a26.21,26.21,0,0,1,4.19-2.06H36.33a17.72,17.72,0,0,0-9.28,2,15.8,15.8,0,0,0-5.32,5,57,57,0,0,0-3.32,6c-.76,1.5-1.54,3-2.36,4.5a16.53,16.53,0,0,1-2.51,3.47l.81,1.16a12.16,12.16,0,0,1,2,3.67c.37,1.27,0,3.5-.37,5.65-.16,1-.32,1.92-.4,2.68-.29,2.79-3.24,4.08-5.7,5.16l-1,.43A6,6,0,0,1,8.5,44a3.67,3.67,0,0,1-1.22,1.45,8.78,8.78,0,0,1-1.6.91c-.67.3-1.23.5-1.72.68-1.11.39-1.55.55-1.67,2.49a22.49,22.49,0,0,0,0,4.09c.14,1.07.41,2,.94,2l8.64.85c0-.32,0-.64,0-1a14.67,14.67,0,0,1,29.33,0,15,15,0,0,1-.56,4l16,0ZM27.79,16.77ZM9.06,39.84C11,39,13.26,38,13.42,36.49c.09-.85.25-1.82.42-2.81.32-1.91.65-3.9.43-4.68a11,11,0,0,0-1.71-3c-.21-.29-.42-.58-.63-.89a10.43,10.43,0,0,0-1.45,1.62C8.69,29.24,8.83,32.51,9,36c0,1.16.1,2.34.08,3.57v.3Zm29.2,19.93V59.6h.06a12.61,12.61,0,1,0-.06.17ZM26.53,47.93a7.63,7.63,0,1,1-5.4,2.24A7.62,7.62,0,0,1,26.53,47.93Zm3.84,3.81A5.42,5.42,0,1,0,32,55.57a5.42,5.42,0,0,0-1.59-3.83Zm78.56,0a5.42,5.42,0,1,0,1.59,3.83,5.41,5.41,0,0,0-1.59-3.83Zm5-5a12.43,12.43,0,1,0,3.65,8.8A12.37,12.37,0,0,0,113.9,46.77Z"/></g></g></svg>