<svg xmlns="http://www.w3.org/2000/svg" viewBox="0 0 163.85 53.28"><defs><style>.cls-1{fill:#79c6ac;}</style></defs><g id="Layer_2" data-name="Layer 2"><g id="Layer_1-2" data-name="Layer 1"><path class="cls-1" d="M132.69,31a7.65,7.65,0,1,1-5.4,2.24A7.62,7.62,0,0,1,132.69,31ZM156.85,24l-6-.17-.26,0a2.44,2.44,0,0,0,.16.23,9.82,9.82,0,0,0,2.67,2.23c.65.35,1.32.7,2,1a10.55,10.55,0,0,0,1.73.65,15.34,15.34,0,0,0,2.91.15c.57,0,1.13,0,1.62,0v-1A27.68,27.68,0,0,0,156.85,24Zm4.77,6.34c-.51,0-1.06,0-1.62,0a15.86,15.86,0,0,1-3.46-.22,12.79,12.79,0,0,1-2.09-.77c-.7-.32-1.41-.69-2.11-1.06A12.51,12.51,0,0,1,149,25.47a3.68,3.68,0,0,1-.72-1.42,1.71,1.71,0,0,1,.68-1.83,3.2,3.2,0,0,1,1.78-.56h.47c-6.91-2.27-14.86-3-22.81-3.77a139.42,139.42,0,0,1-18.79-2.61,1.17,1.17,0,0,1-.2-.06l-.73-.26.08.08a14.91,14.91,0,0,1,4.06,7.54,52.37,52.37,0,0,1,.11,9.54c-.19,3.28-.53,6.76-.88,9.94l6.43.07a14.67,14.67,0,1,1,28.91-3.52,14.11,14.11,0,0,1-.24,2.62c1-.13,2.15-.25,3.37-.37,3.94-.4,8.56-.86,10.27-2.15.75-.57.85-4.94.86-8.34ZM7.92,16l3.79.24a2.91,2.91,0,0,1,1.68.57,1.85,1.85,0,0,1,.69,1.64,3.35,3.35,0,0,1-.45,1.38,7,7,0,0,1-2.18,2.31l-.18.1a26.58,26.58,0,0,1-5.39,2.48A13,13,0,0,1,3.1,25H2.89a8.45,8.45,0,0,0-.26.81,15.87,15.87,0,0,0-.4,3.25,6.83,6.83,0,0,0,1.15,4.56A8.88,8.88,0,0,0,7.32,36.5c3.52,1.44,8.72,2.29,12.87,3,1.5.24,2.86.47,4,.69,0-.51-.08-1-.08-1.54a14.66,14.66,0,0,1,19.35-13.9,33.78,33.78,0,0,1-3.38-7c-.94-3-1-5.77.6-7.62a29,29,0,0,1,5-4.49c-4.68,1.33-9.32,3-13.93,4.58-2.15.75-4.29,1.51-6.44,2.23-4.19,1.41-8.66,1.73-13.06,2L11,14.5c-1.7.12-2.48.59-3.05,1.45ZM4.11,22.74a7.6,7.6,0,0,0,1.22-.21,25.18,25.18,0,0,0,4.87-2.28l.19-.1A4.31,4.31,0,0,0,11.7,18.7a1.46,1.46,0,0,0,.14-.28l-.27,0-4.72-.31A24.53,24.53,0,0,1,5.7,20.27c-.47.8-1,1.56-1.5,2.33l-.09.14Zm67.16-4.91a14,14,0,0,1,.85,1.5,10.71,10.71,0,0,1,1,3.26,49.63,49.63,0,0,1,.14,9.07c-.18,3.26-.51,6.76-.86,10l37.34.4c.37-3.23.71-6.76.9-10a50.4,50.4,0,0,0-.09-9.1,11.27,11.27,0,0,0-2.41-5.06Zm-1,23.78c.37-3.26.7-6.81.88-10.07A48.67,48.67,0,0,0,71,22.9a8.62,8.62,0,0,0-.84-2.59,14.32,14.32,0,0,0-1.58-2.48H42.43A38.28,38.28,0,0,0,47.63,27a15.13,15.13,0,0,1,1.48,1.3A14.62,14.62,0,0,1,53.4,38.62a14.47,14.47,0,0,1-.27,2.81l17.09.18Zm-28.44-26h64.45a35,35,0,0,0-6.74-5.15l-.58-.33-.15-.08L98.67,10,98,9.63c-5.26-3-10.51-6.05-17.58-7a63.89,63.89,0,0,0-8.61-.41c-3.11,0-6.41.18-9.57.34-1.59.08-3.18.23-4.76.44a27.53,27.53,0,0,0-8.43,3,26.49,26.49,0,0,0-6.77,5.54c-.81.92-.88,2.4-.51,4.1ZM57.16.8h0C58.84.58,60.49.42,62.15.34,65.29.19,68.59,0,71.8,0a66.72,66.72,0,0,1,8.92.43c7.49,1,12.94,4.15,18.39,7.29l.66.38,0,0q.51.27,1.05.6a55.76,55.76,0,0,0,9.24,4.41,139.07,139.07,0,0,0,18.47,2.56c12.94,1.22,25.89,2.44,34.88,10.13a1.1,1.1,0,0,1,.39.88c0,.46,0,1.18,0,2,0,3.83,0,10.4-1.74,11.73-2.19,1.65-7.15,2.16-11.39,2.58-1.56.16-3,.31-4.2.51a14.67,14.67,0,0,1-27.31.77l-66.66-.72a14.68,14.68,0,0,1-28-1.21,1,1,0,0,1-.42,0c-1.17-.25-2.66-.49-4.31-.76-4.26-.7-9.6-1.57-13.36-3.12a10.91,10.91,0,0,1-4.89-3.59A9,9,0,0,1,0,29,18.07,18.07,0,0,1,.5,25.27a10.09,10.09,0,0,1,.63-1.76v0a14.58,14.58,0,0,1,1.24-2.15c.5-.72,1-1.44,1.42-2.2A22.66,22.66,0,0,0,5,16.84l0-.08H5c1.22-2.76,1.85-4.17,5.77-4.46L12,12.2c4.26-.3,8.6-.61,12.51-1.93,2.12-.71,4.26-1.47,6.41-2.22C39.52,5,48.21,2,57.16.8ZM38.74,31a7.65,7.65,0,1,1-5.4,2.24A7.62,7.62,0,0,1,38.74,31Zm3.83,3.81a5.41,5.41,0,1,0,1.59,3.83,5.4,5.4,0,0,0-1.59-3.83Zm5-5a12.43,12.43,0,1,0,3.65,8.8A12.37,12.37,0,0,0,47.54,29.82Zm89,5a5.41,5.41,0,1,0,1.59,3.83,5.41,5.41,0,0,0-1.59-3.83Zm5-5a12.43,12.43,0,1,0,3.65,8.8A12.37,12.37,0,0,0,141.5,29.82Z"/></g></g></svg>