<svg xmlns="http://www.w3.org/2000/svg" viewBox="0 0 164.37 81.95"><defs><style>.cls-1{fill:#79c6ac;}</style></defs><g id="Layer_2" data-name="Layer 2"><g id="Layer_1-2" data-name="Layer 1"><path class="cls-1" d="M27.39,58.18a8.11,8.11,0,1,1-5.74,2.38A8.09,8.09,0,0,1,27.39,58.18Zm-19-32.81,6.84-.1a5,5,0,0,1,1.84.28,3,3,0,0,1,1.43,1.13,3.15,3.15,0,0,1,.47,1.69,6,6,0,0,1-.44,2.2c-.68,1.77-2.63,4-4.29,5.91-.49.56-.95,1.09-1.31,1.52-1.59,1.93-4.23,1.92-6.63,1.91H5.6a20.18,20.18,0,0,1-.12,3.89l-.06.36-.24.25c-.72.76-1.3,1.28-1.76,1.69-1.15,1.06-1.37,1.25-1,3.71.21,1.27.2,1.25.2,1.27.88,5.71,2.16,14.06,5.81,14.57a16.13,16.13,0,0,0,1.87.13c.43,0,.91,0,1.44,0a15.66,15.66,0,0,1,21.44-14c-.26-.6-.56-1.27-.88-2-3.11-6.93-8.06-18-3.32-21.47a15.76,15.76,0,0,1,2.8-1.7A10,10,0,0,1,30,25c-1.57-1.77-1.3-5-.28-8.53.25-.85.54-1.71.85-2.58L14.62,12.76a31,31,0,0,0-3.69,5.93,48.17,48.17,0,0,0-2.58,6.69ZM5.45,37.7h.81c1.9,0,4,0,4.93-1.11.41-.5.86-1,1.33-1.56,1.55-1.78,3.36-3.85,3.9-5.25a3.92,3.92,0,0,0,.3-1.39,1,1,0,0,0-.12-.51.8.8,0,0,0-.36-.26,3.17,3.17,0,0,0-1-.14l-7.87.12c-2.46,2.73-2.18,6.38-1.9,10v.08Zm158.92,15v.13c0,.38,0,.79,0,1.22,0,1.68-.08,3.66-.14,5.34a13.4,13.4,0,0,1-2.71,7A12.68,12.68,0,0,1,155.67,71a8.81,8.81,0,0,1-2.13.44,12.29,12.29,0,0,1-1.92,0A15.66,15.66,0,0,1,121.9,71L42.64,69.84A15.66,15.66,0,0,1,11.82,68c-.55,0-1.06,0-1.54,0a18.3,18.3,0,0,1-2.15-.14C2.84,67.1,1.42,57.78.44,51.4c-.14-.89-.12-.79-.19-1.26-.57-3.63-.22-4,1.68-5.67.39-.35.85-.78,1.4-1.33a29.18,29.18,0,0,0-.09-5.35c-.32-4.21-.64-8.41,2.64-11.86a50.59,50.59,0,0,1,3.06-8.2,34.55,34.55,0,0,1,3-5.16l-.39,0h0A3.34,3.34,0,0,1,8.26,9a3.26,3.26,0,0,1,.4-1.42A3.86,3.86,0,0,1,12.44,5.7c1.84.07,4,.13,6.43.17h0c.51-.34,1-.67,1.6-1s1.11-.62,1.66-.89C29.42.38,45.71-.7,61.86.43c15.33,1.08,30.63,4.16,38.08,9a104.37,104.37,0,0,1,11.69,9.25c2.22,1.94,4.43,3.88,6.78,5.72,5.61,4.38,8.83,4.52,15,4.79l3,.15a58.06,58.06,0,0,1,11.57,1.47,21.69,21.69,0,0,1,10.38,5.87c2.44,2.51,2.94,5.88,3.44,9.15l.05.37c0,.14.07.5.12.81a5.31,5.31,0,0,0,.14.86l.31.27c.22.19.51.45.89.82a3.55,3.55,0,0,1,.5.59,3.94,3.94,0,0,1,.38.77,9.9,9.9,0,0,1,.22,2.41Zm-2.21,1.21-3.55.07a8.19,8.19,0,0,1-2.52-.24,4.29,4.29,0,0,1-2.27-1.57l-6.47-8.44-.11-.17a4.63,4.63,0,0,1-.65-2.09,2.86,2.86,0,0,1,.32-1.4,2.6,2.6,0,0,1,1-1.05,4.1,4.1,0,0,1,2-.51l6.92-.2-.11-.11a19.54,19.54,0,0,0-9.36-5.28,56.57,56.57,0,0,0-11.12-1.4l-2.93-.14c-6.64-.29-10.1-.45-16.26-5.26-2.41-1.89-4.65-3.84-6.88-5.8a101.74,101.74,0,0,0-11.44-9.06c-7.12-4.62-22-7.59-37-8.64-15.79-1.11-31.6-.11-38.57,3.3l3.25,0c22.47.33,56.78.82,67.85,6.9a56.24,56.24,0,0,1,10.45,7.66A98,98,0,0,1,115.28,31.9c2.45,3.07,2.33,5.88,2.2,9.34,0,.73-.06,1.5-.07,2.25v0l-.68,25a.49.49,0,0,1,0,.12l4.66.06a16.32,16.32,0,0,1-.19-2.45,15.66,15.66,0,1,1,31,3,10.42,10.42,0,0,0,1.14,0A6.66,6.66,0,0,0,155,69a10.47,10.47,0,0,0,4.79-3.8A11.18,11.18,0,0,0,162,59.32c.07-1.69.13-3.66.14-5.26v-.13ZM158.22,40.5l-8.24.24a2,2,0,0,0-.93.2.57.57,0,0,0-.19.19.64.64,0,0,0-.06.3,2.38,2.38,0,0,0,.35,1l6.43,8.39a2.13,2.13,0,0,0,1.13.8,6.54,6.54,0,0,0,1.86.16l3.57-.08a2.94,2.94,0,0,0-.09-.67.87.87,0,0,0-.14-.29,1,1,0,0,0-.18-.22c-.35-.34-.61-.56-.8-.73a3.1,3.1,0,0,1-.82-.91,4.76,4.76,0,0,1-.38-1.59c0-.13,0-.29-.11-.78l-.06-.38a22.33,22.33,0,0,0-1.34-5.65ZM72.83,68.06v0l.68-25c0-.84,0-1.59.07-2.32.11-3,.21-5.44-1.73-7.88a1.16,1.16,0,0,1-.2-.38L51.36,31.05c-3.74-.25-10.11-.68-15.21-2.4a1.09,1.09,0,0,1-.24-.07l-.16-.06-.19-.07a3.66,3.66,0,0,0-2.24-.07,9.82,9.82,0,0,0-3,1.69c-3.32,2.45,1.18,12.49,4,18.79.85,1.88,1.55,3.46,1.9,4.5a16.63,16.63,0,0,1,2.24,1.86A15.63,15.63,0,0,1,43,66.29c0,.46,0,.9,0,1.34l29.84.43ZM74.4,32.61c1.6,2.63,1.5,5.15,1.38,8.17,0,.73-.06,1.49-.06,2.24v0l-.68,25,39.49.55a.61.61,0,0,1,0-.14l.69-25c0-.84,0-1.59.06-2.32a14.25,14.25,0,0,0-.53-5.8L74.4,32.61ZM36.78,26.55l.07,0c4.78,1.6,11,2,14.66,2.26L113.35,33a94.24,94.24,0,0,0-10.13-10.86,54.13,54.13,0,0,0-10-7.35c-9.26-5.08-36.35-6.1-57.87-6.49a62.37,62.37,0,0,0-3.5,8.77c-.84,2.86-1.16,5.37-.2,6.44a10.94,10.94,0,0,0,4.27,2.68,6.46,6.46,0,0,1,.9.32ZM31.37,11.76c.49-1.21,1-2.38,1.51-3.46l-6.52-.1c-5.6-.08-10.46-.15-14-.29a1.79,1.79,0,0,0-1.76.72,1.15,1.15,0,0,0-.06,1,1.28,1.28,0,0,0,1.18.73h0l19.63,1.42Zm.19,50.36a5.89,5.89,0,1,0,1.73,4.17A5.9,5.9,0,0,0,31.56,62.12Zm5.33-5.33a13.44,13.44,0,1,0,3.94,9.5A13.4,13.4,0,0,0,36.89,56.79Zm100,1.39a8.13,8.13,0,1,1-5.73,2.38,8.09,8.09,0,0,1,5.73-2.38ZM141,62.12a5.89,5.89,0,1,0,1.73,4.17A5.89,5.89,0,0,0,141,62.12Zm5.34-5.33a13.46,13.46,0,1,0,3.93,9.5A13.44,13.44,0,0,0,146.35,56.79Z"/></g></g></svg>