<svg xmlns="http://www.w3.org/2000/svg" viewBox="0 0 161.01 68.5"><defs><style>.cls-1{fill:#79c6ac;}</style></defs><g id="Layer_2" data-name="Layer 2"><g id="Layer_1-2" data-name="Layer 1"><path class="cls-1" d="M131.73,46.2a7.63,7.63,0,1,1-5.4,2.23A7.61,7.61,0,0,1,131.73,46.2ZM89.9.11h.19l1.29.11,1.19.12c9.28.07,15.49,4.86,21.83,9.74,5.86,4.52,11.83,9.13,20.43,9.82l.83.06h.15a70,70,0,0,1,7.66.92c7.14,1.3,13.05,3.94,13.67,9.12a15.36,15.36,0,0,1-.56,4.8c-.35,1.53-.83,3.22-1.31,4.85a11.92,11.92,0,0,1,3.48.41,4.1,4.1,0,0,1,2,2.78,8.82,8.82,0,0,1-.07,4.41A10.76,10.76,0,0,1,158,52c-2.29,2.35-6,4.24-11.84,4.67a14.67,14.67,0,0,1-28.48,1.19l-41.54-.08H76l-35.33-.07A14.67,14.67,0,0,1,11.84,54.5L9.61,53.38C3.86,50.55-.66,48.32.08,40l1-11.59a5.8,5.8,0,0,1,3.37-5.12,14.35,14.35,0,0,1,6.26-1L72,23.12c.3-2.31.66-4.6,1.07-6.79C74.49,8.8,76.65,2.45,79.65,1,81.43.07,85.58-.17,89.9.11Zm.28,2.23C89,3.11,87.91,5,87,7.69A65.74,65.74,0,0,0,84.46,19.2l0,.26a3.25,3.25,0,0,0,.86,2.45,4.82,4.82,0,0,0,2.88,1.39l.44.05,24.46.33h.15a.67.67,0,0,0,.44-.17,2.44,2.44,0,0,0,.65-.86,3.79,3.79,0,0,0,.35-1.32,2.6,2.6,0,0,0-.42-1.74c-.22-.23-.44-.48-.67-.76-1.06-1.31-2-2.59-3-3.88-2.77-3.71-5.54-7.42-9.36-10.1-1.51-1.07-5-1.87-8.84-2.3h-.05l-1.18-.13-1-.08ZM88.69,25.56h-.26L74,25.35c-.94,8.08-1.17,15.89-.74,19a41.55,41.55,0,0,0,1.55,7,18.49,18.49,0,0,0,1.85,4.19l40.56.08a14,14,0,0,1-.12-1.85,14.67,14.67,0,1,1,29.33,0c0,.21,0,.42,0,.63,4.94-.43,8.09-2,10-4a8.53,8.53,0,0,0,2.18-3.78,6.59,6.59,0,0,0,.07-3.29,2,2,0,0,0-.79-1.33c-.6-.28-4.27-.25-7.58-.22-1.69,0-3.28,0-4.4,0a1.11,1.11,0,0,1,.07-2.21c.66,0,1.49,0,2.41,0l-1.11-7.16c0-.2-.05-.38-.06-.56a3.93,3.93,0,0,1,.8-2.61A3.77,3.77,0,0,1,150.39,28a4.51,4.51,0,0,1,.54-.05l3-.12c-1.88-2.41-6-3.87-10.81-4.74a70.83,70.83,0,0,0-7.43-.89h0l-1.07-.07c-4.06-.25-8-.23-11-.16l-1.15,0a13,13,0,0,1-5.52-.53v0a5.79,5.79,0,0,1-.56,2.11A4.55,4.55,0,0,1,115,25.25a2.81,2.81,0,0,1-2,.64h0l-24.35-.34Zm-5.14-2.28a5.35,5.35,0,0,1-1.32-4c0-.14,0-.28,0-.42A69.21,69.21,0,0,1,84.89,7,18,18,0,0,1,87.22,2.2c-2.94-.05-5.45.18-6.59.74-2.27,1.13-4.08,6.88-5.38,13.8-.39,2.07-.73,4.23-1,6.41l9.32.13ZM154.9,30l-3.89.16a1.2,1.2,0,0,0-.28,0,1.53,1.53,0,0,0-1,.55,1.68,1.68,0,0,0-.33,1.15l0,.3,1.16,7.45v0H153c.53-1.79,1.07-3.66,1.46-5.33a13.59,13.59,0,0,0,.51-4c0-.1,0-.2,0-.3ZM3.7,27c.34.21.67.39,1,.56,2,1.11,3.29,1.81,3.29,5,0,.05,0,.1,0,.15l-.28,4.78a.15.15,0,0,1,0,.07h0C7.31,40.69,6,41.23,3.84,42.11c-.42.16-.87.35-1.31.56a1.21,1.21,0,0,1-.25.08c.5,4.8,4,6.53,8.3,8.65l1.35.67a14.67,14.67,0,0,1,29.23,1.76,15.69,15.69,0,0,1-.1,1.7l33,.07a25.79,25.79,0,0,1-1.41-3.52A44,44,0,0,1,71,44.7c-.45-3.26-.22-11.18.71-19.38l-61-.84a12.55,12.55,0,0,0-5.28.8A3.45,3.45,0,0,0,3.7,27ZM2.26,40.36,3,40.05c1.39-.56,2.26-.92,2.48-2.75l.27-4.75h0c0-1.86-.82-2.31-2.14-3l-.37-.21-1,10.88c0,.06,0,.12,0,.18Zm50.39-4a.69.69,0,0,1,0-1.38H56a3.54,3.54,0,0,1,2.62.81,3.37,3.37,0,0,1,.84,2.57V41a.69.69,0,0,1-1.38,0V38.31a2.17,2.17,0,0,0-.42-1.58A2.37,2.37,0,0,0,56,36.31Zm3.27,6.77a.7.7,0,1,1,0,1.39H52.53a3.61,3.61,0,0,1-2.62-.81,3.41,3.41,0,0,1-.84-2.57V38.42a.7.7,0,0,1,1.39,0v2.67a2.15,2.15,0,0,0,.42,1.58,2.35,2.35,0,0,0,1.65.41ZM125.2,19.71c-4.54-2-8.37-5-12.15-7.87-1.66-1.28-3.32-2.56-5-3.73,1.54,1.76,2.94,3.64,4.35,5.52,1,1.31,2,2.62,2.92,3.82,2,2.5,4,2.43,7,2.33l1.17,0,1.7,0ZM26.49,46.2a7.63,7.63,0,1,1-5.4,2.23A7.61,7.61,0,0,1,26.49,46.2ZM30.32,50a5.42,5.42,0,1,0,1.59,3.83A5.4,5.4,0,0,0,30.32,50Zm5-5a12.45,12.45,0,1,0,3.65,8.8A12.41,12.41,0,0,0,35.29,45Zm100.27,5a5.42,5.42,0,1,0,1.59,3.83A5.4,5.4,0,0,0,135.56,50Zm5-5a12.45,12.45,0,1,0,3.65,8.8A12.41,12.41,0,0,0,140.53,45Z"/></g></g></svg>