<svg xmlns="http://www.w3.org/2000/svg" viewBox="0 0 165.01 70.5"><defs><style>.cls-1{fill:#79c6ac;}</style></defs><g id="Layer_2" data-name="Layer 2"><g id="Layer_1-2" data-name="Layer 1"><path class="cls-1" d="M134.07,48.2a7.63,7.63,0,1,1-5.39,2.23A7.61,7.61,0,0,1,134.07,48.2Zm24.37-16.14-8.18,0h-.06a1.3,1.3,0,0,0-.86.28,1.15,1.15,0,0,0-.27.83c0,1.19.05,2.39.07,3.59a.8.8,0,0,0,.24.56,1.3,1.3,0,0,0,.8.36l11.91,1.76a31.17,31.17,0,0,0-2.6-5.64c-.33-.58-.69-1.15-1.05-1.71Zm4.24,9.67-12.82-1.88a3.6,3.6,0,0,1-2.05-1,2.94,2.94,0,0,1-.88-2.07l-.06-3.53v-.11h0a3.25,3.25,0,0,1,.93-2.4,3.38,3.38,0,0,1,2.36-.91h.11l6.56,0a16.58,16.58,0,0,0-3.12-3.06A20.07,20.07,0,0,0,149.19,25l-1-.32a19.76,19.76,0,0,0-4.33-.42,37.47,37.47,0,0,0-8.38,1.07,13.76,13.76,0,0,1-4.49.49l-4.61,0,.07.07a6.73,6.73,0,0,1,2.08,5.26.51.51,0,0,0,0,.09h0l-.09,11.15a14.46,14.46,0,0,1,5.67-1.14,14.66,14.66,0,0,1,14.67,14.64l1.25-.16c3.57-.45,8.31-1,10-2.7A8.37,8.37,0,0,0,161.43,51a10.74,10.74,0,0,0,1-2.5,13.12,13.12,0,0,0,.37-2.93c0-1.06,0-2.15,0-3.23,0-.19,0-.4-.06-.62ZM16,30.22H47.37a.7.7,0,0,1,.7.7v1.9a.69.69,0,0,1-.7.69H16a.69.69,0,0,1-.69-.69v-1.9A.69.69,0,0,1,16,30.22Zm30.67,1.39h-30v.52h30ZM121,23.48a.93.93,0,0,1,.33,0h.1l.26,0,4.34.05c-2.49-2.17-4.94-4.65-7.38-7.12a107.14,107.14,0,0,0-9.37-8.74H22.2A4.41,4.41,0,0,0,19.32,10a13.37,13.37,0,0,0-1.49,4.48,15.31,15.31,0,0,0-.06,4.67c.2,1.32.57,2.31,1.1,2.62a5,5,0,0,0,1.31.49,7.65,7.65,0,0,0,1.74.21l62.4.62h.15l36.52.36Zm7.13,21.42a1.09,1.09,0,0,1-.63.36A12.69,12.69,0,0,0,125.27,47a12.48,12.48,0,1,0,2.85-2.13Zm-1.94-1.43.1-12.32a1.09,1.09,0,0,1,0-.18v-.06a4.51,4.51,0,0,0-1.43-3.53,6,6,0,0,0-3.39-1.69l-32-.32.1.11a6.66,6.66,0,0,1,2.08,5.25.62.62,0,0,0,0,.09h0L91.42,57l28.06.23a13,13,0,0,1-.07-1.4,14.64,14.64,0,0,1,4.29-10.37,14.82,14.82,0,0,1,2.48-2ZM47.07,25A1.18,1.18,0,0,1,46.8,25l-24.9-.24a10.68,10.68,0,0,1-2.23-.26,7,7,0,0,1-1.91-.74c-1.15-.67-1.88-2.24-2.18-4.2a17.87,17.87,0,0,1,.07-5.35,15.3,15.3,0,0,1,1.76-5.24,6.52,6.52,0,0,1,4.48-3.45l.22,0h84a17.61,17.61,0,0,0-5.74-2.35L98,2.91h-.13c-14.06-1-37.21-.69-55.93-.41-9.21.13-17.34.25-22.82.18A10.2,10.2,0,0,0,13,4.46a8.67,8.67,0,0,0-3.22,5L6.25,26.7a11.44,11.44,0,0,0-.2,1.71c0,.62,0,1.24,0,1.81l.49,17L21.67,46c.15-.17.3-.33.46-.49a14.67,14.67,0,0,1,25,10.38c0,.27,0,.53,0,.8l4.84,0,.21-26.18v-.17c0-.07,0,0,0-.06a4.51,4.51,0,0,0-1.43-3.54A5.91,5.91,0,0,0,47.15,25Zm5.1,0,.16.15a6.76,6.76,0,0,1,2.08,5.26.62.62,0,0,0,0,.09h0L54.18,56.7l35,.29.22-26.18a.48.48,0,0,1,0-.17v-.06A4.53,4.53,0,0,0,88,27a6,6,0,0,0-3.62-1.71H84.3L52.17,25ZM98,.7a13.42,13.42,0,0,1,2.76.23c2.35.22,4.38.49,6,.81a21.53,21.53,0,0,1,2.81.79,30,30,0,0,1,2.86,1.2,79.47,79.47,0,0,1,12.34,7.69c5.32,3.81,10.45,7.49,18.07,9.46,2,.51,4.08,1.07,6,1.63a13,13,0,0,1,1.92.61A18.07,18.07,0,0,1,155,25a25,25,0,0,1,6.42,7.67c2,3.54,3.44,7.32,3.54,9.6,0,1.12.08,2.25.05,3.39a16,16,0,0,1-.45,3.41,13.06,13.06,0,0,1-1.17,3,10.8,10.8,0,0,1-1.85,2.46c-2.2,2.17-7.37,2.82-11.26,3.31l-1.7.23a14.67,14.67,0,0,1-28.71,1.37l-73-.6a14.68,14.68,0,0,1-28.74-.09H4.36c-2.26,0-3.52-1-4.07-2.52A5.36,5.36,0,0,1,0,53.85a8.54,8.54,0,0,1,.62-2.38,7,7,0,0,1,3.68-4L3.84,30.28c0-.63,0-1.31,0-2a12.49,12.49,0,0,1,.24-2L7.61,8.93a10.81,10.81,0,0,1,4.06-6.26A12.34,12.34,0,0,1,19.08.46h0C24.55.53,32.68.41,41.87.28,60.6,0,83.75-.33,98,.7Zm10.94,4c3.86,2.7,7.57,6.45,11.28,10.2,2.57,2.6,5.14,5.19,7.72,7.4a5.53,5.53,0,0,0,3.15,1.33,11.41,11.41,0,0,0,3.83-.44,39.35,39.35,0,0,1,4.84-.86c-6.65-2.17-11.39-5.56-16.27-9.06a77.24,77.24,0,0,0-12-7.49c-.87-.42-1.72-.78-2.54-1.08Zm-89,43.66L5.48,49.51H5.39c-1-.06-2.07,1.27-2.7,2.81a6.39,6.39,0,0,0-.46,1.75,3.2,3.2,0,0,0,.14,1.41c.23.63.84,1.07,2,1.07H17.85c0-.23,0-.47,0-.71a14.56,14.56,0,0,1,2.08-7.52ZM32.5,48.2a7.63,7.63,0,1,1-5.4,2.23A7.61,7.61,0,0,1,32.5,48.2ZM36.33,52a5.42,5.42,0,1,0,1.59,3.84A5.4,5.4,0,0,0,36.33,52Zm5-5A12.45,12.45,0,1,0,45,55.83,12.41,12.41,0,0,0,41.3,47Zm96.61,5a5.42,5.42,0,1,0,1.59,3.84A5.41,5.41,0,0,0,137.91,52Z"/></g></g></svg>