<svg xmlns="http://www.w3.org/2000/svg" viewBox="0 0 276.69 127.16"><defs><style>.cls-1{fill:#b3b3b3;}.cls-2{fill:#787878;}.cls-3{fill:#1e1e1e;}</style></defs><g id="Layer_2" data-name="Layer 2"><g id="Ñëîé_1" data-name="Ñëîé 1"><path class="cls-1" d="M276.69,119v-5.44h0l-4.7-2.71-4.68,2.7-4.66-2.68v-5.41h0l-4.7-2.71-4.68,2.7-4.66-2.68V97.37h0l-4.67-2.7V89.25h0l-4.69-2.72-4.69,2.71-4.65-2.69V81.17l4.65-2.68,4.69,2.7,4.71-2.72V73l-4.71-2.72L234.51,73l-4.68-2.7L225.12,73v5.41l-4.66,2.68-4.68-2.7-4.72,2.72v5.41l-4.65,2.69-4.66-2.69V81.17l4.69-2.7V73l-4.71-2.72L197,73v5.41l-4.65,2.68-4.66-2.68V73L183,70.32V65l4.68-2.7V56.8L183,54.08l-4.71,2.72v5.41l-4.69,2.71v5.41L168.91,73v5.41l-4.66,2.68-4.65-2.68V73l-4.68-2.71v-5.4l-4.69-2.71V56.8l-4.71-2.72-4.68,2.71-4.66-2.69V48.72L140.84,46l4.68,2.7L150.23,46V40.61l4.69-2.7V32.47l-4.72-2.72-4.71,2.72v5.41l-4.65,2.68-4.69-2.7-4.71,2.72V46l-4.65,2.68L122.1,46l-4.71,2.72V54.1l-4.66,2.69-4.65-2.69V48.72l4.68-2.7V40.58l-4.71-2.72-4.71,2.72V46l-4.66,2.68L94,46V40.58l-4.69-2.7V32.5L94,29.8V24.35l-4.71-2.72L84.6,24.35v5.41l-4.68,2.71v5.41l-4.68,2.7V46l-4.66,2.68L65.93,46V40.58l-4.69-2.7V32.5l4.69-2.7V24.35l-4.72-2.72-4.68,2.71-4.66-2.69V16.24l-4.68-2.7V8.13L42.48,5.41,37.77,8.13v5.41l-4.69,2.7v5.44l4.71,2.72,4.69-2.7,4.65,2.69V29.8l4.69,2.7v5.38l-4.69,2.7V46l-4.65,2.68L37.82,46V40.58l-4.71-2.72-4.68,2.7-4.66-2.68V32.47l-4.71-2.72-4.68,2.7-4.69-2.7L5,32.47v5.41L.3,40.58V46L5,48.74,9.72,46V40.61l4.66-2.69L19,40.61V46l4.71,2.72L28.43,46l4.65,2.68v5.41l4.69,2.71v5.41L42.48,65l4.71-2.72V56.84l4.68-2.71V48.72L56.53,46l4.65,2.68v5.41l4.69,2.71v5.41L70.58,65l4.71-2.72V56.84L80,54.13V48.72L84.63,46l4.66,2.68V54.1L84.6,56.8v5.45L89.32,65,94,62.25V56.84l4.65-2.69,4.66,2.69v5.41L108,65v5.37L103.34,73v5.44h0l4.7,2.71,4.71-2.72V73.06l4.69-2.7V65l4.68-2.7V56.84l4.66-2.69,4.65,2.69v5.41L136.15,65l4.69-2.71L145.49,65v5.37L140.81,73v5.41l-4.66,2.68-4.68-2.7-4.71,2.72v5.41l-4.69,2.7v5.44h0l4.7,2.72,4.71-2.73v-5.4l4.65-2.69,4.69,2.7,4.71-2.72V81.17l4.65-2.68,4.66,2.68v5.41h0l4.67,2.7v5.4h0l4.69,2.72L169,94.69v-5.4l4.68-2.71V81.17l4.66-2.68L183,81.17v5.38l-4.68,2.7v5.44h0l4.7,2.72,4.71-2.73v-5.4l4.66-2.69L197,89.29v5.4h0l4.67,2.7v5.38l-4.69,2.7v5.44h0l4.7,2.71,4.71-2.72v-5.41l4.68-2.7V97.4l4.68-2.71v-5.4l4.66-2.69,4.66,2.69v5.4h0l4.67,2.7v5.38l-4.68,2.7v5.44h0l4.7,2.71,4.71-2.72v-5.41l4.66-2.69,4.65,2.69v5.41h0l4.7,2.71,4.69-2.7,4.65,2.68V119h0l4.69,2.71,4.69-2.7,4.68,2.7ZM258,113.62l2.8-1.61,1.85-1.07,4.66,2.68V119l-4.66,2.69L258,119Zm-14-8.11,2.33-1.34,2.32-1.35,4.66,2.69v5.38l-4.66,2.69-4.65-2.69Zm-4.74-2.73-4.66,2.68-4.65-2.68V97.4l3.45-2,1.2-.7,4.66,2.69Zm-14,2.73,4.66-2.69,4.65,2.69v5.38l-4.65,2.69-4.66-2.69Zm0-16.22,2.33-1.35,2.33-1.34,4.65,2.69v5.37l-4.65,2.69-4.66-2.69Zm-14.11,13.49-4.65,2.68-3.15-1.82-1.51-.86V97.4l4-2.33.62-.36,4.65,2.69Zm-14,2.73,4.66-2.69.85.5,3.8,2.19v5.38l-4.65,2.69-4.66-2.69Zm0-16.22,2.33-1.35,2.32-1.34,4.66,2.69v5.37l-4.66,2.69-4.65-2.69Zm-9.4-10.8,4.66,2.68v5.38l-4.66,2.69L183,86.55V81.17L186.87,79Zm-9.34,10.8L183,86.6l4.66,2.69v5.37L183,97.35l-4.66-2.69Zm-18.73,0,3.79-2.19.86-.5,4.66,2.69v5.37l-4.66,2.69-4.65-2.69Zm-4.68-8.12,2.32-1.34,2.33-1.34,4.66,2.68v5.38l-4.66,2.69-4.65-2.69Zm-32.79,8.12,4.66-2.69,4.65,2.69v5.37l-4.65,2.69-4.66-2.69Zm9.34-10.8,4.65,2.68v5.38l-4.65,2.69-4.66-2.69V81.17Zm4.71,2.68,4.66-2.68,4.65,2.68v5.38l-4.65,2.69-4.66-2.69Zm4.69-8.11,4.65-2.69,3.72,2.15.94.54v5.38l-4.66,2.68-4.65-2.68ZM131.5,62.21V56.84l2.33-1.35,2.32-1.34,4.66,2.69v5.37l-4.66,2.69Zm-14.11,8.11L112.73,73l-4.17-2.41-.48-.28V65l4.65-2.69,2.33,1.35L117.39,65Zm-14,2.74,4.65-2.69,4.66,2.69v5.38l-4.66,2.68-4.65-2.68Zm0-10.85V56.84l2.32-1.35,2.33-1.34,4.66,2.69v5.37l-.95.54-3.71,2.15ZM94,46l4.66,2.68V54.1L94,56.79,89.34,54.1V48.72Zm-9.34,10.8,4.66-2.69L93,56.3l.93.54v5.37L89.32,64.9l-4.66-2.69ZM65.93,62.21V56.84l2.32-1.35,2.33-1.34,4.66,2.69v5.37L70.58,64.9ZM61.24,54.1V48.72l2.33-1.34L65.9,46l4.65,2.68V54.1l-2.32,1.34L65.9,56.79ZM58.86,39.22l-2.33,1.34-4.65-2.68V32.5l4.65-2.69.42.24,4.23,2.45v5.38Zm-21,17.62,4.66-2.69,2.33,1.34,2.32,1.35v5.37L42.48,64.9l-4.66-2.69ZM33.14,54.1V48.72l.73-.42L37.79,46l4.66,2.68V54.1l-.42.24-4.24,2.45ZM19.09,46V40.61l2.33-1.34,2.32-1.35,4.66,2.69V46l-4.66,2.68ZM.35,40.61,5,37.92l2.33,1.35,2.32,1.34V46L5,48.67.35,46Zm9.34-10.8,4.66,2.69v5.38L9.69,40.56,7.36,39.22,5,37.88V32.5Zm14,2.69v5.38l-2.33,1.34-2.33,1.34L14.4,37.88V32.5l4.66-2.69Zm14.05,8.11V46l-1.66.95-3,1.73L28.46,46V40.61l4.65-2.69Zm4.74,8.11L47.16,46l2.33,1.34,2.33,1.34V54.1l-4.66,2.69-2.32-1.35L42.51,54.1Zm4.68-8.11,4.66-2.69,4.06,2.35.59.34V46l-4.65,2.68-2.33-1.34L47.19,46Zm0-16.22,4.66-2.69,4.65,2.69v5.37l-.58.34-4.07,2.35-4.66-2.69Zm-14-8.11,4.65-2.69,4.08,2.35.58.34v5.37l-4.66,2.69-4.65-2.69Zm14-8.12v5.38l-2.32,1.34-2.33,1.34-4.66-2.68V8.16l4.66-2.69Zm4.69,8.12v5.37l-.92.53-3.74,2.16-4.65-2.69V16.28l2.32-1.35,2.33-1.34ZM65.87,29.76l-4.66,2.69-4.65-2.69V24.39l4.65-2.69,4.66,2.69Zm0,10.85V46l-2.33,1.34-2.33,1.34L56.56,46V40.61l2.33-1.34,2.32-1.35Zm4.74,8.11L75.27,46l2.32,1.34,2.33,1.34V54.1l-4.65,2.69-3.73-2.15-.93-.54Zm4.68-8.11L80,37.92l4.65,2.69V46L80,48.67l-2.33-1.34L75.29,46ZM80,32.5l4.65-2.69L87,31.16l2.33,1.34v5.38L87,39.22l-2.33,1.34-1-.55L80,37.88Zm14-2.74-4.65,2.69L87,31.11l-2.33-1.35V24.39l4.66-2.69L94,24.39Zm0,10.85V46l-.93.53-3.72,2.15L84.66,46V40.61L87,39.27l2.33-1.35Zm4.74,8.11L103.37,46,108,48.72V54.1l-2.33,1.34-2.32,1.35L98.71,54.1Zm14-2.73-4.66,2.68-4-2.3L103.4,46V40.61l4.65-2.69,4.66,2.69Zm.05,10.85,4.66-2.69,2.33,1.34,2.32,1.35v5.37l-4.65,2.69-2.33-1.34-2.33-1.35ZM122.1,46l4.66,2.68V54.1l-4.66,2.69-2.33-1.35-2.32-1.34V48.72Zm4.71,2.68L131.47,46l2.33,1.34,2.32,1.34V54.1l-2.32,1.34-2.33,1.35-4.66-2.69Zm28.05-10.84-4.66,2.68-2.32-1.34-2.33-1.34V32.5l4.65-2.69,4.66,2.69Zm-9.34,10.79L140.87,46V40.61l4.65-2.69,2.33,1.35,2.33,1.34V46ZM140.81,46l-4.66,2.68-2.32-1.34L131.5,46V40.61l4.65-2.69,4.66,2.69Zm9.37,10.85v5.37l-.94.54-3.72,2.15-4.65-2.69V56.84l4.65-2.69ZM154.86,65v5.37l-2.33,1.35L150.2,73l-4.65-2.69V65l4.65-2.69Zm4.68,13.49-2.32,1.34-2.33,1.34-4.66-2.68V73.06l2.33-1.34,2.33-1.35,4.65,2.69Zm4.74,2.73,4.66-2.68,4.65,2.68v5.38l-4.65,2.69-4.66-2.69ZM169,73.06l4.65-2.69,4.66,2.69v5.38l-4.66,2.68L169,78.44ZM173.65,65l4.66-2.69L183,65v5.37l-2.33,1.35L178.31,73l-.59-.33-4.07-2.36Zm14-2.74L183,64.9l-4.07-2.35-.59-.34V56.84L183,54.15l4.66,2.69Zm0,16.23L183,81.12l-4.66-2.68V73.06l2.33-1.34L183,70.37l4.66,2.69Zm4.74,2.73L197,78.49l4.66,2.68v5.38l-2.33,1.34L197,89.24l-4.65-2.69Zm14-2.73-4.65,2.68-4.66-2.68V73.06l4.66-2.69,4.65,2.69Zm.06,10.85,4.65-2.69,4.66,2.69v5.37l-4.66,2.69-4.65-2.69Zm9.34-10.8,4.65,2.68v5.38l-4.65,2.69-4.66-2.69V81.17Zm4.71,2.68,4.65-2.68,4.66,2.68v5.38l-2.33,1.34-2.33,1.35-4.65-2.69Zm18.71,0-4.66-2.68V73.06l4.66-2.69,4.65,2.69v5.38Zm-4.72-2.68-4.65,2.68-4.66-2.68V73.06l4.66-2.69,4.65,2.69Zm9.37,16.22L241.52,96l-2.32,1.34-4.66-2.69V89.29l4.66-2.69,4.65,2.69Zm4.68,8.12-2.32,1.34-2.33,1.34-4.66-2.68V97.4l2.33-1.34,2.33-1.35,4.65,2.69Zm14,8.11-3.12,1.8-1.53.89-4.66-2.69v-5.38l4.66-2.69,4.65,2.69ZM276.64,119,272,121.69,267.33,119v-5.38l4.65-2.68,4.66,2.68Z"/><path class="cls-2" d="M.3,13.54V19h0L5,21.7,9.69,19l4.66,2.68v5.41h0l4.7,2.71,4.68-2.7L28.4,29.8v5.4h0l4.67,2.7v5.41h0L37.79,46l4.69-2.71L47.13,46V51.4l-4.65,2.68-4.69-2.7L33.08,54.1v5.44l4.71,2.72,4.69-2.7,4.68,2.7,4.71-2.72V54.13l4.66-2.69,4.68,2.71,4.72-2.72V46l4.65-2.69L75.24,46v5.37L70.55,54.1v5.44l4.71,2.72L80,59.54V54.13l4.65-2.69,4.66,2.69v5.41L94,62.24v5.38l-4.68,2.7v5.45L94,78.49l4.71-2.72V70.36l4.69-2.71V62.24l4.68-2.7V54.13l4.65-2.69,4.66,2.69v5.41l4.68,2.7v5.41l4.69,2.71v5.41l4.71,2.72,4.68-2.71,4.66,2.69v5.37l-4.66,2.69-4.68-2.7-4.71,2.72V92l-4.69,2.7v5.44l4.72,2.72,4.71-2.72V94.69L136.15,92l4.69,2.7L145.55,92V86.58l4.65-2.69,4.69,2.71,4.71-2.72V78.47l4.65-2.69,4.66,2.69v5.37l-4.68,2.71V92l4.71,2.72L173.65,92V86.58l4.66-2.69L183,86.58V92l4.69,2.7v5.38l-4.69,2.7v5.44l4.71,2.73,4.72-2.73v-5.4l4.68-2.71V94.69l4.68-2.7V86.58l4.66-2.69,4.65,2.69V92l4.69,2.7v5.38l-4.69,2.7v5.44l4.72,2.73,4.68-2.71,4.66,2.69v5.41l4.68,2.7v5.41l4.71,2.72,4.71-2.72V119l4.69-2.7v-5.45l-4.72-2.71-4.68,2.7-4.65-2.69v-5.41l-4.69-2.7V94.69l4.69-2.7V86.58l4.65-2.69,4.66,2.69V92l4.71,2.72,4.68-2.7,4.66,2.68v5.41l4.71,2.72,4.68-2.7,4.69,2.7L272,100.1V94.69l4.68-2.7V86.55L272,83.83l-4.71,2.72V92l-4.66,2.68L258,92V86.55l-4.71-2.72-4.69,2.7-4.65-2.69v-5.4l-4.69-2.71V70.32l-4.71-2.72-4.71,2.72v5.41l-4.68,2.71v5.4l-4.66,2.69-4.66-2.69v-5.4l-4.68-2.71V70.32l-4.71-2.72-4.71,2.72v5.41L197,78.44v5.4l-4.65,2.69-4.66-2.69V78.47l4.69-2.7V70.32l-4.72-2.72L183,70.32v5.41l-4.65,2.69-4.66-2.69V70.32L169,67.62V62.24l4.68-2.7V54.1h0l-4.7-2.71-4.71,2.72v5.41l-4.69,2.7v5.41l-4.68,2.7v5.41l-4.66,2.69-4.65-2.69V70.32l-4.71-2.72-4.69,2.71-4.65-2.69V62.24l4.68-2.7V54.13l4.66-2.69,4.68,2.71,4.71-2.72V46l4.69-2.7V37.87h0l-4.7-2.72-4.71,2.72v5.41L140.84,46l-4.69-2.7L131.44,46v5.4l-4.65,2.69-4.66-2.69V46h0l-4.67-2.7V37.87h0l-4.7-2.72L108,37.87v5.41L103.34,46v5.4l-4.66,2.69L94,51.39V46l4.68-2.7V37.87h0L94,35.15l-4.71,2.72v5.41L84.63,46,80,43.28V37.87h0l-4.67-2.7V29.8L80,27.09V21.65h0l-4.7-2.71-4.71,2.72v5.41l-4.68,2.7v5.41l-4.69,2.7v5.41L56.53,46l-4.66-2.69V37.87h0l-4.67-2.7V29.8l4.68-2.71V21.65h0l-4.7-2.71-4.71,2.72v5.41l-4.66,2.69-4.65-2.69V21.65h0l-4.7-2.71-4.69,2.7L19.09,19V13.54h0l-4.69-2.71-4.69,2.7L5,10.82ZM19,19l-2.8,1.61-1.85,1.07L9.72,19V13.57l4.66-2.69L19,13.57Zm14,8.11L30.76,28.4l-2.33,1.35-4.66-2.69V21.68L28.43,19l4.65,2.68Zm4.74,2.74,4.66-2.69,4.65,2.69v5.37l-3.45,2-1.2.7-4.66-2.69Zm14-2.74-4.66,2.69-4.65-2.69V21.68L47.16,19l4.66,2.68Zm0,16.22-2.33,1.35L47.16,46l-4.65-2.69V37.91l4.65-2.69,4.66,2.69ZM65.93,29.8l4.65-2.69,3.15,1.81,1.51.88v5.37l-4,2.33-.62.36-4.65-2.69Zm14-2.74-4.66,2.69-.86-.5-3.79-2.19V21.68L75.26,19l4.66,2.68Zm0,16.22-2.33,1.35L75.27,46l-4.66-2.69V37.91l4.66-2.69,4.65,2.69Zm9.4,10.8-4.66-2.69V46l4.66-2.69L94,46v5.37l-3.85,2.23Zm9.33-10.8L94,46l-4.66-2.69V37.91L94,35.22l4.65,2.69Zm18.74,0-3.79,2.19-.87.5-4.65-2.69V37.91l4.65-2.69,4.66,2.69Zm4.68,8.11-2.32,1.35-2.33,1.34-4.66-2.69V46l4.66-2.69L122.07,46Zm32.79-8.11L150.2,46l-4.65-2.69V37.91l4.65-2.69,4.66,2.69Zm-9.34,10.8-4.65-2.69V46l4.65-2.69L150.17,46v5.37Zm-4.71-2.69-4.66,2.69-4.65-2.69V46l4.65-2.69L140.81,46Zm-4.69,8.12-4.65,2.68-3.72-2.14-.94-.54V54.13l4.66-2.69,4.65,2.69Zm9.37,10.85v5.37l-2.33,1.35-2.32,1.34-4.66-2.69V70.36l4.66-2.69Zm14.11-8.12,4.65-2.68,4.17,2.4.49.28v5.38l-4.66,2.69L161.93,69l-2.33-1.34Zm14-2.73-4.65,2.68-4.66-2.68V54.13l4.66-2.69,4.65,2.69Zm0,10.85v5.37l-2.32,1.35-2.33,1.34-4.66-2.69V70.36l.94-.55,3.72-2.14ZM183,86.53l-4.66-2.69V78.47L183,75.78l4.66,2.69v5.37Zm9.34-10.8-4.66,2.69L184,76.27l-.93-.54V70.36l4.65-2.69,4.66,2.69Zm18.73-5.37v5.37l-2.32,1.35-2.33,1.34-4.66-2.69V70.36l4.66-2.69Zm4.69,8.11v5.37l-2.33,1.35-2.33,1.34-4.65-2.69V78.47l2.32-1.34,2.33-1.35Zm2.38,14.88L220.46,92l4.65,2.68v5.38l-4.65,2.69-.42-.24-4.24-2.45V94.69Zm21-17.62-4.65,2.69-2.33-1.34-2.32-1.35V70.36l4.65-2.69,4.65,2.69Zm4.69,2.74v5.37l-.73.42-3.93,2.27-4.65-2.69V78.47l.42-.24,4.23-2.45Zm14,8.11V92l-2.33,1.34-2.32,1.34L248.59,92V86.58l4.66-2.69ZM276.64,92,272,94.64l-2.33-1.34L267.33,92V86.58L272,83.89l4.66,2.69Zm-9.34,10.8-4.66-2.69V94.69L267.3,92l2.32,1.34L272,94.69v5.38Zm-14-2.69V94.69l2.33-1.34L257.93,92l4.65,2.68v5.38l-4.65,2.69ZM239.22,92V86.58l1.65-1,3-1.74,4.65,2.69V92l-4.65,2.68Zm-4.74-8.12-4.65,2.69-2.33-1.34-2.33-1.35V78.47l4.66-2.69,2.33,1.35,2.32,1.34ZM229.8,92l-4.66,2.68-4.06-2.34-.59-.34V86.58l4.65-2.69,2.33,1.35,2.33,1.34Zm0,16.22-4.66,2.69-4.65-2.69v-5.37l.58-.34,4.07-2.35,4.66,2.69Zm14,8.11L239.19,119l-4.07-2.35-.58-.34v-5.37l4.65-2.69,4.66,2.69Zm-14,8.12V119l2.32-1.34,2.33-1.35,4.66,2.69v5.38l-4.66,2.68Zm-4.69-8.12v-5.37l.91-.53,3.75-2.16,4.65,2.69v5.37l-2.32,1.35L229.83,119Zm-14-13.48,4.66-2.69,4.65,2.69v5.37l-4.65,2.69-4.66-2.69Zm0-10.85V86.58l2.33-1.34,2.33-1.35,4.65,2.69V92L218.1,93.3l-2.32,1.34Zm-4.74-8.12-4.66,2.69-2.32-1.34-2.33-1.35V78.47l4.65-2.69,3.73,2.15.93.54ZM201.7,92,197,94.64,192.39,92V86.58L197,83.89l2.33,1.35,2.33,1.34ZM197,100.07l-4.65,2.69L190,101.41l-2.33-1.34V94.69L190,93.35,192.36,92l1,.55L197,94.69Zm-14,2.74,4.65-2.69,2.33,1.34,2.33,1.35v5.37l-4.66,2.69L183,108.18ZM183,92V86.58L184,86l3.72-2.15,4.66,2.69V92L190,93.3l-2.33,1.34Zm-4.74-8.12-4.66,2.69L169,83.84V78.47l2.32-1.34,2.33-1.35,4.66,2.69Zm-14,2.74,4.66-2.69,4,2.31.65.38V92l-4.65,2.68L164.28,92Zm-.05-10.85-4.66,2.69-2.33-1.34-2.32-1.35V70.36l4.65-2.69L161.9,69l2.33,1.35Zm-9.34,10.8-4.66-2.69V78.47l4.66-2.69,2.33,1.35,2.32,1.34v5.37Zm-4.72-2.69-4.65,2.69-2.33-1.34-2.32-1.35V78.47l2.32-1.34,2.33-1.35,4.65,2.69Zm-28,10.85L126.79,92l2.32,1.34,2.33,1.34v5.38l-4.65,2.69-4.66-2.69Zm9.34-10.8,4.65,2.69V92l-4.65,2.68-2.33-1.34L126.81,92V86.58Zm4.71,2.69,4.66-2.69,2.32,1.35,2.33,1.34V92l-4.65,2.68L136.18,92Zm-9.37-10.85V70.36l.94-.55,3.72-2.14,4.65,2.69v5.37l-4.65,2.69Zm-4.68-8.11V62.24l2.33-1.34,2.33-1.34,4.65,2.68v5.38l-4.65,2.69Zm-4.68-13.49,2.32-1.34,2.33-1.35,4.66,2.69v5.38l-2.33,1.34-2.33,1.34-4.65-2.68Zm-4.74-2.74-4.66,2.69-4.65-2.69V46l4.65-2.69L112.71,46ZM108,59.51l-4.65,2.68-4.66-2.68V54.13l4.66-2.69L108,54.13Zm-4.68,8.11-4.66,2.69L94,67.62V62.24l2.33-1.34,2.32-1.34.58.33,4.08,2.35Zm-14,2.74L94,67.67,98.07,70l.58.34v5.37L94,78.42l-4.66-2.69Zm0-16.23L94,51.44l4.65,2.69v5.38l-2.32,1.34L94,62.19l-4.66-2.68ZM84.6,51.39,80,54.08l-4.66-2.69V46l2.33-1.34L80,43.33,84.6,46Zm-14,2.74,4.65-2.68,4.66,2.68v5.38l-4.66,2.68-4.65-2.68Zm-.06-10.85L65.9,46l-4.66-2.69V37.91l4.66-2.69,4.65,2.69Zm-9.34,10.8-4.65-2.69V46l4.65-2.69L65.87,46v5.37ZM56.5,51.39l-4.65,2.69-4.66-2.69V46l2.33-1.34,2.33-1.35L56.5,46Zm-18.71.06,4.66,2.68v5.38l-4.66,2.68-4.65-2.68V54.13Zm4.72,2.68,4.65-2.68,4.66,2.68v5.38l-4.66,2.68-4.65-2.68ZM33.14,37.91l2.33-1.35,2.32-1.34,4.66,2.69v5.37L37.79,46l-4.65-2.69ZM28.46,29.8l2.32-1.35,2.33-1.34,4.66,2.69v5.37l-2.33,1.34-2.33,1.35-4.65-2.69ZM14.4,21.68l3.12-1.8L19.06,19l4.66,2.68v5.38l-4.66,2.69L14.4,27.06Zm-14-8.11L5,10.88l4.65,2.69V19L5,21.63.35,19Z"/><path class="cls-3" d="M.3,35.51v5.1h0l4.4,2.54a.32.32,0,0,0,0,.14.32.32,0,0,0,.33.32.32.32,0,0,0,.32-.32.32.32,0,0,0,0-.14l4.42-2.55v-5.1a.32.32,0,0,0,.27-.46l4.39-2.53L19,35.2v5.07a.33.33,0,0,0,0,.65.32.32,0,0,0,.27-.14l4.41,2.55,4.69-2.7,4.39,2.53a.33.33,0,0,0,.26.46v5.1h0l4.4,2.55a.28.28,0,0,0,0,.13.32.32,0,0,0,.3.32v5.11h0l4.4,2.55a.28.28,0,0,0,0,.13.33.33,0,0,0,.33.33.32.32,0,0,0,.32-.33.28.28,0,0,0,0-.13l4.42-2.55V51.43l4.39-2.54a.32.32,0,0,0,.59-.18.33.33,0,0,0-.3-.33V43.32l4.66-2.69,4.39,2.53a.33.33,0,0,0,.26.46v5.1h0l4.4,2.55a.28.28,0,0,0,0,.13.32.32,0,0,0,.3.32v5.11h0l4.7,2.72L75,57a.32.32,0,0,0,.59-.19.32.32,0,0,0-.3-.32V51.43l4.39-2.54a.32.32,0,0,0,.59-.18.33.33,0,0,0-.29-.33V43.32l4.65-2.69L89,43.16a.32.32,0,0,0,.27.46v5.07L84.6,51.4v5.1a.32.32,0,0,0-.29.32.32.32,0,0,0,.32.33A.35.35,0,0,0,84.9,57l4.42,2.55L94,56.84V51.73a.33.33,0,0,0,.3-.32.28.28,0,0,0,0-.13l4.39-2.54,4.66,2.69v5.41h0l4.67,2.7v5.38l-4.39,2.53a.33.33,0,0,0-.26-.14.33.33,0,0,0-.33.33.33.33,0,0,0,.3.32v5.1l4.71,2.72,4.42-2.55a.3.3,0,0,0,.26.14.33.33,0,0,0,.33-.32.33.33,0,0,0-.3-.33V67.65l4.39-2.53a.35.35,0,0,0,.27.14.33.33,0,0,0,0-.65V59.54l4.68-2.7V51.73a.32.32,0,0,0,.3-.32.28.28,0,0,0,0-.13l4.39-2.54,4.38,2.54a.5.5,0,0,0,0,.13.32.32,0,0,0,.3.32v5.11h0l4.69,2.72L140.57,57a.35.35,0,0,0,.27.14.33.33,0,0,0,.26-.14l4.39,2.53v5.38l-4.39,2.53a.33.33,0,0,0-.26-.14.33.33,0,0,0-.33.33.33.33,0,0,0,.3.32V73l-4.66,2.69-4.39-2.54a.31.31,0,0,0,0-.13.32.32,0,0,0-.32-.33.33.33,0,0,0-.33.33.61.61,0,0,0,0,.13l-4.41,2.55v5.41l-4.39,2.53a.34.34,0,0,0-.27-.13.32.32,0,0,0,0,.64v5.11L126.79,92l4.41-2.55a.35.35,0,0,0,.27.14.32.32,0,0,0,.32-.33.32.32,0,0,0-.29-.32V83.88l4.39-2.54a.3.3,0,0,0,.26.14.32.32,0,0,0,.27-.14l4.42,2.55,4.41-2.55a.32.32,0,0,0,.27.14.32.32,0,0,0,0-.64V75.77l4.65-2.69,4.39,2.53a.32.32,0,0,0,.27.46v5.1l4.42,2.55a.35.35,0,0,0,0,.14.32.32,0,0,0,.29.32v5.11L164,91.84a.28.28,0,0,0,0,.13.33.33,0,0,0,.32.33.33.33,0,0,0,.33-.33.28.28,0,0,0,0-.13L169,89.29V84.18a.32.32,0,0,0,.29-.32.35.35,0,0,0,0-.14l4.42-2.55v-5.1a.32.32,0,0,0,.27-.46l4.39-2.53,4.39,2.53a.31.31,0,0,0,.26.46v5.07l-4.39,2.53a.32.32,0,0,0-.26-.13.32.32,0,0,0-.33.32.32.32,0,0,0,.3.32v5.11L183,92l4.42-2.55a.33.33,0,0,0,.26.14.33.33,0,0,0,.33-.33.32.32,0,0,0-.3-.32V83.88l4.39-2.54a.32.32,0,0,0,.27.14.3.3,0,0,0,.26-.14L197,83.88v5.41l4.42,2.55a.28.28,0,0,0,0,.13.33.33,0,0,0,.3.33v5.07l-4.39,2.53a.35.35,0,0,0-.27-.14.33.33,0,0,0,0,.65v5.1l4.42,2.55a.32.32,0,0,0,0,.14.32.32,0,0,0,.33.32.32.32,0,0,0,.32-.32.32.32,0,0,0,0-.14l4.42-2.55v-5.1a.33.33,0,0,0,.29-.32.32.32,0,0,0,0-.14l4.42-2.55V92l4.39-2.53a.35.35,0,0,0,.27.14.32.32,0,0,0,.32-.33.32.32,0,0,0-.3-.32V83.88l4.66-2.69,4.39,2.53a.35.35,0,0,0,0,.14.32.32,0,0,0,.3.32v5.11l4.41,2.55a.28.28,0,0,0,0,.13.33.33,0,0,0,.3.33v5.07l-4.68,2.7v5.1a.33.33,0,0,0-.3.32.32.32,0,0,0,.32.33.32.32,0,0,0,.27-.14l4.42,2.55,4.71-2.72v-5.1a.33.33,0,0,0,.3-.32.32.32,0,0,0,0-.14l4.38-2.53,4.66,2.68v5.41l4.71,2.72,4.42-2.55a.32.32,0,0,0,.27.14.3.3,0,0,0,.26-.14l4.39,2.53v5.08a.32.32,0,0,0,0,.64.32.32,0,0,0,.27-.14l4.41,2.55,4.69-2.7,4.39,2.53a.35.35,0,0,0,0,.14.32.32,0,0,0,.32.33.33.33,0,0,0,.33-.33.35.35,0,0,0,0-.14l4.41-2.55v-5.44L272,105.46,267.56,108a.33.33,0,0,0-.26-.14.35.35,0,0,0-.27.14l-4.39-2.53v-5.07a.33.33,0,0,0,0-.65.33.33,0,0,0-.26.14l-4.42-2.55-4.68,2.7-4.39-2.53a.32.32,0,0,0-.27-.46V92l-4.68-2.71V84.18a.32.32,0,0,0,0-.64.34.34,0,0,0-.27.13l-4.42-2.55-4.41,2.55a.34.34,0,0,0-.27-.13.3.3,0,0,0-.26.13l-4.39-2.53V75.77l4.39-2.54a.29.29,0,0,0,.26.14.32.32,0,0,0,.27-.14l4.41,2.55,4.72-2.72V68a.33.33,0,0,0,0-.65.35.35,0,0,0-.27.14l-4.42-2.55-4.68,2.7-4.39-2.53a.32.32,0,0,0,0-.14.32.32,0,0,0-.32-.32.32.32,0,0,0-.33.32.32.32,0,0,0,0,.14l-4.41,2.55V73l-4.39,2.53a.33.33,0,0,0-.54,0L215.78,73l-4.72,2.72v5.11a.32.32,0,0,0-.29.32.28.28,0,0,0,0,.13l-4.39,2.54L202,81.29a.28.28,0,0,0,0-.13.32.32,0,0,0-.3-.32V75.77l4.39-2.54a.32.32,0,0,0,.27.14.32.32,0,0,0,.32-.32.33.33,0,0,0-.29-.33v-5.1L202,65.07a.32.32,0,0,0,0-.14.32.32,0,0,0-.32-.32.32.32,0,0,0-.33.32.32.32,0,0,0,0,.14L197,67.62V73l-4.65,2.69L187.7,73V68a.33.33,0,0,0,.3-.32.33.33,0,0,0-.33-.33.33.33,0,0,0-.26.14L183,64.92V59.85a.34.34,0,0,0,.3-.33.28.28,0,0,0,0-.13l4.42-2.55V51.4h0l-4.41-2.55a.28.28,0,0,0,0-.13.33.33,0,0,0-.66,0,.28.28,0,0,0,0,.13l-4.42,2.56v5.4l-4.39,2.54a.32.32,0,0,0-.59.18.33.33,0,0,0,.29.33v5.07l-4.39,2.53a.31.31,0,0,0-.26-.14.33.33,0,0,0,0,.65V73l-4.39,2.53a.33.33,0,0,0-.27-.14.34.34,0,0,0-.26.14L159.6,73V67.62l-4.42-2.55a.32.32,0,0,0,0-.14.32.32,0,0,0-.29-.32v-5.1L150.5,57a.32.32,0,0,0-.27-.46V51.4h0l-4.4-2.55a.5.5,0,0,0,0-.13.33.33,0,0,0-.66,0,.28.28,0,0,0,0,.13l-4.39,2.54-4.66-2.69V43.62a.32.32,0,0,0,.27-.46l4.39-2.53,4.68,2.7,4.42-2.55a.3.3,0,0,0,.26.14.33.33,0,0,0,.33-.33.33.33,0,0,0-.3-.32V35.2l4.39-2.53a.35.35,0,0,0,.27.14.32.32,0,0,0,.32-.33.32.32,0,0,0-.29-.32v-5.1h0l-4.7-2.71-4.41,2.55a.32.32,0,0,0-.27-.14.32.32,0,0,0-.33.32.34.34,0,0,0,.3.33v5.07L141.1,35a.33.33,0,0,0-.26-.14.35.35,0,0,0-.27.14l-4.42-2.55-4.71,2.72v5.41l-4.39,2.53a.33.33,0,0,0-.26-.14.35.35,0,0,0-.27.14l-4.42-2.55-4.71,2.72v5.41l-4.66,2.69-4.38-2.54a.5.5,0,0,0,0-.13.33.33,0,0,0-.3-.33V43.32l4.39-2.54a.3.3,0,0,0,.26.14.33.33,0,0,0,.33-.33.33.33,0,0,0-.3-.32v-5.1h0l-4.7-2.71L103.63,35a.33.33,0,0,0-.26-.14.33.33,0,0,0-.33.33.32.32,0,0,0,.3.32v5.07L99,43.11a.35.35,0,0,0-.27-.14.33.33,0,0,0-.26.14L94,40.58V35.51a.33.33,0,0,0,.3-.32.33.33,0,0,0-.33-.33.35.35,0,0,0-.27.14l-4.39-2.53V27.09l4.39-2.53a.35.35,0,0,0,.27.14.33.33,0,0,0,.33-.33.33.33,0,0,0-.3-.32V19h0l-4.4-2.55a.28.28,0,0,0,0-.13.32.32,0,0,0-.32-.33.33.33,0,0,0-.33.33.28.28,0,0,0,0,.13L84.6,19v5.4l-4.39,2.54a.29.29,0,0,0-.26-.14.33.33,0,0,0-.33.33.33.33,0,0,0,.3.32v5.07l-4.68,2.7v5.41l-4.39,2.53a.35.35,0,0,0-.27-.14.31.31,0,0,0-.26.14l-4.39-2.53V35.17h0l-4.4-2.54a.32.32,0,0,0,0-.14.33.33,0,0,0-.3-.32V27.09l4.39-2.53a.35.35,0,0,0,.27.14.32.32,0,0,0,.32-.33.32.32,0,0,0-.29-.32V19h0l-4.7-2.72L56.8,18.78a.33.33,0,0,0-.54,0l-4.39-2.54V11.17a.32.32,0,0,0,.3-.32.32.32,0,0,0-.32-.33.35.35,0,0,0-.27.14L47.19,8.13V3.06a.32.32,0,0,0,.3-.32.33.33,0,0,0-.33-.33.33.33,0,0,0-.26.14L42.48,0,37.77,2.72v5.1a.33.33,0,0,0-.3.33.31.31,0,0,0,0,.13l-4.42,2.55v5.11a.32.32,0,0,0,0,.64.34.34,0,0,0,.27-.13L37.79,19l4.42-2.55a.34.34,0,0,0,.27.13.3.3,0,0,0,.26-.13L47.13,19v5.07a.32.32,0,0,0-.29.32.32.32,0,0,0,.32.33.35.35,0,0,0,.27-.14l4.39,2.53v5.07a.33.33,0,0,0-.3.32.32.32,0,0,0,0,.14l-4.42,2.55v5.1a.33.33,0,0,0-.29.33.31.31,0,0,0,0,.13l-4.39,2.54-4.66-2.69V35.51a.32.32,0,0,0,.3-.32.32.32,0,0,0-.32-.33.35.35,0,0,0-.27.14l-4.42-2.55L28.69,35a.33.33,0,0,0-.26-.14.35.35,0,0,0-.27.14l-4.39-2.53V27.4a.33.33,0,0,0,.3-.33.32.32,0,0,0-.33-.32.3.3,0,0,0-.26.14l-4.42-2.55L14.38,27,10,24.51a.32.32,0,0,0,0-.14.32.32,0,0,0-.33-.32.32.32,0,0,0-.32.32.32.32,0,0,0,0,.14L5,27.06v5.41L.59,35a.33.33,0,0,0-.27-.14.33.33,0,0,0-.32.33A.32.32,0,0,0,.3,35.51Zm23.15-8.57a.31.31,0,0,0,0,.13.33.33,0,0,0,.3.33v5.07l-2.33,1.34-2.33,1.34L14.4,32.47V27.09l4.66-2.69Zm35.41,6.87-2.33,1.34-4.39-2.53a.33.33,0,0,0-.26-.46V27.09l3.85-2.23.8-.46.29.17,4.36,2.52v5.07a.33.33,0,0,0-.26.46ZM37.53,8.33a.31.31,0,0,0,.27.14.3.3,0,0,0,.26-.14l4.39,2.54v5.07a.32.32,0,0,0-.3.32.28.28,0,0,0,0,.13l-4.39,2.54-4.38-2.54a.28.28,0,0,0,0-.13.32.32,0,0,0-.3-.32V10.87ZM46.87,2.6a.33.33,0,0,0,.26.46V8.13L44.81,9.47l-2.33,1.35L38.09,8.28a.31.31,0,0,0,0-.13.33.33,0,0,0-.3-.33V2.75L42.48.07Zm4.68,8.11a.32.32,0,0,0,.27.46v5.07l-4.66,2.69-4.39-2.54a.28.28,0,0,0,0-.13.32.32,0,0,0-.29-.32V10.87l2.32-1.35,2.33-1.34Zm4.69,8.12a.28.28,0,0,0,0,.13.33.33,0,0,0,.3.33v5.06L51.85,27l-4.39-2.53a.32.32,0,0,0-.27-.46V19l3.46-2,1.2-.69Zm9.33,5.54a.32.32,0,0,0,0,.14L61.21,27l-3.92-2.27-.73-.42V19.29a.34.34,0,0,0,.3-.33.28.28,0,0,0,0-.13l4.39-2.54L65.87,19v5.07A.32.32,0,0,0,65.57,24.37Zm14.7,2.71a.32.32,0,0,0,0-.14l4.39-2.54,4.66,2.69v5.38L87,33.81,84.9,35a.35.35,0,0,0-.27-.14.33.33,0,0,0-.26.14l-1-.56-3.42-2V27.4A.32.32,0,0,0,80.27,27.08Zm13.4-2.71a.37.37,0,0,0,0,.14L89.32,27l-4.66-2.69V19l4.39-2.54a.33.33,0,0,0,.53,0L94,19v5.07A.32.32,0,0,0,93.67,24.37ZM99,43.3a.32.32,0,0,0,0-.14l4.39-2.53L108,43.32v5.06a.33.33,0,0,0-.29.33.28.28,0,0,0,0,.13L105.69,50l-2.32,1.34-4.66-2.69V43.62A.32.32,0,0,0,99,43.3Zm13.4-2.71a.32.32,0,0,0,0,.14l-4.39,2.54-4.65-2.69V35.51a.33.33,0,0,0,.26-.46l4.39-2.53,4.66,2.68v5.07A.33.33,0,0,0,112.41,40.59Zm42.15-8.11a.32.32,0,0,0,0,.14l-4.39,2.53-4.65-2.68V27.4a.34.34,0,0,0,.3-.33.61.61,0,0,0,0-.13l4.38-2.54,4.66,2.69v5.07A.32.32,0,0,0,154.56,32.48Zm-9,10.79-4.65-2.69V35.51a.33.33,0,0,0,.26-.46l4.39-2.53,4.66,2.68v5.07a.33.33,0,0,0-.3.32.32.32,0,0,0,0,.14Zm-9.1-.16a.35.35,0,0,0-.27-.14.33.33,0,0,0-.26.14l-4.39-2.53V35.2l4.65-2.68,4.39,2.53a.32.32,0,0,0,.27.46v5.07Zm18.44,16.43v5.07a.33.33,0,0,0-.3.32.32.32,0,0,0,0,.14l-2.06,1.19L150.2,67.6l-4.65-2.68V59.54l2.6-1.5,1.79-1a.33.33,0,0,0,.26.14.35.35,0,0,0,.27-.14Zm19.09,0a.28.28,0,0,0,0-.13l4.39-2.54,4.39,2.54a.28.28,0,0,0,0,.13.34.34,0,0,0,.3.33v5.07l-2.33,1.34-2.06,1.19a.33.33,0,0,0-.26-.14.35.35,0,0,0-.27.14l-.32-.18-4.07-2.35V59.85A.33.33,0,0,0,174,59.52Zm9.31-.18a.33.33,0,0,0-.54,0l-4.39-2.54V51.43l4.39-2.54a.33.33,0,0,0,.54,0l4.39,2.54V56.8Zm22.82,13.71a.31.31,0,0,0,0,.13l-4.38,2.54-4.5-2.6-.16-.09V67.65l4.39-2.53a.35.35,0,0,0,.27.14.34.34,0,0,0,.26-.14l4.39,2.53v5.07A.33.33,0,0,0,206.08,73.05Zm28.73.13a.31.31,0,0,0,0-.13.33.33,0,0,0-.3-.33V67.65L239.19,65l4.39,2.53a.58.58,0,0,0,0,.14.33.33,0,0,0,.3.32V73l-4.66,2.69Zm-.62-.13a.31.31,0,0,0,0,.13l-4.39,2.54-4.4-2.54-.26-.15V67.65l4.39-2.53a.35.35,0,0,0,.27.14.31.31,0,0,0,.26-.14l4.39,2.53v5.07A.33.33,0,0,0,234.19,73.05Zm9.39,10.67a.35.35,0,0,0,0,.14.32.32,0,0,0,.3.32v5.07l-2.33,1.35-2.06,1.19a.32.32,0,0,0-.27-.14.3.3,0,0,0-.26.14l-2.06-1.19-2.33-1.35V84.18a.32.32,0,0,0,.3-.32.35.35,0,0,0,0-.14l4.38-2.53ZM248.53,92v5.07a.33.33,0,0,0-.26.46l-2.06,1.19-2.33,1.34-4.66-2.68V92.3a.33.33,0,0,0,.3-.33.28.28,0,0,0,0-.13l2.06-1.19,2.33-1.35Zm23.19,24.13-4.39-2.53v-5.07a.33.33,0,0,0,.26-.46l4.39-2.53,4.66,2.68v5.38l-4.39,2.53A.34.34,0,0,0,272,116,.3.3,0,0,0,271.72,116.12Zm-13.5-2.38a.28.28,0,0,0,0-.13.32.32,0,0,0-.29-.32v-5.08l.77-.44,3.88-2.24,4.39,2.53a.32.32,0,0,0,.27.46v5.07l-4.66,2.69Zm-4.68-8.11a.32.32,0,0,0,0-.14.33.33,0,0,0-.3-.32V100.1l4.66-2.68,4.39,2.53a.32.32,0,0,0,0,.14.33.33,0,0,0,.29.32v5.07l-1.66,1-3,1.73Zm-9.63-.15V100.1l2.33-1.34,2.06-1.19a.31.31,0,0,0,.26.14.35.35,0,0,0,.27-.14l4.39,2.53v5.07a.33.33,0,0,0-.3.32.32.32,0,0,0,0,.14l-4.39,2.54Zm-9.13-5.58a.35.35,0,0,0-.27-.14.31.31,0,0,0-.26.14l-2.07-1.19-2.32-1.34V92.3a.33.33,0,0,0,.29-.33.28.28,0,0,0,0-.13l4.39-2.54,2.33,1.35,2.06,1.19a.28.28,0,0,0,0,.13.33.33,0,0,0,.3.33v5.07Zm-9.61.2,4.66-2.68,2.33,1.34,2.06,1.19a.32.32,0,0,0,0,.14.33.33,0,0,0,.29.32v5.07l-4.65,2.69-4.39-2.54a.32.32,0,0,0,0-.14.33.33,0,0,0-.3-.32Zm0-10.85V84.18a.32.32,0,0,0,.3-.32.35.35,0,0,0,0-.14l2.06-1.19,2.33-1.34,4.39,2.53a.35.35,0,0,0,0,.14.32.32,0,0,0,.29.32v5.07l-.9.53-3.49,2a.29.29,0,0,0-.26-.14.32.32,0,0,0-.27.14Zm-.29-5.58-4.39-2.53V76.07a.31.31,0,0,0,.26-.46l4.39-2.53,4.66,2.69v5.37l-2.33,1.34-2.06,1.19a.34.34,0,0,0-.27-.13A.32.32,0,0,0,224.88,83.67Zm-4.45-2.53-4.65,2.69-2.33-1.35-2.06-1.19a.28.28,0,0,0,0-.13.32.32,0,0,0-.3-.32V75.77l4.66-2.69,4.38,2.53a.58.58,0,0,0,0,.14.33.33,0,0,0,.3.32Zm-5,8.13a.35.35,0,0,0,0,.14l-4.39,2.53-2.33-1.34-2.32-1.35V83.88l4.39-2.54a.3.3,0,0,0,.26.14.32.32,0,0,0,.27-.14l2.06,1.19,2.33,1.35V89A.32.32,0,0,0,215.45,89.27ZM206.67,99.9a.31.31,0,0,0-.26-.14.35.35,0,0,0-.27.14l-4.39-2.53V92.3a.33.33,0,0,0,.3-.33.28.28,0,0,0,0-.13l4.39-2.54,2.33,1.35L211.06,92v5.38Zm-9.3.19a.32.32,0,0,0,0-.14l4.39-2.53.79.46,3.59,2.07a.32.32,0,0,0,0,.14.33.33,0,0,0,.3.32v5.07L202,108a.34.34,0,0,0-.26-.14.35.35,0,0,0-.27.14l-4.39-2.53v-5.07A.33.33,0,0,0,197.37,100.09Zm-.3-10.84V83.88l2.33-1.35,2.06-1.19a.31.31,0,0,0,.26.14.32.32,0,0,0,.27-.14l4.39,2.54v5.37l-.39.23-4,2.31a.32.32,0,0,0-.27-.14.31.31,0,0,0-.26.14Zm-4.42-8a.28.28,0,0,0,0-.13.32.32,0,0,0-.29-.32V75.77L197,73.08l4.66,2.69v5.07a.32.32,0,0,0-.3.32.28.28,0,0,0,0,.13l-2.06,1.19L197,83.83Zm-.62-.13a.28.28,0,0,0,0,.13l-4.39,2.54L183,81.14V76.07a.31.31,0,0,0,.26-.46l4.39-2.53,4.66,2.69v5.07A.32.32,0,0,0,192,81.16Zm-13.4,2.7a.35.35,0,0,0,0-.14L183,81.19l4.06,2.34.6.35V89a.32.32,0,0,0-.3.32.35.35,0,0,0,0,.14L183,91.94l-4.66-2.69V84.18A.32.32,0,0,0,178.63,83.86Zm4.09-8.3L178.33,73V68a.33.33,0,0,0,.3-.32.32.32,0,0,0,0-.14l2.06-1.19L183,65l4.39,2.53a.32.32,0,0,0,0,.14.33.33,0,0,0,.3.32V73l-.57.33-3.82,2.2a.33.33,0,0,0-.54,0Zm-8.83,0a.35.35,0,0,0-.27-.14.31.31,0,0,0-.26.14l-2.07-1.19L169,73V68a.32.32,0,0,0,.29-.32.32.32,0,0,0,0-.14L173.62,65,178,67.5a.32.32,0,0,0,0,.14.33.33,0,0,0,.3.32V73Zm-4.69,8.11a.3.3,0,0,0-.26-.13.34.34,0,0,0-.27.13l-4-2.33-.35-.2V76.07a.32.32,0,0,0,.27-.46l4.39-2.53,2.33,1.34,2.06,1.19a.33.33,0,0,0,.26.46v5.07Zm-9.6,5.58V84.18a.32.32,0,0,0,.3-.32.35.35,0,0,0,0-.14l4.38-2.53,4.39,2.53a.35.35,0,0,0,0,.14.33.33,0,0,0,.3.32v5.07l-4.39,2.54a.31.31,0,0,0-.27-.14.31.31,0,0,0-.26.14Zm-4.68-8.11V76.07a.33.33,0,0,0,.26-.46l2.06-1.19,2.33-1.34L164,75.61a.32.32,0,0,0,.27.46v5.07l-.65.38-3.74,2.15a.34.34,0,0,0-.27-.13.3.3,0,0,0-.26.13Zm-.3-5.58L150.23,73V67.65l2.33-1.34,2.06-1.19a.35.35,0,0,0,.27.14.31.31,0,0,0,.26-.14l4.39,2.53V73l-2.32,1.34-2.07,1.19a.31.31,0,0,0-.26-.14A.35.35,0,0,0,154.62,75.56Zm-32.19,8.3a.35.35,0,0,0,0-.14l4.39-2.53,4.65,2.69V89a.32.32,0,0,0-.3.32.7.7,0,0,0,0,.14l-4.38,2.53-4.66-2.69V84.18A.32.32,0,0,0,122.43,83.86Zm9.3-10.63,4.39,2.54v5.07a.32.32,0,0,0-.29.32.28.28,0,0,0,0,.13l-4.39,2.54-3.54-2-1.12-.64V75.77l4.39-2.54a.32.32,0,0,0,.27.14A.29.29,0,0,0,131.73,73.23Zm4.45,2.54,4.66-2.69,2.33,1.34,2.32,1.35v5.07a.33.33,0,0,0-.3.32.28.28,0,0,0,0,.13l-4.39,2.54-4.39-2.54a.28.28,0,0,0,0-.13.32.32,0,0,0-.3-.32Zm5-8.13a.32.32,0,0,0,0-.14L145.52,65l3.72,2.14.94.54V73l-4.66,2.69-2.33-1.35L140.87,73V68A.32.32,0,0,0,141.16,67.64Zm0-10.68a.33.33,0,0,0-.26-.46V51.43l4.38-2.54a.33.33,0,0,0,.54,0l4.39,2.54V56.5a.32.32,0,0,0-.27.46l-4.39,2.53Zm-9.63-.16V51.73a.32.32,0,0,0,.29-.32.28.28,0,0,0,0-.13l2.07-1.19,2.32-1.35,4.66,2.69V56.5a.32.32,0,0,0-.27.46l-4.39,2.53Zm-.3-5.57-4.39-2.54V43.62a.32.32,0,0,0,.27-.46l4.39-2.53,4.39,2.53a.33.33,0,0,0,.26.46v5.07L133.8,50l-2.07,1.19a.29.29,0,0,0-.26-.14A.32.32,0,0,0,131.2,51.23Zm-8.83,0a.32.32,0,0,0-.27-.14.29.29,0,0,0-.26.14l-4.39-2.54V43.32l4.65-2.69,4.39,2.53a.32.32,0,0,0,.27.46v5.07Zm-.3,5.57-4.65,2.69L113,57a.32.32,0,0,0-.27-.46V51.43l4.66-2.69,4.39,2.54a.28.28,0,0,0,0,.13.32.32,0,0,0,.29.32Zm-5,8.13a.32.32,0,0,0,0,.14l-4.39,2.53-3.54-2-1.11-.64V59.54l2.59-1.5,1.8-1a.33.33,0,0,0,.26.14A.35.35,0,0,0,113,57l1.29.74,3.1,1.79v5.07A.33.33,0,0,0,117.09,64.93Zm-13.4,2.71a.32.32,0,0,0,0-.14L108.05,65l4.66,2.68v5.07a.33.33,0,0,0-.3.33.31.31,0,0,0,0,.13l-4.39,2.54L103.4,73V68A.32.32,0,0,0,103.69,67.64Zm-.29-16.21,2.32-1.34,2.06-1.2a.33.33,0,0,0,.54,0l4.39,2.54V56.5a.32.32,0,0,0-.27.46l-4.39,2.53L103.4,56.8Zm-9.13-.2a.33.33,0,0,0-.54,0l-4.38-2.54V43.62a.33.33,0,0,0,.26-.46l3.2-1.85L94,40.63l4.39,2.53a.33.33,0,0,0,.26.46v5.07Zm-9.61.2,4.66-2.69,4.39,2.54a.28.28,0,0,0,0,.13.32.32,0,0,0,.3.32V56.8l-4.65,2.69L84.93,57a.32.32,0,0,0-.27-.46Zm4.39-8.32-4.39-2.53V35.51a.32.32,0,0,0,.27-.46L87,33.86l2.33-1.34,4.39,2.53a.33.33,0,0,0,0,.14.32.32,0,0,0,.3.32v5.07l-4.39,2.53a.33.33,0,0,0-.26-.14A.35.35,0,0,0,89.05,43.11ZM84.6,40.58,80,43.27l-4.66-2.69V35.2L80,32.52l2.87,1.65,1.52.88a.33.33,0,0,0,.26.46Zm-5,8.13a.28.28,0,0,0,0,.13l-4.38,2.54-4.66-2.69V43.62a.32.32,0,0,0,.27-.46l4.39-2.53,4.65,2.69v5.06A.33.33,0,0,0,79.62,48.71ZM65.93,56.8V51.73a.32.32,0,0,0,.29-.32.28.28,0,0,0,0-.13l2.06-1.19,2.33-1.35,4.66,2.69V56.5A.32.32,0,0,0,75,57l-4.39,2.53Zm-4.69-8.11V43.62a.32.32,0,0,0,.27-.46L63.57,42l2.33-1.34,4.39,2.53a.33.33,0,0,0,.26.46v5.07L68.23,50l-2.07,1.19a.3.3,0,0,0-.26-.14.32.32,0,0,0-.27.14ZM61,43.11l-4.39-2.53V35.2l2.33-1.34L61,32.67a.33.33,0,0,0,.26.14.35.35,0,0,0,.27-.14l4.39,2.53v5.38l-2.33,1.34-2.06,1.19a.35.35,0,0,0-.27-.14A.33.33,0,0,0,61,43.11ZM56.5,40.58l-4.65,2.69-4.39-2.54a.31.31,0,0,0,0-.13.33.33,0,0,0-.3-.33V35.2l4.39-2.53a.35.35,0,0,0,.27.14.33.33,0,0,0,.26-.14L56.5,35.2Zm-5,8.13a.28.28,0,0,0,0,.13l-4.39,2.54-4.65-2.69V43.32l4.39-2.54a.3.3,0,0,0,.26.14.32.32,0,0,0,.27-.14l4.39,2.54v5.06A.33.33,0,0,0,51.52,48.71ZM37.82,56.8V51.73a.32.32,0,0,0,.3-.32.28.28,0,0,0,0-.13l3.79-2.2.6-.34,4.65,2.69V56.8l-4.39,2.54a.29.29,0,0,0-.26-.14.32.32,0,0,0-.27.14Zm-4.68-8.11V43.62a.32.32,0,0,0,.27-.46l4.39-2.53,4.65,2.69v5.37l-4.39,2.54a.31.31,0,0,0-.27-.14.3.3,0,0,0-.26.14Zm-.29-5.58-4.39-2.53V35.51a.33.33,0,0,0,.26-.46l4.39-2.53,4.39,2.53a.32.32,0,0,0,.27.46v5.07l-1.5.86-2.89,1.67a.35.35,0,0,0-.27-.14A.31.31,0,0,0,32.85,43.11Zm-13.5-2.38a.33.33,0,0,0,0-.14.33.33,0,0,0-.3-.32V35.2l2.33-1.34,2.32-1.34,4.39,2.53a.32.32,0,0,0,.27.46v5.07l-4.66,2.69ZM10,35a.35.35,0,0,0-.27-.14.33.33,0,0,0-.26.14L5,32.47V27.09l4.39-2.53a.33.33,0,0,0,.26.14.35.35,0,0,0,.27-.14l4.39,2.53v5.38ZM.35,40.58V35.51a.32.32,0,0,0,.27-.46L5,32.52,9.4,35.05a.33.33,0,0,0,.26.46v5.07L5.27,43.11A.31.31,0,0,0,5,43a.35.35,0,0,0-.27.14Z"/></g></g></svg>